<svg xmlns="http://www.w3.org/2000/svg" viewBox="0 0 102.7 102.7"><defs><style>.cls-1{fill:#36bcee;}.cls-2{fill:#fff;}</style></defs><title>Asset 2</title><g id="Layer_2" data-name="Layer 2"><g id="_1977" data-name="1977"><circle class="cls-1" cx="51.35" cy="51.35" r="48.65"/><path class="cls-2" d="M51.35,5.41A45.95,45.95,0,1,1,5.41,51.35,45.94,45.94,0,0,1,51.35,5.41m0-5.41A51.35,51.35,0,1,0,102.7,51.35,51.41,51.41,0,0,0,51.35,0Z"/><path class="cls-2" d="M67.83,59.54c.1-6.92-4.1-11.55-12.65-14.44a30.16,30.16,0,0,1-6.09-2.82c-1.17-.85-1.32-1.27-1.35-1.86a1.89,1.89,0,0,1,.75-1.58,6.37,6.37,0,0,1,3.84-.91,21.72,21.72,0,0,1,9.53,2.27l1.53.64,2.73-10.65-1.05-.51a25.8,25.8,0,0,0-9.35-2.36V21.07H46V28c-7.29,1.79-11.87,7-11.83,13.61a11.8,11.8,0,0,0,3.95,9.06,26.59,26.59,0,0,0,9.62,5.11A17.63,17.63,0,0,1,53,58.25a2.68,2.68,0,0,1,1.23,2.27,2.21,2.21,0,0,1-1.18,2,8.11,8.11,0,0,1-4.11.91A23.25,23.25,0,0,1,38,60.53l-1.62-.89-2.82,11,.94.54a28.46,28.46,0,0,0,11.19,3.11v6.75h9.72v-7.4C63.23,71.91,67.88,66.17,67.83,59.54Z"/></g></g></svg>