<svg xmlns="http://www.w3.org/2000/svg" viewBox="0 0 314.11 435.65"><defs><style>.cls-1,.cls-4{fill:#fff;}.cls-2{fill:#022544;}.cls-3{fill:#d3d800;}.cls-4{font-size:38.76px;font-family:AvenirNextLTPro-Bold, AvenirNextLTPro Bold;font-weight:700;}.cls-5{font-size:15.61px;}</style></defs><title>Asset 20</title><g id="Layer_2" data-name="Layer 2"><g id="battery"><rect class="cls-1" x="101.75" y="226.97" width="121.5" height="282" transform="translate(-205.47 530.47) rotate(-90)"/><path class="cls-2" d="M162,299.42q65.45,0,130.9,0c14.35,0,18.37,4.17,18.36,18.57q0,50.64,0,101.28c0,11.41-4.63,16.3-15.89,16.3q-133.23.1-266.46,0c-10.3,0-15-4.88-15.45-15.33-.18-4.67-.21-9.36-.05-14,.22-6,.52-11.22-7.07-14.21C3.22,390.85,1,384.54.51,380.33c-.89-8.48-.36-17.12-.27-25.69.06-6.25,3-10.61,8.54-13.8a10,10,0,0,0,4.4-6.53c.66-5.37.17-10.88.22-16.34.13-14.61,4-18.57,18.48-18.57q65,0,130.1,0ZM297.27,421.85a17.29,17.29,0,0,0,.7-3.27c0-33.49,0-67,.18-100.46,0-6.09-3.58-5.74-7.64-5.74q-128.11,0-256.22-.11c-6.13,0-8,1.72-8,7.92.28,27,.07,54,.05,81,0,6.69,0,13.38,0,20.67Z"/><path class="cls-3" d="M27,312.27c-.41,0-.54,1.72-.54,7.92q0,40.49,0,81v20.67H44.93c0-1.31,0-2.29,0-3.27q0-50.24,0-100.46c0-6.09-.25-5.74-.52-5.74C38.66,312.4,32.85,312.45,27,312.27Z"/><path class="cls-3" d="M50,312.27c-.41,0-.54,1.72-.54,7.92q0,40.49,0,81v20.67H67.93c0-1.31,0-2.29,0-3.27q0-50.24,0-100.46c0-6.09-.24-5.74-.52-5.74C61.66,312.4,55.85,312.45,50,312.27Z"/><path class="cls-3" d="M73,312.27c-.41,0-.54,1.72-.54,7.92q0,40.49,0,81v20.67H90.93c0-1.31,0-2.29,0-3.27q0-50.24,0-100.46c0-6.09-.24-5.74-.52-5.74C84.66,312.4,78.85,312.45,73,312.27Z"/><path class="cls-3" d="M96.05,312.27c-.42,0-.55,1.72-.55,7.92q0,40.49,0,81v20.67h18.42c0-1.31,0-2.29,0-3.27q0-50.24,0-100.46c0-6.09-.24-5.74-.52-5.74C107.66,312.4,101.85,312.45,96.05,312.27Z"/><path class="cls-3" d="M119.05,312.27c-.42,0-.55,1.72-.55,7.92q0,40.49,0,81v20.67h18.42c0-1.31,0-2.29,0-3.27q0-50.24,0-100.46c0-6.09-.24-5.74-.52-5.74C130.66,312.4,124.86,312.45,119.05,312.27Z"/><path class="cls-3" d="M142.05,312.27c-.42,0-.55,1.72-.54,7.92q0,40.49,0,81v20.67h18.42c0-1.31,0-2.29,0-3.27q0-50.24,0-100.46c0-6.09-.24-5.74-.52-5.74C153.66,312.4,147.86,312.45,142.05,312.27Z"/><path class="cls-3" d="M165.05,312.27c-.42,0-.55,1.72-.54,7.92q0,40.49,0,81v20.67h18.42c0-1.31,0-2.29,0-3.27q0-50.24,0-100.46c0-6.09-.24-5.74-.52-5.74C176.67,312.4,170.86,312.45,165.05,312.27Z"/><path class="cls-3" d="M188.05,312.27c-.42,0-.55,1.72-.54,7.92q0,40.49,0,81v20.67h18.43c0-1.31,0-2.29,0-3.27q0-50.24,0-100.46c0-6.09-.25-5.74-.52-5.74C199.67,312.4,193.86,312.45,188.05,312.27Z"/><path class="cls-3" d="M211.05,312.27c-.42,0-.54,1.72-.54,7.92q0,40.49,0,81v20.67h18.43c0-1.31,0-2.29,0-3.27q0-50.24,0-100.46c0-6.09-.25-5.74-.52-5.74C222.67,312.4,216.86,312.45,211.05,312.27Z"/><path class="cls-3" d="M234.05,312.27c-.41,0-.54,1.72-.54,7.92q0,40.49,0,81v20.67h18.43c0-1.31.05-2.29.05-3.27q0-50.24,0-100.46c0-6.09-.25-5.74-.52-5.74C245.67,312.4,239.86,312.45,234.05,312.27Z"/><path class="cls-3" d="M257.05,312.27c-.41,0-.54,1.72-.54,7.92q0,40.49,0,81c0,6.69,0,13.38,0,20.67h18.42c0-1.31.05-2.29.05-3.27q0-50.24,0-100.46c0-6.09-.24-5.74-.52-5.74C268.67,312.4,262.86,312.45,257.05,312.27Z"/><path class="cls-3" d="M280.05,312.27c-.41,0-.54,1.72-.54,7.92q0,40.49,0,81v20.67h18.42c0-1.31.05-2.29.05-3.27q0-50.24,0-100.46c0-6.09-.24-5.74-.52-5.74C291.67,312.4,285.86,312.45,280.05,312.27Z"/><g id="_Group_" data-name="&lt;Group&gt;"><path class="cls-3" d="M29.2,249.76h43c0,.19,0,.37,0,.56A8.63,8.63,0,0,0,80.84,259l.55,0v7.64c-.21,0-.42,0-.63,0a8.63,8.63,0,0,0-8.63,8.63c0,.16,0,.32,0,.48H29.24c0-.32.05-.64.05-1a8.63,8.63,0,0,0-8.63-8.63l-.56,0v-7.23h.48a8.63,8.63,0,0,0,8.63-8.63C29.21,250.08,29.21,249.92,29.2,249.76Zm22.47,4.88a8.63,8.63,0,1,0,8.63,8.63A8.63,8.63,0,0,0,51.67,254.64Z"/><path class="cls-2" d="M15.23,280.68V244.74H86v35.94Zm55.51-6.46A10.07,10.07,0,0,1,80,265.15v-4.8a10.08,10.08,0,0,1-9.15-9.15H30.6a10.08,10.08,0,0,1-9.07,9.06v4.41a10.08,10.08,0,0,1,9.18,9.55Z"/><path class="cls-1" d="M84.59,246.17v33.08H16.67V246.17H84.59m-12.37,3.59h-43c0,.16,0,.32,0,.48a8.63,8.63,0,0,1-8.63,8.63H20.1v7.23l.56,0a8.63,8.63,0,0,1,8.63,8.63c0,.32,0,.64-.05,1h42.9c0-.16,0-.32,0-.48a8.63,8.63,0,0,1,8.63-8.63c.21,0,.42,0,.63,0v-7.64l-.55,0a8.63,8.63,0,0,1-8.64-8.63c0-.19,0-.37,0-.56m15.23-6.45H13.8v38.8H87.45v-38.8Zm-55.62,9.32H69.57a11.52,11.52,0,0,0,9,8.95v2.32a11.52,11.52,0,0,0-9,8.89H32a11.55,11.55,0,0,0-9-9.36v-1.94a11.54,11.54,0,0,0,8.86-8.86Z"/><circle class="cls-2" cx="51.67" cy="263.27" r="8.63"/></g><g id="_Group_2" data-name="&lt;Group&gt;"><path class="cls-3" d="M29.2,209.36h43c0,.19,0,.38,0,.56a8.63,8.63,0,0,0,8.63,8.63l.55,0v7.64l-.63,0a8.63,8.63,0,0,0-8.63,8.63c0,.16,0,.32,0,.48H29.24c0-.32.05-.64.05-1a8.63,8.63,0,0,0-8.63-8.63l-.56,0v-7.23h.48a8.63,8.63,0,0,0,8.63-8.63C29.21,209.68,29.21,209.52,29.2,209.36Zm22.47,4.88a8.63,8.63,0,1,0,8.63,8.63A8.63,8.63,0,0,0,51.67,214.24Z"/><path class="cls-2" d="M15.23,240.28V204.34H86v35.94Zm55.51-6.46A10.08,10.08,0,0,1,80,224.74V220a10.08,10.08,0,0,1-9.15-9.15H30.6a10.08,10.08,0,0,1-9.07,9.06v4.41a10.08,10.08,0,0,1,9.18,9.55Z"/><path class="cls-1" d="M84.59,205.77v33.08H16.67V205.77H84.59m-12.37,3.59h-43c0,.16,0,.32,0,.48a8.63,8.63,0,0,1-8.63,8.63H20.1v7.23l.56,0a8.63,8.63,0,0,1,8.63,8.63c0,.32,0,.64-.05,1h42.9c0-.16,0-.32,0-.48a8.63,8.63,0,0,1,8.63-8.63l.63,0v-7.64l-.55,0a8.63,8.63,0,0,1-8.64-8.63c0-.19,0-.37,0-.56m15.23-6.45H13.8v38.8H87.45v-38.8Zm-55.62,9.32H69.57a11.55,11.55,0,0,0,9,9v2.31a11.54,11.54,0,0,0-9,8.89H32A11.52,11.52,0,0,0,23,223v-1.95a11.54,11.54,0,0,0,8.86-8.86Z"/><circle class="cls-2" cx="51.67" cy="222.87" r="8.63"/></g><g id="_Group_3" data-name="&lt;Group&gt;"><path class="cls-3" d="M29.2,169h43c0,.19,0,.38,0,.56a8.63,8.63,0,0,0,8.63,8.63h.55v7.63l-.63,0a8.63,8.63,0,0,0-8.63,8.63c0,.16,0,.32,0,.48H29.24c0-.32.05-.64.05-1a8.63,8.63,0,0,0-8.63-8.63l-.56,0v-7.23h.48a8.63,8.63,0,0,0,8.63-8.63C29.21,169.28,29.21,169.12,29.2,169Zm22.47,4.88a8.63,8.63,0,1,0,8.63,8.63A8.63,8.63,0,0,0,51.67,173.84Z"/><path class="cls-2" d="M15.23,199.88V163.94H86v35.94Zm55.51-6.46A10.07,10.07,0,0,1,80,184.35v-4.8a10.08,10.08,0,0,1-9.15-9.15H30.6a10.08,10.08,0,0,1-9.07,9.06v4.41a10.08,10.08,0,0,1,9.18,9.55Z"/><path class="cls-1" d="M84.59,165.37v33.08H16.67V165.37H84.59M72.22,169h-43c0,.16,0,.32,0,.48a8.63,8.63,0,0,1-8.63,8.63H20.1v7.23l.56,0a8.63,8.63,0,0,1,8.63,8.63c0,.32,0,.64-.05,1h42.9c0-.16,0-.32,0-.48a8.63,8.63,0,0,1,8.63-8.63l.63,0v-7.63h-.55a8.63,8.63,0,0,1-8.64-8.63c0-.18,0-.37,0-.56m15.23-6.45H13.8v38.8H87.45v-38.8Zm-55.62,9.32H69.57a11.55,11.55,0,0,0,9,9v2.31a11.54,11.54,0,0,0-9,8.89H32a11.52,11.52,0,0,0-9-9.35v-1.95a11.54,11.54,0,0,0,8.86-8.86Z"/><circle class="cls-2" cx="51.67" cy="182.47" r="8.63"/></g><g id="_Group_4" data-name="&lt;Group&gt;"><path class="cls-3" d="M29.2,128.56h43c0,.19,0,.38,0,.56a8.63,8.63,0,0,0,8.63,8.63h.55v7.63l-.63,0A8.63,8.63,0,0,0,72.13,154c0,.16,0,.32,0,.48H29.24c0-.32.05-.64.05-1a8.63,8.63,0,0,0-8.63-8.63l-.56,0v-7.23h.48A8.63,8.63,0,0,0,29.21,129C29.21,128.88,29.21,128.72,29.2,128.56Zm22.47,4.88a8.63,8.63,0,1,0,8.63,8.63A8.63,8.63,0,0,0,51.67,133.44Z"/><path class="cls-2" d="M15.23,159.48V123.54H86v35.94ZM70.74,153A10.07,10.07,0,0,1,80,144v-4.8A10.08,10.08,0,0,1,70.81,130H30.6a10.08,10.08,0,0,1-9.07,9.06v4.41A10.08,10.08,0,0,1,30.71,153Z"/><path class="cls-1" d="M84.59,125v33.08H16.67V125H84.59m-12.37,3.59h-43c0,.16,0,.32,0,.48a8.63,8.63,0,0,1-8.63,8.63H20.1v7.23l.56,0a8.63,8.63,0,0,1,8.63,8.63c0,.32,0,.64-.05,1h42.9c0-.16,0-.32,0-.48a8.63,8.63,0,0,1,8.63-8.63l.63,0v-7.63h-.55a8.63,8.63,0,0,1-8.64-8.63c0-.18,0-.37,0-.56m15.23-6.45H13.8v38.8H87.45v-38.8Zm-55.62,9.32H69.57a11.55,11.55,0,0,0,9,9v2.31a11.54,11.54,0,0,0-9,8.89H32a11.52,11.52,0,0,0-9-9.35v-2a11.54,11.54,0,0,0,8.86-8.86Z"/><circle class="cls-2" cx="51.67" cy="142.07" r="8.63"/></g><g id="_Group_5" data-name="&lt;Group&gt;"><path class="cls-3" d="M29.2,88.16h43c0,.19,0,.38,0,.56a8.63,8.63,0,0,0,8.63,8.63h.55V105l-.63,0a8.63,8.63,0,0,0-8.63,8.63c0,.16,0,.32,0,.48H29.24c0-.32.05-.64.05-1a8.63,8.63,0,0,0-8.63-8.63l-.56,0V97.26h.48a8.63,8.63,0,0,0,8.63-8.63C29.21,88.48,29.21,88.32,29.2,88.16ZM51.67,93a8.63,8.63,0,1,0,8.63,8.63A8.63,8.63,0,0,0,51.67,93Z"/><path class="cls-2" d="M15.23,119.08V83.14H86v35.94Zm55.51-6.46A10.07,10.07,0,0,1,80,103.55v-4.8a10.08,10.08,0,0,1-9.15-9.15H30.6a10.08,10.08,0,0,1-9.07,9.06v4.41a10.08,10.08,0,0,1,9.18,9.55Z"/><path class="cls-1" d="M84.59,84.57v33.08H16.67V84.57H84.59m-12.37,3.6h-43c0,.15,0,.31,0,.47a8.63,8.63,0,0,1-8.63,8.63H20.1v7.23l.56,0a8.63,8.63,0,0,1,8.63,8.63c0,.32,0,.64-.05,1h42.9c0-.16,0-.32,0-.48A8.63,8.63,0,0,1,80.76,105l.63,0V97.34h-.55a8.63,8.63,0,0,1-8.64-8.63c0-.18,0-.37,0-.55m15.23-6.46H13.8v38.81H87.45V81.71ZM31.83,91H69.57a11.55,11.55,0,0,0,9,9v2.31a11.54,11.54,0,0,0-9,8.89H32a11.52,11.52,0,0,0-9-9.35v-2A11.54,11.54,0,0,0,31.83,91Z"/><circle class="cls-2" cx="51.67" cy="101.67" r="8.63"/></g><g id="_Group_6" data-name="&lt;Group&gt;"><path class="cls-3" d="M29.2,47.77h43c0,.18,0,.37,0,.55A8.63,8.63,0,0,0,80.84,57l.55,0v7.63l-.63,0a8.63,8.63,0,0,0-8.63,8.63c0,.16,0,.32,0,.48H29.24c0-.32.05-.64.05-1a8.63,8.63,0,0,0-8.63-8.63l-.56,0V56.86l.48,0a8.63,8.63,0,0,0,8.63-8.64C29.21,48.08,29.21,47.93,29.2,47.77Zm22.47,4.87a8.63,8.63,0,1,0,8.63,8.63A8.63,8.63,0,0,0,51.67,52.64Z"/><path class="cls-2" d="M15.23,78.68V42.74H86V78.68Zm55.51-6.46A10.07,10.07,0,0,1,80,63.15v-4.8a10.08,10.08,0,0,1-9.15-9.15H30.6a10.08,10.08,0,0,1-9.07,9.06v4.41a10.08,10.08,0,0,1,9.18,9.55Z"/><path class="cls-1" d="M84.59,44.17V77.25H16.67V44.17H84.59m-12.37,3.6h-43c0,.16,0,.31,0,.47a8.63,8.63,0,0,1-8.63,8.64l-.48,0v7.23l.56,0a8.63,8.63,0,0,1,8.63,8.63c0,.32,0,.64-.05,1h42.9c0-.16,0-.32,0-.48a8.63,8.63,0,0,1,8.63-8.63l.63,0V56.94l-.55,0a8.64,8.64,0,0,1-8.64-8.64c0-.18,0-.37,0-.55m15.23-6.46H13.8V80.12H87.45V41.31ZM31.83,50.63H69.57a11.55,11.55,0,0,0,9,9V61.9a11.54,11.54,0,0,0-9,8.89H32a11.52,11.52,0,0,0-9-9.35V59.49a11.54,11.54,0,0,0,8.86-8.86Z"/><circle class="cls-2" cx="51.67" cy="61.27" r="8.63"/></g><g id="_Group_7" data-name="&lt;Group&gt;"><path class="cls-3" d="M29.2,7.37h43c0,.18,0,.37,0,.55a8.63,8.63,0,0,0,8.63,8.64l.55,0v7.63l-.63,0a8.63,8.63,0,0,0-8.63,8.63c0,.16,0,.32,0,.48H29.24c0-.32.05-.64.05-1a8.63,8.63,0,0,0-8.63-8.63l-.56,0V16.46l.48,0a8.63,8.63,0,0,0,8.63-8.64C29.21,7.69,29.21,7.53,29.2,7.37Zm22.47,4.87a8.63,8.63,0,1,0,8.63,8.63A8.63,8.63,0,0,0,51.67,12.24Z"/><path class="cls-2" d="M15.23,38.28V2.34H86V38.28Zm55.51-6.45A10.07,10.07,0,0,1,80,22.75V18A10.08,10.08,0,0,1,70.81,8.8H30.6a10.08,10.08,0,0,1-9.07,9.06v4.41a10.08,10.08,0,0,1,9.18,9.56Z"/><path class="cls-1" d="M84.59,3.77V36.85H16.67V3.77H84.59M72.22,7.37h-43c0,.16,0,.32,0,.47a8.63,8.63,0,0,1-8.63,8.64l-.48,0v7.23l.56,0a8.63,8.63,0,0,1,8.63,8.63c0,.32,0,.64-.05,1h42.9c0-.16,0-.32,0-.48a8.63,8.63,0,0,1,8.63-8.63l.63,0V16.54l-.55,0A8.64,8.64,0,0,1,72.2,7.92c0-.18,0-.37,0-.55M87.45.91H13.8V39.72H87.45V.91ZM31.83,10.23H69.57a11.55,11.55,0,0,0,9,9V21.5a11.54,11.54,0,0,0-9,8.89H32A11.52,11.52,0,0,0,23,21V19.09a11.54,11.54,0,0,0,8.86-8.86Z"/><circle class="cls-2" cx="51.67" cy="20.87" r="8.63"/></g><g id="_Group_8" data-name="&lt;Group&gt;"><path class="cls-3" d="M104.75,250.07h43c0,.18,0,.37,0,.56a8.63,8.63,0,0,0,8.63,8.63l.56,0v7.63l-.64,0a8.63,8.63,0,0,0-8.63,8.63c0,.16,0,.32,0,.48h-42.9c0-.32,0-.64,0-1a8.63,8.63,0,0,0-8.63-8.63l-.56,0v-7.23l.48,0a8.63,8.63,0,0,0,8.63-8.63C104.76,250.39,104.76,250.23,104.75,250.07Zm22.47,4.87a8.63,8.63,0,1,0,8.63,8.63A8.63,8.63,0,0,0,127.22,254.94Z"/><path class="cls-2" d="M90.79,281V245h70.78v36Zm55.5-6.46a10.08,10.08,0,0,1,9.22-9.08v-4.8a10.08,10.08,0,0,1-9.15-9.15H106.15a10.07,10.07,0,0,1-9.07,9.06V265a10.08,10.08,0,0,1,9.18,9.56Z"/><path class="cls-1" d="M160.14,246.47v33.08H92.22V246.47h67.92m-12.37,3.6h-43c0,.16,0,.32,0,.48a8.63,8.63,0,0,1-8.63,8.63l-.48,0v7.23l.56,0a8.63,8.63,0,0,1,8.63,8.63c0,.32,0,.64,0,1h42.9c0-.16,0-.32,0-.48a8.63,8.63,0,0,1,8.63-8.63l.64,0v-7.63l-.56,0a8.63,8.63,0,0,1-8.63-8.63c0-.19,0-.38,0-.56M163,243.61H89.35v38.81H163V243.61Zm-55.62,9.32h37.74a11.55,11.55,0,0,0,9,9v2.31a11.54,11.54,0,0,0-9,8.89H107.55a11.51,11.51,0,0,0-9-9.35v-1.95a11.53,11.53,0,0,0,8.86-8.86Z"/><circle class="cls-2" cx="127.22" cy="263.57" r="8.63"/></g><g id="_Group_9" data-name="&lt;Group&gt;"><path class="cls-3" d="M104.75,209.67h43c0,.18,0,.37,0,.56a8.63,8.63,0,0,0,8.63,8.63l.56,0v7.63l-.64,0a8.63,8.63,0,0,0-8.63,8.63c0,.16,0,.32,0,.48h-42.9c0-.32,0-.64,0-1A8.63,8.63,0,0,0,96.21,226l-.56,0v-7.23l.48,0a8.63,8.63,0,0,0,8.63-8.63C104.76,210,104.76,209.83,104.75,209.67Zm22.47,4.87a8.63,8.63,0,1,0,8.63,8.63A8.63,8.63,0,0,0,127.22,214.54Z"/><path class="cls-2" d="M90.79,240.58V204.64h70.78v35.94Zm55.5-6.45a10.08,10.08,0,0,1,9.22-9.08v-4.8a10.08,10.08,0,0,1-9.15-9.15H106.15a10.07,10.07,0,0,1-9.07,9.06v4.41a10.08,10.08,0,0,1,9.18,9.56Z"/><path class="cls-1" d="M160.14,206.07v33.08H92.22V206.07h67.92m-12.37,3.6h-43c0,.16,0,.32,0,.48a8.63,8.63,0,0,1-8.63,8.63l-.48,0V226l.56,0a8.63,8.63,0,0,1,8.63,8.63c0,.32,0,.64,0,1h42.9c0-.16,0-.32,0-.48a8.63,8.63,0,0,1,8.63-8.63l.64,0v-7.63l-.56,0a8.63,8.63,0,0,1-8.63-8.63c0-.19,0-.38,0-.56M163,203.21H89.35V242H163V203.21Zm-55.62,9.32h37.74a11.55,11.55,0,0,0,9,9v2.31a11.54,11.54,0,0,0-9,8.89H107.55a11.52,11.52,0,0,0-9-9.35v-2a11.53,11.53,0,0,0,8.86-8.86Z"/><circle class="cls-2" cx="127.22" cy="223.17" r="8.63"/></g><g id="_Group_10" data-name="&lt;Group&gt;"><path class="cls-3" d="M104.75,169.27h43c0,.18,0,.37,0,.56a8.63,8.63,0,0,0,8.63,8.63l.56,0v7.63l-.64,0a8.63,8.63,0,0,0-8.63,8.63c0,.16,0,.32,0,.48h-42.9c0-.32,0-.64,0-1a8.63,8.63,0,0,0-8.63-8.63l-.56,0v-7.23l.48,0a8.63,8.63,0,0,0,8.63-8.63C104.76,169.59,104.76,169.43,104.75,169.27Zm22.47,4.87a8.63,8.63,0,1,0,8.63,8.63A8.63,8.63,0,0,0,127.22,174.14Z"/><path class="cls-2" d="M90.79,200.19V164.24h70.78v35.95Zm55.5-6.46a10.08,10.08,0,0,1,9.22-9.08v-4.8a10.08,10.08,0,0,1-9.15-9.15H106.15a10.07,10.07,0,0,1-9.07,9.06v4.41a10.08,10.08,0,0,1,9.18,9.56Z"/><path class="cls-1" d="M160.14,165.67v33.08H92.22V165.67h67.92m-12.37,3.6h-43c0,.16,0,.32,0,.48a8.63,8.63,0,0,1-8.63,8.63l-.48,0v7.23l.56,0a8.63,8.63,0,0,1,8.63,8.63c0,.32,0,.64,0,1h42.9c0-.16,0-.32,0-.48a8.63,8.63,0,0,1,8.63-8.63l.64,0v-7.63l-.56,0a8.63,8.63,0,0,1-8.63-8.63c0-.19,0-.38,0-.56M163,162.81H89.35v38.81H163V162.81Zm-55.62,9.32h37.74a11.55,11.55,0,0,0,9,9v2.31a11.53,11.53,0,0,0-9,8.9H107.55a11.51,11.51,0,0,0-9-9.36V181a11.53,11.53,0,0,0,8.86-8.86Z"/><circle class="cls-2" cx="127.22" cy="182.77" r="8.63"/></g><g id="_Group_11" data-name="&lt;Group&gt;"><path class="cls-3" d="M104.75,128.87h43c0,.18,0,.37,0,.56a8.63,8.63,0,0,0,8.63,8.63l.56,0v7.63l-.64,0a8.63,8.63,0,0,0-8.63,8.63c0,.16,0,.32,0,.48h-42.9c0-.32,0-.64,0-1a8.63,8.63,0,0,0-8.63-8.63l-.56,0V138l.48,0a8.63,8.63,0,0,0,8.63-8.63C104.76,129.19,104.76,129,104.75,128.87Zm22.47,4.87a8.63,8.63,0,1,0,8.63,8.63A8.63,8.63,0,0,0,127.22,133.74Z"/><path class="cls-2" d="M90.79,159.79V123.84h70.78v35.95Zm55.5-6.46a10.08,10.08,0,0,1,9.22-9.08v-4.8a10.08,10.08,0,0,1-9.15-9.15H106.15a10.07,10.07,0,0,1-9.07,9.06v4.41a10.08,10.08,0,0,1,9.18,9.56Z"/><path class="cls-1" d="M160.14,125.27v33.08H92.22V125.27h67.92m-12.37,3.6h-43c0,.16,0,.32,0,.48A8.63,8.63,0,0,1,96.13,138l-.48,0v7.23l.56,0a8.63,8.63,0,0,1,8.63,8.63c0,.32,0,.64,0,1h42.9c0-.16,0-.32,0-.48a8.63,8.63,0,0,1,8.63-8.63l.64,0V138l-.56,0a8.63,8.63,0,0,1-8.63-8.63c0-.19,0-.38,0-.56M163,122.41H89.35v38.81H163V122.41Zm-55.62,9.32h37.74a11.55,11.55,0,0,0,9,9V143a11.53,11.53,0,0,0-9,8.9H107.55a11.51,11.51,0,0,0-9-9.36v-1.95a11.53,11.53,0,0,0,8.86-8.86Z"/><circle class="cls-2" cx="127.22" cy="142.37" r="8.63"/></g><g id="_Group_12" data-name="&lt;Group&gt;"><path class="cls-3" d="M104.75,88.47h43c0,.18,0,.37,0,.56a8.63,8.63,0,0,0,8.63,8.63l.56,0v7.63l-.64,0a8.63,8.63,0,0,0-8.63,8.63c0,.16,0,.32,0,.48h-42.9c0-.32,0-.64,0-1a8.63,8.63,0,0,0-8.63-8.63l-.56,0V97.56l.48,0A8.63,8.63,0,0,0,104.76,89C104.76,88.79,104.76,88.63,104.75,88.47Zm22.47,4.87a8.63,8.63,0,1,0,8.63,8.63A8.63,8.63,0,0,0,127.22,93.34Z"/><path class="cls-2" d="M90.79,119.39V83.44h70.78v36Zm55.5-6.46a10.08,10.08,0,0,1,9.22-9.08v-4.8a10.08,10.08,0,0,1-9.15-9.15H106.15A10.07,10.07,0,0,1,97.08,99v4.41a10.09,10.09,0,0,1,9.18,9.56Z"/><path class="cls-1" d="M160.14,84.87V118H92.22V84.87h67.92m-12.37,3.6h-43c0,.16,0,.32,0,.48a8.63,8.63,0,0,1-8.63,8.63l-.48,0v7.23l.56,0a8.63,8.63,0,0,1,8.63,8.63c0,.32,0,.64,0,1h42.9c0-.16,0-.32,0-.48a8.63,8.63,0,0,1,8.63-8.63l.64,0V97.64l-.56,0A8.63,8.63,0,0,1,147.76,89c0-.19,0-.38,0-.56M163,82H89.35v38.81H163V82Zm-55.62,9.32h37.74a11.55,11.55,0,0,0,9,9v2.31a11.53,11.53,0,0,0-9,8.9H107.55a11.52,11.52,0,0,0-9-9.36v-2a11.53,11.53,0,0,0,8.86-8.86Z"/><circle class="cls-2" cx="127.22" cy="101.97" r="8.63"/></g><g id="_Group_13" data-name="&lt;Group&gt;"><path class="cls-3" d="M104.75,48.07h43c0,.18,0,.37,0,.56a8.63,8.63,0,0,0,8.63,8.63l.56,0v7.63l-.64,0a8.63,8.63,0,0,0-8.63,8.63c0,.16,0,.32,0,.48h-42.9c0-.32,0-.64,0-1a8.63,8.63,0,0,0-8.63-8.63l-.56,0V57.16l.48,0a8.63,8.63,0,0,0,8.63-8.63C104.76,48.39,104.76,48.23,104.75,48.07Zm22.47,4.87a8.63,8.63,0,1,0,8.63,8.63A8.63,8.63,0,0,0,127.22,52.94Z"/><path class="cls-2" d="M90.79,79V43h70.78V79Zm55.5-6.46a10.08,10.08,0,0,1,9.22-9.08v-4.8a10.08,10.08,0,0,1-9.15-9.15H106.15a10.07,10.07,0,0,1-9.07,9.06V63a10.09,10.09,0,0,1,9.18,9.56Z"/><path class="cls-1" d="M160.14,44.47V77.55H92.22V44.47h67.92m-12.37,3.6h-43c0,.16,0,.32,0,.48a8.63,8.63,0,0,1-8.63,8.63l-.48,0v7.23l.56,0A8.63,8.63,0,0,1,104.84,73c0,.32,0,.64,0,1h42.9c0-.16,0-.32,0-.48a8.63,8.63,0,0,1,8.63-8.63l.64,0V57.24l-.56,0a8.63,8.63,0,0,1-8.63-8.63c0-.19,0-.38,0-.56M163,41.61H89.35V80.42H163V41.61Zm-55.62,9.32h37.74a11.55,11.55,0,0,0,9,9V62.2a11.53,11.53,0,0,0-9,8.9H107.55a11.51,11.51,0,0,0-9-9.36v-2a11.53,11.53,0,0,0,8.86-8.86Z"/><circle class="cls-2" cx="127.22" cy="61.57" r="8.63"/></g><g id="_Group_14" data-name="&lt;Group&gt;"><path class="cls-3" d="M104.75,7.67h43c0,.18,0,.37,0,.56a8.63,8.63,0,0,0,8.63,8.63l.56,0v7.63l-.64,0a8.63,8.63,0,0,0-8.63,8.63c0,.16,0,.32,0,.48h-42.9c0-.32,0-.64,0-1A8.63,8.63,0,0,0,96.21,24l-.56,0V16.76l.48,0a8.63,8.63,0,0,0,8.63-8.63C104.76,8,104.76,7.83,104.75,7.67Zm22.47,4.87a8.63,8.63,0,1,0,8.63,8.63A8.63,8.63,0,0,0,127.22,12.54Z"/><path class="cls-2" d="M90.79,38.59V2.64h70.78v36Zm55.5-6.46a10.08,10.08,0,0,1,9.22-9.08v-4.8a10.08,10.08,0,0,1-9.15-9.15H106.15a10.07,10.07,0,0,1-9.07,9.06v4.42a10.07,10.07,0,0,1,9.18,9.55Z"/><path class="cls-1" d="M160.14,4.07V37.15H92.22V4.07h67.92m-12.37,3.6h-43c0,.16,0,.32,0,.48a8.63,8.63,0,0,1-8.63,8.63l-.48,0V24l.56,0a8.63,8.63,0,0,1,8.63,8.63c0,.32,0,.64,0,1h42.9c0-.16,0-.32,0-.48a8.63,8.63,0,0,1,8.63-8.63l.64,0V16.84l-.56,0a8.63,8.63,0,0,1-8.63-8.63c0-.19,0-.38,0-.56M163,1.21H89.35V40H163V1.21Zm-55.62,9.32h37.74a11.55,11.55,0,0,0,9,9V21.8a11.53,11.53,0,0,0-9,8.9H107.55a11.51,11.51,0,0,0-9-9.36V19.39a11.53,11.53,0,0,0,8.86-8.86Z"/><circle class="cls-2" cx="127.22" cy="21.17" r="8.63"/></g><g id="_Group_15" data-name="&lt;Group&gt;"><path class="cls-3" d="M180.3,249.46h43c0,.19,0,.37,0,.56a8.63,8.63,0,0,0,8.63,8.63l.56,0v7.64c-.21,0-.43,0-.64,0a8.63,8.63,0,0,0-8.63,8.63c0,.16,0,.32,0,.48h-42.9c0-.31,0-.63,0-1a8.63,8.63,0,0,0-8.63-8.63l-.56,0v-7.22h.48a8.63,8.63,0,0,0,8.63-8.63C180.31,249.78,180.31,249.62,180.3,249.46Zm22.47,4.88A8.63,8.63,0,1,0,211.4,263,8.63,8.63,0,0,0,202.77,254.34Z"/><path class="cls-2" d="M166.34,280.38V244.43h70.78v35.95Zm55.5-6.46a10.08,10.08,0,0,1,9.22-9.08V260a10.07,10.07,0,0,1-9.15-9.15H181.7a10.08,10.08,0,0,1-9.06,9.07v4.41a10.07,10.07,0,0,1,9.17,9.55Z"/><path class="cls-1" d="M235.69,245.87V279H167.77V245.87h67.92m-12.36,3.59h-43c0,.16,0,.32,0,.48a8.63,8.63,0,0,1-8.63,8.63h-.48v7.22l.56,0a8.63,8.63,0,0,1,8.63,8.63c0,.33,0,.65,0,1h42.9c0-.16,0-.32,0-.48a8.63,8.63,0,0,1,8.63-8.63c.21,0,.43,0,.64,0v-7.64l-.56,0a8.63,8.63,0,0,1-8.63-8.63c0-.19,0-.37,0-.56M238.56,243H164.91v38.81h73.65V243Zm-55.63,9.32h37.75a11.51,11.51,0,0,0,8.95,9v2.32a11.52,11.52,0,0,0-9,8.89H183.1a11.54,11.54,0,0,0-9-9.36v-1.94a11.54,11.54,0,0,0,8.86-8.87Z"/><circle class="cls-2" cx="202.77" cy="262.97" r="8.63"/></g><g id="_Group_16" data-name="&lt;Group&gt;"><path class="cls-3" d="M180.3,209.06h43c0,.19,0,.37,0,.56a8.63,8.63,0,0,0,8.63,8.63l.56,0v7.64c-.21,0-.43,0-.64,0a8.63,8.63,0,0,0-8.63,8.63c0,.16,0,.32,0,.48h-42.9c0-.31,0-.63,0-1a8.63,8.63,0,0,0-8.63-8.63l-.56,0v-7.22h.48a8.63,8.63,0,0,0,8.63-8.63C180.31,209.38,180.31,209.22,180.3,209.06Zm22.47,4.88a8.63,8.63,0,1,0,8.63,8.63A8.63,8.63,0,0,0,202.77,213.94Z"/><path class="cls-2" d="M166.34,240V204h70.78V240Zm55.5-6.46a10.08,10.08,0,0,1,9.22-9.08v-4.79a10.08,10.08,0,0,1-9.15-9.16H181.7a10.08,10.08,0,0,1-9.06,9.07V224a10.07,10.07,0,0,1,9.17,9.55Z"/><path class="cls-1" d="M235.69,205.47v33.08H167.77V205.47h67.92m-12.36,3.59h-43c0,.16,0,.32,0,.48a8.63,8.63,0,0,1-8.63,8.63h-.48v7.22l.56,0a8.63,8.63,0,0,1,8.63,8.63c0,.33,0,.65,0,1h42.9c0-.16,0-.32,0-.48a8.63,8.63,0,0,1,8.63-8.63c.21,0,.43,0,.64,0v-7.64l-.56,0a8.63,8.63,0,0,1-8.63-8.63c0-.19,0-.37,0-.56m15.23-6.46H164.91v38.81h73.65V202.6Zm-55.63,9.32h37.75a11.5,11.5,0,0,0,8.95,9v2.32a11.52,11.52,0,0,0-9,8.89H183.1a11.54,11.54,0,0,0-9-9.36v-1.94a11.54,11.54,0,0,0,8.86-8.87Z"/><circle class="cls-2" cx="202.77" cy="222.57" r="8.63"/></g><g id="_Group_17" data-name="&lt;Group&gt;"><path class="cls-3" d="M180.3,168.66h43c0,.19,0,.37,0,.56a8.63,8.63,0,0,0,8.63,8.63l.56,0v7.64c-.21,0-.43,0-.64,0a8.63,8.63,0,0,0-8.63,8.63c0,.16,0,.32,0,.48h-42.9c0-.31,0-.63,0-1a8.63,8.63,0,0,0-8.63-8.63l-.56,0v-7.22h.48a8.63,8.63,0,0,0,8.63-8.63C180.31,169,180.31,168.82,180.3,168.66Zm22.47,4.88a8.63,8.63,0,1,0,8.63,8.63A8.63,8.63,0,0,0,202.77,173.54Z"/><path class="cls-2" d="M166.34,199.58v-36h70.78v36Zm55.5-6.46a10.08,10.08,0,0,1,9.22-9.08v-4.79a10.08,10.08,0,0,1-9.15-9.16H181.7a10.08,10.08,0,0,1-9.06,9.07v4.41a10.07,10.07,0,0,1,9.17,9.55Z"/><path class="cls-1" d="M235.69,165.07v33.08H167.77V165.07h67.92m-12.36,3.59h-43c0,.16,0,.32,0,.48a8.63,8.63,0,0,1-8.63,8.63h-.48V185l.56,0a8.63,8.63,0,0,1,8.63,8.63c0,.33,0,.65,0,1h42.9c0-.16,0-.32,0-.48a8.63,8.63,0,0,1,8.63-8.63c.21,0,.43,0,.64,0v-7.64l-.56,0a8.63,8.63,0,0,1-8.63-8.63c0-.19,0-.37,0-.56m15.23-6.46H164.91V201h73.65V162.2Zm-55.63,9.33h37.75a11.5,11.5,0,0,0,8.95,8.95v2.32a11.52,11.52,0,0,0-9,8.89H183.1a11.54,11.54,0,0,0-9-9.36v-1.94a11.54,11.54,0,0,0,8.86-8.86Z"/><circle class="cls-2" cx="202.77" cy="182.17" r="8.63"/></g><g id="_Group_18" data-name="&lt;Group&gt;"><path class="cls-3" d="M180.3,128.26h43c0,.19,0,.37,0,.56a8.63,8.63,0,0,0,8.63,8.63l.56,0v7.64c-.21,0-.43,0-.64,0a8.63,8.63,0,0,0-8.63,8.63c0,.16,0,.32,0,.48h-42.9c0-.31,0-.63,0-1a8.63,8.63,0,0,0-8.63-8.63l-.56,0v-7.22h.48a8.63,8.63,0,0,0,8.63-8.63C180.31,128.58,180.31,128.42,180.3,128.26Zm22.47,4.88a8.63,8.63,0,1,0,8.63,8.63A8.63,8.63,0,0,0,202.77,133.14Z"/><path class="cls-2" d="M166.34,159.18V123.24h70.78v35.94Zm55.5-6.46a10.08,10.08,0,0,1,9.22-9.08v-4.79a10.08,10.08,0,0,1-9.15-9.16H181.7a10.08,10.08,0,0,1-9.06,9.07v4.41a10.07,10.07,0,0,1,9.17,9.55Z"/><path class="cls-1" d="M235.69,124.67v33.08H167.77V124.67h67.92m-12.36,3.59h-43c0,.16,0,.32,0,.48a8.63,8.63,0,0,1-8.63,8.63h-.48v7.22l.56,0a8.63,8.63,0,0,1,8.63,8.63c0,.33,0,.65,0,1h42.9c0-.16,0-.32,0-.48a8.63,8.63,0,0,1,8.63-8.63c.21,0,.43,0,.64,0v-7.64l-.56,0a8.63,8.63,0,0,1-8.63-8.63c0-.19,0-.37,0-.56m15.23-6.46H164.91v38.81h73.65V121.8Zm-55.63,9.33h37.75a11.5,11.5,0,0,0,8.95,9v2.32a11.52,11.52,0,0,0-9,8.89H183.1a11.54,11.54,0,0,0-9-9.36V140a11.54,11.54,0,0,0,8.86-8.86Z"/><circle class="cls-2" cx="202.77" cy="141.77" r="8.63"/></g><g id="_Group_19" data-name="&lt;Group&gt;"><path class="cls-3" d="M180.3,87.86h43c0,.19,0,.37,0,.56a8.63,8.63,0,0,0,8.63,8.63l.56,0v7.64c-.21,0-.43,0-.64,0a8.63,8.63,0,0,0-8.63,8.63c0,.16,0,.32,0,.48h-42.9c0-.31,0-.63,0-1a8.63,8.63,0,0,0-8.63-8.64l-.56,0V97h.48a8.63,8.63,0,0,0,8.63-8.63C180.31,88.18,180.31,88,180.3,87.86Zm22.47,4.88a8.63,8.63,0,1,0,8.63,8.63A8.63,8.63,0,0,0,202.77,92.74Z"/><path class="cls-2" d="M166.34,118.78V82.83h70.78v36Zm55.5-6.46a10.08,10.08,0,0,1,9.22-9.08V98.45a10.08,10.08,0,0,1-9.15-9.16H181.7a10.08,10.08,0,0,1-9.06,9.07v4.41a10.07,10.07,0,0,1,9.17,9.55Z"/><path class="cls-1" d="M235.69,84.27v33.08H167.77V84.27h67.92m-12.36,3.59h-43c0,.16,0,.32,0,.48A8.63,8.63,0,0,1,171.68,97h-.48v7.22l.56,0a8.63,8.63,0,0,1,8.63,8.64c0,.32,0,.64,0,1h42.9c0-.16,0-.32,0-.48a8.63,8.63,0,0,1,8.63-8.63c.21,0,.43,0,.64,0V97l-.56,0a8.63,8.63,0,0,1-8.63-8.63c0-.19,0-.37,0-.56m15.23-6.46H164.91v38.81h73.65V81.4Zm-55.63,9.33h37.75a11.5,11.5,0,0,0,8.95,9V102a11.52,11.52,0,0,0-9,8.89H183.1a11.54,11.54,0,0,0-9-9.36V99.59a11.54,11.54,0,0,0,8.86-8.86Z"/><circle class="cls-2" cx="202.77" cy="101.37" r="8.63"/></g><g id="_Group_20" data-name="&lt;Group&gt;"><path class="cls-3" d="M180.3,47.46h43c0,.19,0,.37,0,.56a8.63,8.63,0,0,0,8.63,8.63l.56,0v7.64c-.21,0-.43,0-.64,0a8.63,8.63,0,0,0-8.63,8.63c0,.16,0,.32,0,.48h-42.9c0-.31,0-.63,0-.95a8.63,8.63,0,0,0-8.63-8.64l-.56,0V56.56h.48a8.63,8.63,0,0,0,8.63-8.63C180.31,47.78,180.31,47.62,180.3,47.46Zm22.47,4.88A8.63,8.63,0,1,0,211.4,61,8.63,8.63,0,0,0,202.77,52.34Z"/><path class="cls-2" d="M166.34,78.38V42.44h70.78V78.38Zm55.5-6.46a10.08,10.08,0,0,1,9.22-9.08V58.05a10.08,10.08,0,0,1-9.15-9.16H181.7A10.08,10.08,0,0,1,172.64,58v4.41a10.07,10.07,0,0,1,9.17,9.55Z"/><path class="cls-1" d="M235.69,43.87V77H167.77V43.87h67.92m-12.36,3.59h-43c0,.16,0,.32,0,.48a8.63,8.63,0,0,1-8.63,8.63h-.48v7.22l.56,0a8.63,8.63,0,0,1,8.63,8.64c0,.32,0,.64,0,.95h42.9c0-.16,0-.32,0-.48a8.63,8.63,0,0,1,8.63-8.63c.21,0,.43,0,.64,0V56.63l-.56,0A8.63,8.63,0,0,1,223.31,48c0-.19,0-.37,0-.56M238.56,41H164.91V79.81h73.65V41Zm-55.63,9.33h37.75a11.5,11.5,0,0,0,8.95,9V61.6a11.52,11.52,0,0,0-9,8.89H183.1a11.54,11.54,0,0,0-9-9.36V59.19a11.54,11.54,0,0,0,8.86-8.86Z"/><circle class="cls-2" cx="202.77" cy="60.97" r="8.63"/></g><g id="_Group_21" data-name="&lt;Group&gt;"><path class="cls-3" d="M180.3,7.06h43c0,.19,0,.37,0,.56a8.63,8.63,0,0,0,8.63,8.63l.56,0v7.64c-.21,0-.43,0-.64,0a8.63,8.63,0,0,0-8.63,8.64c0,.15,0,.31,0,.47h-42.9c0-.31,0-.63,0-1a8.63,8.63,0,0,0-8.63-8.63h-.56V16.16h.48a8.63,8.63,0,0,0,8.63-8.63C180.31,7.38,180.31,7.22,180.3,7.06Zm22.47,4.88a8.63,8.63,0,1,0,8.63,8.63A8.63,8.63,0,0,0,202.77,11.94Z"/><path class="cls-2" d="M166.34,38V2h70.78V38Zm55.5-6.46a10.08,10.08,0,0,1,9.22-9.08V17.65a10.08,10.08,0,0,1-9.15-9.16H181.7a10.08,10.08,0,0,1-9.06,9.07V22a10.07,10.07,0,0,1,9.17,9.55Z"/><path class="cls-1" d="M235.69,3.47V36.55H167.77V3.47h67.92M223.33,7.06h-43c0,.16,0,.32,0,.48a8.63,8.63,0,0,1-8.63,8.63h-.48v7.22h.56A8.63,8.63,0,0,1,180.39,32c0,.32,0,.64,0,1h42.9c0-.16,0-.32,0-.47a8.63,8.63,0,0,1,8.63-8.64c.21,0,.43,0,.64,0V16.23l-.56,0a8.63,8.63,0,0,1-8.63-8.63c0-.19,0-.37,0-.56M238.56.6H164.91V39.41h73.65V.6ZM182.93,9.93h37.75a11.5,11.5,0,0,0,8.95,9V21.2a11.52,11.52,0,0,0-9,8.89H183.1a11.54,11.54,0,0,0-9-9.36V18.79a11.54,11.54,0,0,0,8.86-8.86Z"/><circle class="cls-2" cx="202.77" cy="20.57" r="8.63"/></g><g id="_Group_22" data-name="&lt;Group&gt;"><path class="cls-3" d="M255.85,248.86h43c0,.18,0,.37,0,.56a8.63,8.63,0,0,0,8.63,8.63l.56,0v7.63l-.64,0a8.63,8.63,0,0,0-8.63,8.63c0,.16,0,.32,0,.48h-42.9a7.72,7.72,0,0,0,.05-1,8.63,8.63,0,0,0-8.63-8.63l-.56,0V258l.48,0a8.63,8.63,0,0,0,8.63-8.63C255.86,249.18,255.86,249,255.85,248.86Zm22.47,4.87a8.63,8.63,0,1,0,8.63,8.63A8.63,8.63,0,0,0,278.32,253.73Z"/><path class="cls-2" d="M241.89,279.78V243.83h70.78v35.95Zm55.5-6.46a10.08,10.08,0,0,1,9.23-9.08v-4.8a10.08,10.08,0,0,1-9.16-9.15H257.25a10.07,10.07,0,0,1-9.06,9.06v4.41a10.1,10.1,0,0,1,9.18,9.56Z"/><path class="cls-1" d="M311.24,245.26v33.08H243.32V245.26h67.92m-12.36,3.6h-43c0,.16,0,.32,0,.48a8.63,8.63,0,0,1-8.63,8.63l-.47,0v7.23l.55,0a8.63,8.63,0,0,1,8.63,8.63,7.72,7.72,0,0,1-.05,1h42.9c0-.16,0-.32,0-.48a8.63,8.63,0,0,1,8.63-8.63l.64,0V258l-.56,0a8.63,8.63,0,0,1-8.63-8.63c0-.19,0-.38,0-.56m15.23-6.46H240.46v38.81h73.65V242.4Zm-55.63,9.32h37.75a11.52,11.52,0,0,0,8.95,9V263a11.53,11.53,0,0,0-9,8.9H258.65a11.51,11.51,0,0,0-9-9.36v-1.95a11.53,11.53,0,0,0,8.86-8.86Z"/><circle class="cls-2" cx="278.32" cy="262.36" r="8.63"/></g><g id="_Group_23" data-name="&lt;Group&gt;"><path class="cls-3" d="M255.85,208.46h43c0,.18,0,.37,0,.56a8.63,8.63,0,0,0,8.63,8.63l.56,0v7.63l-.64,0a8.63,8.63,0,0,0-8.63,8.63c0,.16,0,.32,0,.48h-42.9a7.72,7.72,0,0,0,.05-1,8.63,8.63,0,0,0-8.63-8.63l-.56,0v-7.23l.48,0a8.63,8.63,0,0,0,8.63-8.63C255.86,208.78,255.86,208.62,255.85,208.46Zm22.47,4.87A8.63,8.63,0,1,0,287,222,8.63,8.63,0,0,0,278.32,213.33Z"/><path class="cls-2" d="M241.89,239.38V203.43h70.78v35.95Zm55.5-6.46a10.08,10.08,0,0,1,9.23-9.08V219a10.08,10.08,0,0,1-9.16-9.15H257.25a10.07,10.07,0,0,1-9.06,9.06v4.42a10.09,10.09,0,0,1,9.18,9.55Z"/><path class="cls-1" d="M311.24,204.86v33.08H243.32V204.86h67.92m-12.36,3.6h-43c0,.16,0,.32,0,.48a8.63,8.63,0,0,1-8.63,8.63l-.47,0v7.23l.55,0a8.63,8.63,0,0,1,8.63,8.63,7.72,7.72,0,0,1-.05,1h42.9c0-.16,0-.32,0-.48a8.63,8.63,0,0,1,8.63-8.63l.64,0v-7.63l-.56,0a8.63,8.63,0,0,1-8.63-8.63c0-.19,0-.38,0-.56M314.11,202H240.46v38.81h73.65V202Zm-55.63,9.32h37.75a11.52,11.52,0,0,0,8.95,9v2.31a11.53,11.53,0,0,0-9,8.9H258.65a11.51,11.51,0,0,0-9-9.36v-1.95a11.53,11.53,0,0,0,8.86-8.86Z"/><circle class="cls-2" cx="278.32" cy="221.96" r="8.63"/></g><g id="_Group_24" data-name="&lt;Group&gt;"><path class="cls-3" d="M255.85,168.06h43c0,.18,0,.37,0,.56a8.63,8.63,0,0,0,8.63,8.63l.56,0v7.63l-.64,0a8.63,8.63,0,0,0-8.63,8.63c0,.16,0,.32,0,.48h-42.9a7.72,7.72,0,0,0,.05-1,8.63,8.63,0,0,0-8.63-8.63l-.56,0v-7.23l.48,0a8.63,8.63,0,0,0,8.63-8.63C255.86,168.38,255.86,168.22,255.85,168.06Zm22.47,4.87a8.63,8.63,0,1,0,8.63,8.63A8.63,8.63,0,0,0,278.32,172.93Z"/><path class="cls-2" d="M241.89,199V163h70.78V199Zm55.5-6.46a10.08,10.08,0,0,1,9.23-9.08v-4.8a10.08,10.08,0,0,1-9.16-9.15H257.25a10.07,10.07,0,0,1-9.06,9.06V183a10.09,10.09,0,0,1,9.18,9.55Z"/><path class="cls-1" d="M311.24,164.46v33.09H243.32V164.46h67.92m-12.36,3.6h-43c0,.16,0,.32,0,.48a8.63,8.63,0,0,1-8.63,8.63l-.47,0v7.23l.55,0a8.63,8.63,0,0,1,8.63,8.63,7.72,7.72,0,0,1-.05,1h42.9c0-.16,0-.32,0-.48a8.63,8.63,0,0,1,8.63-8.63l.64,0v-7.63l-.56,0a8.63,8.63,0,0,1-8.63-8.63c0-.19,0-.38,0-.56m15.23-6.46H240.46v38.81h73.65V161.6Zm-55.63,9.32h37.75a11.52,11.52,0,0,0,8.95,9v2.31a11.53,11.53,0,0,0-9,8.9H258.65a11.52,11.52,0,0,0-9-9.36v-1.95a11.53,11.53,0,0,0,8.86-8.86Z"/><circle class="cls-2" cx="278.32" cy="181.56" r="8.63"/></g><g id="_Group_25" data-name="&lt;Group&gt;"><path class="cls-3" d="M255.85,127.66h43c0,.18,0,.37,0,.56a8.63,8.63,0,0,0,8.63,8.63l.56,0v7.64c-.21,0-.43,0-.64,0a8.63,8.63,0,0,0-8.63,8.63c0,.16,0,.32,0,.48h-42.9a7.72,7.72,0,0,0,.05-1,8.63,8.63,0,0,0-8.63-8.63l-.56,0v-7.22h.48a8.63,8.63,0,0,0,8.63-8.63C255.86,128,255.86,127.82,255.85,127.66Zm22.47,4.87a8.63,8.63,0,1,0,8.63,8.63A8.63,8.63,0,0,0,278.32,132.53Z"/><path class="cls-2" d="M241.89,158.58v-36h70.78v36Zm55.5-6.46a10.09,10.09,0,0,1,9.23-9.08v-4.8a10.08,10.08,0,0,1-9.16-9.15H257.25a10.09,10.09,0,0,1-9.06,9.07v4.41a10.09,10.09,0,0,1,9.18,9.55Z"/><path class="cls-1" d="M311.24,124.06v33.09H243.32V124.06h67.92m-12.36,3.6h-43c0,.16,0,.32,0,.48a8.63,8.63,0,0,1-8.63,8.63h-.47V144l.55,0a8.63,8.63,0,0,1,8.63,8.63,7.72,7.72,0,0,1-.05,1h42.9c0-.16,0-.32,0-.48a8.63,8.63,0,0,1,8.63-8.63c.21,0,.43,0,.64,0v-7.64l-.56,0a8.63,8.63,0,0,1-8.63-8.63c0-.19,0-.38,0-.56m15.23-6.46H240.46V160h73.65V121.2Zm-55.63,9.32h37.75a11.52,11.52,0,0,0,8.95,9v2.31a11.53,11.53,0,0,0-9,8.9H258.65a11.52,11.52,0,0,0-9-9.36v-2a11.53,11.53,0,0,0,8.86-8.86Z"/><circle class="cls-2" cx="278.32" cy="141.16" r="8.63"/></g><g id="_Group_26" data-name="&lt;Group&gt;"><path class="cls-3" d="M255.85,87.26h43c0,.18,0,.37,0,.56a8.63,8.63,0,0,0,8.63,8.63l.56,0v7.64c-.21,0-.43,0-.64,0a8.63,8.63,0,0,0-8.63,8.63c0,.16,0,.32,0,.48h-42.9a7.72,7.72,0,0,0,.05-1,8.63,8.63,0,0,0-8.63-8.63l-.56,0V96.36h.48a8.63,8.63,0,0,0,8.63-8.63C255.86,87.58,255.86,87.42,255.85,87.26Zm22.47,4.87a8.63,8.63,0,1,0,8.63,8.63A8.63,8.63,0,0,0,278.32,92.13Z"/><path class="cls-2" d="M241.89,118.18V82.23h70.78v36Zm55.5-6.46a10.08,10.08,0,0,1,9.23-9.08v-4.8a10.08,10.08,0,0,1-9.16-9.15H257.25a10.07,10.07,0,0,1-9.06,9.06v4.42a10.09,10.09,0,0,1,9.18,9.55Z"/><path class="cls-1" d="M311.24,83.66v33.09H243.32V83.66h67.92m-12.36,3.6h-43c0,.16,0,.32,0,.48a8.63,8.63,0,0,1-8.63,8.63h-.47v7.22l.55,0a8.63,8.63,0,0,1,8.63,8.63,7.72,7.72,0,0,1-.05,1h42.9c0-.16,0-.32,0-.48a8.63,8.63,0,0,1,8.63-8.63c.21,0,.43,0,.64,0V96.43l-.56,0a8.63,8.63,0,0,1-8.63-8.63c0-.19,0-.38,0-.56m15.23-6.46H240.46v38.81h73.65V80.8Zm-55.63,9.32h37.75a11.52,11.52,0,0,0,8.95,9v2.31a11.55,11.55,0,0,0-9,8.9H258.65a11.52,11.52,0,0,0-9-9.36V99a11.51,11.51,0,0,0,8.86-8.86Z"/><circle class="cls-2" cx="278.32" cy="100.76" r="8.63"/></g><g id="_Group_27" data-name="&lt;Group&gt;"><path class="cls-3" d="M255.85,46.86h43c0,.18,0,.37,0,.56a8.63,8.63,0,0,0,8.63,8.63l.56,0v7.64c-.21,0-.43,0-.64,0a8.63,8.63,0,0,0-8.63,8.63c0,.16,0,.32,0,.48h-42.9a7.72,7.72,0,0,0,.05-1,8.63,8.63,0,0,0-8.63-8.63l-.56,0V56h.48a8.63,8.63,0,0,0,8.63-8.63C255.86,47.18,255.86,47,255.85,46.86Zm22.47,4.87A8.63,8.63,0,1,0,287,60.36,8.63,8.63,0,0,0,278.32,51.73Z"/><path class="cls-2" d="M241.89,77.78V41.83h70.78v36Zm55.5-6.46a10.09,10.09,0,0,1,9.23-9.08v-4.8a10.08,10.08,0,0,1-9.16-9.15H257.25a10.09,10.09,0,0,1-9.06,9.07v4.41a10.09,10.09,0,0,1,9.18,9.55Z"/><path class="cls-1" d="M311.24,43.26V76.35H243.32V43.26h67.92m-12.36,3.6h-43c0,.16,0,.32,0,.48A8.63,8.63,0,0,1,247.23,56h-.47v7.22l.55,0a8.63,8.63,0,0,1,8.63,8.63,7.72,7.72,0,0,1-.05,1h42.9c0-.16,0-.32,0-.48a8.63,8.63,0,0,1,8.63-8.63c.21,0,.43,0,.64,0V56l-.56,0a8.63,8.63,0,0,1-8.63-8.63c0-.19,0-.38,0-.56m15.23-6.46H240.46V79.21h73.65V40.4Zm-55.63,9.32h37.75a11.52,11.52,0,0,0,8.95,9V61a11.55,11.55,0,0,0-9,8.9H258.65a11.52,11.52,0,0,0-9-9.36v-2a11.51,11.51,0,0,0,8.86-8.86Z"/><circle class="cls-2" cx="278.32" cy="60.36" r="8.63"/></g><g id="_Group_28" data-name="&lt;Group&gt;"><path class="cls-3" d="M255.85,6.46h43c0,.18,0,.37,0,.56a8.63,8.63,0,0,0,8.63,8.63l.56,0v7.64c-.21,0-.43,0-.64,0a8.63,8.63,0,0,0-8.63,8.63c0,.16,0,.32,0,.48h-42.9a7.72,7.72,0,0,0,.05-1,8.63,8.63,0,0,0-8.63-8.63l-.56,0V15.56h.48a8.63,8.63,0,0,0,8.63-8.63C255.86,6.78,255.86,6.62,255.85,6.46Zm22.47,4.87A8.63,8.63,0,1,0,287,20,8.63,8.63,0,0,0,278.32,11.33Z"/><path class="cls-2" d="M241.89,37.38V1.43h70.78v36Zm55.5-6.46a10.09,10.09,0,0,1,9.23-9.08V17a10.08,10.08,0,0,1-9.16-9.15H257.25A10.09,10.09,0,0,1,248.19,17v4.41a10.09,10.09,0,0,1,9.18,9.55Z"/><path class="cls-1" d="M311.24,2.86V36H243.32V2.86h67.92m-12.36,3.6h-43c0,.16,0,.32,0,.48a8.63,8.63,0,0,1-8.63,8.63h-.47v7.22l.55,0a8.63,8.63,0,0,1,8.63,8.63,7.72,7.72,0,0,1-.05,1h42.9c0-.16,0-.32,0-.48a8.63,8.63,0,0,1,8.63-8.63c.21,0,.43,0,.64,0V15.63l-.56,0A8.63,8.63,0,0,1,298.86,7c0-.19,0-.38,0-.56M314.11,0H240.46V38.81h73.65V0ZM258.48,9.32h37.75a11.52,11.52,0,0,0,8.95,9v2.31a11.55,11.55,0,0,0-9,8.9H258.65a11.52,11.52,0,0,0-9-9.36V18.18a11.51,11.51,0,0,0,8.86-8.86Z"/><circle class="cls-2" cx="278.32" cy="19.96" r="8.63"/></g><rect class="cls-2" x="210.59" y="305.96" width="97.01" height="122.52"/><text class="cls-4" transform="translate(221.2 366.9)">10X<tspan class="cls-5"><tspan x="0" y="18.74">INCREASE</tspan></tspan></text></g></g></svg>