<svg xmlns="http://www.w3.org/2000/svg" viewBox="0 0 155.94 152.74"><defs><style>.cls-1{fill:#fff;}.cls-2{fill:#0093cd;}.cls-3{fill:#15bef0;}</style></defs><title>Asset 17</title><g id="Layer_2" data-name="Layer 2"><g id="vanguard"><path class="cls-1" d="M93.93,87.81A18.12,18.12,0,0,0,95.25,69.7l4-4a31.4,31.4,0,0,0,39.28-4.66,2.8,2.8,0,0,0,0-3.93l-18-18,16.94-16.94a6.85,6.85,0,0,0,2,.31,7,7,0,1,0-7-7,7.19,7.19,0,0,0,.3,2L115.85,34.54,97.92,16.61a2.8,2.8,0,0,0-3.93,0,31.44,31.44,0,0,0-4.12,40.13l-4.05,4.06a18.11,18.11,0,0,0-17.33,1.9L22.07,16.83a2.8,2.8,0,0,0-3.93,4L64.45,66.55a18.1,18.1,0,0,0-3.76,11c0,.31,0,.61,0,.92L51,88.21a2.81,2.81,0,0,0,0,4l4.91,4.9-7.21,7.87L45.6,101.8a1.91,1.91,0,0,0-2.68,0l-8,8a1.9,1.9,0,0,0,0,2.68l8,8a1.91,1.91,0,0,0,2.68,0l8-8a1.9,1.9,0,0,0,0-2.68l-2.22-2.22,7.21-7.87L62.91,104a2.76,2.76,0,0,0,2,.82,2.79,2.79,0,0,0,2-.82l8.58-8.59a17.65,17.65,0,0,0,3.43.34A18.08,18.08,0,0,0,90.1,91.9l42.79,42.26a2.77,2.77,0,0,0,2,.81,2.8,2.8,0,0,0,2-4.79Z"/><rect class="cls-2" x="26.81" y="3.7" width="17.85" height="17.85" transform="translate(1.54 28.96) rotate(-45)"/><rect class="cls-2" x="41.72" y="18.61" width="17.85" height="17.85" transform="translate(-4.63 43.87) rotate(-45)"/><rect class="cls-2" x="56.63" y="33.52" width="17.85" height="17.85" transform="translate(-10.81 58.79) rotate(-45)"/><rect class="cls-2" x="3.7" y="23.41" width="17.85" height="17.85" transform="translate(-19.17 18.39) rotate(-45)"/><rect class="cls-2" x="18.61" y="38.32" width="17.85" height="17.85" transform="translate(-25.34 33.31) rotate(-45)"/><rect class="cls-2" x="33.52" y="53.23" width="17.85" height="17.85" transform="translate(-31.52 48.22) rotate(-45)"/><rect class="cls-3" x="104.57" y="81.66" width="17.85" height="17.85" transform="translate(-30.81 106.78) rotate(-45)"/><rect class="cls-3" x="119.48" y="96.57" width="17.85" height="17.85" transform="translate(-36.99 121.7) rotate(-45)"/><rect class="cls-3" x="134.4" y="111.49" width="17.85" height="17.85" transform="translate(-43.17 136.61) rotate(-45)"/><rect class="cls-3" x="83.46" y="101.37" width="17.85" height="17.85" transform="translate(-50.93 97.63) rotate(-45)"/><rect class="cls-3" x="98.37" y="116.29" width="17.85" height="17.85" transform="translate(-57.11 112.54) rotate(-45)"/><rect class="cls-3" x="113.29" y="131.2" width="17.85" height="17.85" transform="translate(-63.29 127.46) rotate(-45)"/></g></g></svg>