<svg xmlns="http://www.w3.org/2000/svg" xmlns:xlink="http://www.w3.org/1999/xlink" viewBox="0 0 1691 1235"><defs><style>.cls-1{fill:none;}.cls-2{clip-path:url(#clip-path);}.cls-3{fill:#009639;}.cls-4{fill:#82bc00;}.cls-5{fill:#709606;}.cls-6{fill:#5e6367;}.cls-7{fill:#666;}.cls-8{fill:#fff;}.cls-9{fill:#e4e4e4;}.cls-10{fill:#333;}.cls-11{fill:#006747;}.cls-12{clip-path:url(#clip-path-2);}.cls-13{fill:#592007;}.cls-14{fill:#15bef0;}.cls-15{fill:#002f60;}.cls-16{fill:#8dd3f0;}.cls-17{fill:#073586;}.cls-18{fill:#06873d;}</style><clipPath id="clip-path"><rect class="cls-1" x="243" y="260" width="1281" height="725.07"/></clipPath><clipPath id="clip-path-2"><rect class="cls-1" x="241" y="185" width="148" height="386"/></clipPath></defs><title>Asset 22</title><g id="Layer_2" data-name="Layer 2"><g id="wind"><g class="cls-2"><circle class="cls-3" cx="1285" cy="812" r="362"/><circle class="cls-3" cx="557" cy="739" r="362"/><path class="cls-4" d="M654,726c0,180.6-146.4,327-327,327S0,933.6,0,753,146.4,399,327,399,654,545.4,654,726Z"/><circle class="cls-4" cx="754" cy="805" r="411"/><circle class="cls-4" cx="1329" cy="873" r="362"/><path class="cls-5" d="M962.31,629.24l-8.19-1-156.78,23,5,.71L794.88,653c-4.37-.3-9.44-.42-14.83-.36l-58.53-64.23-51.84,2.74,92.71,62.42a111.37,111.37,0,0,0-11.84,1.67l-9.1-.23,2-.81c-17.07-1.24-27-4.8-27-4.8l-171.5,3.22-3.54,1.75,190.8,4.52,2.71-1.13,8.59.21c-.24.39-.14.79.33,1.18,2.52,2.07,14.87,3.27,29.39,3l1.33,1.18-5.59.29a1.83,1.83,0,0,1-.27.3l-.42-.22c-2.22,3.06-20.94,6.74-20.94,6.74l74.17,20.23-1.13-.57.92.25,11.78-.71L801.07,662l-7.73.4-1.44-1.28c12.15-1.28,19.39-3.44,17-5.41a6.05,6.05,0,0,0-2-.94l7.63-1.12,3.61.52c2-.19,4.17-.36,6.36-.52l-4.53.8c19.59-1.84,49.41-2,49.41-2l95.33-23.33-7.2,1.26Z"/></g><polygon class="cls-6" points="683.57 219.64 670.76 590 712.38 590 697.44 214.31 689.97 194.03 683.57 219.64"/><rect class="cls-7" x="650.53" y="202.27" width="33.09" height="15.13" transform="translate(-15.55 361.65) rotate(-30)"/><path class="cls-8" d="M516,280.48l4.27,8.54,132.35-32s4.26-22.41,16-34.15l-12.81-22.42Z"/><path class="cls-9" d="M652.62,257s4.26-22.41,16-34.15L520.27,289Z"/><rect class="cls-7" x="698.02" y="201.69" width="33.09" height="15.13" transform="translate(1229.71 746.86) rotate(-150.1)"/><path class="cls-8" d="M851.45,304.52l5.24-8-94.07-98.44s-21.53,7.54-37.58,3.28l-13,22.32Z"/><rect class="cls-7" x="674.74" y="161.01" width="33.09" height="15.13" transform="translate(851.82 -524.61) rotate(89.33)"/><path class="cls-8" d="M703.7,2.27l-9.53-.46L657.25,132.87s17.44,14.7,21.93,30.69l25.81-.19Z"/><circle class="cls-10" cx="690.5" cy="195.63" r="26.15"/><path class="cls-9" d="M765.31,196.18s-22.68,7.55-39.15,3.14l132.45,97.17Z"/><path class="cls-9" d="M656.6,132.42s17.5,14.76,22,30.88L694,0Z"/><path class="cls-11" d="M687,566s-6.42,0-9,4.25A49.11,49.11,0,0,0,669,558c-18-18-16,5-16,5s3-8,6-7,14,10,17,21a52.37,52.37,0,0,1,1.81,10.14C674.69,580.39,669.11,569,667,569c-3,0-5-5-5-5a21.42,21.42,0,0,0,1,6c1,3,7,8,9,11,1.66,2.49,1.94,7,2,8.52-1.87-3.18-4.57-6.54-8-7.52-7-2-10,3-10,3s5-2,9-1,10,14,10,14h1.25c1.69.56,6.75,0,6.75,0a46.64,46.64,0,0,0-2.45-21.82c1.26-2.71,3.2-6,5.45-7.18,4-2,10,1,13,5S696,566,687,566Z"/><path class="cls-11" d="M701.41,575.78s4.25,0,6,2.82a32.6,32.6,0,0,1,6-8.12c11.94-11.94,10.61,3.31,10.61,3.31s-2-5.3-4-4.64-9.28,6.63-11.27,13.93a35.14,35.14,0,0,0-1.2,6.72c2.07-4.47,5.77-12,7.17-12,2,0,3.31-3.31,3.31-3.31a14.28,14.28,0,0,1-.66,4c-.66,2-4.64,5.3-6,7.29-1.1,1.65-1.28,4.67-1.32,5.65,1.24-2.11,3-4.34,5.3-5,4.64-1.32,6.63,2,6.63,2s-3.31-1.33-6-.66-6.63,9.28-6.63,9.28h-.82a17.52,17.52,0,0,1-4.48,0,30.91,30.91,0,0,1,1.62-14.47c-.83-1.8-2.12-4-3.61-4.76-2.65-1.32-6.63.67-8.62,3.32S695.44,575.78,701.41,575.78Z"/><g class="cls-12"><path class="cls-13" d="M303.15,382.54A10.43,10.43,0,0,0,292.72,393v49.22H253.5v1.67h-3.34v45.06H223.88V439.69a10.43,10.43,0,0,0-20.86,0v59.24a11.2,11.2,0,0,0,10.85,10.85h36.29V554h35V463.05h17.52a11.18,11.18,0,0,0,10.84-10.84V393A10.42,10.42,0,0,0,303.15,382.54Z"/><path class="cls-3" d="M355,360a37.5,37.5,0,0,0-42.47-32.54,37.58,37.58,0,0,0-42.26-28.3,37.54,37.54,0,0,0-65.16,25.43c0,.92,0,1.84.11,2.75a38,38,0,0,0-4.29-.25,37.54,37.54,0,0,0-37.52,36.64,37.6,37.6,0,0,0-22.72,19.09,37.55,37.55,0,1,0,42.4,61.06,30.12,30.12,0,0,0,28.64,21.72A29.52,29.52,0,0,0,234.3,455a28.34,28.34,0,0,0,25.88,17.26c13.91,0,25.47-10.32,27.88-23.93l13.83-6.11-1.45-44.29c1.08.56,2.18,1.08,3.32,1.54,1.93,19.33,17.8,34.41,37.09,34.41,20.59,0,37.28-17.18,37.28-38.38A38.39,38.39,0,0,0,355,360Z"/></g><path class="cls-13" d="M1461.75,394.25a6.25,6.25,0,0,0-6.25,6.25V430H1432v1h-2v27h-15.75V428.5a6.25,6.25,0,0,0-12.5,0V464a6.7,6.7,0,0,0,6.5,6.5H1430V497h21V442.5h10.5a6.7,6.7,0,0,0,6.5-6.5V400.5A6.25,6.25,0,0,0,1461.75,394.25Z"/><path class="cls-3" d="M1492.82,380.72A22.49,22.49,0,0,0,1470.5,361a23.06,23.06,0,0,0-3.13.22A22.49,22.49,0,0,0,1445.5,344a23.16,23.16,0,0,0-3.45.26,22.5,22.5,0,0,0-39,15.24c0,.55,0,1.1.07,1.65a21.89,21.89,0,0,0-2.57-.15A22.51,22.51,0,0,0,1378,383a22.56,22.56,0,0,0-13.61,11.44A22.5,22.5,0,1,0,1389.8,431,18.06,18.06,0,0,0,1407,444a17.73,17.73,0,0,0,13.53-6.35A17,17,0,0,0,1436,448a17.15,17.15,0,0,0,16.71-14.35L1461,430l-.87-26.55c.65.34,1.31.65,2,.93,1.16,11.58,10.66,20.62,22.22,20.62,12.34,0,22.35-10.3,22.35-23A23,23,0,0,0,1492.82,380.72Z"/><path class="cls-13" d="M1430,497a11.79,11.79,0,0,0,10,5,14.91,14.91,0,0,0,11-5Z"/><path class="cls-13" d="M914.9,384.9a2.5,2.5,0,0,0-2.5,2.5v11.8H903v.4h-.8v10.8h-6.3V398.6a2.5,2.5,0,0,0-5,0v14.2a2.67,2.67,0,0,0,2.6,2.6h8.7V426h8.4V404.2h4.2a2.67,2.67,0,0,0,2.6-2.6V387.4A2.5,2.5,0,0,0,914.9,384.9Z"/><path class="cls-3" d="M927.33,379.49a9,9,0,0,0-8.93-7.89,8.66,8.66,0,0,0-1.25.09A13.33,13.33,0,0,0,891.4,371q0,.33,0,.66a8.77,8.77,0,0,0-1-.06,9,9,0,0,0-9,8.78A9,9,0,0,0,876,385a9,9,0,1,0,10.16,14.63A7.22,7.22,0,0,0,893,404.8a7.09,7.09,0,0,0,5.41-2.54,6.74,6.74,0,0,0,12.88-1.6l3.32-1.46-.35-10.62a7.28,7.28,0,0,0,.8.37,8.92,8.92,0,0,0,17.82-.95A9.2,9.2,0,0,0,927.33,379.49Z"/><path class="cls-13" d="M902.16,426a4.77,4.77,0,0,0,4,2,6,6,0,0,0,4.44-2Z"/><polygon class="cls-5" points="1253.01 524.95 1374 582 1431.5 560 1354.32 529.08 1253.01 524.95"/><path class="cls-14" d="M1337.17,439.05l30.8,40.64-72.08,14-30.17-44.3,22.39-3.24v.06l15.56-2.22v-.08Zm18.9,39.37-25.41-35.09-52.4,6.83-.16,1.11,24.61,37.16Z"/><path class="cls-15" d="M1368,479.69l-1.42,2.07-72.25,14.77-28.9-43.67-23.66,24.77a6.54,6.54,0,0,0-1.1-1.89v0l24-26.19,1.12-.16,30.17,44.3Z"/><path class="cls-8" d="M1330.66,443.33l25.41,35.09-53.36,10-24.61-37.16.16-1.11Zm22.39,32.55-11.12-14.6-9.84,1.58,10.48,14.45Zm-11.91,2.39L1330,462.86l-9.84,1.91L1330.5,480Zm-.48-18.74-10.32-14.13-10.16,1,10.48,14.45Zm-11.59,1.9-10.48-14.6-10.8,1.58,10.8,14.61Zm-.79,19.06-9.53-14.93L1307,467.31l10.16,15.56Zm-11.28-17-11.11-15.09-11,1.43,10.48,15.4Zm-1.42,19.69-10.8-15.56-11.12,1.9L1304,485.89ZM1304,465.72l-10.63-15.56-11.91,1.91,10.48,15.4Z"/><path class="cls-15" d="M1355.75,484.14l-1.43,44.94L1297,545l-13.18-6.51-.48-33.2,1.27-.15-.32-4-11.11-17.47-6.83.8-10.16,10,.16,3.34,3,.15-.15-2.72,7.78-7,11.11,17.62.32,34.46-2.54-1L1276,538l-.16-30.65-12.23-4.76-1.9-.48.31,30.81-2.22-.95v-3.66L1253,525l-.79-47.8-.16-3.65,15.56-16.35,26.68,39.38Zm-8.58,37.32V499.38l-13.65,3.34-.16,21.75Zm-28.58,7.14-.32-23-14.76,3.65.16,23Z"/><polygon class="cls-15" points="1341.93 461.27 1353.05 475.88 1342.57 477.31 1332.09 462.86 1341.93 461.27"/><polygon class="cls-16" points="1347.17 499.38 1347.17 521.46 1333.36 524.47 1333.52 502.72 1347.17 499.38"/><polygon class="cls-15" points="1330.03 462.86 1341.14 478.26 1330.5 480.01 1320.18 464.77 1330.03 462.86"/><polygon class="cls-15" points="1330.34 445.4 1340.66 459.53 1330.66 460.8 1320.18 446.35 1330.34 445.4"/><polygon class="cls-15" points="1318.59 446.83 1329.07 461.43 1318.59 463.02 1307.8 448.41 1318.59 446.83"/><polygon class="cls-15" points="1318.75 465.56 1328.28 480.49 1317.16 482.87 1307 467.31 1318.75 465.56"/><polygon class="cls-16" points="1318.28 505.58 1318.59 528.6 1303.67 532.25 1303.51 509.23 1318.28 505.58"/><polygon class="cls-15" points="1305.89 448.41 1317 463.5 1305.41 465.25 1294.93 449.84 1305.89 448.41"/><polygon class="cls-15" points="1304.78 467.63 1315.58 483.19 1303.98 485.89 1293.66 469.53 1304.78 467.63"/><polygon class="cls-15" points="1305.41 437.62 1305.57 440.95 1303.51 440.63 1303.66 443.88 1288.11 446.13 1287.95 440.63 1285.41 440.47 1285.25 437.3 1296.52 435.08 1305.41 437.62"/><polygon class="cls-15" points="1293.35 450.16 1303.98 465.72 1291.92 467.47 1281.44 452.07 1293.35 450.16"/><path class="cls-14" d="M1265.4,452.86l28.9,43.67-26.68-39.38-15.56,16.35.16,3.65s-10.48,1-10.48.48Z"/><polygon class="cls-8" points="1284.29 501.13 1284.61 505.1 1283.34 505.25 1283.34 505.1 1278.1 505.89 1266.99 488.27 1259.21 495.23 1259.21 495.1 1256.35 497.8 1256.19 494.46 1266.35 484.46 1278.9 503.51 1284.13 503.35 1284.29 501.13"/><polygon class="cls-16" points="1273.18 483.66 1284.29 501.13 1284.13 503.35 1278.9 503.51 1266.35 484.46 1273.18 483.66"/><polygon class="cls-16" points="1283.34 505.25 1283.82 538.45 1278.42 540.35 1278.1 505.89 1283.34 505.25"/><polygon class="cls-16" points="1283.34 505.1 1283.34 505.25 1278.1 505.89 1283.34 505.1"/><polygon class="cls-8" points="1275.88 507.32 1276.04 537.97 1264.13 532.25 1263.65 502.56 1275.88 507.32"/><polygon class="cls-16" points="1263.65 502.56 1264.13 532.25 1262.06 532.89 1261.75 502.08 1263.65 502.56"/><polygon class="cls-16" points="1259.21 495.23 1259.37 497.95 1256.35 497.8 1259.21 495.23"/><polygon class="cls-16" points="1259.21 495.1 1259.21 495.23 1256.35 497.8 1259.21 495.1"/><path class="cls-17" d="M1241.74,477.63l-1.1-1.89A6.54,6.54,0,0,1,1241.74,477.63Z"/><polygon class="cls-5" points="758.39 470.77 922.17 548 1000 518.22 895.52 476.36 758.39 470.77"/><path class="cls-14" d="M872.31,354.49l41.7,55-97.58,18.91-40.84-60,30.3-4.37v.07l21.07-3V361Zm25.58,53.31L863.5,360.29l-70.93,9.25-.22,1.5,33.32,50.3Z"/><path class="cls-15" d="M914,409.52l-1.94,2.79-97.79,20-39.12-59.11-32,33.53a8.49,8.49,0,0,0-1.49-2.55v0l32.45-35.46,1.51-.22,40.84,60Z"/><path class="cls-8" d="M863.5,360.29l34.39,47.51-72.22,13.54L792.35,371l.22-1.5Zm30.3,44.07-15-19.78-13.33,2.15,14.19,19.56Zm-16.12,3.22-15-20.85-13.33,2.58,14,20.63ZM877,382.22l-14-19.13-13.76,1.29,14.19,19.56Zm-15.69,2.58L847.16,365l-14.61,2.15L847.16,387Zm-1.08,25.79-12.89-20.2-15.91,2.36,13.76,21.06Zm-15.26-23-15-20.42-14.83,1.94L829.32,390Zm-1.93,26.65-14.62-21.06-15,2.58,14,22.14ZM827.39,390.6,813,369.54l-16.12,2.58L811.05,393Z"/><path class="cls-15" d="M897.46,415.53l-1.94,60.83-77.59,21.5L800.09,489l-.64-44.93,1.72-.2-.43-5.38-15-23.64L776.45,416,762.69,429.5l.22,4.52,4.08.21-.21-3.69,10.53-9.42,15,23.86.43,46.64-3.44-1.29.22-1.93-.22-41.49-16.55-6.44-2.58-.65.43,41.7-3-1.29v-4.94l-9.25-4.52-1.07-64.69-.22-4.95L778.17,379l36.11,53.31ZM885.85,466V436.17l-18.48,4.51-.22,29.45Zm-38.69,9.68-.43-31.17-20,4.94.22,31.17Z"/><polygon class="cls-15" points="878.76 384.58 893.8 404.36 879.62 406.29 865.43 386.73 878.76 384.58"/><polygon class="cls-16" points="885.85 436.17 885.85 466.04 867.15 470.13 867.37 440.68 885.85 436.17"/><polygon class="cls-15" points="862.64 386.73 877.68 407.58 863.28 409.94 849.31 389.31 862.64 386.73"/><polygon class="cls-15" points="863.07 363.09 877.04 382.22 863.5 383.94 849.31 364.38 863.07 363.09"/><polygon class="cls-15" points="847.16 365.02 861.35 384.8 847.16 386.95 832.55 367.17 847.16 365.02"/><polygon class="cls-15" points="847.38 390.38 860.27 410.59 845.23 413.81 831.47 392.75 847.38 390.38"/><polygon class="cls-16" points="846.73 444.55 847.16 475.72 826.96 480.66 826.74 449.49 846.73 444.55"/><polygon class="cls-15" points="829.97 367.17 845.01 387.59 829.32 389.96 815.14 369.11 829.97 367.17"/><polygon class="cls-15" points="828.46 393.18 843.08 414.24 827.39 417.9 813.42 395.76 828.46 393.18"/><polygon class="cls-15" points="829.32 352.56 829.54 357.07 826.74 356.64 826.95 361.04 805.89 364.08 805.68 356.64 802.24 356.43 802.03 352.13 817.29 349.12 829.32 352.56"/><polygon class="cls-15" points="812.99 369.54 827.39 390.6 811.05 392.96 796.87 372.12 812.99 369.54"/><path class="cls-14" d="M775.16,373.19l39.12,59.11L778.17,379,757.1,401.13l.22,4.95s-14.19,1.29-14.19.64Z"/><polygon class="cls-8" points="800.74 438.53 801.17 443.9 799.45 444.11 799.45 443.9 792.35 444.98 777.31 421.12 766.78 430.55 766.78 430.36 762.91 434.02 762.69 429.5 776.45 415.96 793.43 441.76 800.52 441.54 800.74 438.53"/><polygon class="cls-16" points="785.69 414.89 800.74 438.53 800.52 441.54 793.43 441.76 776.45 415.96 785.69 414.89"/><polygon class="cls-16" points="799.45 444.11 800.09 489.04 792.78 491.62 792.35 444.98 799.45 444.11"/><polygon class="cls-16" points="799.45 443.9 799.45 444.11 792.35 444.98 799.45 443.9"/><polygon class="cls-8" points="789.34 446.92 789.56 488.4 773.44 480.66 772.79 440.47 789.34 446.92"/><polygon class="cls-16" points="772.79 440.47 773.44 480.66 770.64 481.52 770.22 439.82 772.79 440.47"/><polygon class="cls-16" points="766.78 430.55 766.99 434.23 762.91 434.02 766.78 430.55"/><polygon class="cls-16" points="766.78 430.36 766.78 430.55 762.91 434.02 766.78 430.36"/><path class="cls-17" d="M743.13,406.72l-1.49-2.55A8.49,8.49,0,0,1,743.13,406.72Z"/><polygon class="cls-18" points="539.18 385.13 582.62 405.62 603.26 397.72 575.55 386.62 539.18 385.13"/><path class="cls-14" d="M569.39,354.29l11.07,14.6-25.89,5L543.74,358l8-1.16v0l5.58-.8v0Zm6.79,14.14-9.12-12.6-18.82,2.45,0,.4L557,372Z"/><path class="cls-15" d="M580.46,368.89l-.52.74L554,374.93l-10.38-15.68-8.49,8.89a2.17,2.17,0,0,0-.4-.67h0l8.61-9.41.4-.05,10.83,15.9Z"/><path class="cls-8" d="M567.06,355.83l9.12,12.6L557,372l-8.83-13.34,0-.4Zm8,11.69-4-5.25-3.53.57,3.76,5.19Zm-4.28.85-4-5.53-3.54.69L567,369Zm-.17-6.72-3.71-5.08-3.65.34,3.77,5.19Zm-4.16.68-3.77-5.25-3.87.57,3.87,5.25Zm-.29,6.84-3.42-5.36-4.22.63,3.65,5.59Zm-4.05-6.1-4-5.42-3.93.52L558,363.7Zm-.51,7.07-3.88-5.59-4,.69,3.71,5.87Zm-4.16-6.27-3.82-5.59-4.28.69,3.77,5.53Z"/><path class="cls-15" d="M576.07,370.48l-.52,16.14L555,392.32,550.24,390l-.17-11.92.45-.05-.11-1.43-4-6.27-2.45.29-3.65,3.59,0,1.2,1.09.05-.06-1,2.79-2.5,4,6.33.11,12.38-.91-.35.05-.51-.05-11L543,377.1l-.69-.17.12,11.06-.8-.35v-1.31l-2.45-1.19L538.89,368l-.06-1.31,5.59-5.87L554,374.93ZM573,383.88V376l-4.91,1.19L568,385Zm-10.27,2.57-.11-8.27-5.3,1.31.05,8.27Z"/><polygon class="cls-15" points="571.11 362.27 575.1 367.52 571.33 368.03 567.57 362.84 571.11 362.27"/><polygon class="cls-16" points="572.99 375.96 572.99 383.88 568.03 384.96 568.08 377.15 572.99 375.96"/><polygon class="cls-15" points="566.83 362.84 570.82 368.37 567 369 563.29 363.53 566.83 362.84"/><polygon class="cls-15" points="566.94 356.57 570.65 361.64 567.06 362.1 563.29 356.91 566.94 356.57"/><polygon class="cls-15" points="562.72 357.08 566.49 362.33 562.72 362.9 558.85 357.65 562.72 357.08"/><polygon class="cls-15" points="562.78 363.81 566.2 369.17 562.21 370.03 558.56 364.44 562.78 363.81"/><polygon class="cls-16" points="562.61 378.18 562.72 386.45 557.36 387.76 557.31 379.49 562.61 378.18"/><polygon class="cls-15" points="558.16 357.65 562.15 363.07 557.99 363.7 554.23 358.17 558.16 357.65"/><polygon class="cls-15" points="557.76 364.55 561.64 370.14 557.48 371.11 553.77 365.24 557.76 364.55"/><polygon class="cls-15" points="557.99 353.78 558.05 354.98 557.31 354.86 557.36 356.03 551.78 356.84 551.72 354.86 550.81 354.8 550.75 353.66 554.8 352.87 557.99 353.78"/><polygon class="cls-15" points="553.66 358.28 557.48 363.87 553.14 364.5 549.38 358.97 553.66 358.28"/><path class="cls-14" d="M543.62,359.25,554,374.93l-9.58-14.14-5.59,5.87.06,1.31a26.29,26.29,0,0,1-3.76.17Z"/><polygon class="cls-8" points="550.41 376.58 550.52 378.01 550.07 378.06 550.07 378.01 548.18 378.29 544.19 371.96 541.4 374.46 541.4 374.42 540.37 375.39 540.32 374.19 543.97 370.6 548.47 377.44 550.35 377.38 550.41 376.58"/><polygon class="cls-16" points="546.42 370.31 550.41 376.58 550.35 377.38 548.47 377.44 543.97 370.6 546.42 370.31"/><polygon class="cls-16" points="550.07 378.06 550.24 389.98 548.3 390.67 548.18 378.29 550.07 378.06"/><polygon class="cls-16" points="550.07 378.01 550.07 378.06 548.18 378.29 550.07 378.01"/><polygon class="cls-8" points="547.39 378.81 547.44 389.81 543.17 387.76 543 377.1 547.39 378.81"/><polygon class="cls-16" points="543 377.1 543.17 387.76 542.43 387.99 542.31 376.93 543 377.1"/><polygon class="cls-16" points="541.4 374.46 541.46 375.44 540.37 375.39 541.4 374.46"/><polygon class="cls-16" points="541.4 374.42 541.4 374.46 540.37 375.39 541.4 374.42"/><path class="cls-17" d="M535.13,368.14l-.4-.67A2.17,2.17,0,0,1,535.13,368.14Z"/><polygon class="cls-18" points="1160.06 473.19 1191.77 488.14 1206.84 482.38 1186.61 474.27 1160.06 473.19"/><path class="cls-14" d="M1182.11,450.68l8.08,10.65-18.9,3.66-7.9-11.61,5.87-.85v0l4.07-.58v0Zm5,10.32-6.66-9.2-13.74,1.79,0,.29,6.45,9.74Z"/><path class="cls-15" d="M1190.19,461.33l-.38.54-18.93,3.87-7.58-11.44-6.2,6.49a1.68,1.68,0,0,0-.28-.5h0l6.29-6.87.29,0,7.9,11.61Z"/><path class="cls-8" d="M1180.41,451.8l6.66,9.2-14,2.62-6.45-9.74,0-.29Zm5.87,8.53-2.92-3.83-2.58.42,2.75,3.78Zm-3.13.62-2.91-4-2.58.5,2.71,4ZM1183,456l-2.71-3.7-2.66.25,2.75,3.79Zm-3,.5-2.74-3.83-2.83.42,2.83,3.83Zm-.21,5-2.49-3.92-3.08.46,2.66,4.08Zm-3-4.46-2.91-3.95-2.88.37,2.75,4Zm-.38,5.16-2.83-4.07-2.91.5,2.71,4.28Zm-3-4.57-2.79-4.08-3.12.5,2.74,4Z"/><path class="cls-15" d="M1187,462.49l-.37,11.78-15,4.16-3.46-1.7L1168,468l.33,0-.08-1-2.92-4.58-1.79.21-2.66,2.62,0,.87.79,0,0-.71,2-1.82,2.91,4.62.09,9-.67-.25,0-.38,0-8-3.2-1.25-.5-.12.08,8.07-.58-.25v-1l-1.79-.87-.21-12.53,0-1,4.08-4.29,7,10.32Zm-2.24,9.78v-5.78l-3.58.87,0,5.7Zm-7.49,1.88-.09-6-3.87,1,0,6Z"/><polygon class="cls-15" points="1183.36 456.5 1186.28 460.33 1183.53 460.7 1180.78 456.92 1183.36 456.5"/><polygon class="cls-16" points="1184.74 466.49 1184.74 472.27 1181.12 473.06 1181.16 467.36 1184.74 466.49"/><polygon class="cls-15" points="1180.24 456.92 1183.15 460.95 1180.37 461.41 1177.66 457.42 1180.24 456.92"/><polygon class="cls-15" points="1180.33 452.34 1183.03 456.04 1180.41 456.38 1177.66 452.59 1180.33 452.34"/><polygon class="cls-15" points="1177.24 452.71 1179.99 456.54 1177.24 456.96 1174.41 453.13 1177.24 452.71"/><polygon class="cls-15" points="1177.29 457.63 1179.78 461.54 1176.87 462.16 1174.21 458.08 1177.29 457.63"/><polygon class="cls-16" points="1177.16 468.11 1177.24 474.15 1173.33 475.1 1173.29 469.07 1177.16 468.11"/><polygon class="cls-15" points="1173.92 453.13 1176.83 457.08 1173.79 457.54 1171.05 453.5 1173.92 453.13"/><polygon class="cls-15" points="1173.63 458.17 1176.45 462.24 1173.42 462.95 1170.71 458.67 1173.63 458.17"/><polygon class="cls-15" points="1173.79 450.3 1173.83 451.17 1173.29 451.09 1173.33 451.94 1169.26 452.53 1169.21 451.09 1168.55 451.05 1168.51 450.22 1171.46 449.63 1173.79 450.3"/><polygon class="cls-15" points="1170.63 453.59 1173.42 457.67 1170.25 458.12 1167.51 454.09 1170.63 453.59"/><path class="cls-14" d="M1163.3,454.3l7.58,11.44-7-10.32-4.08,4.29,0,1a21.1,21.1,0,0,1-2.75.13Z"/><polygon class="cls-8" points="1168.26 466.95 1168.34 467.99 1168.01 468.03 1168.01 467.99 1166.63 468.19 1163.72 463.58 1161.68 465.4 1161.68 465.37 1160.93 466.07 1160.89 465.2 1163.55 462.58 1166.84 467.57 1168.21 467.53 1168.26 466.95"/><polygon class="cls-16" points="1165.34 462.37 1168.26 466.95 1168.21 467.53 1166.84 467.57 1163.55 462.58 1165.34 462.37"/><polygon class="cls-16" points="1168.01 468.03 1168.13 476.73 1166.72 477.23 1166.63 468.19 1168.01 468.03"/><polygon class="cls-16" points="1168.01 467.99 1168.01 468.03 1166.63 468.19 1168.01 467.99"/><polygon class="cls-8" points="1166.05 468.57 1166.09 476.6 1162.97 475.1 1162.85 467.32 1166.05 468.57"/><polygon class="cls-16" points="1162.85 467.32 1162.97 475.1 1162.43 475.27 1162.35 467.2 1162.85 467.32"/><polygon class="cls-16" points="1161.68 465.4 1161.72 466.12 1160.93 466.07 1161.68 465.4"/><polygon class="cls-16" points="1161.68 465.37 1161.68 465.4 1160.93 466.07 1161.68 465.37"/><path class="cls-17" d="M1157.1,460.79l-.28-.5A1.68,1.68,0,0,1,1157.1,460.79Z"/><path class="cls-13" d="M627.13,359.15a1.92,1.92,0,0,0-1.92,1.92v9H618v.31h-.61v8.27h-4.83v-9a1.92,1.92,0,1,0-3.83,0v10.88a2.05,2.05,0,0,0,2,2h6.67v8.12h6.43v-16.7h3.22a2.05,2.05,0,0,0,2-2V361.07A1.92,1.92,0,0,0,627.13,359.15Z"/><path class="cls-3" d="M636.65,355a6.89,6.89,0,0,0-6.84-6,7.5,7.5,0,0,0-1,.06,6.9,6.9,0,0,0-6.7-5.27,6.23,6.23,0,0,0-1.06.08,6.89,6.89,0,0,0-12,4.67c0,.17,0,.33,0,.5a6.68,6.68,0,0,0-.78,0,6.89,6.89,0,0,0-6.89,6.72,8.37,8.37,0,1,0,3.61,14.72,5.54,5.54,0,0,0,5.26,4,5.43,5.43,0,0,0,4.15-1.95,5.19,5.19,0,0,0,4.75,3.17,5.26,5.26,0,0,0,5.12-4.39l2.54-1.12-.27-8.13.61.28a6.84,6.84,0,0,0,13.66-.73A7,7,0,0,0,636.65,355Z"/><path class="cls-13" d="M617.36,390.62a3.66,3.66,0,0,0,3.1,1.53,4.61,4.61,0,0,0,3.4-1.53Z"/></g></g></svg>