<svg xmlns="http://www.w3.org/2000/svg" viewBox="0 0 102.7 102.7"><defs><style>.cls-1{fill:#d3d800;}.cls-2{fill:#fff;}</style></defs><title>Asset 6</title><g id="Layer_2" data-name="Layer 2"><g id="big_picture" data-name="big picture"><circle class="cls-1" cx="51.35" cy="51.35" r="48.65"/><path class="cls-2" d="M51.35,5.41A45.95,45.95,0,1,1,5.41,51.35,45.94,45.94,0,0,1,51.35,5.41m0-5.41A51.35,51.35,0,1,0,102.7,51.35,51.41,51.41,0,0,0,51.35,0Z"/><path class="cls-2" d="M48.14,26a2.22,2.22,0,0,0,2.22-2.21v-3.5a2.22,2.22,0,1,0-4.43,0v3.5A2.21,2.21,0,0,0,48.14,26Z"/><path class="cls-2" d="M61.78,32a2.23,2.23,0,0,0,3.11-.41L67,28.86a2.22,2.22,0,0,0-3.51-2.71l-2.14,2.78A2.23,2.23,0,0,0,61.78,32Z"/><path class="cls-2" d="M32.1,31.62a2.21,2.21,0,0,0,3.13-3.13L32.76,26a2.22,2.22,0,1,0-3.14,3.14Z"/><path class="cls-2" d="M27.39,42.7h-3.5a2.22,2.22,0,1,0,0,4.43h3.5a2.22,2.22,0,1,0,0-4.43Z"/><path class="cls-2" d="M34.78,57.81a2.21,2.21,0,0,0-3.11.35l-2.18,2.73A2.21,2.21,0,0,0,29.84,64h0A2.22,2.22,0,0,0,33,63.66l2.18-2.74A2.21,2.21,0,0,0,34.78,57.81Z"/><path class="cls-2" d="M73.19,50.58c-2.39,0-4.78,0-7.17,0-2.15,0-2.47-.34-2.49-2.42,0-.93,0-1.86,0-2.79a15.49,15.49,0,0,0-31-1.26c-.41,6.73,3.85,13.27,9.9,15.26l3-3.15-1.35-.5A11.49,11.49,0,0,1,36.8,43a11.35,11.35,0,0,1,11.11-9.53,11.12,11.12,0,0,1,11.28,9.24,33.34,33.34,0,0,1,.23,5.75c0,4,2.21,6.15,6.17,6.18,2.68,0,5.37,0,8,.05a2,2,0,0,1,1.38,1A1.43,1.43,0,0,1,74.6,57a3,3,0,0,1-1.65.33c-7.81,0-15.63,0-23.44,0-3.63,0-5.85,2.12-5.84,5.5s2.17,5.36,5.73,5.38c2.69,0,5.37-.09,8.05.07a2.49,2.49,0,0,1,1.82,1.4c.27.88.46,2-.81,2.72-3.93,2.22-5.1,4.78-4.43,9.26.57.08,1,.14,1.35.22v4.5a2.22,2.22,0,1,0,4.43,0v-4.3a2.33,2.33,0,0,1,1.5-.28,5.33,5.33,0,0,1,1.31.1v4.34a2.22,2.22,0,1,0,4.44,0V82a9.74,9.74,0,0,1,1.7-.33c.66-4.52-.51-6.91-4.39-9.32a2.35,2.35,0,0,1-.88-1.82,5.94,5.94,0,0,0-6.57-6.43c-2.45.14-4.9,0-7.35,0-1,0-1.81-.1-1.78-1.35s.91-1.32,1.85-1.29c.4,0,.81,0,1.22,0,7.41,0,14.81,0,22.22,0,3.82,0,6.08-2,6.12-5.44S77,50.61,73.19,50.58Z"/></g></g></svg>