<svg xmlns="http://www.w3.org/2000/svg" xmlns:xlink="http://www.w3.org/1999/xlink" viewBox="0 0 803.37 436.39"><defs><style>.cls-1,.cls-10,.cls-11,.cls-12,.cls-13,.cls-3{fill:none;}.cls-2{opacity:0.3;}.cls-10,.cls-11,.cls-3,.cls-7,.cls-8{stroke:#fff;}.cls-11,.cls-13,.cls-3,.cls-7,.cls-8{stroke-miterlimit:10;}.cls-3{stroke-width:22.75px;}.cls-4{fill:#fff;}.cls-5{fill:#d3d800;}.cls-6{clip-path:url(#clip-path);}.cls-7,.cls-8{stroke-width:13.2px;}.cls-7{fill:url(#Unnamed_Pattern);}.cls-8{fill:url(#Unnamed_Pattern-15);}.cls-9{clip-path:url(#clip-path-2);}.cls-10,.cls-12{stroke-linecap:round;stroke-linejoin:round;}.cls-10,.cls-11,.cls-13{stroke-width:8.49px;}.cls-12,.cls-13{stroke:#d3d800;}.cls-12{stroke-width:8.71px;}</style><clipPath id="clip-path" transform="translate(-55.71)"><rect class="cls-1" x="323.19" y="13.93" width="240.29" height="91.13" rx="15.17" ry="15.17"/></clipPath><pattern id="Unnamed_Pattern" data-name="Unnamed Pattern" width="400" height="270" patternTransform="translate(89.63 -68.3) scale(0.58)" patternUnits="userSpaceOnUse" viewBox="0 0 400 270"><rect class="cls-1" width="400" height="270"/><g class="cls-2"><line class="cls-3" x1="-155.52" y1="92.33" x2="29.13" y2="-92.33"/><line class="cls-3" x1="-92.33" y1="92.33" x2="92.33" y2="-92.33"/><line class="cls-3" x1="-29.13" y1="92.33" x2="155.53" y2="-92.33"/><line class="cls-3" x1="34.06" y1="92.33" x2="218.72" y2="-92.33"/><line class="cls-3" x1="97.26" y1="92.33" x2="281.92" y2="-92.33"/></g><g class="cls-2"><line class="cls-3" x1="118.08" y1="92.33" x2="302.74" y2="-92.33"/><line class="cls-3" x1="181.28" y1="92.33" x2="365.94" y2="-92.33"/><line class="cls-3" x1="244.48" y1="92.33" x2="429.13" y2="-92.33"/><line class="cls-3" x1="307.67" y1="92.33" x2="492.33" y2="-92.33"/><line class="cls-3" x1="370.87" y1="92.33" x2="555.53" y2="-92.33"/></g><g class="cls-2"><line class="cls-3" x1="-165.94" y1="227.33" x2="18.72" y2="42.67"/><line class="cls-3" x1="-102.74" y1="227.33" x2="81.92" y2="42.67"/></g><g class="cls-2"><line class="cls-3" x1="-81.92" y1="227.33" x2="102.74" y2="42.67"/><line class="cls-3" x1="-18.72" y1="227.33" x2="165.94" y2="42.67"/><line class="cls-3" x1="44.48" y1="227.33" x2="229.13" y2="42.67"/><line class="cls-3" x1="107.67" y1="227.33" x2="292.33" y2="42.67"/><line class="cls-3" x1="170.87" y1="227.33" x2="355.53" y2="42.67"/><line class="cls-3" x1="234.06" y1="227.33" x2="418.72" y2="42.67"/><line class="cls-3" x1="297.26" y1="227.33" x2="481.92" y2="42.67"/></g><g class="cls-2"><line class="cls-3" x1="318.08" y1="227.33" x2="502.74" y2="42.67"/><line class="cls-3" x1="381.28" y1="227.33" x2="565.94" y2="42.67"/></g><g class="cls-2"><line class="cls-3" x1="-155.52" y1="362.33" x2="29.13" y2="177.67"/><line class="cls-3" x1="-92.33" y1="362.33" x2="92.33" y2="177.67"/><line class="cls-3" x1="-29.13" y1="362.33" x2="155.53" y2="177.67"/><line class="cls-3" x1="34.06" y1="362.33" x2="218.72" y2="177.67"/><line class="cls-3" x1="97.26" y1="362.33" x2="281.92" y2="177.67"/></g><g class="cls-2"><line class="cls-3" x1="118.08" y1="362.33" x2="302.74" y2="177.67"/><line class="cls-3" x1="181.28" y1="362.33" x2="365.94" y2="177.67"/><line class="cls-3" x1="244.48" y1="362.33" x2="429.13" y2="177.67"/><line class="cls-3" x1="307.67" y1="362.33" x2="492.33" y2="177.67"/><line class="cls-3" x1="370.87" y1="362.33" x2="555.53" y2="177.67"/></g></pattern><pattern id="Unnamed_Pattern-15" data-name="Unnamed Pattern" width="400" height="270" patternTransform="translate(350.82 -68.3) scale(0.58)" patternUnits="userSpaceOnUse" viewBox="0 0 400 270"><rect class="cls-1" width="400" height="270"/><g class="cls-2"><line class="cls-3" x1="-155.52" y1="92.33" x2="29.13" y2="-92.33"/><line class="cls-3" x1="-92.33" y1="92.33" x2="92.33" y2="-92.33"/><line class="cls-3" x1="-29.13" y1="92.33" x2="155.53" y2="-92.33"/><line class="cls-3" x1="34.06" y1="92.33" x2="218.72" y2="-92.33"/><line class="cls-3" x1="97.26" y1="92.33" x2="281.92" y2="-92.33"/></g><g class="cls-2"><line class="cls-3" x1="118.08" y1="92.33" x2="302.74" y2="-92.33"/><line class="cls-3" x1="181.28" y1="92.33" x2="365.94" y2="-92.33"/><line class="cls-3" x1="244.48" y1="92.33" x2="429.13" y2="-92.33"/><line class="cls-3" x1="307.67" y1="92.33" x2="492.33" y2="-92.33"/><line class="cls-3" x1="370.87" y1="92.33" x2="555.53" y2="-92.33"/></g><g class="cls-2"><line class="cls-3" x1="-165.94" y1="227.33" x2="18.72" y2="42.67"/><line class="cls-3" x1="-102.74" y1="227.33" x2="81.92" y2="42.67"/></g><g class="cls-2"><line class="cls-3" x1="-81.92" y1="227.33" x2="102.74" y2="42.67"/><line class="cls-3" x1="-18.72" y1="227.33" x2="165.94" y2="42.67"/><line class="cls-3" x1="44.48" y1="227.33" x2="229.13" y2="42.67"/><line class="cls-3" x1="107.67" y1="227.33" x2="292.33" y2="42.67"/><line class="cls-3" x1="170.87" y1="227.33" x2="355.53" y2="42.67"/><line class="cls-3" x1="234.06" y1="227.33" x2="418.72" y2="42.67"/><line class="cls-3" x1="297.26" y1="227.33" x2="481.92" y2="42.67"/></g><g class="cls-2"><line class="cls-3" x1="318.08" y1="227.33" x2="502.74" y2="42.67"/><line class="cls-3" x1="381.28" y1="227.33" x2="565.94" y2="42.67"/></g><g class="cls-2"><line class="cls-3" x1="-155.52" y1="362.33" x2="29.13" y2="177.67"/><line class="cls-3" x1="-92.33" y1="362.33" x2="92.33" y2="177.67"/><line class="cls-3" x1="-29.13" y1="362.33" x2="155.53" y2="177.67"/><line class="cls-3" x1="34.06" y1="362.33" x2="218.72" y2="177.67"/><line class="cls-3" x1="97.26" y1="362.33" x2="281.92" y2="177.67"/></g><g class="cls-2"><line class="cls-3" x1="118.08" y1="362.33" x2="302.74" y2="177.67"/><line class="cls-3" x1="181.28" y1="362.33" x2="365.94" y2="177.67"/><line class="cls-3" x1="244.48" y1="362.33" x2="429.13" y2="177.67"/><line class="cls-3" x1="307.67" y1="362.33" x2="492.33" y2="177.67"/><line class="cls-3" x1="370.87" y1="362.33" x2="555.53" y2="177.67"/></g></pattern><clipPath id="clip-path-2" transform="translate(-55.71)"><rect class="cls-1" y="24.72" width="882" height="282"/></clipPath></defs><title>Asset 15</title><g id="Layer_2" data-name="Layer 2"><g id="big_picture" data-name="big picture"><path class="cls-4" d="M606.79,43.25V33.67a14.23,14.23,0,0,0-14.23-14.23h-9.35V8.81A8.8,8.8,0,0,0,574.4,0H314.87a8.81,8.81,0,0,0-8.81,8.81V41.15a19.71,19.71,0,0,1,0,35.09v35.68a8.82,8.82,0,0,0,8.81,8.81H574.4a8.81,8.81,0,0,0,8.81-8.81V101.86h9.35a14.23,14.23,0,0,0,14.23-14.22V79.55a19.72,19.72,0,0,1,0-36.3Z" transform="translate(-55.71)"/><rect class="cls-5" x="267.48" y="13.93" width="240.29" height="91.13" rx="15.17" ry="15.17"/><g class="cls-6"><g class="cls-2"><line class="cls-7" x1="183.28" y1="116.85" x2="290.46" y2="9.67"/><line class="cls-7" x1="219.96" y1="116.85" x2="327.14" y2="9.67"/><line class="cls-7" x1="256.64" y1="116.85" x2="363.82" y2="9.67"/><line class="cls-7" x1="293.32" y1="116.85" x2="400.5" y2="9.67"/><line class="cls-7" x1="330" y1="116.85" x2="437.18" y2="9.67"/><line class="cls-7" x1="366.68" y1="116.85" x2="473.86" y2="9.67"/><line class="cls-7" x1="403.36" y1="116.85" x2="510.54" y2="9.67"/></g><g class="cls-2"><line class="cls-8" x1="444.47" y1="116.85" x2="551.65" y2="9.67"/><line class="cls-8" x1="481.15" y1="116.85" x2="588.33" y2="9.67"/><line class="cls-8" x1="517.83" y1="116.85" x2="625.01" y2="9.67"/><line class="cls-8" x1="554.51" y1="116.85" x2="661.69" y2="9.67"/><line class="cls-8" x1="591.19" y1="116.85" x2="698.37" y2="9.67"/><line class="cls-8" x1="627.87" y1="116.85" x2="735.05" y2="9.67"/><line class="cls-8" x1="664.55" y1="116.85" x2="771.73" y2="9.67"/></g></g><path class="cls-4" d="M549.79,12.57s-15.36,11.31-2.43,34.75,10.51,48.49,2.43,55.76,17.78,17.78,21,1.62,6.47-55,6.47-55-4.85-38.79-12.13-42S549.79,12.57,549.79,12.57Z" transform="translate(-55.71)"/><g class="cls-9"><path class="cls-10" d="M331.16,420.72V264.46a6.37,6.37,0,0,0-6.38-6.38h-52.3a6.38,6.38,0,0,1-6.38-6.38V199.38" transform="translate(-55.71)"/><circle class="cls-11" cx="210.39" cy="189.48" r="9.21"/><path class="cls-10" d="M586.46,420.72V264.46a6.38,6.38,0,0,1,6.38-6.38h52.3a6.38,6.38,0,0,0,6.38-6.38V199.38" transform="translate(-55.71)"/><circle class="cls-11" cx="596.5" cy="189.48" r="9.21"/><path class="cls-12" d="M705.62,432V188.38l.88-127.16L656,60.85l-32-.13" transform="translate(-55.71)"/><circle class="cls-13" cx="559.23" cy="61.85" r="9.21"/><path class="cls-10" d="M140.57,416.48v-172a6.37,6.37,0,0,0-6.38-6.38H66.33A6.38,6.38,0,0,0,60,244.46V417.89" transform="translate(-55.71)"/><path class="cls-10" d="M854.84,413.65v-172a6.38,6.38,0,0,0-6.38-6.38H780.6a6.38,6.38,0,0,0-6.38,6.38V415.06" transform="translate(-55.71)"/><path class="cls-12" d="M205.61,429V185.38l-.88-127.16,50.5-.37,32-.13" transform="translate(-55.71)"/><circle class="cls-13" cx="240.58" cy="58.85" r="9.21"/></g></g></g></svg>