<svg xmlns="http://www.w3.org/2000/svg" xmlns:xlink="http://www.w3.org/1999/xlink" viewBox="0 0 102.7 102.7"><defs><style>.cls-1{fill:none;}.cls-2{fill:#05509f;}.cls-3{fill:#fff;}.cls-4{clip-path:url(#clip-path);}</style><clipPath id="clip-path"><circle class="cls-1" cx="51.35" cy="50.81" r="46.42"/></clipPath></defs><title>Asset 8</title><g id="Layer_2" data-name="Layer 2"><g id="world_leader" data-name="world leader"><path class="cls-2" d="M51.35,100A48.65,48.65,0,1,1,100,51.35,48.71,48.71,0,0,1,51.35,100Z"/><path class="cls-3" d="M51.35,5.41A45.95,45.95,0,1,1,5.41,51.35,45.94,45.94,0,0,1,51.35,5.41m0-5.41A51.35,51.35,0,1,0,102.7,51.35,51.41,51.41,0,0,0,51.35,0Z"/><g class="cls-4"><path class="cls-3" d="M51.46,3.87a47,47,0,1,0,47,47,47,47,0,0,0-47-47m30.9,18.79h0M74,38.07h0m-3.81-2ZM84.57,84a46.81,46.81,0,0,1-66.22,0,46.15,46.15,0,0,1-4.24-4.85,3,3,0,0,1,0-.41c.64-.22.64-.22.65-.25.46-.17.7.28,1.06.38,0-.12,0-.25.05-.36l.22-.08a2.65,2.65,0,0,1-.08-1.35l.09-.06c.1-1.12-1-3.64-.66-4.52a.3.3,0,0,1,.21,0,.87.87,0,0,1,.07-.17l.15-.06c.21-1,1.13-1.61,1.2-2.63a2.83,2.83,0,0,0-.48-2h0c-.77-1.21-4.14-5.56-5-4.6a1.88,1.88,0,0,0-.18-1.25c-.68-.21-.65-1.22-1.46-1.27a5.59,5.59,0,0,1-.41.66c.24-.8.24-.8-.45-1.64H8.94c-.06.22,0,.46-.09.69,0-.32,0-1,0-1a2.47,2.47,0,0,0-.39.69,2.64,2.64,0,0,1,.39-.9l.13.08L9.11,59,9,58.85l-.11-.07a1.53,1.53,0,0,0,.29-.07,7.94,7.94,0,0,0-1.78-5.82.66.66,0,0,0-.15,0A41,41,0,0,1,6,48.73l.15,0a1,1,0,0,0,0-.81l.08,0h0c.08,0,.17-.46.12-.51s-.2.31-.22.4a1.18,1.18,0,0,1,0-.59c-.26-.28-.26-.28-.44-.37a.7.7,0,0,1-.27.14c-.36-.24,0-.89-.55-1a47.07,47.07,0,0,1,1.25-7A.34.34,0,0,1,6.21,39l0,0h0c0,.19,0,.24.14.15a.78.78,0,0,0,.14.41s.18-1.24.16-1.35h0a2.13,2.13,0,0,0,0-.44h0s0-.07,0-.1h0l-.09.05a46.44,46.44,0,0,1,5.3-11.76,2.1,2.1,0,0,1,.3-.22l0,.09a2.59,2.59,0,0,1,.37-.56.31.31,0,0,0,0,.19c.29-.43.59-.86.91-1.28,0,.07-.05.15-.07.2a7.2,7.2,0,0,0,.45-.66l-.13.27a2.7,2.7,0,0,0,.35-.59,1.33,1.33,0,0,1-.05.19c.17-.13.84-.9.85-.91a16.31,16.31,0,0,1-1.28,1.6c.62-.35.74-1.17,1.4-1.47-.37.42-.37.42-.41.56.42-.09.55-.5.84-.74,0,0,0,.06,0,.09.16.08.16.08.26.06a.34.34,0,0,0-.1-.16.35.35,0,0,1,.05-.08,1.17,1.17,0,0,0,.45.17l.06-.06a.36.36,0,0,1,0,.1h.1a.25.25,0,0,1,0,.09A3,3,0,0,1,17.9,21.5s0,.07,0,.1v0c.57,0,.66-.16.76-.39a1.46,1.46,0,0,1-.05.2c.11,0,.11,0,.34-.11l-.07.08.09.06.29,0,0,0,.11,0a.22.22,0,0,0-.05.08,2.1,2.1,0,0,0-1.46,1.05c.19,0,.23,0,.91-.42l0,.1c.18.06.18.06.24.13s0,0,.45-.35c0,.07,0,.15-.06.21.26.08.48-.09.72-.12h0l.1,0a3,3,0,0,1,.38-.61c-.35.1-.65.33-1,.42h0l-.08,0a.24.24,0,0,1,.08-.06h.09l0-.08a1.32,1.32,0,0,1-.07-.3.74.74,0,0,1,.13-.12.37.37,0,0,1-.09-.16,3.53,3.53,0,0,1,.8-1l0-.09h-.18a1.76,1.76,0,0,1,.09-.2v0h0v-.1h.08a.27.27,0,0,1,.1.16,2.11,2.11,0,0,1,.7-.32,1.62,1.62,0,0,0-1.54-.28,10.73,10.73,0,0,1,1-.51l.24-.05h0c.33.09.54-.37.9-.21a2.28,2.28,0,0,1,.48.87c.52,0,1.25-.23,1.7,0,.73-.28.73-.28.89-.42l.61-.82c-.1,0-.1,0-.3.08.11-.17.29-.27.4-.44l-.09,0s0-.07,0-.09c.21,0,.21,0,.28,0L26,17.5a.27.27,0,0,0-.15-.11c0-.11.09-.18.12-.28a.37.37,0,0,1-.05-.18c.29-.33.29-.33.31-.5l-.1,0c1-.76,1.74-1.79,2.71-2.59-.53.09-1,.39-1.5.51h0l-.19,0a1.41,1.41,0,0,1,.28-.41.37.37,0,0,1,0-.09,8.38,8.38,0,0,1,1.45-.94.74.74,0,0,0-.21,0l.18-.14,0,0a.41.41,0,0,0,.05-.09l-.21.06v-.11c.32-.14.32-.14,1-.72l0-.08a.35.35,0,0,0-.17-.06c0-.17.13-.33.17-.5-1,0-6.56,3.56-5.57,2.91-.09-.08-3.45,2.54-2.26,1.6l0-.06L22,15.6a1.45,1.45,0,0,0-.29.11,4,4,0,0,1,1.16-1.12.34.34,0,0,1,0,.11l-.09.12h0a.8.8,0,0,0,.29-.23.27.27,0,0,0,0-.12,7.22,7.22,0,0,0,1.4-1.05l0-.09c.25-1,1.62-1,1.91-2,1-.65,2-1.25,3.1-1.82l1-.26.1.11A1.23,1.23,0,0,0,31,9.14l.13.08s0,.11,0,.15c.38-.08,1.82-.55,1.83-.55-.06.15-.21.22-.29.35a1.32,1.32,0,0,0,.47-.23c-.1.12-.1.12-.41.28a5,5,0,0,0,2.69-1,5.62,5.62,0,0,0-1.33.31l.13-.11c-.22,0-.41.15-.62.2.37-.56,1-.43,1.55-.7a2,2,0,0,0-.58.09,20.28,20.28,0,0,1,3.71-1.22l-.12.11c.53.08.53.08,1.22-.28l-.12-.1c-1.69.43-3.42.64-5.07,1.19a3.8,3.8,0,0,1,1.06-.45l.14.08L36.3,7c-.24,0-.24,0-1.33.28a1.09,1.09,0,0,1,.4-.35l1.09-.38-.28.14v0h0v0a.82.82,0,0,0,.31-.13h-.07c.13,0,.25-.07.38-.09l-.18.08c.08,0,.14-.06.22,0s-.13,0-.17.07h.06a.56.56,0,0,0-.18.07,2.2,2.2,0,0,0,.78-.27h0c.8-.42,1.74-.26,2.56-.54h0l.19,0s0,0,0,0a.05.05,0,0,0,0,0c-.23-.06-.42.12-.64.13A3.52,3.52,0,0,0,40,5.67a5,5,0,0,1-1.2.18c.43-.15.92-.06,1.32-.32a3,3,0,0,0-.43.09l0,0c.11,0,.11,0,.12-.06a0,0,0,0,1,0,0h0l.31-.08a.73.73,0,0,0,.38-.09h0l.32-.07.1,0c1.31-.31,2.63-.55,4-.74a2.8,2.8,0,0,1,1,.06c-.27.21-.63.29-.81.61a.38.38,0,0,1,.08.17,1.23,1.23,0,0,0,.49.29c0,.06-.05.14-.07.21a.64.64,0,0,1,.13.15A8,8,0,0,1,48,6.64l-.34.09.11,0c-.24.07-.24.07-.32.15a.34.34,0,0,1,.19.07L47.56,7h.23l-.08.06s0,.07,0,.1l.84-.12.08.07c.5-.06.5-.06.53-.05l-.21.14c.29,0,.52.19.8.16l0,.1c-.17.14-.17.14-.22.26h.1l.06.08a.8.8,0,0,0-.06.36,1.07,1.07,0,0,1,.19-.07s0,0,.29.11c-.21.15-.21.15-.24.23a11.34,11.34,0,0,0,3-.23c.37-.05.37-.05.78.22.45-.2.92,0,1.38-.08a2.08,2.08,0,0,1,.55-.2l0-.1A1.37,1.37,0,0,1,56.24,8s0-.06,0-.09l-.09-.1a2.78,2.78,0,0,0,.5,0l0-.09a.84.84,0,0,0,.5,0c0-.09.13-.15.17-.24.22,0,.45,0,.68,0l-.2-.09h0a.35.35,0,0,0,0-.08.41.41,0,0,0,0-.09h.24l0-.1c.25,0,.25,0,.35,0s0-.07-.37-.21l.22,0a.34.34,0,0,0-.09-.08l.09-.05-.1,0a.7.7,0,0,0,.2-.08l-.09,0a.74.74,0,0,0,.21-.07l-.09-.07c.42-.21.82.12,1.24,0a1.29,1.29,0,0,1-.21-.06,31,31,0,0,0,3.59.08l-.65-.23-.07-.19a3.46,3.46,0,0,1-.54-.19L62,5.83a.74.74,0,0,1-.21-.07.78.78,0,0,0,.22,0c-.4-.13-.4-.13-.48-.25.64,0,1.26.41,1.93.22l-.3-.18c.66.17,1.33.35,2,.55-.43,0-.84-.14-1.26-.18l0,.15-.14.06,1.13.52a1.76,1.76,0,0,1-.33,0c0,.22.09.26.27.33h0a1,1,0,0,0-.29,0l.14,0L64.53,7c1,.51,1,.51,1.23.71a6.17,6.17,0,0,0-3.39-1.11.57.57,0,0,0,.15.23c-.6,0-.83,0-.88.06.33.12,1.45.68,1.45.69a4.69,4.69,0,0,1-.9-.15c.12.08.26.12.37.21h0a3.49,3.49,0,0,1,1,.5l-.15,0s0,.09-.06.12a2.15,2.15,0,0,0,1.15.61h.1l.14.07-.14,0c0,.37,0,.38-.16.51a5.58,5.58,0,0,0,1.42.54,2.58,2.58,0,0,1-.37,0l-.26.12a2.2,2.2,0,0,0,.25.17.5.5,0,0,1-.27,0c.08.15.08.15.33.24h.09a.83.83,0,0,1,.6.06,1.74,1.74,0,0,0-.5.17,13.81,13.81,0,0,0-1.4-.64l.67.33,0,.11.22.19a2.68,2.68,0,0,0-1.36-.27c.29,1.14,2.12,1.2,3,2a13,13,0,0,1-2.25-.12l-.08.12c.57.44.57.44.65.58l-.1.11c-.14,0-.27-.1-.41-.13a5.06,5.06,0,0,0-.9.68l-.13,0a.53.53,0,0,1-.27.08c-.11.29-.11.29-.23.4a.93.93,0,0,1,0,.37,3.37,3.37,0,0,0,.21.31c-.42.21-.6.07-1-.27,0-.11,0-.27,0-.38-.36-.11-.72-.18-1.07-.29.22.37.71.47.89.89.33.06.52.37.82.48a.76.76,0,0,1-.36-.06l-.07.17a3.87,3.87,0,0,1-.51-.18l-.06.11a.64.64,0,0,0-.1.33l-.26.24a2.24,2.24,0,0,0,.36.33h0a1.11,1.11,0,0,0-.07.16,2,2,0,0,1-.53,0,.76.76,0,0,0-.32-.11c0,.06,0,.13,0,.19l.31.23.14-.1a2.2,2.2,0,0,1,.26.27l-.05.07a9.55,9.55,0,0,1-1-.16c-.47-.5-1.1-.8-1.57-1.3,2.27.34,2.36.07,2.52-.41-.94-1-2.44-.21-3.39-1.12a.82.82,0,0,1-.68,0,.7.7,0,0,1,0-.35,5,5,0,0,1-.94-.21c0,.11,0,.26,0,.37l-.13-.14a.72.72,0,0,0-.2.28.56.56,0,0,1,0-.34,1.94,1.94,0,0,0-.65.24c0,.05,0,.12,0,.18l-.13-.12a2,2,0,0,1-.34.12,1.23,1.23,0,0,1,0,.19l-.11-.15a1,1,0,0,0-.22.28l-.1-.16-.17.05-.05.06a1.43,1.43,0,0,1-.33.62l-.17.05a1.3,1.3,0,0,1-.08-.17l-.12.13-.1-.08c-.23.31-.61.43-.88.69a4.29,4.29,0,0,1,1-.44l.1.16c-.44.22-.58.73-1,1l0,.17-.17,0c-.51,2.19-3.83,1.69-2.85,4.47a1,1,0,0,0,1.35.21l.91-.69c.65.45.53,1.35,1.08,1.87a.67.67,0,0,0-.1.34.77.77,0,0,1,.17.29,2.21,2.21,0,0,0,.51.11.74.74,0,0,0,0-.36,1.78,1.78,0,0,1,.5-.14A25,25,0,0,0,55.49,20c-1.3-.81,0-4,1.47-3.57.06.1.13.22.18.32-.54.23-.41,1-1,1.2,0,0,.16,2.21,1.27,2a4.13,4.13,0,0,1,1.8-.67c.21.26.26.31.45.32a6.06,6.06,0,0,1-1.22.47c-.69.12-.73.13-.87.4.14.35.14.35.6.56-.07.41.24.68.36,1-.29.14-.29.14-1.19-.61-.26.05-.36.09-.31.53l-.14.13c0,.33.22.63.26,1-.2.18-.2.18-.53.17l.06.17c-.5.68-.89,0-.89,0-.8-.14-1.23.74-2,.71a1,1,0,0,0-.22-.28h0c0-.06,0-.13,0-.18l-.17-.11a2.3,2.3,0,0,1-.34.12h0c-.74.31-.74.31-.85.31-.09-.76-.57-1.15,0-1.67-.16,0-.16,0-.21-.69l-.16-.07c-1,1-1,1-.94,1.25.21.17.31.57.32,1.2a.63.63,0,0,0-.3.21c-.11,0-.11,0-.54-.06l-.12.15a5.42,5.42,0,0,0-.76.05l-.11.16a.7.7,0,0,1,0,.35.56.56,0,0,1-.21-.27,23.4,23.4,0,0,0-3,2.24l.11.15a1,1,0,0,1-.87-.08l-.15-.1-.14.13c.07.21.08.25-.07.54-.24,0-.48,0-.72,0a1,1,0,0,0-.3-.21,3.65,3.65,0,0,1-.6.09,1.52,1.52,0,0,1,0,.52c.25,0,.49.11.73.15l.07.16c.55.07.25.9.84.94h0a4.75,4.75,0,0,0,.19.91,2,2,0,0,0-.28-.23q.24,1.69-1.14,1.47c-2.33,0-3.12-.67-3.13-.67-.22,0-.22,0-.47.32l-.46,0-.12.14c.13.47.22.79-.33,2.17a4.49,4.49,0,0,1-.62,1,.54.54,0,0,1,.38.38l-.2.82c0,.06-.08.09-.11.14.77,1.55,5.23,1.09,6-.56A.71.71,0,0,1,45,33.88c1.58-3.82,7.47-3.67,9.54-.17h.38a.82.82,0,0,0,.12.34c.92,0,.94,0,0,0a1,1,0,0,1,.7.77c-.05-.1-.43,1.51.15.71s-.14-1,.06-1.5a2.37,2.37,0,0,0,.13-.34,3.7,3.7,0,0,0,1.07.29c-.42-.67-1.24-.65-1.8-1.07l.08-.17-.12-.13a1.07,1.07,0,0,1-.84-.19A16.34,16.34,0,0,1,53,30.17,1.3,1.3,0,0,1,53,30c.18,0,.34-.11.52-.15.17.2.26.46.49.61l.1-.16,2.26,1.64h.05a2.12,2.12,0,0,1,.49.27l.16-.08a1.5,1.5,0,0,0,.31.24l.17-.06c.19.49,0,1,.24,1.51,1.91,0,2,.07.12.14.36.32.5.62,1,.69.1,0,.12.1.06.19-.08.25,0,.38.11.4a1.12,1.12,0,0,0,.49-.14.36.36,0,0,0,0-.26h.08c.34-.05.18-.11.35-.19s.11,0,.16,0,0,0,0,0,.06-.21.11-.28l-.4-.46a.78.78,0,0,1,.05-.34,1.28,1.28,0,0,1,.33.11l.15-.1c.7-.64,1.2-.71,1.48-.21A4.46,4.46,0,0,0,63.53,33a.69.69,0,0,0-.14.33c-.48.07-1-.13-1.43.19a1.36,1.36,0,0,0,0,.45c.08,0,.08,0,.6.56a1.19,1.19,0,0,1-.28.42c.83.34,2.7,2.26,2.84.95a1.54,1.54,0,0,0,2.45-.25c.61-.09,1-.12,1-.12-1.12,6.16,1.81,3.75-6,5a2.56,2.56,0,0,0-.48-.33A4.65,4.65,0,0,1,61,40c0-.09,0-.2,0-.28-2-1.41-3.51,4.54-5.59.52,0,0-2.95-.7-3.11-1.23a1,1,0,0,1-.5.07c0-.09-.06-.21-.08-.3.91-.91,1-1,.27-1.6a1.9,1.9,0,0,1,.4-.35l-.11-.24-.25.11a4.12,4.12,0,0,0-.32-.41c-1.16.23-9.53,1.32-10,.95l-.52.16c-.21-.14-.34-.39-.6-.49l-2.88,2.34a4.17,4.17,0,0,1-3.15,3.34h0c-3.63,1.46-3.39,5.16-3.87,8l-1.27,4.25A5.77,5.77,0,0,0,30.12,56l.25-.12.22.15a2.44,2.44,0,0,1,0,.27l-.22.15c.78,1.12,1.08,2.5,1.9,3.61l2.65,2.61c1.89,1.23,6.28.55,8.18.2,3.43-1.15,4.12-.22,7.28,1.08,0,.09,0,.21,0,.3a1.06,1.06,0,0,0,.53,0,1.38,1.38,0,0,1,.35,1.31c-.13.61-.24,1.23-.31,1.85l.15.1a.68.68,0,0,0,0,.14.93.93,0,0,1-.29,0,4.69,4.69,0,0,0-.45.86,10.14,10.14,0,0,0,2.44,3.22c.61,1.78,2.75,6.79-.1,8.37,0,0,0,1.48,0,1.58l1.92,2.67c.67.76-.53,1.9.51,2.57A1.09,1.09,0,0,0,56,88c1.41,2.29,1.41,2.29.86,2.24,0,.06,0,.13,0,.18.25.24.25.24.3.35s-.06.1-.08.15a.86.86,0,0,0,.32,0,1.29,1.29,0,0,0,1.25.47c.33-1.43,11-1.7,9.35-5.73v0c.6-.71,1.78-.54,2.25-1.46L70.15,84a2,2,0,0,0,0-2.1c1.33-4.21,5.36-1.88,5.13-7a.84.84,0,0,0,.23-.23c0-.15,0-.15-.58-.75.28-2.22,10.15-17.3,7.65-19.93-.11,0-.22,0-.33,0a.91.91,0,0,1-.67.6,3.72,3.72,0,0,1-1.17.56c-.89.12-2,1.53-3,.38l-.28,0a1,1,0,0,1,.26-.47c-.06-.49-.78-1.21-2.14-2.14l-.09,0-.23.12a49.41,49.41,0,0,0-7.43-11.43l.06-.23A6.77,6.77,0,0,0,68.93,43l.2-.19a3.51,3.51,0,0,1,0-1.37c.19.73.19.73.13,1.1,3.66,1.23,6.11,9.56,8.3,11.91,1-.06,2.48-1.57,2.49-1.58,1-.74,2.75-3.11,3.79-3.74l.19-.31a2.62,2.62,0,0,1,.91-2l.16-.06c.1-.44-.25-.84-.13-1.29l.17,0s.3-1.91.29-1.92a4.27,4.27,0,0,1-2.73-2.35,12.86,12.86,0,0,1-.85,2.07,3.38,3.38,0,0,0-1,.38,4.31,4.31,0,0,0-.47-.26A1.87,1.87,0,0,0,80,42.12l-.15.11a2.69,2.69,0,0,0,.18,1.06s-.74-.81-.73-1.17a10.43,10.43,0,0,1-2.19-2.53,7,7,0,0,0,.72-.49.58.58,0,0,0,.32,0,.21.21,0,0,1,.08-.06c.36.39,2.21,2.35,3.07,2.2h0a1,1,0,0,1,.35.07c.64-.21,3,.21,3.34-.22a1.19,1.19,0,0,1,.32.1l.12-.11.16.05a9.63,9.63,0,0,1,2-1.23c.24.09.31.35.49.49a.57.57,0,0,1,.31.07.82.82,0,0,0,.06.34h0a3.39,3.39,0,0,0,1.6.3,1.2,1.2,0,0,1-.41.8,3,3,0,0,0,1.18.8c.36-.4.35-.44.18-1.4q2.28,5.1,4.48,10.23l.17,0c.18-.45,0-1,.37-1.39a2,2,0,0,1,0-1.1l.07-.06a13.78,13.78,0,0,0-.81-4.64l.14-.13c0-2.37-.07-4.5,0-6.83,0,.06,0,.14.08.2.11-.14.2-.26.18-1.08l-.08-.09h0l-.06-.16s.18.07.45.41A46.88,46.88,0,0,1,84.57,84"/><path class="cls-3" d="M81.18,74.15s-.06,0-.06.06a7.83,7.83,0,0,0-1,1.71.37.37,0,0,1,0,.11l0,0h0c-.13.1-.17.27-.29.38l-.08-.07a3.19,3.19,0,0,1-.3.42.15.15,0,0,0,0-.09,3.86,3.86,0,0,1-1.28,1l0,0c-.13,0-.16.2-.29.24-.25-.21-.74.93-.78,1.06.64,1-1.7,3.11-1.23,3.64h.07l0,0c-.26.44-.26.44-.24,1.11,2.41,2,4.74-6.49,5.44-7.24,0,0,0,0,.07.32l0,0a3.09,3.09,0,0,0,.07-2.55c.09,0,.17,0,0-.11"/><path class="cls-3" d="M47.08,24.55a2.85,2.85,0,0,0-.81-.21v0c.3-.16.28-.35,0-.59.13,0,.13,0,.13,0s-.13-.41-.14-.42,0,0-.21,0c0,0,0,0-.09,0,0-.19-.16-1.29-.63-1,1.08-.73,1.08-1.12,0-1.15,0,0,0,0,0,0s.52-.48.32-.53c-.47-.21-.78-.08-.94.36-.13,0-.19.13-.31.17s0,0,0-.06h0c-.21.06-.2.36-.2.36s0,0,.23-.07v0a2.09,2.09,0,0,0-.08.23h0c-.11-.18-.28.15-.06.34,0,.11,0,.11,0,.15s-.31.27-.19.47c.17,0,.29-.4.57-.4a1.48,1.48,0,0,1-.31.79c.06,0,.1-.05.15-.07h0a.83.83,0,0,0,.22,0h0s0,.06,0,.09.25-.18.38-.06c-.27.22-.22.39.13.51L44.13,24c0,.06-.13.36-.13.37.81.08-.23.34-.4.52s.75.39.89.43a2,2,0,0,1,.49-.05c-.55.21-1.41.2-1.72.81a6,6,0,0,1,.75.05,3.66,3.66,0,0,1,2.58-.22s.39-.07.37-.23-.37,0-.51-.14l.29-.29a.1.1,0,0,0,0,0c.12.09.1,0,.09-.14.25,0,.33,0,.39-.2v0a.3.3,0,0,0-.19-.35"/><path class="cls-3" d="M42.58,16.64a.86.86,0,0,0,.75-.48.41.41,0,0,1,.08-.48s-.08,0-.12,0a.11.11,0,0,0,0-.08.22.22,0,0,1-.26-.16c-.11,0-.14.09-.21.13s-.13,0-.19,0h0s-.07.05-.12.05l0-.08a.15.15,0,0,1-.19-.11h0c-.22,0-.86.25-1.06.18a.11.11,0,0,0,0-.07,2,2,0,0,1-.66.15.13.13,0,0,0-.08.07v0c.12,0,.36,0,.43.07-.06.29-.4.3-.52.52,0-.05.08-.18,0,0a3,3,0,0,0,1.15.46,8.93,8.93,0,0,0,1-.25"/><path class="cls-3" d="M52.15,10h0l.27.17.08.27a.27.27,0,0,0,.21.2h0a.35.35,0,0,0,.35.26,2.23,2.23,0,0,1,.22-.51.24.24,0,0,1,0-.26c0-.4.36,0,.47.13-.09,0-.07.12,0,.17s0,0,0,0h0a.24.24,0,0,1,.34.06s.05,0,.07,0l.07-.19.09,0a.9.9,0,0,0-.21-.08.29.29,0,0,0-.31-.19,3.11,3.11,0,0,1-.23-.28h0s-.23-.07-.23-.15.09,0,.12,0a2.14,2.14,0,0,1,.45-.05s0,0,0,0,.15,0,.17-.09c0-.27,0-.35-.45-.37a.7.7,0,0,0,0,.13A.22.22,0,0,0,53.49,9c-.07.06-.06.13,0,.2-.1,0-.09-.16-.19-.12s0,.06,0,.09A.75.75,0,0,0,53.09,9h0c-.05,0,0,.11,0,.17s0,0,0,0v0S53,9.13,53,9.12a.57.57,0,0,0,0,.26s-.08-.05-.12-.06,0,0,0,.08h0l-.12-.09v0h0s0,0,.17.41h0c-.09-.07-.27-.45-.33-.26h0l-.13-.11c-.07,0,0,.08-.1.11h0s0-.06,0-.09a.35.35,0,0,1-.19.06l0,0a1.34,1.34,0,0,0,.07.4c-.21-.09-.15,0,.16.31,0-.06,0-.11,0-.16"/><path class="cls-3" d="M32.09,15.74a.42.42,0,0,1,.22,0c-.14.19-.14.19-.16.29l.1,0c-.07.15-.24.23-.28.4l.07.06v.1c.23.06.31,0,.5-.27l.07,0c.22-.1.34-.32.55-.42l.05.07c.6-.44.6-.44.63-.64.15,0,.26-.17.43-.14l0,.08s.92-.3,1-.56a.2.2,0,0,1-.08,0,4.76,4.76,0,0,1,1.29-.61,2,2,0,0,0,.35.1,4.2,4.2,0,0,1,.43-.24l.08.06c-.36.14-.39.18-.46.29A4.71,4.71,0,0,1,38.44,14l1.32-.67c0,.1,0,.19,0,.29l.08.05c.13,0,.25-.08.38-.1l0,.07a4.21,4.21,0,0,0,2.45-.49c-.34,0-.63-.34-1-.19l-.08,0c.26-.15.59,0,.85-.2,0,0,0-.07,0-.1a2.5,2.5,0,0,1-.26-.07c.38,0,.38,0,.5-.14l-.16-.09a.39.39,0,0,1,.18,0c0,.08,0,.08.18.21a3.13,3.13,0,0,1-.19.36l0,.09c.12,0,.23-.05.35-.06L43,13c.24.06.28-.21.43-.31a.29.29,0,0,1,0-.09h-.09a.34.34,0,0,0,0-.17l.15-.11c0-.08-.07-.17-.12-.25l-.21,0L43.14,12l.07-.06.08,0c.16,0,.22-.22.36-.3a.59.59,0,0,1,0,.08l-.13.16c0,.09.1.16.12.25h.1c.09-.13.27-.16.34-.31h0a.59.59,0,0,1,0-.08h0l-.12-.19c0-.15.09-.14.19-.12s0,.07,0,.1l.12.13c.52,0,.52,0,.61-.13a.49.49,0,0,0-.1-.15h-.07a.29.29,0,0,1,0-.09l.1,0c.2.11.2.11.41,0l.05.08h.1a.24.24,0,0,0,.09-.15l-.07,0a.36.36,0,0,0,.08-.15l-.19.1a.37.37,0,0,0,.09-.16c.2-.06.2-.06.27,0l0,.08a1.08,1.08,0,0,0,.36-.49h0a.48.48,0,0,1-.16-.08.61.61,0,0,0,.07-.17c.19.07.46-.15.59.1a.38.38,0,0,0,.28-.26,1,1,0,0,0-.33-.09.33.33,0,0,1,.35-.05l.06-.07a.35.35,0,0,1-.13-.11,2.68,2.68,0,0,1-.27.07c.4-.24.84-.43,1.22-.71l.08.06c.5-.2.5-.2.58-.29a.3.3,0,0,0-.16-.05c.3-.21.69-.06,1-.23l0-.09c-.18-.18-.11-.1,0,0-.25-.17-.55.07-.8-.05a4.26,4.26,0,0,1-.73.2,7.76,7.76,0,0,0,.74-.31s0-.06,0-.09c-.23,0-.44.09-.67.1L48,8.23a.29.29,0,0,1,0-.09l-.47,0c.35,0,.88,0,1,0h0a.54.54,0,0,0,.16-.1c-.11-.09-.11-.12-.11-.22l.08,0a.29.29,0,0,1,0-.09l-.09,0,0-.07c-.18,0-.34-.11-.53-.07h0l-.47.08.14-.11a.51.51,0,0,1-.17,0,.29.29,0,0,1,0-.09c-.22,0-.42.11-.64.14a.36.36,0,0,0,0-.09l-.48.27,0,0c.07-.07.11-.16.17-.23a.25.25,0,0,0,0-.09l-.52.16a.52.52,0,0,0,.23-.18,2.94,2.94,0,0,1-.6.14c.51-.15.51-.15.6-.21-.24,0-.49,0-.73,0a.3.3,0,0,0,.13-.12c-.23,0-.44.13-.67.12l0-.08-.32.07L45,7.2c-.82,0-.82,0-1,.08,0,0,0,0,.06.06-.68.2-1.38-.25-2,.09v.1a.84.84,0,0,0-.25.11l.06,0H42a.59.59,0,0,0,0,.08l.09,0h0c-.09,0-.09,0-.26,0l0-.08c-.47,0-.47,0-.62.2-.2-.05-.2-.05-.27,0L40.71,8a.31.31,0,0,0,0,.09l.09,0a.64.64,0,0,0,.18.06l-.17.07a.51.51,0,0,1,.28,0L41,8.29h.11a.31.31,0,0,1,.06.16A6.21,6.21,0,0,1,39.07,9.8a.46.46,0,0,1,.07.07c-.38.22-.89.14-1.22.49a.56.56,0,0,0,0,.08,3.9,3.9,0,0,0,.73-.25.39.39,0,0,0-.1.16c-.2.1-.45.11-.6.3h.18a.28.28,0,0,0-.09.16l0,0s-1.59,1.09-1.9.9v-.09a9.66,9.66,0,0,0-1.28.54.37.37,0,0,1,0,.18,3.6,3.6,0,0,0-1.59,1.23l.41-.17a.32.32,0,0,1,0,.09.41.41,0,0,1,.19,0,.74.74,0,0,1-.12.13l0-.08c-.78.1-1.42,1.13-1.43,1.14l.06.08a2.25,2.25,0,0,0-.63.92l.18,0,.14.11"/><path class="cls-3" d="M43.81,23.1l-.2-.4a1.37,1.37,0,0,1-.42-.23c-1,.09-2.14,2.57-1.74,2.51h0a2.42,2.42,0,0,0,.91-.35,1.7,1.7,0,0,1,.55,0,9.49,9.49,0,0,0,.89-1.38.12.12,0,0,0,0-.12"/><path class="cls-3" d="M24.29,19.51l-.3.06c-.56.3-1,.7-1.6,1,0,0,0,0-.05,0a1.81,1.81,0,0,0-.53.24h.1a.49.49,0,1,0,.08,1c.05.09-.07.15,0,.23.69,0-.3,0-.23.35h0l.12-.1h0c.08,0,.13-.13.23-.07v0s.14-.05.35-.17h0a3.42,3.42,0,0,1-.56.58c.07,0,.12-.07.2,0s-.16.14-.21.23,0,.09.05.13a4.28,4.28,0,0,0,.72-.56c.13-.12.13-.16.13-.18h0c-.09,0-.15.11-.23.15h0c.08-.15.31-.13.36-.32l-.46.2,0,0a.35.35,0,0,1,.09-.12,1.38,1.38,0,0,1,.57-.28s.11-.08.12-.12,0,0-.27,0h0c.3-.38.53-.39.61-.79a.78.78,0,0,0-.4.05c-.08-.24,0-.38.23-.43a0,0,0,0,0,0-.09c0-.05,0-.07,0-.1v0c-.15,0-.26.13-.41.15.14-.17,1.39-.71,1.39-.89,0,0,0,0-.09,0a.21.21,0,0,0,0-.08"/></g></g></g></svg>