<svg xmlns="http://www.w3.org/2000/svg" viewBox="0 0 108.36 108"><defs><style>.cls-1{fill:#05509f;}.cls-2{fill:#fff;}.cls-3{fill:none;}</style></defs><title>Asset 7</title><g id="Layer_2" data-name="Layer 2"><g id="battery"><path class="cls-1" d="M57,101.61A48.65,48.65,0,1,1,105.66,53,48.71,48.71,0,0,1,57,101.61Z"/><path class="cls-2" d="M57,7A45.95,45.95,0,1,1,11.06,53,46,46,0,0,1,57,7M57,1.6A51.36,51.36,0,1,0,108.36,53,51.41,51.41,0,0,0,57,1.6Z"/><path class="cls-2" d="M67.72,65.5,59.56,53.23A7.57,7.57,0,0,0,49,51.15a7.23,7.23,0,0,0-2.3,10.19L49.6,65.5ZM51.07,54.56a3.83,3.83,0,1,1-1.16,5.29,3.83,3.83,0,0,1,1.16-5.29"/><polygon class="cls-2" points="43.39 84.86 44.64 84.86 46.53 86.79 74.12 86.79 76.01 84.86 78.11 84.86 78.11 81 43.39 81 43.39 84.86"/><path class="cls-2" d="M29.36,45.74,31.48,43l3-.59,2.42-3.14-.31-.93,1.56-2a9.31,9.31,0,0,1-5-3.72l-1.48,1.93-1-.07-2.42,3.14.21,3.09-2.12,2.76L25.73,46l1.33,1Z"/><path class="cls-2" d="M40.93,34.35c1.94,0,3.68-1.69,4.88-1.69H62.24a16.68,16.68,0,0,1-1.1-5.75A24,24,0,0,1,61.6,23H45.81c-1.2-1.93-2.94-2.22-4.88-2.22a6.79,6.79,0,0,0,0,13.57m0-9.83a2.78,2.78,0,1,1-2.78,2.77,2.78,2.78,0,0,1,2.78-2.77"/><path class="cls-2" d="M63.65,34.2,53.55,47.47a10.3,10.3,0,0,1,8.29,4.73l1.38,2.16,11-14.5A13.53,13.53,0,0,1,63.65,34.2"/><path class="cls-2" d="M78.31,21.07H65a13.52,13.52,0,0,0-1.14,5.07A10.77,10.77,0,0,0,74.5,37.05a10.25,10.25,0,0,0,7.65-3.23V27Z"/><path class="cls-2" d="M70.56,69.37H49.29V79H74.42V74.34l-3.86-2.87ZM57,75.16H53.16V73.23H57Zm9.67,0h-5.8V73.23h5.8Z"/><rect class="cls-3" width="108" height="108"/></g></g></svg>