<svg xmlns="http://www.w3.org/2000/svg" viewBox="0 0 822 323"><defs><style>.cls-1{isolation:isolate;}.cls-2{opacity:0.15;}.cls-3{fill:#5e6367;}.cls-4,.cls-8{fill:none;}.cls-4{stroke:#d3d800;stroke-linecap:round;stroke-linejoin:round;stroke-width:8.49px;}.cls-15,.cls-5{fill:#fff;}.cls-6{fill:#d40e8c;}.cls-7{fill:#e4e4e4;}.cls-9{fill:#aa0e7a;}.cls-10{opacity:0.53;mix-blend-mode:multiply;}.cls-11{fill:#002f60;}.cls-12{fill:#15bef0;}.cls-13{fill:#0093cd;}.cls-14{fill:#073586;}.cls-15{font-size:86.05px;font-family:AvenirNextLTPro-Bold, AvenirNextLTPro Bold;font-weight:700;}</style></defs><title>Asset 19</title><g class="cls-1"><g id="Layer_2" data-name="Layer 2"><g id="_1977" data-name="1977"><g class="cls-2"><rect class="cls-3" x="9.42" y="34" width="812.58" height="6"/><rect class="cls-3" x="8.07" y="73" width="812.58" height="6"/><rect class="cls-3" x="6.73" y="112" width="812.58" height="6"/><rect class="cls-3" x="5.38" y="151" width="812.58" height="6"/><rect class="cls-3" x="4.04" y="190" width="812.58" height="6"/><rect class="cls-3" x="2.69" y="229" width="812.58" height="6"/><rect class="cls-3" x="1.35" y="268" width="812.58" height="6"/><rect class="cls-3" y="307" width="812.58" height="6"/></g><polyline class="cls-4" points="210 60 286 60 301 110 331 80 394 220 415 189 447 244 517 200 608 283"/><rect class="cls-5" y="24" width="217" height="217" rx="9" ry="9"/><path class="cls-6" d="M207,34V231H10V34H207m1-10H9a9,9,0,0,0-9,9V232a9,9,0,0,0,9,9H208a9,9,0,0,0,9-9V33a9,9,0,0,0-9-9Z"/><rect class="cls-7" x="10" y="34" width="197" height="98" rx="1.35" ry="1.35"/><path class="cls-8" d="M91.74,132H83.83a7.34,7.34,0,0,0,3.93,1.06A7.55,7.55,0,0,0,91.74,132Z"/><rect class="cls-6" x="43.57" y="132" width="10.84" height="24.54"/><path class="cls-6" d="M87.76,133.06A7.34,7.34,0,0,1,83.83,132H70.94a14.86,14.86,0,0,0,13.92,9.13,10.59,10.59,0,0,0,3.22-.52l-.13.19L76.6,156.54H89.69l11-16.45a31.74,31.74,0,0,0,4.16-8.09H91.74A7.55,7.55,0,0,1,87.76,133.06Z"/><polygon class="cls-6" points="115.82 156.54 128.4 156.54 139.98 132 128.31 132 115.82 156.54"/><polygon class="cls-6" points="157.49 156.54 170.07 156.54 181.65 132 169.98 132 157.49 156.54"/><polygon class="cls-9" points="44.48 110.88 29.45 121.91 35.06 129.58 43.57 123 43.57 132 54.41 132 54.41 110.88 44.48 110.88"/><path class="cls-9" d="M87.82,109.65c-9.86,0-18,6.19-18,16.58A15.17,15.17,0,0,0,70.94,132H83.83a7.2,7.2,0,1,1,7.91,0h13.14a19.89,19.89,0,0,0,.94-6C105.82,116,97.82,109.65,87.82,109.65Z"/><polygon class="cls-9" points="145.88 110.88 112.72 110.88 112.72 120.16 134.33 120.16 128.31 132 139.98 132 145.88 119.52 145.88 110.88"/><polygon class="cls-9" points="187.55 110.88 154.39 110.88 154.39 120.16 176 120.16 169.98 132 181.65 132 187.55 119.52 187.55 110.88"/><rect class="cls-11" x="46" width="18" height="57" rx="9" ry="9"/><rect class="cls-11" x="146" width="18" height="57" rx="9" ry="9"/><rect class="cls-5" x="604" y="106" width="217" height="217" rx="9" ry="9"/><path class="cls-12" d="M811,116V313H614V116H811m1-10H613a9,9,0,0,0-9,9V314a9,9,0,0,0,9,9H812a9,9,0,0,0,9-9V115a9,9,0,0,0-9-9Z"/><rect class="cls-7" x="614" y="116" width="197" height="98" rx="1.35" ry="1.35"/><rect class="cls-11" x="650" y="82" width="18" height="57" rx="9" ry="9"/><rect class="cls-11" x="750" y="82" width="18" height="57" rx="9" ry="9"/><path class="cls-8" d="M691.89,230.48c5.67,0,6.71-9,6.71-14.9,0-.5,0-1,0-1.58H685.08c0,.54,0,1.08,0,1.58C685.05,221.45,686.15,230.48,691.89,230.48Z"/><path class="cls-12" d="M633.71,229.51v9h33v-9.42H648.09l10.58-9.41A33.15,33.15,0,0,0,664,214H650.83Z"/><path class="cls-12" d="M698.6,215.58c0,5.87-1,14.9-6.71,14.9s-6.84-9-6.84-14.9c0-.5,0-1,0-1.58H674c0,.52,0,1.05,0,1.58,0,13,5,24.19,17.93,24.19s17.8-11.23,17.8-24.19c0-.53,0-1.06,0-1.58H698.57C698.58,214.54,698.6,215.08,698.6,215.58Z"/><rect class="cls-12" x="730.91" y="214" width="10.84" height="24.54"/><polygon class="cls-12" points="761.49 238.54 774.07 238.54 785.65 214 773.98 214 761.49 238.54"/><path class="cls-13" d="M650.15,191.65c-8.9,0-16.38,5.48-17.41,14.71l10.38,1.42c.46-4.07,2.84-6.91,6.45-6.91a5.31,5.31,0,0,1,5.68,5.49c0,2.77-1.48,4.9-3.74,7l-.68.61H664a14.17,14.17,0,0,0,2.63-8.35C666.67,196.1,658.54,191.65,650.15,191.65Z"/><path class="cls-13" d="M691.89,191.65c-12.43,0-17.51,10.14-17.9,22.35h11.09c.2-5.68,1.57-13.19,6.81-13.19s6.49,7.51,6.68,13.19h11.09C709.27,201.79,704.26,191.65,691.89,191.65Z"/><polygon class="cls-13" points="731.82 192.88 716.79 203.91 722.4 211.58 730.91 205 730.91 214 741.75 214 741.75 192.88 731.82 192.88"/><polygon class="cls-13" points="791.55 192.88 758.39 192.88 758.39 202.16 780 202.16 773.98 214 785.65 214 791.55 201.52 791.55 192.88"/><path class="cls-14" d="M590.9,5.41h-148a9,9,0,0,0-9,9V115.47a9,9,0,0,0,9,9h45.59L502,147.84l14.92,25.83,14.92-25.83,13.48-23.37h45.6a9,9,0,0,0,9-9V14.41A9,9,0,0,0,590.9,5.41Z"/><polygon class="cls-5" points="497.54 65.44 497.54 51.75 480.72 51.75 480.72 65.54 469.9 65.61 479.67 76.41 489.44 87.22 498.9 76.3 508.36 65.38 497.54 65.44"/><text class="cls-15" transform="translate(514.03 96.49)">$</text><rect class="cls-12" x="608" y="202" width="14" height="23"/><rect class="cls-12" x="804" y="202" width="14" height="23"/><rect class="cls-6" x="4" y="120" width="14" height="23"/><rect class="cls-6" x="200" y="120" width="14" height="23"/></g></g></g></svg>