<svg xmlns="http://www.w3.org/2000/svg" viewBox="0 0 102.7 102.7"><defs><style>.cls-1{fill:#82bc00;}.cls-2{fill:#fff;}</style></defs><title>Asset 3</title><g id="Layer_2" data-name="Layer 2"><g id="vanguard"><circle class="cls-1" cx="51.35" cy="51.35" r="48.65" transform="translate(-21.27 51.35) rotate(-45)"/><path class="cls-2" d="M51.35,5.41A45.95,45.95,0,1,1,5.41,51.35,45.94,45.94,0,0,1,51.35,5.41m0-5.41A51.35,51.35,0,1,0,102.7,51.35,51.41,51.41,0,0,0,51.35,0Z"/><path class="cls-2" d="M63.35,52.8a1.74,1.74,0,0,0,.55.11,1.59,1.59,0,0,0,.86-.25C72,48.08,77.61,40.18,77.19,35.05a4.36,4.36,0,0,0-1.69-3.14c-2.58-2-7.34-1.55-8.57-1.38V24.59H36.19v5.94c-1.23-.16-6-.65-8.58,1.38a4.33,4.33,0,0,0-1.69,3.14c-.42,5.13,5.15,13,12.43,17.61a1.5,1.5,0,0,0,1.42.13c1.78,4.41,4.44,8.13,8.42,9.56v9H46.85a3.49,3.49,0,0,0-3.47,3.48h0a3.35,3.35,0,0,0,.07.71H41.77A3.49,3.49,0,0,0,38.29,79H65.11a3.48,3.48,0,0,0-3.47-3.47H60.5a4.17,4.17,0,0,0,.07-.71h0a3.49,3.49,0,0,0-3.47-3.48H55.58V62.09C59.2,60.51,61.67,57,63.35,52.8Zm3.53-19a1.43,1.43,0,0,0,.29,0c1.49-.24,5-.37,6.34.69a1.13,1.13,0,0,1,.48.88c.26,3.18-3.59,9.3-9.3,13.51A69.5,69.5,0,0,0,66.88,33.75ZM29.12,35.31a1.15,1.15,0,0,1,.47-.88c1.29-1,4.58-1,6.35-.69a1.51,1.51,0,0,0,.3,0,68.43,68.43,0,0,0,2.19,15.08C32.71,44.62,28.85,38.49,29.12,35.31Z"/></g></g></svg>