<svg xmlns="http://www.w3.org/2000/svg" viewBox="0 0 614.34 365"><defs><style>.cls-1{fill:#0072bc;opacity:0.15;}.cls-2{fill:#fff;}.cls-3{fill:#2390d0;}</style></defs><title>Asset 16</title><g id="Layer_2" data-name="Layer 2"><g id="_1954" data-name="1954"><ellipse class="cls-1" cx="235" cy="336.17" rx="235" ry="28.83"/><path class="cls-2" d="M348.77,129.48h-.11a2.37,2.37,0,0,0-.43,0h0l-3.76.63h-.2l-.67.11.42,2.59,4.06-.68.12.24,2.35-1.17,0,0h0c0-.09-.09-.18-.13-.28h-.05l-.08-.16h0v0h0c0-.08-.07-.16-.11-.23h0l-.1-.18-1.23.76h0v-1.47Zm-10.34,1.66-3.78.61H334l-.24,0h0l-.48.08.43,2.58,5.16-.83-.41-2.59Zm-10.35,1.72-3.14.53h-.37l-.48.08h0l-.15,0h-.37l-.65.1.44,2.59,5.17-.87-.44-2.58Zm-10.34,1.72-1,.16h0l-.13,0h-.14l-.13,0h0l-3.37.57h0l-.12,0-.08,0h-.07l-.12,0h0L313,138l5.16-.86-.43-2.59Zm-10.33,1.74-.81.13h-.09l-.15,0h-.17l-.07,0h-.69l-.17,0h-.15l-2.88.44.4,2.59c1.73-.26,3.47-.53,5.2-.81l-.42-2.59Zm-10.36,1.6-2,.32h-.24l-.13,0h0l-1.18.19h-.25l-1.24.2h-.1l.43,2.59,1.43-.23,3.71-.58-.39-2.59Zm-10.34,1.73-2,.37h-.05l-1.59.29h-.17l-.12,0h-.07l-1.12.2.45,2.58,4.25-.76.93-.18-.47-2.57Zm-10.33,1.78-.73.11h0l-.08,0h-.51l-.09,0h-.1c-1.22.19-2.45.36-3.68.54l.36,2.59c1.8-.25,3.55-.51,5.23-.77l-.4-2.59Zm-10.24,1.87c-.06.07-.11.15-.17.23h-.05l-.08.15h0l-.12.29h0v0h0v0h0v0h0v0h0v0h0v0h0v0h0l0,0h0v0h0l0,0h0v0h0l0,0h0l0,.06h0l0,.05h0v0h0l0,.09h0v.05h0v0h0v0h0l0,0h0l-.06.16h0l0,.07h0l0,0h0l0,0h0v0h0l0,.05h0v0h0v0h0v0h0v0h0v0h0v0h0v0h0l0,0h0v0h0v0h0v0h0v0h0v0h0v0H265v0h-.18l0,0h0v0h0l0,0h0v0h0v0h0v0h0v0h0l0,0h0l0,0h0l0,0h0l0,0h0v0h0v0h0l0,0h0l0,0h0l0,0h0l0,.05h0l0,0h0l0,0h0l0,0h0l0,0h0l0,0h0l0,0h0v0h0v0H264v0h0v0h-.05v0h0v0h0l2.27,1.31a26.73,26.73,0,0,0,2-4.4.17.17,0,0,0,0-.05h0l-.59-.28-1.48-1.31Zm-5.4,8.88a20.94,20.94,0,0,1-2.77,2.33h-.05l0,0h-.11a4,4,0,0,0-.46.35h0a2.08,2.08,0,0,0-.21.21h0a1.47,1.47,0,0,0-.21.39l1.46.49.73.83h0l.25-.17A23.87,23.87,0,0,0,262.6,154l-1.86-1.85Zm-3.84,8.69c0,1.53-.07,3.06-.13,4.59v0h0c0,.17,0,.33,0,.49v.12l2.62.11v-.12c.07-1.7.14-3.45.16-5.2l-2.62,0Zm-.33,10.48,0,1.48h0v.07h0V173h0v.43h0l-.06,3.15,2.62,0c0-1.74.06-3.48.1-5.21l-2.62-.07Zm-.16,10.48c0,1.67,0,3.35-.05,5v.22l2.62,0,0-1.66,0-3.58-2.62,0Zm-.11,10.49c0,.82,0,1.65,0,2.48h0v1.4h0l0,1.34,2.62.05c0-1.75.06-3.51.09-5.26l-2.62,0Zm-.18,10.48,0,2.86h0v.17h0v.07h0V206h0v.61h0v0h0v.17h0c0,.4,0,.79,0,1.19l2.62,0c0-1.75,0-3.49.05-5.23l-2.62,0ZM256,213.28c0,.51,0,1,0,1.54v0h0c0,1,0,2,0,2.94v.13h0c0,.19,0,.38,0,.57l2.62,0c0-1.75,0-3.5,0-5.25l-2.62,0Zm-.11,10.48c0,1.23-.05,2.46-.08,3.68h0v.26h0v0h0a3,3,0,0,0,.07.53H256a1.69,1.69,0,0,0,.19.38l1.68-1.13.6-.11h0a1.14,1.14,0,0,1,0-.19c0-1.23.06-2.47.08-3.7l-2.62-.05Zm6.26,6.42-1.82,1.89.07.07h0l0,.05h.29l0,0h.07l0,0H261l.05,0h0l0,0h0l.07.07h0l.06.06h0l.06.07h0l.07.08h0l0,0h0l.08.1h0l.08.1h0l.06.07h0l.08.1h0l.06.09h0l.05.07h0l.05.07h.05l0,.06h0l.06.08h0l.17.25h0a.36.36,0,0,1,.07.1h0a18.12,18.12,0,0,1,.94,1.6l2.33-1.2a18.72,18.72,0,0,0-3.6-4.89Zm4.48,7.09v2.62h0v-2.62Zm0,0,0,2.62h0l0-2.62Zm5.21,0h-5.21v2.62h5.21v-2.62Zm10.48,0h-5.24v2.62h5.24v-2.63Zm8.28,0h-3v2.62h5.24v-2.62Zm7.45,0v2.63h5.24v-2.62Zm10.48,0v2.62h5.24v-2.62Zm10.49,0v2.62h5.24v-2.62Zm10.48,0v2.62h5.24V237.3Zm10.49,0v2.62h5.24v-2.62Zm10.1-6.36a22.85,22.85,0,0,0-3.47,4.79L349,237h0l0,0h0v0h0v0h0l0,0h0l0,0h0v0h0v0h0l0,0h0l0,0h0a19.61,19.61,0,0,1,2.88-3.89l-1.91-1.8Zm7-5.26-.14.09a27.9,27.9,0,0,0-2.41,1.44l1.45,2.19.68-.44h0l.05,0h0l0,0h0l0,0h.2l0,0h0l0,0h0c.35-.21.7-.41,1.06-.6h.08l.27-.15h0l.15-.11-1.11-1.46h0l1.82.24a.41.41,0,0,1,0-.11h0v0h0a1.15,1.15,0,0,0,0-.19v-.28l-2.18,0-.14-.19Zm.47.63,1.11,1.46.15-.13h.19a1.74,1.74,0,0,0,.37-.9l-1.82-.24ZM357,215.39l-.09,5.24,2.63,0c0-1,0-2,0-3l0-1.52c0-.24,0-.48,0-.73l-2.62,0Zm.17-10.48-.09,5.24,2.62,0c0-1.21,0-2.43.07-3.66,0-.53,0-1.05,0-1.58l-2.62,0Zm.18-10.49-.09,5.25,2.62,0c0-1.59.05-3.19.08-4.82v-.42l-2.62-.05Zm.18-10.48-.09,5.24,2.62,0c0-.39,0-.78,0-1.17q0-1.76.06-3.57h0v0c0-.15,0-.29,0-.44l-2.62-.05Zm.19-10.49-.1,5.25,2.62.05v-.25c0-.77,0-1.55,0-2.35s0-1.75.05-2.65l-2.62-.05ZM358,163l-.11,5.24,2.62,0c0-.13,0-.25,0-.38,0-.71,0-1.42,0-2.14,0-.89,0-1.8.06-2.72L358,163Zm.21-10.48-.11,5.24,2.62.05v-.35c0-1.61.06-3.24.1-4.89l-2.62,0Zm.23-10.49-.12,5.24,2.62.06.12-5.24-2.62-.06Zm-4.83-6.46-1.85,1.85a18.7,18.7,0,0,0,4.94,3.52l1.16-2.35h-.73l0,0h0l0,0h0l0,0h0l0,0h-.06l0,0h0l0,0h0l-.05,0h0l0,0h0a17,17,0,0,1-1.7-1.17h0l-.05,0h0l-.05,0h0l0,0h0l0,0h0l0,0h0l0,0h0l0,0h0l0,0h0l0,0h0l0,0h0l0,0h0l0,0h0l0,0h0l0,0h-.55l0,0h-.09v0h-.06v0h0v0h0Zm-4.81-6.06V131l1.23-.76a1.3,1.3,0,0,0-1-.69h-.26Z"/><path class="cls-2" d="M327.7,12.06h-.34a34.29,34.29,0,0,0-4.88.4l.39,2.59a32.55,32.55,0,0,1,4.83-.38V12.06Zm-10.34,1.5c-1.68.45-3.35,1-5,1.55l.86,2.48c1.77-.61,3.35-1.1,4.82-1.5l-.67-2.53Zm-9.94,3.32-2.67,1h0l-.15.05h0l-.14.05h0l-.14.05h0l-.14.05h0l-.13.05h0l-.14.05h0l-1.27.46.88,2.47,4.94-1.77-.88-2.47Zm-9.88,3.52-3.39,1.2-1.55.55.87,2.47,4.95-1.75-.88-2.47Zm-9.88,3.49-.1,0h0l-1,.34-.06,0-.09,0-.09,0-.07,0-.13.05h0l-3.4,1.19.87,2.48,4.94-1.74-.86-2.47Zm-9.9,3.46-4.95,1.73.87,2.47,4.95-1.72-.87-2.48Zm-9.88,3.51,0,0h0l-.2.13h-.1l-.13.11h-.11a2.8,2.8,0,0,0-.39.56h-.05v0h0l-.12.26h0v0h0c-.34.83-.71,1.64-1.11,2.44h0v0h0l0,.09h0l-.07.14h0v0h0v0h0v0h0v0h0v0h0v0h0v0h0v0h0v0h0v0h0v0h0v0h0v0h0v0h0v0h0l2.32,1.23c.53-1,1.05-2.12,1.52-3.27.07-.15.1-.2.1-.2h0l-.14-.1-1.21-2.12Zm-5.44,8.86a24.17,24.17,0,0,1-2.59,2.78h0l0,0h0l-.06,0h0l0,0h0l0,0h0l0,0h0l-.06,0h0l0,0h0l0,0h0l0,0h0l0,0h0l0,0h0l0,0h0l0,0h-.47l1.65,2a26.49,26.49,0,0,0,4-4l-2.06-1.63Zm-4.33,8.8v.67l0,2.6,0,2,2.62,0,.08-5.24-2.62,0ZM258,59c0,1.75-.05,3.49-.08,5.24l2.62,0,.08-5.24L258,59Zm-.16,10.48c0,.46,0,.92,0,1.38l-.06,3.86,2.62,0,.08-5.24-2.62,0ZM257.62,80l0,2.15,0,3.09,2.62,0,.08-5.24-2.62,0Zm2.19,10.14h-2.62v5.25h2.62V90.1Zm-2.62,10.49v5.24h2.62v-5.24Zm0,10.48v5.24h2.62v-5.25Zm1.81,9.54-.24.86-1.58.08c0,.13,0,.25,0,.37h0a1.52,1.52,0,0,0,.33.78h.27l0,0h0a1.33,1.33,0,0,0,.24.11h.66l.05,0h0a9.25,9.25,0,0,1,1.24.53h0l.12.06h.36a6.17,6.17,0,0,1,.6.39l1.51-2.15a12.23,12.23,0,0,0-3.63-1.72Zm9.9,5.66-2.25.43a1.72,1.72,0,0,1-.36,0h0v.56l-1.69,1.05.05.08h0v0h0a2.34,2.34,0,0,0,.5.53h.1a1.64,1.64,0,0,0,.7.25h.26l0-1.9h0v1.92a4.46,4.46,0,0,0,.86-.1l.08,0h.13l1.26-.25h.07l.71-.14-.5-2.57Zm10.32-2-1.43.27-.28,0-3.45.65.48,2.57,1.1-.21h.09l1.61-.3h.12l.2,0h.23l.1,0h0l.28,0,.44-.08.66-.12.33-.06-.48-2.58Zm10.3-1.93-5.15,1,.48,2.57.86-.16,1-.18.17,0,.11,0,3-.57-.48-2.58Zm10.31-1.92-5.16,1,.48,2.58,1.68-.31.19,0,.17,0,2.3-.43.82-.15-.48-2.58Zm10.3-1.92-5.15,1,.48,2.58,3.2-.6h0l.5-.09.09,0,.51-.1h0l.82-.15-.48-2.58Zm10.31-1.91-5.15,1,.48,2.58,5.15-1-.48-2.57Zm10.31-1.91-5.15,1,.47,2.58.91-.17.35-.06h.06l3.54-.66.3,0-.48-2.58Zm10.31-1.9-5.15,1,.47,2.57,2.56-.47h0l.5-.09.11,0,.46-.09h.11l1.42-.27-.48-2.57Zm8.45-1.63s-.07.08-.38.14l-2.91.54.47,2.57,1.45-.26.1,0,.26,0,.53-.1h0l.55-.1h.9l0,0h0a2.72,2.72,0,0,0,.73-.48h0v0h.19l.08-.1-2-1.64Zm6.9-8.49a28.12,28.12,0,0,0-4,4.14l2.05,1.62.77-.93h0l.07-.07h0v0h0l.06-.06h0l0,0h0l0,0h0v0h0l0,0h.06v0h.06l0,0h.05v0h0v0h.05l0,0h0v0h0v0h0l0,0h.05l0,0h0l0,0h0v0h0v0h0l0,0h0v0h0l.05-.05h0l.06-.06h0v0h0l.07-.07h0c.48-.48,1-.94,1.49-1.38h0l.08-.06h0l0,0h0l.06,0h0l.05,0-1.68-2Zm2.81-6.82-.08,4.61c0,.13,0,.25,0,.37l2.6.31a3,3,0,0,0,0-.43h0a.81.81,0,0,0,0-.16h0v-.73c0-1,0-2,.05-2.92,0-.32,0-.63,0-1l-2.62,0Zm.19-10.48-.1,5.24,2.62,0c0-.63,0-1.27,0-1.9v-.41l0-2V86.1c0-.22,0-.43,0-.64l-2.62,0Zm.19-10.48-.1,5.24,2.62,0,0-1.23c0-1.34,0-2.68.07-4l-2.62,0Zm.19-10.48-.1,5.24,2.62,0,0-1.37c0-1.29,0-2.58.07-3.87l-2.62,0ZM360,54l-.09,5.24,2.62,0c0-.43,0-.85,0-1.28V56.62l0-2.26V54L360,54Zm2.78-10.44-2.62,0v.93l-.07,4.22,2.62,0v-.1l0-1.92v-.38l0-1.82h0v0h0v0h0v0h0v0h0v0h0v0h0v0h0v0h0v0h0v0h0v0h0v0h0v0h0v-.28Zm-2.1-10.21-2.43,1a26.94,26.94,0,0,1,1.38,4.57l2.57-.53c-.17-.81-.37-1.6-.6-2.38h0v0h0v0h0v0h0v0h0l-.06-.19h0v0h0v0h0v0h0v0h0v0h0l0-.13h0v0h0v0h0v0h0v0h0v0h0v0h0s0-.09-.05-.14h0v0h0v0h0v0h0v0h0v0h0v0h0a1.18,1.18,0,0,1-.07-.2h0v0h0c-.15-.44-.31-.87-.49-1.29Zm-5.34-9-2,1.66c.38.47.76,1,1.12,1.47.6.82,1.16,1.67,1.67,2.51l2.25-1.35c-.52-.86-1.07-1.7-1.67-2.53h0l0,0h0v0h0l0,0h-.1c-.31-.43-.63-.84-1-1.25h0l-.11-.15Zm-7.79-6.95-1.4,2.22a28.26,28.26,0,0,1,3.83,2.89l1.75-1.95-.77-.67h0l0,0h0l0,0h0l0,0h0l0,0h0l0,0h0l0,0h0l0,0h0l0,0h-.41l0,0h-.58l0,0h-.13v0H349l0,0h0l0,0h0l0,0h0l0,0h0l0,0h0l0,0h0l-1.2-.79Zm-9.61-4.07-.64,2.54a32.94,32.94,0,0,1,4.59,1.53l1-2.41h-.24a35.4,35.4,0,0,0-4.73-1.56Zm-10.2-1.26h0v2.62l1,0c1.27.05,2.53.14,3.73.28l.31-2.6-.56-.06h-.48c-.83-.08-1.67-.14-2.53-.17h-.53l-.95,0Z"/><path class="cls-2" d="M265.41,252.9h-.07a3.53,3.53,0,0,0-.66,0h-.06a2,2,0,0,0-1.43,1l-.12.2h0v0h0v0h0a14.62,14.62,0,0,1-1,1.57h0v0h0v0h0v0h-.15l-.07.08,2.09,1.59a16.63,16.63,0,0,0,1.44-2.26h.09v-.17h0v.17h.26l3.08.07.07-2.62-3.08-.07h-.33v2.39h0V252.9ZM258,259.73h-.38l0,0h0l0,0h0l0,0h0l-.75.44h-.05a2,2,0,0,0-1.19,1.71h0v0h0v0h0c0,.39,0,.79,0,1.18l2.62,0v-1.09c.45-.25.89-.52,1.3-.79L258,259.73ZM255.4,269c0,1.75,0,3.49-.05,5.24l2.62,0,0-5.24-2.62,0Zm-.11,10.48c0,1.21,0,2.41,0,3.62v.33c0,.43,0,.86,0,1.29l2.62,0,.05-5.24-2.62,0ZM255.18,290l0,2h0c0,1.09,0,2.19,0,3.27l2.62,0,.06-5.24-2.62,0Zm-.12,10.49v.65l0,3.5c0,.36,0,.73,0,1.09l2.62,0,.06-5.24-2.62,0ZM254.94,311c0,.5,0,1,0,1.51v1.76l0,2,2.62,0,.06-5.24-2.62,0Zm-.12,10.48v.11l-.06,5.13,2.62,0,.06-5.24-2.62,0Zm-.12,10.48c0,1.36,0,2.71,0,4.06h0v.06h0v.19h0v0h0v0h0v0h0l0,.16,2.56-.58a1.49,1.49,0,0,1,0-.19l.05-4.05-2.62,0Zm5.77,7-1.89,1.81q.57.6,1.08,1.23h.07l0,0h.08l0,0h0v0h0l0,0h0a16.46,16.46,0,0,1,1.7,2.71l2.35-1.16a19.39,19.39,0,0,0-3.49-4.9Zm5.3,7-.62,2.55.7.14,2.22.4h0l.11,0h0l.08,0,.09,0h0l1.87.34.46-2.58-4.45-.81-.55-.11Zm10.16,1.84-.46,2.58,5.15.92.47-2.58-5.16-.92Zm10.32,1.86-.47,2.58,4.27.79h.26l.63.11.48-2.57c-1.72-.33-3.44-.64-5.17-1Zm10.34,1.95-.51,2.57,2.25.44h.44l2.45.5.53-2.57c-1.72-.35-3.44-.7-5.16-1Zm10.24,2.07-.47,2.58.45.08h.26c1.5.26,3,.46,4.48.6l.24-2.61c-1.6-.15-3.27-.38-5-.69Zm14.82.51a39.36,39.36,0,0,1-4.9.37l0,2.62c.57,0,1.15,0,1.72-.06h1.68l1.82-.21-.36-2.6Zm9.47-2.54c-.52.21-1.06.42-1.6.61q-1.51.56-3.06,1l.68,2.54.61-.17h.3c.69-.2,1.38-.42,2.06-.67h.35l1-.38h0l.05,0h.18l.38-.15-1-2.43Zm8.56-4.77a40.14,40.14,0,0,1-4.12,2.65l1.27,2.29,1-.56h.42l0,0h0c1-.62,2-1.28,3-2l-1.56-2.11Zm7.12-6.78-.85,1c-.8.92-1.64,1.8-2.51,2.63l1.81,1.9h0l0,0h0l0,0h0l.05,0h0l0,0h0l.06-.06h0l.05,0h0l.6-.6h0l0,0h0l0,0h0l0-.05h0l0,0h0l0,0h0l0,0h0l0,0h0l0,0h0l0,0h0l0,0h0l0,0h0v0h.05l0,0h0l0,0h0l0,0h0l0,0h0l0,0h0v0h0v0h0v0h.07l0,0h.08l0,0h.08v0H347l0,0h.08l0,0h0v0h0l0,0h0l0,0h0l0,0h0l0,0h0v0h0l0,0h0l0,0h0l0,0h0l0,0h0v0h.08v0h.05v0h.07v0h0l0,0h0v0h0l0,0v0h0v0h0v0h0l.06-.07h0l.71-.84-2-1.68Zm5.39-8.2a36.51,36.51,0,0,1-2.42,4.23l2.18,1.45c.14-.2.27-.4.4-.61h0v0h0v0h.25v0h0v0h0v0h0v0h0v0h0v0h0v0h0v0h0v0h0v0h0v0h0v0h0v0h0l0,0h0v0h0v0h0v0h0v0h0v0h0l0,0h0v0h0l0,0h0v0h0l0-.05h0v0h0v0h0v0h0v0h0v0h0l0,0h0v0h0v0h0v0h0v0h0v0h0v0h0v0h0v0h0v0h0v0h.05v0h0v0h0v0h.14v0h0v0h0v0h0v0h0v0h0v0h0v0h0v0h0v0h0v0h0l0,0h0v0h0v0h0l0-.05h0c.21-.4.41-.79.6-1.2l-2.36-1.13Zm2.58-9.13a24.25,24.25,0,0,1-.87,4.65l2.52.73h0v0h0v0h0v0h0l0-.06h0a29.82,29.82,0,0,0,.75-3.55h0v0h0v0h0v0h0v0h0v0h0v0h0v0h0v0h0v0h0v0h0v0h0v0h0v0h0v-.05h0v0h0c0-.24.05-.48.07-.73l-2.61-.23Zm.4-10.32c-.06,1.74-.11,3.48-.17,5.22l2.62.09c.06-1.74.11-3.49.17-5.23l-2.62-.08Zm.26-10.46-.12,5.23,2.62.07c0-.19,0-.37,0-.56v-.16c0-1.08.05-2.17.07-3.25h0v-.14c0-.37,0-.75,0-1.12l-2.62-.06Zm.2-10.47-.09,5.24,2.62.05c0-.91,0-1.81,0-2.72v-.77h0l0-1.75-2.62,0ZM355.8,281l0,1.68-.06,3.56,2.62,0,.06-3.56v-.15c0-.51,0-1,0-1.53l-2.62,0Zm.18-10.49-.09,5.25,2.62,0c0-.81,0-1.63,0-2.44v-.3c0-.83,0-1.67.05-2.5l-2.62-.05Zm1.94-6.31-1.16,1.5,1.87-.38h0a1.8,1.8,0,0,0-.71-1.12Zm-3.25-2.12-1.6,2.08a24.18,24.18,0,0,0,3.14,2.05l.11.06h0l.44-.57h0l1.16-1.5-.13-.1h0l-.27-.17h-.82v0h-.06l0,0h0l0,0h0l0,0h0l-.05,0h0a19,19,0,0,1-1.73-1.2Zm-6.82-7.21-.59,2.17,1.61-1.57-.1-.1h-.07a2.3,2.3,0,0,0-.85-.44Zm-.43-.08-.3,2.38-.13.13h0a.87.87,0,0,1,.11.16,26.35,26.35,0,0,0,1.8,2.58l2.05-1.63-.15-.2h0v0h0v0h0v0h0v0h0v0h0v0h0v0h0v0h0v0h-.06v0h-.16v0h0l-.15-.21h0l0,0h0v0h0v0h0v0h0v0h0l0,0h0v0h0l0,0h0v0h0v0h0v0h0v0h-.05v0h0v0h0v0h-.05v0h0v0h0v0h-.07v0h0v0h0v0h-.08v0h0v0h0v0h-.07v0h0v0h0v0h0v0h0v0h0v0h0a3.74,3.74,0,0,0-.43-.56l-1.61,1.57h0l.59-2.17a3,3,0,0,0-.43-.08Zm-10.48-.24-.05,2.62,5.24.11.05-2.62-2.58-.06h-2.66Zm-10.48-.23L326.4,257l5.24.11.06-2.62-1.38,0-2.81-.06-1.05,0ZM316,254.1l-.06,2.62,5.24.12.06-2.62-4-.09-1.21,0Zm-10.48-.23-.06,2.62.81,0,4.43.09.06-2.62-4.43-.09h0l-.81,0ZM295,253.62l-.06,2.62,3.24.07,2,.05.06-2.62-1.76,0h-.24l-3.24-.07Zm-10.48-.25-.06,2.62,5.24.12.06-2.62-4.2-.1h-.21l-.83,0Zm-10.48-.26-.07,2.62,5.25.13.06-2.62-2.13-.05h-.51l-2.6-.07Z"/><path class="cls-3" d="M245.24,86.6q0,18,0,36a2.86,2.86,0,0,1-1.35,2.84,19,19,0,0,0-6.76,8,3,3,0,0,1-2.38,1.83q-11.81,2.12-23.6,4.31c-6.23,1.16-12.45,2.35-18.68,3.51-5,.94-10.09,1.81-15.13,2.78a1.23,1.23,0,0,1-1.61-.78,7.12,7.12,0,0,0-2.12-2.87c-2.21-1.3-2.45-3.13-2.43-5.41q.3-31.17.42-62.33a5.32,5.32,0,0,1,1.25-3.61,18.66,18.66,0,0,0,3.75-7c.31-1.2,1.23-1.5,2.19-1.84q12.12-4.24,24.24-8.48,16-5.64,32-11.32c1.2-.42,1.89-.38,2.54.87a9.19,9.19,0,0,0,7.27,5.21c.84.11,1,.53,1,1.28q0,18.48,0,37Z"/><path class="cls-3" d="M205.44,239.62c-9.08,0-18.17,0-27.25,0a2.11,2.11,0,0,1-2.45-1.7,12,12,0,0,0-4.26-6.17,2.46,2.46,0,0,1-1-2.77c.56-2.45.31-4.91.33-7.37q.21-26.47.32-53a4.44,4.44,0,0,1,1.55-3.58,13.64,13.64,0,0,0,3.8-6.48,1.71,1.71,0,0,1,1.63-1.46c5.77-.88,11.52-1.86,17.28-2.79q19.17-3.12,38.34-6.25a1.81,1.81,0,0,1,2.38,1.35,12.61,12.61,0,0,0,7.39,7.51c1.27.47,1.39,1.15,1.4,2.25,0,5.27-.2,10.52-.19,15.79,0,11.87-.19,23.74-.31,35.61-.06,5.34-.15,10.67-.14,16a3,3,0,0,1-1.85,3.09,14.81,14.81,0,0,0-7.08,8.27,2.16,2.16,0,0,1-2.4,1.73c-9.15-.07-18.3,0-27.44,0Z"/><path class="cls-3" d="M170.63,290.46q0-15.81,0-31.63a2.83,2.83,0,0,1,1.2-2.58,8.6,8.6,0,0,0,2.92-3.7c.55-1.46,1.47-1.75,2.91-1.71,18.16.46,36.32.91,54.48,1.24,2.18,0,3.54.42,4.59,2.57a12.84,12.84,0,0,0,5.92,5.75,2,2,0,0,1,1.26,2.06c-.15,12.19-.25,24.38-.38,36.58-.12,11.49-.26,23-.35,34.48a1.8,1.8,0,0,1-1.48,2,11.26,11.26,0,0,0-6.78,5.76,1.92,1.92,0,0,1-2.43,1.13q-25.62-4.85-51.25-9.63c-.44-.08-.88-.15-1.32-.19-2.67-.24-5.06-.73-5.81-4a6.41,6.41,0,0,0-2.06-3.14c-1.55-1.32-1.74-2.86-1.73-4.72.07-10.1,0-20.2,0-30.3Z"/><path class="cls-3" d="M162.24,199.71c0,9.47,0,18.93,0,28.39a2.22,2.22,0,0,1-1.34,2.37,12.58,12.58,0,0,0-6.08,7.71,1.75,1.75,0,0,1-2,1.42q-19-.07-38.1,0a1.7,1.7,0,0,1-1.94-1.48,11.47,11.47,0,0,0-4.51-6.57,1.8,1.8,0,0,1-.85-1.73q0-25.72,0-51.44a1.86,1.86,0,0,1,.7-1.64,14.59,14.59,0,0,0,4.87-7.93c.26-1,.76-1.22,1.67-1.36q19.25-3.09,38.48-6.27c1.27-.21,1.67.38,2,1.37a10,10,0,0,0,6.38,6.81c1.38.47.88,1.57.88,2.39,0,8.26-.05,16.51-.09,24.77v3.23Z"/><path class="cls-3" d="M162.59,108.58q0,14.67,0,29.34c0,1.92-.33,3.22-2.38,4.37s-3.3,3.78-4.31,6.1a3.07,3.07,0,0,1-2.68,2c-10.67,1.94-21.32,4-32,5.94-2.37.44-4.75.82-7.11,1.28a1.54,1.54,0,0,1-2-1,7.57,7.57,0,0,0-3.93-4.2c-.77-.3-.79-.85-.79-1.52,0-11.75-.54-23.53.21-35.24.87-13.59,6.34-25.35,17.36-34a14.74,14.74,0,0,1,4.38-2.23c3.78-1.32,7.54-2.68,11.31-4,4.38-1.53,8.78-3,13.15-4.58,1-.34,1.4-.22,1.82.77a7.44,7.44,0,0,0,5.66,4.86c1.28.22,1.37,1,1.37,2q0,15,0,30.1Z"/><path class="cls-3" d="M161.91,289.39c0,9.72,0,19.44,0,29.16,0,1.61-.39,2.49-2,3.05a7.93,7.93,0,0,0-4.82,4.83,1.72,1.72,0,0,1-2.3,1.21c-7.73-1.48-15.45-2.94-23.19-4.33-5.44-1-9.52-4.15-12.86-8.24a40.18,40.18,0,0,1-9.32-25.6c-.1-10.71,0-21.42,0-32.12a2.52,2.52,0,0,1,1.2-2.36,9.11,9.11,0,0,0,3.56-4.58c.34-.95.85-1.16,1.82-1.14,11.55.27,23.11.4,34.65.94a36.23,36.23,0,0,0,4.54.06,2.25,2.25,0,0,1,2.47,1.5,12.57,12.57,0,0,0,5.64,6c1.07.54.77,1.35.77,2.1,0,9.84,0,19.69,0,29.53Z"/><path class="cls-3" d="M611.85,168.34c-.3,17.46-.55,31.62-.76,45.79a1.92,1.92,0,0,1-1.2,1.89,21.61,21.61,0,0,0-10,10.39,2.39,2.39,0,0,1-2.48,1.47q-39.55-.09-79.1,0a2.15,2.15,0,0,1-2.34-1.66,15.71,15.71,0,0,0-7.22-8.51,2.18,2.18,0,0,1-1.28-2.28c.25-9.84.14-19.69.35-29.53.21-9.65.15-19.31.44-28.95.12-4.28.43-8.56.15-12.84-.05-.75.49-1.14,1-1.5A20.8,20.8,0,0,0,517.32,132a1.87,1.87,0,0,1,1.78-1.37c4-.53,8-1.11,12-1.77,4.61-.76,9.19-1.7,13.81-2.43,5.62-.88,11.26-1.68,16.85-2.64,6.86-1.17,13.73-2.27,20.59-3.46,5.81-1,11.65-1.85,17.46-2.86a1.56,1.56,0,0,1,2,1.1,16,16,0,0,0,9,8.55,2.45,2.45,0,0,1,1.8,2.79C612.31,143.82,612.06,157.73,611.85,168.34Z"/><path class="cls-3" d="M509.12,74.09q.33-20.39.63-40.77a2.37,2.37,0,0,1,.73-2.05,27.33,27.33,0,0,0,7.83-11.06,2.68,2.68,0,0,1,1.8-1.69c14.13-4.93,28.26-9.86,42.34-14.94C568.28,1.47,574.14-.2,580.4,0c11.34.39,20.93,4.5,27.71,13.84a30.41,30.41,0,0,1,6.22,18.63c-.3,18.66-.66,37.33-1,56a2.34,2.34,0,0,1-1,2.25,25.73,25.73,0,0,0-8.8,9.47,3,3,0,0,1-2.33,1.65l-35.92,6.64q-17.85,3.32-35.69,6.66-5.43,1-10.84,2.06a2.09,2.09,0,0,1-2.58-.94,10.81,10.81,0,0,0-6.28-5.2c-1-.28-1.12-1-1.11-1.92q0-17.54,0-35.06Z"/><path class="cls-3" d="M557.91,241.82c13.53.3,27.05.62,40.58.89a2.5,2.5,0,0,1,2.44,1.33,21.6,21.6,0,0,0,8.14,7.82,2,2,0,0,1,1.21,2.1c-.37,18.54-.48,37.1-1.21,55.63-.32,8.08-4.24,15.08-9.55,21.14A41.65,41.65,0,0,1,582,342.65c-8.5,3.06-17,3-25.83,1.17-12.84-2.72-25.8-4.9-38.72-7.25-1.77-.33-3-.82-3.82-2.72a18.38,18.38,0,0,0-6.19-7.58,2.62,2.62,0,0,1-1.2-2.36q.45-36.69.83-73.37a2.1,2.1,0,0,1,1.21-2.11,15.15,15.15,0,0,0,6.39-6.34c.63-1.21,1.52-1.28,2.66-1.25Q537.63,241.37,557.91,241.82Z"/></g></g></svg>