<svg xmlns="http://www.w3.org/2000/svg" viewBox="0 0 102.7 102.7"><defs><style>.cls-1{fill:#82bc00;}.cls-2{fill:#fff;}</style></defs><title>Asset 9</title><g id="Layer_2" data-name="Layer 2"><g id="wind"><path class="cls-1" d="M51.35,100A48.65,48.65,0,1,1,100,51.35,48.71,48.71,0,0,1,51.35,100Z"/><path class="cls-2" d="M51.35,5.41A45.95,45.95,0,1,1,5.41,51.35,45.94,45.94,0,0,1,51.35,5.41m0-5.41A51.35,51.35,0,1,0,102.7,51.35,51.41,51.41,0,0,0,51.35,0Z"/><path class="cls-2" d="M51,49.52a4,4,0,1,1,1.15-.18A3.83,3.83,0,0,1,51,49.52Zm0-5.79a1.81,1.81,0,0,0-.55.09,1.86,1.86,0,0,0,1.1,3.56,1.87,1.87,0,0,0,1.24-2.33A1.88,1.88,0,0,0,51,43.73Z"/><path class="cls-2" d="M51.27,91.18a8.1,8.1,0,0,1-3.18-.63,1,1,0,0,1-.63-1l.91-35.76a1,1,0,0,1,.39-.78,1,1,0,0,1,.85-.19,7.39,7.39,0,0,0,3,0,1,1,0,0,1,.83.2,1,1,0,0,1,.39.76l1.71,35.63a1,1,0,0,1-.59,1A9.44,9.44,0,0,1,51.27,91.18Zm-1.74-2.29a7.09,7.09,0,0,0,3.93-.09L51.84,55a8.77,8.77,0,0,1-1.45,0Z"/><path class="cls-2" d="M76.63,64a2.51,2.51,0,0,1-.92-.19l-.59-.2C66.74,60.81,60.37,57,56.18,52.2a1.14,1.14,0,0,1,0-1.54A7.34,7.34,0,0,0,58,47.45a1.14,1.14,0,0,1,1.46-.79c11.58,3.87,17.77,14.13,18.12,14.72a1.75,1.75,0,0,1,.09,2.1A1.33,1.33,0,0,1,76.63,64Zm-.88-1.25h0ZM58.55,51.43c3.71,3.92,9.11,7.14,16.08,9.59-2-2.84-7.12-8.88-14.8-11.82A9.55,9.55,0,0,1,58.55,51.43Z"/><path class="cls-2" d="M53.82,38.81a1.34,1.34,0,0,1-.39-.07,7.22,7.22,0,0,0-2.65-.42h0a6.24,6.24,0,0,0-1.05.11,1.14,1.14,0,0,1-1.3-.85c-3-11.72,2.17-22.37,2.39-22.82a1.75,1.75,0,0,1,1.7-1.22c.48.05,1.09.36,1.34,1.5,0,.12.09.32.16.6,2.36,8.64,2.65,16.16.89,22.34a1.13,1.13,0,0,1-.58.7A1.17,1.17,0,0,1,53.82,38.81ZM51,36.05a9.76,9.76,0,0,1,2,.21c1.25-5.27,1-11.59-.86-18.8-1.22,3.26-3.42,10.69-1.74,18.6H51Z"/><path class="cls-2" d="M24.9,62.09a1.61,1.61,0,0,1-1.58-.85c-.2-.43-.26-1.12.59-1.92.09-.08.23-.24.44-.45,6-6.27,12.16-10.33,18.22-12.08a1.17,1.17,0,0,1,.86.1,1.13,1.13,0,0,1,.54.69,7.26,7.26,0,0,0,2,3.28,1.15,1.15,0,0,1,.35.81,1.12,1.12,0,0,1-.33.82C37.42,61,25.73,62,25.24,62.07A2,2,0,0,1,24.9,62.09Zm17.27-12.8C37.13,51,32,54.42,26.87,59.54c3.39-.61,10.8-2.51,16.71-7.91A9.59,9.59,0,0,1,42.17,49.29Z"/></g></g></svg>