<svg xmlns="http://www.w3.org/2000/svg" viewBox="0 0 773.58 649.68"><defs><style>.cls-1{fill:none;stroke:#fff;stroke-linecap:round;stroke-linejoin:round;stroke-width:5px;stroke-dasharray:61.01 61.01 22.63 33.94 11.31 33.94;}.cls-2{fill:#fff;}.cls-3{fill:#e4e4e4;}</style></defs><title>Asset 18</title><g id="Layer_2" data-name="Layer 2"><g id="vanguard"><circle class="cls-1" cx="386.33" cy="313.19" r="285"/><ellipse class="cls-2" cx="152.33" cy="599.33" rx="17.5" ry="17.7"/><circle class="cls-3" cx="160.34" cy="596.86" r="3.16"/><circle class="cls-3" cx="147.69" cy="602.79" r="1.98"/><circle class="cls-3" cx="148.48" cy="590.93" r="0.79"/><path class="cls-3" d="M156.77,582.21a17.11,17.11,0,0,0-4.44-.58,17.73,17.73,0,0,0-8.83,33c-3.21-8.3-2.9-14.68-.89-19.53h.13a2.88,2.88,0,0,0,2.77-3,3.16,3.16,0,0,0-.35-1.44A28,28,0,0,1,156.77,582.21Z"/><path class="cls-2" d="M773.16,306.17,769.27,309a1,1,0,0,0-.35.47L767.19,314a1,1,0,0,1-1.81.25l-2.87-3.89a1.05,1.05,0,0,0-.46-.35l-4.51-1.73a1,1,0,0,1-.25-1.81l3.88-2.87a1,1,0,0,0,.36-.46l1.72-4.51a1.05,1.05,0,0,1,1.82-.25l2.86,3.88a1,1,0,0,0,.47.36l4.51,1.72A1.05,1.05,0,0,1,773.16,306.17Z"/><path class="cls-2" d="M654.87,63.44l-4.54,1.64a.94.94,0,0,0-.47.34l-2.94,3.83a1,1,0,0,1-1.81-.28l-1.64-4.54a1,1,0,0,0-.35-.47L639.29,61a1,1,0,0,1,.28-1.81l4.55-1.64a1.08,1.08,0,0,0,.47-.35l2.94-3.83a1,1,0,0,1,1.81.28L651,58.22a1,1,0,0,0,.34.47l3.83,2.94A1,1,0,0,1,654.87,63.44Z"/><path class="cls-2" d="M719.15,7.92l-3.79,3a.94.94,0,0,0-.34.47L713.43,16a1,1,0,0,1-1.8.3l-3-3.79a1,1,0,0,0-.48-.34l-4.56-1.59a1,1,0,0,1-.3-1.8l3.79-3a1,1,0,0,0,.34-.48L709,.7a1,1,0,0,1,1.81-.3l3,3.79a1,1,0,0,0,.48.34l4.57,1.58A1,1,0,0,1,719.15,7.92Z"/><path class="cls-2" d="M42.16,371.17,38.27,374a1,1,0,0,0-.35.47L36.19,379a1,1,0,0,1-1.81.25l-2.87-3.89a1.05,1.05,0,0,0-.46-.35l-4.51-1.73a1,1,0,0,1-.25-1.81l3.88-2.87a1,1,0,0,0,.36-.46l1.72-4.51a1.05,1.05,0,0,1,1.82-.25l2.86,3.88a1,1,0,0,0,.47.36l4.51,1.72A1.05,1.05,0,0,1,42.16,371.17Z"/><path class="cls-2" d="M80.69,67.39,76.15,69a1.08,1.08,0,0,0-.47.35l-2.94,3.83a1,1,0,0,1-1.81-.28l-1.64-4.55a1.14,1.14,0,0,0-.34-.47L65.12,65a1,1,0,0,1,.28-1.81l4.54-1.64a.94.94,0,0,0,.47-.34l2.94-3.83a1,1,0,0,1,1.81.28l1.64,4.54a1.08,1.08,0,0,0,.34.47L81,65.58A1,1,0,0,1,80.69,67.39Z"/><path class="cls-2" d="M145,11.87l-3.79,3a1,1,0,0,0-.34.48l-1.58,4.56a1,1,0,0,1-1.81.3l-3-3.79a1,1,0,0,0-.47-.34l-4.57-1.58a1,1,0,0,1-.3-1.81l3.79-3a.94.94,0,0,0,.34-.47l1.58-4.57a1,1,0,0,1,1.81-.3l3,3.79a1,1,0,0,0,.47.34l4.57,1.59A1,1,0,0,1,145,11.87Z"/><path class="cls-2" d="M747.16,641.17,743.27,644a1,1,0,0,0-.35.47L741.19,649a1,1,0,0,1-1.81.25l-2.87-3.89a1.05,1.05,0,0,0-.46-.35l-4.51-1.73a1,1,0,0,1-.25-1.81l3.88-2.87a1,1,0,0,0,.36-.46l1.72-4.51a1.05,1.05,0,0,1,1.82-.25l2.86,3.88a1,1,0,0,0,.47.36l4.51,1.72A1.05,1.05,0,0,1,747.16,641.17Z"/><path class="cls-2" d="M599.87,586.44l-4.54,1.64a.94.94,0,0,0-.47.34l-2.94,3.83a1,1,0,0,1-1.81-.28l-1.64-4.54a1,1,0,0,0-.35-.47L584.29,584a1,1,0,0,1,.28-1.81l4.55-1.64a1.08,1.08,0,0,0,.47-.35l2.94-3.83a1,1,0,0,1,1.81.28l1.64,4.55a1,1,0,0,0,.34.47l3.83,2.94A1,1,0,0,1,599.87,586.44Z"/><path class="cls-2" d="M727.45,471.6l-4.74.91a1.09,1.09,0,0,0-.52.27l-3.5,3.33a1,1,0,0,1-1.74-.56l-.92-4.74a1.07,1.07,0,0,0-.26-.52l-3.33-3.5a1,1,0,0,1,.55-1.74l4.74-.92a1,1,0,0,0,.52-.26l3.5-3.33a1,1,0,0,1,1.74.55l.92,4.74a1.08,1.08,0,0,0,.27.53l3.33,3.49A1,1,0,0,1,727.45,471.6Z"/><path class="cls-2" d="M64.87,631.17l-2.63,4.05a1,1,0,0,0-.17.56l0,4.83a1,1,0,0,1-1.61.87l-4.05-2.64a1,1,0,0,0-.56-.17l-4.83,0a1,1,0,0,1-.86-1.61l2.63-4a1.06,1.06,0,0,0,.17-.57l0-4.82a1,1,0,0,1,1.61-.87l4,2.64a1.19,1.19,0,0,0,.56.17l4.83,0A1,1,0,0,1,64.87,631.17Z"/><ellipse class="cls-2" cx="44.25" cy="133.89" rx="44.25" ry="44.75"/><circle class="cls-3" cx="64.5" cy="127.64" r="8"/><circle class="cls-3" cx="32.5" cy="142.64" r="5"/><circle class="cls-3" cx="34.5" cy="112.64" r="2"/><path class="cls-3" d="M55.46,90.6a43.67,43.67,0,0,0-11.21-1.46C19.81,89.14,0,109.18,0,133.89a44.83,44.83,0,0,0,21.9,38.63c-8.1-21-7.31-37.12-2.23-49.39H20a7.26,7.26,0,0,0,7-7.5,7.82,7.82,0,0,0-.89-3.65C34.57,100.9,46.56,94.27,55.46,90.6Z"/></g></g></svg>