<svg xmlns="http://www.w3.org/2000/svg" viewBox="0 0 1280.94 1011.39"><defs><style>.cls-1{fill:#8dd3f0;}.cls-2{font-size:30px;}.cls-12,.cls-2,.cls-31{fill:#073586;}.cls-2,.cls-31{font-family:AvenirNextLTPro-Bold, AvenirNextLTPro Bold;}.cls-2,.cls-32,.cls-33,.cls-34,.cls-35{font-weight:700;}.cls-3{letter-spacing:-0.03em;}.cls-4{letter-spacing:-0.01em;}.cls-5{letter-spacing:-0.01em;}.cls-6{letter-spacing:-0.01em;}.cls-7{letter-spacing:0em;}.cls-8{letter-spacing:-0.01em;}.cls-9{letter-spacing:0em;}.cls-10{letter-spacing:0em;}.cls-11{letter-spacing:0em;}.cls-12,.cls-31{font-size:22px;}.cls-12,.cls-36,.cls-37,.cls-38,.cls-39,.cls-40,.cls-41{font-family:AvenirNextLTPro-Medium, AvenirNextLTPro Medium;}.cls-13{letter-spacing:-0.01em;}.cls-14{letter-spacing:-0.05em;}.cls-15{letter-spacing:-0.08em;}.cls-16,.cls-37{letter-spacing:0em;}.cls-17{letter-spacing:-0.04em;}.cls-18{letter-spacing:-0.01em;}.cls-19,.cls-34{letter-spacing:-0.01em;}.cls-20,.cls-35{letter-spacing:-0.01em;}.cls-21{letter-spacing:-0.01em;}.cls-22{letter-spacing:-0.08em;}.cls-23{letter-spacing:0em;}.cls-24{letter-spacing:0em;}.cls-25{letter-spacing:0em;}.cls-26,.cls-39{letter-spacing:0em;}.cls-27{letter-spacing:0.02em;}.cls-28,.cls-32{letter-spacing:0.01em;}.cls-29{letter-spacing:-0.07em;}.cls-30,.cls-40{letter-spacing:-0.01em;}.cls-38{letter-spacing:0.02em;}.cls-41{letter-spacing:-0.04em;}</style></defs><title>Asset 4</title><g id="Layer_2" data-name="Layer 2"><g id="_1954" data-name="1954"><rect class="cls-1" width="1280.94" height="1011.39"/><text class="cls-2" transform="translate(356.27 122.21)"><tspan class="cls-3">W</tspan><tspan class="cls-4" x="24.39" y="0">a</tspan><tspan x="38.61" y="0">y back in 1954 the first sili</tspan><tspan class="cls-5" x="357.08" y="0">c</tspan><tspan x="370.34" y="0">on solar </tspan><tspan class="cls-6" x="475.88" y="0">c</tspan><tspan x="489.14" y="0">ell </tspan><tspan class="cls-7" x="524.69" y="0">w</tspan><tspan x="546.65" y="0">as </tspan><tspan x="131.74" y="36">built </tspan><tspan class="cls-8" x="195.73" y="36">b</tspan><tspan x="212.59" y="36">y </tspan><tspan class="cls-9" x="233.08" y="36">B</tspan><tspan x="249.46" y="36">ell Labo</tspan><tspan class="cls-10" x="347.17" y="36">r</tspan><tspan class="cls-11" x="356.83" y="36">a</tspan><tspan class="cls-5" x="371.17" y="36">t</tspan><tspan x="380.92" y="36">o</tspan><tspan class="cls-9" x="397.39" y="36">r</tspan><tspan x="407.32" y="36">ies</tspan></text><text class="cls-12" transform="translate(318.38 225.41)"><tspan class="cls-13">T</tspan><tspan x="10.78" y="0">he New</tspan><tspan class="cls-14" x="80.37" y="0"> </tspan><tspan class="cls-15" x="84.02" y="0">Y</tspan><tspan x="94.25" y="0">o</tspan><tspan class="cls-16" x="106.33" y="0">r</tspan><tspan x="113.61" y="0">k</tspan><tspan class="cls-17" x="123.92" y="0"> </tspan><tspan class="cls-18" x="127.69" y="0">T</tspan><tspan x="138.36" y="0">imes p</tspan><tspan class="cls-19" x="198.77" y="0">r</tspan><tspan x="205.74" y="0">oclaimed the miles</tspan><tspan class="cls-20" x="378.66" y="0">t</tspan><tspan x="385.81" y="0">on</tspan><tspan class="cls-21" x="410.1" y="0">e</tspan><tspan x="420.86" y="0">,</tspan><tspan class="cls-22" x="425.41" y="0"> </tspan><tspan class="cls-23" x="428.25" y="0">“</tspan><tspan class="cls-24" x="436.14" y="0">the be</tspan><tspan class="cls-20" x="494.86" y="0">g</tspan><tspan x="507.03" y="0">inning of a new </tspan><tspan x="23.61" y="30">e</tspan><tspan class="cls-25" x="34.63" y="30">r</tspan><tspan x="41.71" y="30">a, leading e</tspan><tspan class="cls-19" x="146.1" y="30">v</tspan><tspan x="156.46" y="30">e</tspan><tspan class="cls-26" x="167.48" y="30">n</tspan><tspan x="179.61" y="30">tually </tspan><tspan class="cls-20" x="235.02" y="30">t</tspan><tspan x="242.17" y="30">o the </tspan><tspan class="cls-19" x="294.09" y="30">r</tspan><tspan x="301.07" y="30">ealiz</tspan><tspan class="cls-26" x="342.45" y="30">a</tspan><tspan x="352.96" y="30">tion of one of man</tspan><tspan class="cls-27" x="521.81" y="30">k</tspan><tspan x="532.5" y="30">in</tspan><tspan class="cls-28" x="549.86" y="30">d</tspan><tspan class="cls-29" x="562.4" y="30">’</tspan><tspan x="565.37" y="30">s most </tspan><tspan x="-1.91" y="60">che</tspan><tspan class="cls-16" x="31.17" y="60">r</tspan><tspan x="38.46" y="60">ished d</tspan><tspan class="cls-19" x="105.03" y="60">r</tspan><tspan x="112" y="60">eams -- the ha</tspan><tspan class="cls-16" x="241.51" y="60">r</tspan><tspan x="248.79" y="60">nessing of the almost limitless ene</tspan><tspan class="cls-30" x="562.66" y="60">r</tspan><tspan x="569.68" y="60">gy of the </tspan><tspan x="307.86" y="90">sun</tspan></text><text class="cls-31" transform="translate(438.15 815.4)"><tspan class="cls-32">S</tspan><tspan class="cls-33" x="10.98" y="0">ou</tspan><tspan class="cls-34" x="35.18" y="0">r</tspan><tspan class="cls-35" x="42.15" y="0">c</tspan><tspan class="cls-33" x="51.88" y="0">e:</tspan><tspan class="cls-36" x="67.45" y="0" xml:space="preserve"> US </tspan><tspan class="cls-37" x="101.86" y="0">D</tspan><tspan class="cls-36" x="116.6" y="0">epa</tspan><tspan class="cls-38" x="150.74" y="0">r</tspan><tspan class="cls-36" x="158.46" y="0">tme</tspan><tspan class="cls-39" x="195.11" y="0">n</tspan><tspan class="cls-36" x="207.23" y="0">t of Ene</tspan><tspan class="cls-40" x="276.4" y="0">r</tspan><tspan class="cls-36" x="283.42" y="0">g</tspan><tspan class="cls-41" x="295.72" y="0">y</tspan><tspan class="cls-36" x="305.22" y="0">, June 2018.</tspan></text></g></g></svg>