<svg xmlns="http://www.w3.org/2000/svg" viewBox="0 0 195.48 28.37"><defs><style>.cls-1{fill:#86b926;}.cls-2{fill:#f0f0f0;}</style></defs><title>Asset 10</title><g id="Layer_2" data-name="Layer 2"><g id="solar_power" data-name="solar power"><path class="cls-1" d="M34.06,10.36a21.45,21.45,0,0,1,2.08-1.79,5.85,5.85,0,0,1,6.09-.22,5.5,5.5,0,0,1,3,5.12c.09,4,0,7.94,0,11.92,0,.59-.18.86-.81.84-1.05,0-2.1,0-3.28,0V14.54c0-2.52-1.15-3.91-3.26-4a3.78,3.78,0,0,0-3.85,4c0,3.49,0,7,0,10.49,0,1.1,0,1.11-1.1,1.11-.75,0-1.5,0-2.25,0s-.87-.22-.86-.88c0-3.72,0-7.44,0-11.16V3.7c0-1.2,0-1.17-1.22-1.41-.44-.08-1.2.1-1.08-.76,0-.24.31-.62.51-.64C29.88.64,31.7.44,33.52.25c.61-.06.54.41.54.8v9.31Z"/><path class="cls-1" d="M24.94,4A23.1,23.1,0,0,0,21.3,2.64a13.48,13.48,0,0,0-3.86-.11,3.32,3.32,0,0,0-3,2.66,3.27,3.27,0,0,0,1.58,3.57c1.16.74,2.44,1.31,3.67,2s2.8,1.34,4.12,2.14A6.6,6.6,0,0,1,27,19.45a6.84,6.84,0,0,1-4.79,6.38,16,16,0,0,1-10.68-.13A1,1,0,0,1,11,25c-.07-.9,0-1.82,0-2.94l1,.63a10.3,10.3,0,0,0,8.15,1.24A3.53,3.53,0,0,0,23,20.71,3.55,3.55,0,0,0,21.3,16.9c-1.62-.94-3.37-1.67-5-2.58a21,21,0,0,1-3.9-2.48C9.22,9.07,9.82,2.42,15.2.65a16,16,0,0,1,9.11,0c.24.07.59.35.6.55C25,2.16,24.94,3.09,24.94,4Z"/><path class="cls-1" d="M58.44,24.11l-.57.67a6.07,6.07,0,0,1-8.58.2,5.65,5.65,0,0,1,2.94-9.17,30,30,0,0,1,5.12-.4c1.18-.05,1.18,0,1.18-1.21,0-.3,0-.61,0-.91a3,3,0,0,0-3-3.15,12.61,12.61,0,0,0-5.38.75c-.23.08-.46.14-.7.21-.31-1.64-.2-1.85,1.15-2.44a12.48,12.48,0,0,1,7.08-.85c3.31.53,5,2.62,5,6.32s0,7.66-.05,11.49a.77.77,0,0,1-.47.57,23.71,23.71,0,0,1-2.92,0c-.2,0-.5-.36-.54-.6a7.06,7.06,0,0,1,0-1.38Zm.17-4.65h-.08c0-.44,0-.88,0-1.33s-.21-.8-.77-.78c-.8,0-1.61,0-2.41,0a3.39,3.39,0,0,0-2.8,5.35,2.83,2.83,0,0,0,1.29,1.08,3.35,3.35,0,0,0,4.47-2.12A12.37,12.37,0,0,0,58.61,19.46Z"/><path class="cls-1" d="M93.65,17.33H83.26c-1.07,0-1.06,0-1,1.05.16,4.82,3,6.15,7.32,5.81,1-.08,2.06-.31,3.09-.46.29,1.71.27,1.77-1.25,2.25a12.19,12.19,0,0,1-8.54-.17,7.09,7.09,0,0,1-4.31-4.67,13.26,13.26,0,0,1,.29-9,6.7,6.7,0,0,1,6.07-4.37A12.28,12.28,0,0,1,88.69,8,5.37,5.37,0,0,1,93,12.05,44.82,44.82,0,0,1,93.65,17.33Zm-7.79-2h3c.48,0,.73-.19.68-.7s-.06-1.32-.17-2c-.32-1.93-1.3-2.83-3.12-2.93a3.4,3.4,0,0,0-3.66,2.62c-.18.69-.2,1.42-.35,2.12s.19.87.8.86C84,15.32,84.91,15.34,85.86,15.34Z"/><path class="cls-1" d="M105.77,11c-1.25-.37-2.42-.8-3.62-1a4.69,4.69,0,0,0-2,.09,2,2,0,0,0-.86,3.61,17.81,17.81,0,0,0,3,1.66,21.86,21.86,0,0,1,3.2,1.74c2.75,2.12,2.24,6.89-.8,8.57a10.48,10.48,0,0,1-6.22,1c-.77-.07-1.53-.26-2.29-.4a.79.79,0,0,1-.73-.92c0-.72,0-1.44,0-2.25a4.07,4.07,0,0,1,.45.19,8.92,8.92,0,0,0,5.5,1.23,2.53,2.53,0,0,0,1.22-4.72c-.81-.47-1.7-.8-2.55-1.22A30,30,0,0,1,97.2,17c-3-1.94-2.31-6.44-.17-8A7.55,7.55,0,0,1,102.3,7.7a22.94,22.94,0,0,1,2.86.43,1,1,0,0,1,.59.72A18.62,18.62,0,0,1,105.77,11Z"/><path class="cls-1" d="M71.36,11.37c.32-.54.61-1.1,1-1.63a4.46,4.46,0,0,1,4.51-2c.23.06.56.34.57.53.06,1,0,1.92,0,2.89-.66,0-1.24,0-1.81,0a4,4,0,0,0-4.18,3.71,33.83,33.83,0,0,0-.18,3.9q0,3.29,0,6.57c0,.65-.19.91-.85.89-1.08,0-2.16,0-3.36,0v-.93c0-4.72,0-9.44,0-14.16,0-.76-.23-1.12-1-1.17a1.43,1.43,0,0,1-.72-.19c-.22-.16-.52-.45-.5-.65a.88.88,0,0,1,.55-.64c1.31-.23,2.63-.42,4-.52,1.72-.14,1.72-.1,1.72,1.68v1.69Z"/><path class="cls-1" d="M.11,26.21c-.28-.9-.06-1.3.84-1.43,1.4-.21,1.39-.27,1.39-1.67,0-3.94,0-7.88,0-11.82,0-.86-.24-1.31-1.12-1.34C1,10,.8,9.83.58,9.81.11,9.76-.09,9.47,0,9.07a1,1,0,0,1,.6-.6C2.39,8.21,4.15,8,5.91,7.82c.16,0,.42.26.5.45a2,2,0,0,1,0,.74V23.33c0,1.18,0,1.16,1.18,1.43.43.1,1.07-.06,1.12.7,0,.46-.08.76-.62.76Z"/><path class="cls-2" d="M132.16,20.87c1.36.65,1.86,1.38,1.77,2.67a2.44,2.44,0,0,1-1.78,2.28,13.77,13.77,0,0,1-3,.53c-1,.09-2,0-3.05,0a5.88,5.88,0,0,1-.07-.67c0-3,0-6,0-9,0-.61.16-.83.79-.8,1.3.07,2.61,0,3.9.13,1.87.15,2.85,1.2,2.57,2.83A7,7,0,0,1,132.16,20.87ZM128,25c1-.12,2-.17,3-.35a1.13,1.13,0,0,0,.92-1.31,2.2,2.2,0,0,0-.78-1.41A5.35,5.35,0,0,0,128,21.6Zm0-4.8a22.53,22.53,0,0,0,2.33-.22,1.28,1.28,0,0,0,1-1.43,1.14,1.14,0,0,0-1.1-1.23c-.73-.07-1.47,0-2.23,0Z"/><path class="cls-2" d="M166.24,22.17v4.14h-1.82c0-.23,0-.45,0-.66,0-3,0-5.94,0-8.91,0-.61.14-.86.79-.82,1.16.07,2.33,0,3.49.13a2.84,2.84,0,0,1,2.89,3.08,2.64,2.64,0,0,1-1.16,2c-.33.25-.68.46-1.09.72l3,4.5a15.67,15.67,0,0,1-1.85,0,1,1,0,0,1-.61-.45c-.73-1.05-1.43-2.11-2.14-3.17C167.24,22.07,167.24,22.07,166.24,22.17Zm0-1.44c1.19-.06,2.41.26,3.14-.94a1.55,1.55,0,0,0-.12-1.87c-.83-.94-1.94-.62-3-.65Z"/><path class="cls-2" d="M180,22.28a12.2,12.2,0,0,1-1.17,2.93c-1,1.4-2.59,1.49-4.15,1.15a3.14,3.14,0,0,1-2.55-2.65,8.62,8.62,0,0,1-.15-2.15,3.89,3.89,0,0,1,5.79-3.3c1.31.65,2,2,2,3.93Zm-2-.1a15.84,15.84,0,0,0-.32-1.78A1.74,1.74,0,0,0,175.81,19,1.64,1.64,0,0,0,174,20.4a12.38,12.38,0,0,0,0,3.44,1.65,1.65,0,0,0,1.86,1.43,1.73,1.73,0,0,0,1.88-1.42A16.57,16.57,0,0,0,178,22.18Z"/><path class="cls-2" d="M160.33,21.9l3.45,4.29a2,2,0,0,1-2.59-.63L158.33,22v4.29h-1.76V18h1.7v3.7l.18.09c.85-1,1.77-1.87,2.52-2.89a2.15,2.15,0,0,1,2.56-.84Z"/><path class="cls-2" d="M140.58,26.41l1.91-4.58c.34-.81.71-1.62,1-2.45a9.77,9.77,0,0,0,.3-1.38,13.17,13.17,0,0,1,1.38,0,.67.67,0,0,1,.47.35c1.15,2.59,2.28,5.18,3.41,7.77,0,0,0,.1,0,.23a5.69,5.69,0,0,1-1.37,0,1.18,1.18,0,0,1-.68-.67,1.21,1.21,0,0,0-1.53-1,3.26,3.26,0,0,1-1.08,0,1.55,1.55,0,0,0-2,1.25C142.11,26.83,141.29,26.18,140.58,26.41Zm4.1-6-1.18,2.92h2.41Z"/><path class="cls-2" d="M112.91,20.91c2.06-1.52,3.83-.25,4,1.63a6.55,6.55,0,0,1-.09,2,2.2,2.2,0,0,1-3.77,1.32c-.31.61-.37.62-1.5.44V18h1.36Zm0,2.45a5.43,5.43,0,0,0,.38,1.49,1.41,1.41,0,0,0,1,.6,1.25,1.25,0,0,0,.91-.66,3.42,3.42,0,0,0,0-2.9,1.4,1.4,0,0,0-1-.64,1.3,1.3,0,0,0-.94.64A5.28,5.28,0,0,0,112.87,23.36Z"/><path class="cls-2" d="M187.38,19.54l-1.6.5a1.71,1.71,0,0,0-2.11-.89c-1,.29-1.23,1.13-1.37,2a6.35,6.35,0,0,0,0,1.07c.1,2.54,1.64,3.58,4,2.74.13,0,.26-.08.44-.13l.39.71a4,4,0,0,1-6.27-1.37,7,7,0,0,1-.34-3.4,3.73,3.73,0,0,1,5.73-2.37A9.17,9.17,0,0,1,187.38,19.54Z"/><path class="cls-2" d="M155.12,24.86c.56.58.43.91-.22,1.22a4.1,4.1,0,0,1-6-3.32,6.53,6.53,0,0,1,.22-2.53,3.82,3.82,0,0,1,5.66-1.78,7.31,7.31,0,0,1,1,1.09c-.86.28-1.44.73-2.16-.13s-1.94-.37-2.49.54a4.72,4.72,0,0,0,.2,4.38,2.43,2.43,0,0,0,2.68.86A11.06,11.06,0,0,0,155.12,24.86Z"/><path class="cls-2" d="M134.75,26.37V18h1.68v6.84h3.78c-.06,1.31-.24,1.49-1.36,1.49Z"/><path class="cls-2" d="M117.82,27.12a6.14,6.14,0,0,0,.62,0c.8-.07,1.11-.57.81-1.31-.6-1.48-1.22-3-1.83-4.45-.11-.28-.21-.56-.31-.85,1.3-.36,1.49-.28,2,.85a20.27,20.27,0,0,0,1.23,2.72c.3-.95.65-1.89.87-2.85.19-.81.61-1,1.41-.79a.88.88,0,0,1,0,.28c-.7,2-1.4,4-2.12,5.94A2.25,2.25,0,0,1,119,28.23C117.88,28.55,117.65,28.36,117.82,27.12Z"/><path class="cls-1" d="M2.14,3.22A2.18,2.18,0,0,1,4.43.92,2.21,2.21,0,0,1,6.74,3.21,2.2,2.2,0,0,1,4.39,5.55,2.14,2.14,0,0,1,2.14,3.22Z"/><path class="cls-2" d="M195.48,26.27a2.42,2.42,0,0,1-2.93-1A41.39,41.39,0,0,0,189.94,22c1.1-1.24,2.11-2.53,3.29-3.66.38-.37,1.16-.32,1.77-.46l.12.27L192,21.9Z"/><path class="cls-2" d="M189.82,26.33h-1.61V18.05h1.61Z"/></g></g></svg>