<svg xmlns="http://www.w3.org/2000/svg" xmlns:xlink="http://www.w3.org/1999/xlink" viewBox="0 0 417.79 390.44"><defs><style>.cls-1{fill:none;}.cls-2{fill:#fafafa;}.cls-3{clip-path:url(#clip-path);}.cls-4{fill:#ffe539;}.cls-5{fill:#002f60;}</style><clipPath id="clip-path" transform="translate(-173.28)"><rect class="cls-1" y="165.71" width="759" height="259.02" transform="translate(759 590.45) rotate(180)"/></clipPath></defs><title>Asset 14</title><g id="Layer_2" data-name="Layer 2"><g id="header"><path class="cls-2" d="M325.83,295.35v-8a5.27,5.27,0,0,1,5.27-5.27h13.51a5.27,5.27,0,0,1,5.27,5.27v8" transform="translate(-173.28)"/><path class="cls-2" d="M378.39,295.35v-8a5.28,5.28,0,0,1,5.28-5.27h13.51a5.27,5.27,0,0,1,5.27,5.27v8" transform="translate(-173.28)"/><path class="cls-2" d="M406.1,302.51H322.72a10.5,10.5,0,0,0-10.41,10.41v52.16a10.5,10.5,0,0,0,10.41,10.41H406a10.53,10.53,0,0,0,10.54-10.41V312.92A10.5,10.5,0,0,0,406.1,302.51Zm-54.6,37.3h-8.65v8.79h-5.54v-8.79h-8.65v-5.54h8.65v-8.65h5.54v8.65h8.65Zm48-.13h-23v-5.41h23Z" transform="translate(-173.28)"/><path class="cls-2" d="M449.78,376.57l-4.2-36a46.08,46.08,0,0,1-7.85.69L442,377.48a3.94,3.94,0,1,0,7.83-.91Z" transform="translate(-173.28)"/><path class="cls-2" d="M406.47,262.93l-26-24.57a3.94,3.94,0,0,0-5.41,5.73l26.2,24.74A44.63,44.63,0,0,1,406.47,262.93Z" transform="translate(-173.28)"/><path class="cls-2" d="M476.28,367.22l-16-32a46.1,46.1,0,0,1-7.15,3.31l16.15,32.21a3.94,3.94,0,0,0,7-3.54Z" transform="translate(-173.28)"/><path class="cls-2" d="M396.75,226.24,412.68,258a45.74,45.74,0,0,1,6.92-3.77l-15.8-31.51a3.94,3.94,0,0,0-7.05,3.53Z" transform="translate(-173.28)"/><path class="cls-2" d="M466.77,330.71l25.82,24.39a3.94,3.94,0,0,0,5.86-5.21,3.18,3.18,0,0,0-.46-.52l-25.63-24.21A45.81,45.81,0,0,1,466.77,330.71Z" transform="translate(-173.28)"/><path class="cls-2" d="M474.14,268.75c.8,1.07,1.52,2.16,2.21,3.27l27.39-20.37a3.94,3.94,0,1,0-4.71-6.32L471.65,265.7C472.51,266.67,473.35,267.68,474.14,268.75Z" transform="translate(-173.28)"/><path class="cls-2" d="M443.38,250.81a46.11,46.11,0,0,1,7.7,1.65L459,219a3.92,3.92,0,0,0-.67-3.26,3.88,3.88,0,0,0-2.25-1.48,3.94,3.94,0,0,0-4.74,2.92Z" transform="translate(-173.28)"/><path class="cls-2" d="M423.26,216.89l4.05,34.76a45.82,45.82,0,0,1,7.8-1.12l-4-34.55a3.94,3.94,0,0,0-7.83.91Z" transform="translate(-173.28)"/><path class="cls-2" d="M458.85,255.65a46.06,46.06,0,0,1,6.62,4.27l18.79-28.54a3.92,3.92,0,0,0-.13-4.52,4,4,0,0,0-1-.94,4,4,0,0,0-5.46,1.13Z" transform="translate(-173.28)"/><path class="cls-2" d="M477,318.52l32.13,13.88a3.94,3.94,0,1,0,3.12-7.23l-31.93-13.79A44.86,44.86,0,0,1,477,318.52Z" transform="translate(-173.28)"/><path class="cls-2" d="M482.47,303.38l34.52,2a3.94,3.94,0,1,0,.46-7.86l-34.34-2A47,47,0,0,1,482.47,303.38Z" transform="translate(-173.28)"/><path class="cls-2" d="M482.29,287.17l32.81-9.81a3.94,3.94,0,1,0-2.26-7.55L480.1,279.6A44.16,44.16,0,0,1,482.29,287.17Z" transform="translate(-173.28)"/><path class="cls-2" d="M437.6,259.89a36.62,36.62,0,0,0-32.5,19.73,9.78,9.78,0,0,1,4.66,8.32v7.85a14.92,14.92,0,0,1,14.06,14.88v19.81a36.64,36.64,0,1,0,13.78-70.59Z" transform="translate(-173.28)"/><path class="cls-2" d="M304.25,362.27V310.11a16.6,16.6,0,0,1,13.51-16.31v-5.3A11.47,11.47,0,0,1,329.22,277h9a9.9,9.9,0,0,0-1.3-1.58c-4.46-4.45-8.81-9-13.24-13.54-4,3.13-7.28,5.62-10.45,8.29a9.43,9.43,0,0,0-2.2,3.12c-2.71,5.65-8.56,8.49-14.33,6.88a11.8,11.8,0,0,1-8.5-13,11.44,11.44,0,0,1,11.67-10.24c4.64-.06,6.74-4,11-6.21-3.37-2.43-6.09-4.78-9.19-6.4-1.15-.61-3.64,0-4.78.91-11.29,9.27-22.46,18.7-33.59,28.18a8.68,8.68,0,0,0-3.21,6.84c-.28,28.83-.72,57.65-.94,86.47a16.22,16.22,0,0,0,1.88,7.36c1.46,2.75,4.27,3.79,7.47,3.82,11.91.14,23.83.35,35.74.5Z" transform="translate(-173.28)"/><path class="cls-2" d="M262.72,264.2a3.71,3.71,0,0,0,4.84-2.19c2.66-5.71,5.06-11.58,8.13-17.07,4-7.08,9-13.5,16.05-17.77,8.2-4.94,17.39-2.92,22.92,4.65a17.41,17.41,0,0,1-2.88,23.08c-3.88,3.32-8.25,6.07-12.39,9.07-.71.51-1.8.92-2,1.6-.54,1.71-1.38,3.82-.81,5.26a3.54,3.54,0,0,0,5.28,1.61c7-4.21,14.2-8.31,19.27-14.94,7.56-9.9,7.12-23.66-.74-32.28-9.33-10.23-21.9-12.35-33.34-5.4a90.27,90.27,0,0,0-8,6.15,85.79,85.79,0,0,0-18.59,30.91,12.27,12.27,0,0,0-.67,2.86A3.86,3.86,0,0,0,262.72,264.2Z" transform="translate(-173.28)"/><g class="cls-3"><path class="cls-4" d="M363,274.74a13.57,13.57,0,0,1-5.65-25.92v-41H312.51a11.16,11.16,0,0,1-11.14-11.14V122.41a5.65,5.65,0,1,1,11.3,0v74.07h44.85a11.16,11.16,0,0,1,11.14,11.14v41.2A13.57,13.57,0,0,1,363,274.74Zm0-15.86a2.28,2.28,0,1,0,2.27,2.28A2.28,2.28,0,0,0,363,258.88Z" transform="translate(-173.28)"/><path class="cls-5" d="M307,118.75a3.65,3.65,0,0,1,3.65,3.66v74.23a1.85,1.85,0,0,0,1.84,1.84h45a9.15,9.15,0,0,1,9.14,9.14v42.56a11.58,11.58,0,1,1-7.3,0V207.62a1.84,1.84,0,0,0-1.84-1.84h-45a9.15,9.15,0,0,1-9.14-9.14V122.41a3.65,3.65,0,0,1,3.65-3.66m56,146.69a4.28,4.28,0,1,0-4.28-4.28,4.28,4.28,0,0,0,4.28,4.28M307,114.75a7.66,7.66,0,0,0-7.65,7.66v74.23a13.16,13.16,0,0,0,13.14,13.14h42.85V247.6a15.58,15.58,0,1,0,15.3,0v-40a13.16,13.16,0,0,0-13.14-13.14H314.67V122.41a7.66,7.66,0,0,0-7.65-7.66Zm56,146.69a.28.28,0,1,1,0-.56.28.28,0,0,1,0,.56Z" transform="translate(-173.28)"/><path class="cls-4" d="M259.81,386.36A13.61,13.61,0,0,1,248,379.49l-23.56-.1L181,379.08a5.75,5.75,0,0,1-5.7-5.79L176,263.85V131.67a5.75,5.75,0,0,1,11.5,0V263.89l-.72,103.73,37.71.27,22.6.1a13.57,13.57,0,1,1,12.69,18.37Zm0-15.85a2.28,2.28,0,1,0,2.28,2.27A2.27,2.27,0,0,0,259.81,370.51Z" transform="translate(-173.28)"/><path class="cls-5" d="M181.78,127.92a3.75,3.75,0,0,1,3.75,3.75V263.89L184.8,369.6l39.71.29,24.08.1a11.58,11.58,0,1,1,.66,7.5l-24.78-.1L181,377.08a3.75,3.75,0,0,1-3.72-3.78L178,263.87V131.67a3.75,3.75,0,0,1,3.75-3.75m78,249.14a4.28,4.28,0,1,0-4.27-4.28,4.28,4.28,0,0,0,4.27,4.28m-78-253.14a7.76,7.76,0,0,0-7.75,7.75v132.2l-.75,109.4a7.77,7.77,0,0,0,7.69,7.81l43.47.31,22.46.09a15.58,15.58,0,1,0-1.09-15.5l-21.28-.09-35.7-.26.7-101.71V131.67a7.75,7.75,0,0,0-7.75-7.75Zm78,249.14a.28.28,0,0,1-.27-.28.27.27,0,0,1,.27-.27.28.28,0,0,1,.28.27.29.29,0,0,1-.28.28Z" transform="translate(-173.28)"/><path class="cls-4" d="M504.53,388.44a13.58,13.58,0,1,1,12.69-18.37l22.62-.1,37.69-.27L576.81,266V255.19l-38.41.28-23.57.1a13.58,13.58,0,1,1,.89-11.5l22.62-.1L576,243.7,575.31,140V7.75a5.75,5.75,0,0,1,11.5,0V129.89a5.69,5.69,0,0,1,1.5,3.86V266l.76,109.39a5.76,5.76,0,0,1-5.71,5.79l-43.46.31-23.57.1A13.62,13.62,0,0,1,504.53,388.44Zm0-15.85a2.28,2.28,0,1,0,2.28,2.27A2.28,2.28,0,0,0,504.53,372.59Zm-1.5-126a2.28,2.28,0,1,0,2.28,2.27A2.28,2.28,0,0,0,503,246.59Z" transform="translate(-173.28)"/><path class="cls-5" d="M581.06,4a3.75,3.75,0,0,1,3.75,3.75v123a3.71,3.71,0,0,1,1.5,3V266l.76,109.4a3.76,3.76,0,0,1-3.73,3.78l-43.45.31-24.79.11a11.59,11.59,0,1,1,.65-7.51l24.09-.1,39.7-.28L578.81,266V253.18l-40.42.29-24.79.11a11.59,11.59,0,1,1,.65-7.51l24.09-.1,39.7-.28L577.31,140V7.75A3.75,3.75,0,0,1,581.06,4M503,253.14a4.28,4.28,0,1,0-4.28-4.28,4.28,4.28,0,0,0,4.28,4.28m1.5,126a4.28,4.28,0,1,0-4.28-4.28,4.28,4.28,0,0,0,4.28,4.28M581.06,0a7.76,7.76,0,0,0-7.75,7.75V140l.7,101.71-35.69.26-21.29.09a15.57,15.57,0,1,0-1.09,15.51l22.46-.1,36.41-.26V266l.7,101.71-35.69.26-21.29.09a15.57,15.57,0,1,0-1.09,15.51l22.46-.1,43.47-.31a7.77,7.77,0,0,0,7.7-7.81L590.31,266V133.75a7.63,7.63,0,0,0-1.5-4.57V7.75A7.76,7.76,0,0,0,581.06,0ZM503,249.14a.28.28,0,1,1,.28-.28.29.29,0,0,1-.28.28Zm1.5,126a.28.28,0,1,1,.28-.28.29.29,0,0,1-.28.28Z" transform="translate(-173.28)"/></g></g></g></svg>