<svg xmlns="http://www.w3.org/2000/svg" viewBox="0 0 102.7 102.7"><defs><style>.cls-1{fill:#d40e8c;}.cls-2{fill:#fff;}</style></defs><title>Asset 5</title><g id="Layer_2" data-name="Layer 2"><g id="_1954" data-name="1954"><circle class="cls-1" cx="51.35" cy="51.35" r="48.65"/><path class="cls-2" d="M51.35,5.41A45.95,45.95,0,1,1,5.41,51.35,45.94,45.94,0,0,1,51.35,5.41m0-5.41A51.35,51.35,0,1,0,102.7,51.35,51.41,51.41,0,0,0,51.35,0Z"/><path class="cls-2" d="M62.52,34.19l1.91.52c.07,0,.14.07.24.11l-.25.28-3.85,3.84a2.13,2.13,0,0,0-.22,3,2.09,2.09,0,0,0,2.83.36,3.07,3.07,0,0,0,.47-.41L67.4,38.1a3.27,3.27,0,0,0,.25-.32,5.85,5.85,0,0,1,.66,2.92,6.28,6.28,0,0,1-5.16,6.06,5.64,5.64,0,0,1-3.1-.18.4.4,0,0,0-.49.12L46.92,59.33a.41.41,0,0,0-.12.49A6.36,6.36,0,0,1,42,68a6.1,6.1,0,0,1-3.93-.52l.26-.28c1.28-1.28,2.57-2.56,3.84-3.84a2.12,2.12,0,0,0,.22-3A2.09,2.09,0,0,0,39.55,60a4.19,4.19,0,0,0-.45.39l-3.75,3.75a2.29,2.29,0,0,0-.25.35,5.64,5.64,0,0,1-.63-2,6.34,6.34,0,0,1,5.59-7.1,5.94,5.94,0,0,1,2.68.28.35.35,0,0,0,.4-.1q6.34-6.36,12.71-12.7a.37.37,0,0,0,.09-.44,6.36,6.36,0,0,1,5.21-8.24,1.27,1.27,0,0,0,.18-.06Z"/><path class="cls-2" d="M68.36,65.28a3.81,3.81,0,0,1-.61,1.52,3.12,3.12,0,0,1-4.83.37c-3.47-3.42-6.9-6.88-10.35-10.33l0-.07,4.56-4.53a2,2,0,0,0,.18.3q4.8,4.82,9.62,9.61a4.41,4.41,0,0,1,1.48,2.47Z"/><path class="cls-2" d="M36.66,34.19l4.23,2.19a1.19,1.19,0,0,1,.52.52c.66,1.31,1.34,2.61,2,3.91a2.19,2.19,0,0,0,.41.55q2.47,2.49,5,5c.1.1.21.17.28.23l-2.26,2.26-.22-.2-5.05-5a2,2,0,0,0-.5-.36l-4-2.09a.65.65,0,0,1-.29-.25c-.78-1.48-1.55-3-2.39-4.6l2.25-2.09Z"/><path class="cls-2" d="M85.36,55.94V46.39H79.59a28.39,28.39,0,0,0-4.91-11.8l4.1-4.1L72,23.74l-4.1,4.09a28.56,28.56,0,0,0-11.8-4.9V17.16H46.58v5.77a28.54,28.54,0,0,0-11.81,4.9l-4.09-4.09-6.75,6.75L28,34.59a28.37,28.37,0,0,0-4.9,11.8H17.34v9.55h5.78A28.47,28.47,0,0,0,28,67.75l-4.09,4.09,6.75,6.75,4.09-4.09a28.54,28.54,0,0,0,11.81,4.9v5.78h9.55V79.4a28.56,28.56,0,0,0,11.8-4.9L72,78.59l6.75-6.75-4.1-4.09a28.61,28.61,0,0,0,4.91-11.81Zm-34,21.48A26.26,26.26,0,1,1,77.61,51.17,26.29,26.29,0,0,1,51.35,77.42Z"/></g></g></svg>