<svg xmlns="http://www.w3.org/2000/svg" viewBox="0 0 102.705 102.705">
  <defs>
    <style>
      .\32 515b930-ae68-4640-8d33-f4f97a62bc4c {
        fill: #82bc00;
      }

      .bab9c641-832b-4869-ad72-d0a28c84e4a1 {
        fill: #fff;
      }
    </style>
  </defs>
  <title>cup</title>
  <g id="295dedf4-2a0c-4d56-9e9a-fb63049a4136" data-name="Layer 2">
    <g id="9005ddcb-2751-4830-b132-6a83604ef527" data-name="vanguard">
      <g>
        <circle class="2515b930-ae68-4640-8d33-f4f97a62bc4c" cx="51.353" cy="51.352" r="48.65" transform="translate(-21.271 51.353) rotate(-45)"/>
        <path class="bab9c641-832b-4869-ad72-d0a28c84e4a1" d="M51.352,5.406A45.947,45.947,0,1,1,5.406,51.352,45.947,45.947,0,0,1,51.352,5.406m0-5.406a51.353,51.353,0,1,0,51.353,51.352A51.411,51.411,0,0,0,51.352,0Z"/>
      </g>
      <path class="bab9c641-832b-4869-ad72-d0a28c84e4a1" d="M63.347,52.8a1.538,1.538,0,0,0,1.411-.134C72.034,48.081,77.61,40.18,77.188,35.05A4.361,4.361,0,0,0,75.5,31.906c-2.573-2.024-7.333-1.541-8.57-1.374V24.588H36.187v5.945c-1.227-.166-6-.654-8.576,1.373A4.365,4.365,0,0,0,25.92,35.05c-.421,5.13,5.155,13.031,12.431,17.613a1.536,1.536,0,0,0,1.415.132c1.779,4.405,4.442,8.128,8.421,9.554v9H46.851a3.484,3.484,0,0,0-3.474,3.474h0a3.481,3.481,0,0,0,.074.712H41.766a3.485,3.485,0,0,0-3.474,3.475H65.111a3.485,3.485,0,0,0-3.474-3.475H60.5a3.413,3.413,0,0,0,.075-.712h0A3.484,3.484,0,0,0,57.1,71.352H55.582V62.089C59.2,60.505,61.668,56.955,63.347,52.8Zm3.53-19.044a1.716,1.716,0,0,0,.294-.016c1.486-.233,4.995-.372,6.342.689a1.154,1.154,0,0,1,.478.887c.262,3.179-3.587,9.3-9.3,13.507A68.834,68.834,0,0,0,66.877,33.753Zm-37.76,1.56a1.154,1.154,0,0,1,.476-.885c1.29-1.018,4.576-.964,6.344-.691a1.692,1.692,0,0,0,.3.016,68.911,68.911,0,0,0,2.191,15.073C32.707,44.618,28.855,38.494,29.117,35.313Z"/>
    </g>
  </g>
</svg>
