<svg xmlns="http://www.w3.org/2000/svg" viewBox="0 0 102.705 102.705">
  <defs>
    <style>
      .\39 83fa69b-e688-4eea-8b3c-376b088816f1 {
        fill: #36bcee;
      }

      .\37 e481c6c-a595-40ea-9002-e38188c74b6c {
        fill: #fff;
      }
    </style>
  </defs>
  <title>dollar</title>
  <g id="e5fca8d9-cda1-49e0-a2fe-ae0de24cc67b" data-name="Layer 2">
    <g id="2442e54a-518f-4bb1-a852-46f0c9f49ca4" data-name="1977">
      <g>
        <circle class="983fa69b-e688-4eea-8b3c-376b088816f1" cx="51.352" cy="51.352" r="48.65"/>
        <path class="7e481c6c-a595-40ea-9002-e38188c74b6c" d="M51.352,5.406A45.947,45.947,0,1,1,5.406,51.352,45.947,45.947,0,0,1,51.352,5.406m0-5.406a51.353,51.353,0,1,0,51.353,51.352A51.411,51.411,0,0,0,51.352,0Z"/>
      </g>
      <path class="7e481c6c-a595-40ea-9002-e38188c74b6c" d="M67.834,59.542c.1-6.925-4.1-11.549-12.65-14.445a30.1,30.1,0,0,1-6.093-2.817c-1.171-.848-1.324-1.269-1.354-1.859a1.906,1.906,0,0,1,.756-1.579,6.308,6.308,0,0,1,3.838-.912,21.8,21.8,0,0,1,9.528,2.27l1.528.644,2.731-10.652-1.045-.511a25.654,25.654,0,0,0-9.35-2.362v-6.25l-9.721,0V28c-7.3,1.789-11.87,7.058-11.835,13.615a11.813,11.813,0,0,0,3.954,9.063,26.785,26.785,0,0,0,9.623,5.108,17.89,17.89,0,0,1,5.215,2.464,2.711,2.711,0,0,1,1.234,2.274,2.214,2.214,0,0,1-1.186,2.014,8.092,8.092,0,0,1-4.1.9A23.3,23.3,0,0,1,37.96,60.53l-1.616-.885-2.821,11.02.935.549a28.433,28.433,0,0,0,11.2,3.105l0,6.747h9.721v-7.4C63.23,71.911,67.879,66.17,67.834,59.542Z"/>
    </g>
  </g>
</svg>
