<svg xmlns="http://www.w3.org/2000/svg" viewBox="0 0 102.705 102.705">
  <defs>
    <style>
      .d3a26dbc-12d6-40ba-a545-bb6feb479cd3 {
        fill: #d40e8c;
      }

      .\34 5a878ed-1d4c-4e1b-b448-446160d2da9d {
        fill: #fff;
      }
    </style>
  </defs>
  <title>gearandscrew</title>
  <g id="b43d3388-1cf7-48fe-bb6c-c7ce02b803db" data-name="Layer 2">
    <g id="e0514959-6a86-4ac1-9416-b4726cc549e1" data-name="1954">
      <g>
        <circle class="d3a26dbc-12d6-40ba-a545-bb6feb479cd3" cx="51.352" cy="51.352" r="48.649"/>
        <path class="45a878ed-1d4c-4e1b-b448-446160d2da9d" d="M51.352,5.406A45.947,45.947,0,1,1,5.406,51.353,45.947,45.947,0,0,1,51.352,5.406m0-5.406a51.353,51.353,0,1,0,51.353,51.353A51.411,51.411,0,0,0,51.352,0Z"/>
      </g>
      <g>
        <g>
          <path class="45a878ed-1d4c-4e1b-b448-446160d2da9d" d="M62.522,34.185q.954.264,1.905.529a2.062,2.062,0,0,1,.245.11c-.094.1-.172.188-.255.272q-1.921,1.923-3.842,3.846a2.118,2.118,0,0,0-.227,2.957,2.089,2.089,0,0,0,2.832.363,4.124,4.124,0,0,0,.473-.414q1.88-1.87,3.751-3.75a3.8,3.8,0,0,0,.248-.321,5.863,5.863,0,0,1,.656,2.927,6.275,6.275,0,0,1-5.159,6.053,5.648,5.648,0,0,1-3.1-.178.4.4,0,0,0-.49.117Q53.247,53.02,46.921,59.33a.406.406,0,0,0-.12.489,6.36,6.36,0,0,1-4.815,8.158,6.055,6.055,0,0,1-3.927-.52c.1-.1.178-.19.261-.273,1.281-1.282,2.566-2.56,3.842-3.846a2.111,2.111,0,0,0-2.617-3.307,4.061,4.061,0,0,0-.449.39q-1.879,1.872-3.751,3.751a2.959,2.959,0,0,0-.247.348,5.579,5.579,0,0,1-.624-1.969,6.322,6.322,0,0,1,5.589-7.1,5.956,5.956,0,0,1,2.673.273.339.339,0,0,0,.405-.1q6.346-6.358,12.706-12.7a.359.359,0,0,0,.1-.433,6.357,6.357,0,0,1,5.2-8.246.959.959,0,0,0,.183-.061Z"/>
          <path class="45a878ed-1d4c-4e1b-b448-446160d2da9d" d="M68.358,65.284a3.778,3.778,0,0,1-.606,1.519,3.133,3.133,0,0,1-4.837.371c-3.468-3.422-6.9-6.883-10.343-10.329a.465.465,0,0,1-.048-.07l4.551-4.54a1.427,1.427,0,0,0,.19.309q4.8,4.809,9.613,9.606a4.364,4.364,0,0,1,1.48,2.471Z"/>
          <path class="45a878ed-1d4c-4e1b-b448-446160d2da9d" d="M36.662,34.185c1.408.734,2.813,1.473,4.225,2.2a1.118,1.118,0,0,1,.523.516q.995,1.964,2.019,3.91a2.357,2.357,0,0,0,.407.554q2.477,2.492,4.966,4.968a3.371,3.371,0,0,0,.28.232l-2.264,2.259c-.047-.044-.136-.123-.22-.207q-2.52-2.517-5.043-5.031a2.135,2.135,0,0,0-.5-.368c-1.339-.7-2.683-1.391-4.023-2.09a.693.693,0,0,1-.294-.245c-.78-1.484-1.548-2.974-2.389-4.6l2.249-2.1Z"/>
        </g>
        <path class="45a878ed-1d4c-4e1b-b448-446160d2da9d" d="M85.363,55.939V46.392H79.587a28.477,28.477,0,0,0-4.9-11.807l4.094-4.093-6.751-6.751-4.093,4.094A28.492,28.492,0,0,0,56.126,22.93V17.155H46.579V22.93a28.492,28.492,0,0,0-11.807,4.905l-4.093-4.094-6.751,6.751,4.094,4.093a28.477,28.477,0,0,0-4.9,11.807H17.342v9.547h5.776a28.468,28.468,0,0,0,4.9,11.806l-4.094,4.094,6.751,6.75L34.772,74.5a28.477,28.477,0,0,0,11.807,4.9v5.776h9.547V79.4a28.477,28.477,0,0,0,11.807-4.9l4.093,4.093,6.751-6.75-4.094-4.094a28.468,28.468,0,0,0,4.9-11.806ZM51.352,77.419A26.254,26.254,0,1,1,77.606,51.165,26.283,26.283,0,0,1,51.352,77.419Z"/>
      </g>
    </g>
  </g>
</svg>
