<svg xmlns="http://www.w3.org/2000/svg" viewBox="0 0 108.361 108">
  <defs>
    <style>
      .affc8d32-c36d-4074-9e47-5c681a801580 {
        fill: #05509f;
      }

      .\37 c8a45b1-85cc-4dc8-94a3-2a3d72ac56f0 {
        fill: #fff;
      }

      .a20b5deb-dfa5-4fd7-877d-a024764ec651 {
        fill: none;
      }
    </style>
  </defs>
  <title>microscope</title>
  <g id="00733473-9dc8-43b5-8bc9-2a604d6a45e1" data-name="Layer 2">
    <g id="68a409f3-10ea-4273-9543-a32e34a47e9f" data-name="battery">
      <g>
        <g>
          <path class="affc8d32-c36d-4074-9e47-5c681a801580" d="M57.008,101.606a48.65,48.65,0,1,1,48.65-48.65A48.7,48.7,0,0,1,57.008,101.606Z"/>
          <path class="7c8a45b1-85cc-4dc8-94a3-2a3d72ac56f0" d="M57.008,7.009A45.947,45.947,0,1,1,11.061,52.956,45.947,45.947,0,0,1,57.008,7.009m0-5.4a51.353,51.353,0,1,0,51.353,51.352A51.41,51.41,0,0,0,57.008,1.6Z"/>
        </g>
        <g>
          <path class="7c8a45b1-85cc-4dc8-94a3-2a3d72ac56f0" d="M67.724,65.5,59.555,53.225a7.572,7.572,0,0,0-10.533-2.08,7.231,7.231,0,0,0-2.3,10.2L49.605,65.5ZM51.071,54.561a3.827,3.827,0,1,1-1.156,5.288,3.831,3.831,0,0,1,1.156-5.288"/>
          <polygon class="7c8a45b1-85cc-4dc8-94a3-2a3d72ac56f0" points="43.392 84.859 44.637 84.859 46.528 86.788 74.116 86.788 76.011 84.859 78.109 84.859 78.109 81.001 43.392 81.001 43.392 84.859"/>
          <path class="7c8a45b1-85cc-4dc8-94a3-2a3d72ac56f0" d="M29.359,45.741l2.122-2.759,3.043-.593,2.416-3.14-.314-.924L38.187,36.3a9.316,9.316,0,0,1-5.044-3.72l-1.482,1.925-.972-.066-2.416,3.14.207,3.092-2.123,2.761-.623,2.543L27.06,47Z"/>
          <path class="7c8a45b1-85cc-4dc8-94a3-2a3d72ac56f0" d="M40.929,34.347c1.937,0,3.677-1.687,4.879-1.687H62.237a16.783,16.783,0,0,1-1.1-5.751A23.659,23.659,0,0,1,61.6,23H45.808c-1.2-1.932-2.942-2.224-4.879-2.224a6.788,6.788,0,0,0,0,13.57m0-9.831a2.777,2.777,0,1,1-2.781,2.777,2.782,2.782,0,0,1,2.781-2.777"/>
          <path class="7c8a45b1-85cc-4dc8-94a3-2a3d72ac56f0" d="M63.654,34.2,53.548,47.467a10.288,10.288,0,0,1,8.29,4.737l1.385,2.156,11.05-14.5A13.5,13.5,0,0,1,63.654,34.2"/>
          <path class="7c8a45b1-85cc-4dc8-94a3-2a3d72ac56f0" d="M78.314,21.07H65a13.5,13.5,0,0,0-1.146,5.068A10.769,10.769,0,0,0,74.5,37.046a10.274,10.274,0,0,0,7.656-3.225V26.969Z"/>
          <path class="7c8a45b1-85cc-4dc8-94a3-2a3d72ac56f0" d="M70.557,69.367H49.29v9.659H74.424V74.343l-3.867-2.871Zm-13.533,5.8H53.157V73.231h3.867Zm9.666,0h-5.8V73.231h5.8Z"/>
          <rect class="a20b5deb-dfa5-4fd7-877d-a024764ec651" width="108" height="108"/>
        </g>
      </g>
    </g>
  </g>
</svg>
