<svg xmlns="http://www.w3.org/2000/svg" viewBox="0 0 102.705 102.705">
  <defs>
    <style>
      .\38 caa630b-4d86-4789-b79e-b7a31326666c {
        fill: #d3d800;
      }

      .de099081-d367-45c4-bef9-20bc4f4db119 {
        fill: #fff;
      }
    </style>
  </defs>
  <title>sunplug</title>
  <g id="8f4718d6-e5a7-4881-9b83-7e2685ccd05f" data-name="Layer 2">
    <g id="35070c10-2b99-45d2-9ce1-be64b8a9c846" data-name="big picture">
      <g>
        <g>
          <circle class="8caa630b-4d86-4789-b79e-b7a31326666c" cx="51.352" cy="51.352" r="48.65"/>
          <path class="de099081-d367-45c4-bef9-20bc4f4db119" d="M51.352,5.406A45.947,45.947,0,1,1,5.406,51.352,45.947,45.947,0,0,1,51.352,5.406m0-5.406a51.353,51.353,0,1,0,51.353,51.352A51.411,51.411,0,0,0,51.352,0Z"/>
        </g>
        <g>
          <path class="de099081-d367-45c4-bef9-20bc4f4db119" d="M48.143,25.983a2.224,2.224,0,0,0,2.217-2.217v-3.5a2.217,2.217,0,1,0-4.434,0v3.5A2.224,2.224,0,0,0,48.143,25.983Z"/>
          <path class="de099081-d367-45c4-bef9-20bc4f4db119" d="M61.779,32.037a2.224,2.224,0,0,0,3.109-.407l2.133-2.775a2.217,2.217,0,0,0-3.515-2.7l-2.133,2.775A2.223,2.223,0,0,0,61.779,32.037Z"/>
          <path class="de099081-d367-45c4-bef9-20bc4f4db119" d="M32.1,31.624a2.217,2.217,0,1,0,3.135-3.135L32.76,26.014a2.217,2.217,0,0,0-3.136,3.135Z"/>
          <path class="de099081-d367-45c4-bef9-20bc4f4db119" d="M27.389,42.7h-3.5a2.217,2.217,0,0,0,0,4.434h3.5a2.217,2.217,0,1,0,0-4.434Z"/>
          <path class="de099081-d367-45c4-bef9-20bc4f4db119" d="M34.783,57.807a2.223,2.223,0,0,0-3.115.351L29.485,60.9a2.223,2.223,0,0,0,.351,3.115h0a2.222,2.222,0,0,0,3.115-.351l2.183-2.736A2.224,2.224,0,0,0,34.783,57.807Z"/>
          <path class="de099081-d367-45c4-bef9-20bc4f4db119" d="M73.188,50.585c-2.391-.014-4.782.008-7.173-.007-2.143-.014-2.465-.334-2.485-2.414-.009-.932,0-1.865.02-2.8a15.5,15.5,0,0,0-30.964-1.254c-.407,6.728,3.857,13.27,9.9,15.254.987-1.038,1.958-2.057,3-3.147-.507-.187-.933-.34-1.357-.5A11.492,11.492,0,0,1,36.8,43.008a11.36,11.36,0,0,1,11.109-9.529,11.124,11.124,0,0,1,11.285,9.245,34.09,34.09,0,0,1,.226,5.745c.044,3.958,2.21,6.153,6.17,6.177,2.683.016,5.367-.043,8.046.054a2.019,2.019,0,0,1,1.38.986,1.442,1.442,0,0,1-.417,1.345,3,3,0,0,1-1.646.326c-7.814.018-15.628,0-23.443.016-3.63.006-5.852,2.118-5.842,5.5.011,3.317,2.176,5.357,5.738,5.378,2.682.016,5.37-.087,8.043.072a2.493,2.493,0,0,1,1.819,1.4c.27.884.467,2.01-.8,2.727-3.931,2.219-5.1,4.777-4.431,9.251.567.08,1,.143,1.344.222v4.5a2.217,2.217,0,0,0,4.434,0v-4.3a2.364,2.364,0,0,1,1.5-.279,5.926,5.926,0,0,1,1.315.1v4.349a2.217,2.217,0,0,0,4.434,0V82.019a10.148,10.148,0,0,1,1.7-.331c.662-4.522-.514-6.913-4.387-9.316a2.338,2.338,0,0,1-.884-1.823,5.943,5.943,0,0,0-6.573-6.428c-2.442.134-4.9.019-7.347.026-.948,0-1.806-.1-1.776-1.351s.907-1.315,1.843-1.29c.408.011.817,0,1.225,0,7.406,0,14.812.012,22.218,0,3.819-.009,6.077-2.044,6.117-5.443C79.236,52.629,77.026,50.608,73.188,50.585Z"/>
        </g>
      </g>
    </g>
  </g>
</svg>
