<svg xmlns="http://www.w3.org/2000/svg" viewBox="0 0 102.705 102.705">
  <defs>
    <style>
      .f15167fe-3fd3-4277-98ed-768d0dd378d4 {
        fill: #82bc00;
      }

      .\31 730f374-b622-4aed-a076-324a0eedcf0d {
        fill: #fff;
      }
    </style>
  </defs>
  <title>windmill</title>
  <g id="0386ec88-3e98-49c0-b963-d39aa354b65f" data-name="Layer 2">
    <g id="230302d4-a742-4131-838e-145c90b824fa" data-name="wind">
      <g>
        <g>
          <path class="f15167fe-3fd3-4277-98ed-768d0dd378d4" d="M51.352,100A48.65,48.65,0,1,1,100,51.352,48.7,48.7,0,0,1,51.352,100Z"/>
          <path class="1730f374-b622-4aed-a076-324a0eedcf0d" d="M51.352,5.406A45.947,45.947,0,1,1,5.406,51.352,45.947,45.947,0,0,1,51.352,5.406m0-5.406a51.353,51.353,0,1,0,51.353,51.352A51.411,51.411,0,0,0,51.352,0Z"/>
        </g>
        <g>
          <path class="1730f374-b622-4aed-a076-324a0eedcf0d" d="M50.986,49.516a3.919,3.919,0,1,1,1.154-.175A3.923,3.923,0,0,1,50.986,49.516Zm0-5.782a1.835,1.835,0,0,0-.549.084,1.861,1.861,0,1,0,.549-.084Z"/>
          <path class="1730f374-b622-4aed-a076-324a0eedcf0d" d="M51.272,91.182a8.129,8.129,0,0,1-3.185-.629,1.027,1.027,0,0,1-.625-.97l.9-35.761a1.025,1.025,0,0,1,1.241-.976,7.441,7.441,0,0,0,3.006.026,1.026,1.026,0,0,1,1.222.957l1.707,35.635a1.025,1.025,0,0,1-.595.98A9.5,9.5,0,0,1,51.272,91.182Zm-1.741-2.29a7.175,7.175,0,0,0,3.926-.088L51.84,55.04a9.4,9.4,0,0,1-1.453-.009Z"/>
          <path class="1730f374-b622-4aed-a076-324a0eedcf0d" d="M76.625,63.971a2.57,2.57,0,0,1-.913-.192c-.112-.043-.314-.109-.593-.2C66.741,60.813,60.37,56.984,56.183,52.2a1.133,1.133,0,0,1,.038-1.535,7.288,7.288,0,0,0,1.808-3.21,1.134,1.134,0,0,1,1.457-.789C71.07,50.531,77.264,60.787,77.614,61.38a1.756,1.756,0,0,1,.086,2.1A1.335,1.335,0,0,1,76.625,63.971Zm-.872-1.25h0Zm-17.2-11.294c3.711,3.922,9.112,7.142,16.082,9.588-2.052-2.832-7.124-8.878-14.8-11.819A9.59,9.59,0,0,1,58.553,51.427Z"/>
          <path class="1730f374-b622-4aed-a076-324a0eedcf0d" d="M53.815,38.807a1.118,1.118,0,0,1-.382-.067,7.161,7.161,0,0,0-2.649-.421h0a7.337,7.337,0,0,0-1.059.107,1.134,1.134,0,0,1-1.3-.841C45.482,25.858,50.6,15.21,50.82,14.763a1.744,1.744,0,0,1,1.7-1.219c.474.05,1.092.351,1.343,1.495.026.117.083.322.16.606,2.353,8.64,2.65,16.156.882,22.339a1.132,1.132,0,0,1-1.091.823Zm-2.826-2.761a9.45,9.45,0,0,1,2.022.217c1.25-5.277.963-11.59-.857-18.8-1.222,3.256-3.421,10.686-1.747,18.6.105-.007.21-.011.315-.014h0C50.811,36.047,50.9,36.046,50.989,36.046Z"/>
          <path class="1730f374-b622-4aed-a076-324a0eedcf0d" d="M24.9,62.094a1.619,1.619,0,0,1-1.583-.854c-.2-.433-.258-1.117.594-1.92.088-.082.234-.236.438-.448C30.384,52.6,36.514,48.537,42.566,46.794a1.136,1.136,0,0,1,1.407.784,7.277,7.277,0,0,0,1.979,3.287,1.134,1.134,0,0,1,.015,1.626c-8.546,8.475-20.238,9.543-20.731,9.584A3.019,3.019,0,0,1,24.9,62.094Zm17.273-12.8c-5.046,1.686-10.184,5.127-15.3,10.249,3.393-.618,10.8-2.517,16.707-7.91A9.544,9.544,0,0,1,42.172,49.294Z"/>
        </g>
      </g>
    </g>
  </g>
</svg>
