<svg xmlns="http://www.w3.org/2000/svg" xmlns:xlink="http://www.w3.org/1999/xlink" viewBox="0 0 102.705 102.705">
  <defs>
    <style>
      .\37 c8673b6-fba6-4ed9-a538-7783d89b3088 {
        fill: none;
      }

      .\35 3820a14-14bb-4129-bed4-bcf49f9a1570 {
        fill: #05509f;
      }

      .\32 9e55078-a2b4-48ca-962b-ac506a2d6e11 {
        fill: #fff;
      }

      .\39 fee47e0-a596-418f-af05-92ff9c58ffb7 {
        clip-path: url(#b87eced3-d357-4d48-b399-3c1ddae650b3);
      }
    </style>
    <clipPath id="b87eced3-d357-4d48-b399-3c1ddae650b3">
      <circle class="7c8673b6-fba6-4ed9-a538-7783d89b3088" cx="51.352" cy="50.812" r="46.416"/>
    </clipPath>
  </defs>
  <title>world</title>
  <g id="fe8a308f-b4cd-4a9c-a745-b328bf551453" data-name="Layer 2">
    <g id="e048c37c-78e4-476d-943c-2b4881e4325e" data-name="world leader">
      <g>
        <path class="53820a14-14bb-4129-bed4-bcf49f9a1570" d="M51.352,100A48.65,48.65,0,1,1,100,51.352,48.7,48.7,0,0,1,51.352,100Z"/>
        <path class="29e55078-a2b4-48ca-962b-ac506a2d6e11" d="M51.352,5.406A45.947,45.947,0,1,1,5.406,51.352,45.947,45.947,0,0,1,51.352,5.406m0-5.406a51.353,51.353,0,1,0,51.353,51.352A51.411,51.411,0,0,0,51.352,0Z"/>
      </g>
      <g class="9fee47e0-a596-418f-af05-92ff9c58ffb7">
        <g>
          <path class="29e55078-a2b4-48ca-962b-ac506a2d6e11" d="M51.457,3.873a47.021,47.021,0,1,0,47.02,47.021A47.019,47.019,0,0,0,51.457,3.873m30.9,18.789-.006,0,.006,0M73.988,38.068c-.021,0-.036.006-.055.008-.086.013.128-.025.055-.008m-3.811-1.982h0ZM84.57,84a46.829,46.829,0,0,1-66.224,0,47.623,47.623,0,0,1-4.232-4.849,2.526,2.526,0,0,1,.037-.419c.643-.212.643-.212.651-.241.46-.178.7.271,1.054.38.034-.122,0-.252.049-.37a.869.869,0,0,0,.227-.077,2.53,2.53,0,0,1-.084-1.344l.09-.064c.1-1.116-1.026-3.638-.662-4.525a.377.377,0,0,1,.218.013.5.5,0,0,1,.068-.171c.045-.019.105-.041.152-.06.2-.966,1.124-1.607,1.2-2.631a2.834,2.834,0,0,0-.479-2.026v0c-.767-1.208-4.14-5.557-5.029-4.595a1.851,1.851,0,0,0-.184-1.257c-.675-.2-.648-1.218-1.456-1.267a6.15,6.15,0,0,1-.41.66c.237-.8.237-.8-.455-1.641H8.944c-.068.222-.034.461-.09.688.024-.317.02-.994.02-1-.127.143-.127.143-.389.692a2.4,2.4,0,0,1,.386-.9c.039.024.09.052.129.075.034-.034.077-.079.109-.113-.026-.034-.058-.083-.086-.118-.092-.049-.113-.059-.115-.062.087-.017.205-.047.295-.072a7.966,7.966,0,0,0-1.787-5.824c-.045.008-.1.017-.148.027a42.42,42.42,0,0,1-1.252-4.18c.047,0,.109.008.154.011a1,1,0,0,0,.023-.8l.075.043.013,0c.081-.024.169-.462.124-.511-.141-.109-.2.316-.224.406a1.2,1.2,0,0,1-.045-.59c-.257-.286-.257-.286-.432-.369a1,1,0,0,1-.276.136c-.359-.237-.03-.889-.551-1.006a46.911,46.911,0,0,1,1.257-7,.389.389,0,0,1,.072-.1.243.243,0,0,1,.026.03c.032-.009.032-.009.04,0-.047.183,0,.233.137.147a.77.77,0,0,0,.139.4,11.511,11.511,0,0,0,.16-1.342.085.085,0,0,1-.025-.005,1.937,1.937,0,0,0-.028-.442c-.008,0-.017,0-.026.009-.025-.03-.012-.069-.021-.1L6.6,37.649a.465.465,0,0,0-.089.051,46.256,46.256,0,0,1,5.3-11.759,1.557,1.557,0,0,1,.3-.216c.013.023.028.057.041.081a2.6,2.6,0,0,1,.365-.56.446.446,0,0,0-.027.2q.435-.654.908-1.28a1.6,1.6,0,0,1-.07.2c.171-.207.453-.664.455-.666-.041.094-.09.185-.133.277A2.591,2.591,0,0,0,14,23.382a1.423,1.423,0,0,1-.049.184c.164-.13.842-.9.848-.906a16.426,16.426,0,0,1-1.278,1.6c.614-.349.74-1.165,1.4-1.471-.372.423-.372.423-.41.558.419-.086.549-.5.835-.735.005.028.009.064.011.092.16.077.16.077.263.053a.339.339,0,0,0-.105-.156c.013-.023.034-.056.049-.081a1.178,1.178,0,0,0,.451.169c.02-.02.05-.043.069-.062-.007.032-.017.072-.024.1l.1-.013c0,.028.006.065.008.092A3.023,3.023,0,0,1,17.9,21.5c-.013.03-.032.068-.045.1l0,.032c.567.03.654-.165.753-.391a1.178,1.178,0,0,1-.049.2c.115.038.115.038.337-.107l-.064.079a.773.773,0,0,1,.086.06c.1-.022.194-.024.29-.045l.026.034.105-.028c-.017.024-.034.058-.049.084a2.12,2.12,0,0,0-1.462,1.051c.192.026.237.03.917-.419.006.03.019.066.027.094.182.06.182.06.24.135.038,0,.038,0,.446-.346-.017.062-.04.145-.059.2.26.087.483-.086.726-.114l.017.009c.03-.006.069-.017.1-.024a3.227,3.227,0,0,1,.384-.6c-.357.1-.656.329-1.017.421l-.036,0c-.026-.012-.058-.03-.084-.042.024-.02.056-.043.079-.062.028.006.067.015.1.019.01-.026.027-.062.038-.09a1.066,1.066,0,0,1-.075-.293,1.145,1.145,0,0,1,.137-.124.363.363,0,0,1-.094-.162,3.575,3.575,0,0,1,.8-.958l-.022-.087a.9.9,0,0,0-.186.013c.028-.062.069-.144.1-.2,0-.015,0-.022,0-.032h0c0-.035,0-.067,0-.1.028,0,.062-.008.088-.012a.386.386,0,0,1,.1.158,2.021,2.021,0,0,1,.7-.319,1.609,1.609,0,0,0-1.535-.276,8.9,8.9,0,0,1,1.037-.51,1.08,1.08,0,0,0,.241-.056l0,0v0c.337.092.547-.374.9-.207a2.109,2.109,0,0,1,.487.864c.515.034,1.244-.225,1.69-.018.74-.284.74-.284.9-.421l.607-.816c-.1-.017-.1-.017-.3.073.107-.169.29-.27.4-.434-.026-.015-.06-.037-.088-.052,0-.027.008-.066.015-.094a.847.847,0,0,0,.286,0,1.315,1.315,0,0,1,.088-.186.334.334,0,0,0-.152-.109c.009-.107.09-.179.12-.275a.488.488,0,0,1-.054-.18c.293-.331.293-.331.317-.5l-.1-.015c1.007-.763,1.742-1.791,2.71-2.589-.528.086-.981.389-1.5.509l-.032-.006v0a.731.731,0,0,0-.19.026,1.668,1.668,0,0,1,.276-.41c-.007-.028-.013-.067-.018-.094A8.736,8.736,0,0,1,28.8,12.91a.672.672,0,0,0-.21.01c.056-.042.126-.1.182-.137l.019-.027c.013-.024.032-.058.043-.082-.062.013-.145.035-.21.052a.694.694,0,0,0,.007-.1c.32-.139.32-.139.966-.726l.047-.075a.289.289,0,0,0-.169-.06c.036-.175.135-.329.177-.505-1.017.043-6.565,3.561-5.569,2.909-.1-.081-3.454,2.548-2.268,1.6l.03-.055c.032-.035.075-.08.109-.114a1.62,1.62,0,0,0-.286.109,3.832,3.832,0,0,1,1.164-1.113.616.616,0,0,1-.051.111,1.108,1.108,0,0,0-.1.117h0a.956.956,0,0,0,.289-.228.275.275,0,0,0,.036-.122,7.1,7.1,0,0,0,1.4-1.056l.043-.081c.25-1.011,1.616-1.022,1.9-2q1.52-.967,3.106-1.812c.3-.1.6-.175.944-.265.032.034.073.079.105.115a1.165,1.165,0,0,0,.455-.235l.139.082c0,.047.009.109.013.153.385-.085,1.821-.555,1.83-.557-.056.151-.208.224-.289.354a1.4,1.4,0,0,0,.477-.235c-.1.129-.1.129-.415.285a5.073,5.073,0,0,0,2.689-1.009c-.094-.015-.094-.015-1.325.3.04-.03.087-.07.121-.1-.213.032-.406.147-.619.194.371-.557,1.049-.431,1.553-.694A1.974,1.974,0,0,0,34.572,8a20.245,20.245,0,0,1,3.713-1.218c-.036.032-.09.077-.128.109.53.075.53.075,1.224-.284-.038-.028-.087-.067-.126-.094-1.682.427-3.411.632-5.065,1.184a3.929,3.929,0,0,1,1.064-.445c.039.024.092.054.135.075l.91-.37c-.243-.025-.243-.025-1.329.278a1.073,1.073,0,0,1,.4-.344c.359-.13.722-.259,1.085-.38a2,2,0,0,0-.271.141l0,.027h.032l.006.022a.883.883,0,0,0,.3-.131.635.635,0,0,0-.066,0,3.294,3.294,0,0,1,.38-.094c-.169.072-.169.072-.177.081.07-.011.137-.06.213-.032-.055.03-.123.028-.171.075a.394.394,0,0,1,.06-.005.746.746,0,0,0-.179.069,2.056,2.056,0,0,0,.784-.272l-.023-.008c.8-.417,1.744-.255,2.564-.537v0A.9.9,0,0,1,40.1,5.8a.167.167,0,0,0,.011-.034.3.3,0,0,0,.038-.03c-.23-.06-.416.115-.634.124a3.136,3.136,0,0,0,.5-.193,4.9,4.9,0,0,1-1.2.182c.434-.145.921-.062,1.325-.321a3.818,3.818,0,0,0-.436.092L39.689,5.6c.115-.043.115-.043.124-.058a.262.262,0,0,0-.017-.021h0c.105-.028.205-.055.31-.081a.722.722,0,0,0,.376-.088H40.48l.325-.077a.635.635,0,0,0,.094-.021q1.962-.452,3.971-.731a2.7,2.7,0,0,1,1.039.056c-.265.209-.631.286-.81.611a.332.332,0,0,1,.081.171,1.222,1.222,0,0,0,.493.288,1.473,1.473,0,0,0-.074.205.7.7,0,0,1,.13.152A8.1,8.1,0,0,1,48,6.637c-.111.036-.225.062-.334.1l.105.015c-.235.068-.235.068-.323.15a.442.442,0,0,1,.2.068c-.026.023-.058.053-.081.075.068,0,.158,0,.224,0-.025.017-.057.038-.079.055-.006.032-.011.075-.017.107.278-.045.56-.075.838-.126.023.023.055.053.079.075A2.968,2.968,0,0,1,49.14,7.1c-.064.039-.147.094-.211.137.29-.045.521.19.8.167.009.03.026.07.035.1-.171.143-.171.143-.219.263.03,0,.073,0,.1,0l.058.086a.748.748,0,0,0-.064.355.939.939,0,0,1,.2-.065c.041.028.041.028.289.1-.214.15-.214.15-.24.235a11.45,11.45,0,0,0,3.014-.233c.374-.045.374-.045.782.222.451-.2.926-.019,1.385-.079a2.168,2.168,0,0,1,.543-.205c-.011-.028-.026-.064-.034-.092a1.333,1.333,0,0,1,.654-.055c.017-.028.041-.062.056-.088-.026-.032-.062-.075-.09-.1a2.185,2.185,0,0,0,.5.011c.013-.026.03-.062.04-.088a.818.818,0,0,0,.5,0c.039-.093.129-.151.169-.245.227-.02.455-.007.68-.026-.06-.023-.143-.058-.2-.085l0,0c-.015-.025-.034-.059-.051-.085.017-.026.038-.06.053-.088.073,0,.167,0,.24-.008.006-.03.019-.071.028-.1.252.037.252.037.35,0-.053-.071-.053-.071-.374-.216a.846.846,0,0,0,.229-.024l-.092-.072c.025-.015.057-.037.083-.054-.028-.017-.064-.036-.094-.053a.617.617,0,0,0,.2-.077l-.088-.052a.682.682,0,0,0,.2-.07c-.025-.017-.06-.043-.085-.062.421-.216.821.12,1.235.049-.064-.017-.145-.043-.207-.066a31.24,31.24,0,0,0,3.595.081c-.071-.032-.071-.032-.65-.231a2.023,2.023,0,0,1-.075-.19,2.926,2.926,0,0,1-.536-.184l.1-.081a1.669,1.669,0,0,1-.2-.073.839.839,0,0,0,.218-.025c-.4-.137-.4-.137-.487-.255.65.03,1.261.411,1.937.218-.1-.059-.2-.117-.3-.175q1,.254,1.979.549c-.425-.03-.838-.145-1.261-.186.009.045.02.1.028.15l-.141.06q.567.257,1.135.521a1.238,1.238,0,0,1-.329-.032.333.333,0,0,0,.269.334l.009,0a1.03,1.03,0,0,0-.293-.017c.043.015.1.034.145.047l-.13.053c1.032.515,1.032.515,1.227.714A6.133,6.133,0,0,0,62.37,6.607a.6.6,0,0,0,.145.233c-.6,0-.823,0-.874.055.327.122,1.447.686,1.451.691a4.51,4.51,0,0,1-.9-.141,2.646,2.646,0,0,1,.365.209l.034-.006a3.771,3.771,0,0,1,.975.5l-.154-.03c-.015.038-.038.089-.055.128a2.084,2.084,0,0,0,1.145.6l.1.006.141.064L64.608,8.9c-.02.368-.034.383-.154.509a5.265,5.265,0,0,0,1.413.541,3.153,3.153,0,0,1-.366-.011l-.261.122a1.8,1.8,0,0,0,.246.162.509.509,0,0,1-.265.019c.079.146.079.146.334.231l.083,0,0,0a.846.846,0,0,1,.6.06,1.849,1.849,0,0,0-.5.178,13.951,13.951,0,0,0-1.4-.648c.661.329.661.329.674.338L65,10.512a1.82,1.82,0,0,0,.213.19,2.511,2.511,0,0,0-1.355-.267c.285,1.13,2.12,1.2,2.958,1.977a12.192,12.192,0,0,1-2.252-.127c-.024.039-.054.088-.077.124.566.436.566.436.649.582l-.1.107c-.139-.035-.272-.1-.415-.124a5.1,5.1,0,0,0-.9.675c-.039-.013-.092-.028-.131-.038a.5.5,0,0,1-.273.077c-.1.288-.1.288-.222.4a1.38,1.38,0,0,1-.022.374c.06.1.141.22.21.31-.421.209-.6.068-1.039-.271.008-.112.019-.263.026-.377-.355-.106-.721-.177-1.073-.292.222.372.718.472.891.895.331.06.523.368.827.479a.776.776,0,0,1-.363-.06c-.024.049-.05.113-.071.163a4.707,4.707,0,0,1-.509-.172l-.059.1a.668.668,0,0,0-.1.336c-.081.068-.188.164-.263.241a2.249,2.249,0,0,0,.362.327h0a.34.34,0,0,1-.034.007c-.021.049-.049.113-.07.16a1.894,1.894,0,0,1-.528-.017.726.726,0,0,0-.319-.111c-.012.057-.025.134-.038.19a3.4,3.4,0,0,0,.306.226l.147-.092a2.261,2.261,0,0,1,.252.266l-.047.074c-.346,0-.919-.173-1.03-.16-.47-.5-1.1-.806-1.571-1.308,2.272.342,2.362.077,2.522-.4-.936-.957-2.439-.218-3.394-1.126a.815.815,0,0,1-.68,0,.708.708,0,0,1-.04-.344,5.231,5.231,0,0,1-.932-.208c-.006.109-.021.253-.039.362l-.123-.139a.731.731,0,0,0-.2.284.545.545,0,0,1-.032-.34,2.029,2.029,0,0,0-.65.235c.01.056.021.128.032.184-.041-.034-.094-.081-.133-.116-.1.041-.233.088-.335.12-.007.056-.013.131-.019.186-.035-.045-.077-.1-.114-.145a.9.9,0,0,0-.22.271c-.03-.045-.066-.107-.1-.154-.053.013-.122.03-.175.045l-.052.067a1.443,1.443,0,0,1-.331.617c-.051.015-.12.034-.171.047-.021-.049-.051-.115-.073-.164-.038.036-.087.085-.126.121L53.5,14.7c-.232.314-.613.433-.887.692a4.4,4.4,0,0,1,1.026-.442c.03.047.069.111.1.16-.439.222-.577.731-.966,1-.009.051-.022.122-.03.173l-.176.047c-.5,2.189-3.823,1.691-2.853,4.471a.962.962,0,0,0,1.351.206l.912-.691c.65.458.531,1.36,1.078,1.877a.73.73,0,0,0-.1.337.611.611,0,0,1,.169.291,2.094,2.094,0,0,0,.515.111.819.819,0,0,0,.054-.357,1.319,1.319,0,0,1,.5-.141,26.252,26.252,0,0,0,1.3-2.485c-1.306-.808-.045-4.027,1.473-3.57.051.1.122.227.177.323-.538.233-.417,1.032-1.032,1.2-.009.026.156,2.214,1.269,1.968a4.089,4.089,0,0,1,1.8-.662c.212.252.261.306.449.312a5.646,5.646,0,0,1-1.227.474c-.686.122-.726.129-.861.4.139.349.139.349.6.56-.07.409.242.68.355,1.022-.284.147-.284.147-1.186-.6-.263.049-.365.088-.314.528-.041.039-.1.092-.139.131.047.331.224.626.263.961-.2.173-.2.173-.528.167.015.051.036.12.053.171-.5.678-.887.024-.891.017-.8-.141-1.227.738-1.981.71a1.053,1.053,0,0,0-.229-.28H53.5c.011-.054.026-.129.035-.182-.05-.032-.116-.075-.167-.105a2.843,2.843,0,0,1-.342.122h0c-.74.308-.74.308-.842.308-.09-.757-.575-1.148-.032-1.671-.161-.037-.161-.037-.208-.691-.051-.021-.117-.051-.169-.072-.944.987-.944.987-.938,1.254.21.165.316.571.321,1.2a.62.62,0,0,0-.293.2,1.438,1.438,0,0,0-.543-.051l-.126.15a5.78,5.78,0,0,0-.755.047c-.036.049-.081.113-.115.16a.713.713,0,0,1-.034.346.557.557,0,0,1-.214-.267,23.543,23.543,0,0,0-2.994,2.242l.1.15a.994.994,0,0,1-.865-.082l-.148-.1c-.042.039-.1.086-.147.124.073.21.085.248-.066.539-.242-.03-.481.038-.721.028a.976.976,0,0,0-.3-.218,2.875,2.875,0,0,1-.6.1,1.6,1.6,0,0,1,.019.517c.246.024.483.105.725.145.021.05.051.114.068.163.552.075.257.9.845.945h.015a4.982,4.982,0,0,0,.192.9,2.153,2.153,0,0,0-.278-.225q.245,1.69-1.145,1.462c-2.328.028-3.121-.662-3.123-.671-.22.036-.22.036-.468.327-.141.006-.327.015-.466.026-.039.042-.086.1-.122.143.133.472.218.784-.327,2.167a4.309,4.309,0,0,1-.615,1.02.528.528,0,0,1,.371.386l-.2.815c-.02.057-.08.087-.109.137.773,1.551,5.236,1.1,6-.556a.711.711,0,0,1,.239-1.141c1.582-3.82,7.474-3.672,9.545-.171a3.424,3.424,0,0,1,.379.006.92.92,0,0,0,.122.331q1.385,0,.042.024a1,1,0,0,1,.7.771c-.049-.1-.432,1.507.147.71.475-.712-.138-1,.067-1.5a2.805,2.805,0,0,0,.132-.335,3.5,3.5,0,0,0,1.067.29c-.417-.666-1.244-.647-1.8-1.073.025-.051.062-.117.085-.166l-.119-.126a1.115,1.115,0,0,1-.842-.2,16.549,16.549,0,0,1-1.52-2.27L53.026,30c.179-.035.348-.109.526-.154.17.2.254.464.489.609.03-.047.07-.113.1-.16L56.4,31.942l.041.009.017,0a2.31,2.31,0,0,1,.487.271c.045-.024.107-.058.156-.083a1.8,1.8,0,0,0,.31.248c.051-.02.12-.045.173-.062.2.485,0,1.032.244,1.511q2.859.034.111.132c.363.327.5.622.977.691.1.036.117.1.053.192q-.113.372.118.4a1.185,1.185,0,0,0,.489-.146.457.457,0,0,0-.049-.256.475.475,0,0,0,.081-.007c.338-.055.176-.113.344-.188.052-.038.109.024.161-.01,0-.017,0-.022-.03-.047-.161-.158.06-.208.111-.28,0,0-.333-.372-.4-.458a.624.624,0,0,1,.05-.337,1.088,1.088,0,0,1,.329.113l.151-.107q1.052-.952,1.479-.2A4.408,4.408,0,0,0,63.531,33a.815.815,0,0,0-.146.334c-.474.07-.985-.137-1.428.183a1.5,1.5,0,0,0-.014.458c.081.038.081.038.594.551a1.053,1.053,0,0,1-.28.425c.838.338,2.7,2.262,2.844.954a1.548,1.548,0,0,0,2.448-.252c.607-.088,1.028-.12,1.028-.12-1.114,6.159,1.812,3.742-6.025,4.98a2.511,2.511,0,0,0-.483-.338,4.408,4.408,0,0,1-1.105-.158c-.015-.084-.03-.2-.045-.276-2.014-1.41-3.5,4.54-5.594.522-.029-.007-2.943-.7-3.107-1.231a.948.948,0,0,1-.5.064c-.026-.09-.06-.21-.086-.3.913-.911.967-.966.278-1.6a1.762,1.762,0,0,1,.4-.355c-.032-.068-.079-.164-.114-.235-.072.032-.171.073-.245.1a4.661,4.661,0,0,0-.319-.4c-1.162.231-9.536,1.316-10.015.947-.154.042-.361.107-.513.16-.218-.143-.346-.393-.6-.494l-2.885,2.343a4.149,4.149,0,0,1-3.148,3.338h0c-3.623,1.462-3.386,5.164-3.865,8.021l-1.278,4.254a6.368,6.368,0,0,0,.793,1.105l.248-.114.22.148c0,.081,0,.186,0,.265-.066.045-.158.1-.226.15.784,1.126,1.085,2.507,1.9,3.618l2.652,2.607c1.887,1.225,6.286.545,8.179.2,3.435-1.144,4.125-.212,7.282,1.079l.03.3a1.029,1.029,0,0,0,.534-.007,1.375,1.375,0,0,1,.347,1.306,18.522,18.522,0,0,0-.306,1.857c.045.028.1.067.145.094.005.043.013.1.019.148a1.131,1.131,0,0,1-.288-.051,4.825,4.825,0,0,0-.451.852,10.066,10.066,0,0,0,2.441,3.221c.611,1.779,2.75,6.793-.1,8.374,0,.013-.01,1.484.024,1.578l1.915,2.675c.667.759-.528,1.9.507,2.569a1.083,1.083,0,0,0,.8,1.105c1.41,2.3,1.41,2.3.857,2.247,0,.051-.011.122-.017.175.25.244.25.244.295.348-.022.045-.054.105-.075.15a.717.717,0,0,0,.316,0,1.282,1.282,0,0,0,1.252.472c.334-1.423,10.948-1.7,9.353-5.723l.007-.022c.6-.714,1.778-.545,2.248-1.46-.019-.04-.047-.092-.068-.132.617-1.374.064-2.073.038-2.1,1.327-4.215,5.365-1.879,5.132-7.051a1.226,1.226,0,0,0,.235-.226c-.036-.159-.036-.159-.581-.755.277-2.223,10.15-17.3,7.649-19.93-.109.038-.227-.009-.336.03a.9.9,0,0,1-.671.6,3.752,3.752,0,0,1-1.169.565c-.889.119-1.987,1.528-3,.376l-.276.045a.968.968,0,0,1,.259-.468c-.065-.483-.787-1.2-2.144-2.14a.229.229,0,0,0-.086-.015l-.23.118a49.618,49.618,0,0,0-7.436-11.433L67.6,41.4a6.809,6.809,0,0,0,1.329,1.628c.062-.055.144-.132.206-.188a3.511,3.511,0,0,1,.038-1.368c.188.729.188.729.124,1.1,3.661,1.229,6.108,9.56,8.3,11.915,1-.064,2.477-1.573,2.492-1.588,1.018-.735,2.749-3.105,3.794-3.732.06-.1.118-.209.182-.312a2.619,2.619,0,0,1,.914-1.959,1.046,1.046,0,0,1,.159-.058c.1-.447-.244-.847-.131-1.293l.171.032c.007,0,.3-1.913.293-1.926A4.249,4.249,0,0,1,82.741,41.3a13.442,13.442,0,0,1-.849,2.071,3.281,3.281,0,0,0-.97.383,3.9,3.9,0,0,0-.473-.259,1.851,1.851,0,0,0-.41-1.368c-.045.032-.1.075-.148.109a2.628,2.628,0,0,0,.178,1.06c-.009-.006-.74-.81-.727-1.177a10.23,10.23,0,0,1-2.193-2.529,7.9,7.9,0,0,0,.718-.483.617.617,0,0,0,.327-.028.22.22,0,0,1,.073-.057c.363.393,2.217,2.353,3.078,2.2l.023-.009a.843.843,0,0,1,.349.077c.647-.211,2.956.21,3.342-.222a.867.867,0,0,1,.319.1c.036-.035.085-.082.122-.116.049.015.113.036.162.054a8.884,8.884,0,0,1,1.979-1.231c.235.089.306.344.485.491a.534.534,0,0,1,.319.062.624.624,0,0,0,.058.342l0,0a3.61,3.61,0,0,0,1.6.3,1.2,1.2,0,0,1-.4.8,2.972,2.972,0,0,0,1.171.8c.361-.4.355-.439.186-1.4q2.275,5.1,4.482,10.231c.049.015.115.036.164.049.186-.447.018-.987.368-1.391a2.012,2.012,0,0,1-.006-1.1l.068-.064a13.873,13.873,0,0,0-.806-4.64c.041-.038.094-.092.135-.132-.049-2.366-.068-4.493.058-6.823.021.058.051.135.072.193.111-.141.208-.261.184-1.082l-.081-.087v0l0,0-.056-.162a1.4,1.4,0,0,1,.451.4A46.94,46.94,0,0,1,84.57,84"/>
          <path class="29e55078-a2b4-48ca-962b-ac506a2d6e11" d="M81.179,74.149c-.037.024-.056.041-.062.058a8.005,8.005,0,0,0-1.037,1.714.444.444,0,0,1,.051.1c-.01.01-.03.023-.042.036l-.026.006c-.135.1-.171.276-.291.385-.023-.021-.055-.051-.079-.075a3.138,3.138,0,0,1-.308.426.17.17,0,0,0-.038-.1,3.748,3.748,0,0,1-1.28.949.5.5,0,0,1-.03-.045c-.131.039-.161.2-.291.236-.244-.2-.739.938-.771,1.062.632,1-1.708,3.114-1.238,3.642.021,0,.049,0,.071,0,.008.013.019.03.027.045-.252.434-.252.434-.237,1.114,2.409,1.943,4.745-6.491,5.437-7.248.05.026.05.026.073.323.013.006.03.017.045.026a3.072,3.072,0,0,0,.068-2.542c.09,0,.173-.044-.042-.115"/>
          <path class="29e55078-a2b4-48ca-962b-ac506a2d6e11" d="M47.081,24.545a3.1,3.1,0,0,0-.808-.2l-.008-.035c.29-.16.273-.354-.047-.585.128.034.128.034.136.021.032-.043-.139-.41-.141-.415-.023-.025-.023-.025-.216.022-.029-.036-.029-.036-.085-.028.008-.186-.16-1.28-.635-1.013q1.62-1.1,0-1.156a.255.255,0,0,0-.023-.024c.047-.047.524-.483.323-.534-.468-.2-.785-.081-.945.361-.126.011-.19.13-.3.167a.166.166,0,0,0-.047-.052l-.026,0c-.209.064-.2.359-.2.359.036.03.036.03.228-.071.005.009.009.019.013.026a2.2,2.2,0,0,0-.079.233.187.187,0,0,0-.032,0c-.1-.177-.276.156-.06.342,0,.109,0,.113.03.154-.028.171-.308.265-.188.47.173-.015.3-.4.567-.4a1.5,1.5,0,0,1-.308.789c.064,0,.1-.053.156-.07l.013.01a.917.917,0,0,0,.226.03l.015,0c.017.03.026.065.045.092.133.02.246-.181.378-.057-.267.216-.224.386.126.513-.354.149-.707.3-1.06.463-.01.058-.13.364-.126.37.806.079-.228.338-.4.526-.111.13.748.387.889.427a2.15,2.15,0,0,1,.494-.055c-.551.211-1.411.2-1.718.816a5.521,5.521,0,0,1,.746.052,3.6,3.6,0,0,1,2.577-.221s.393-.074.379-.237c-.157-.1-.37,0-.518-.141a3.367,3.367,0,0,0,.291-.282c.015.013.036.03.051.041.124.085.105-.047.092-.141.25.012.325.017.387-.2l.006-.026a.307.307,0,0,0-.192-.351"/>
          <path class="29e55078-a2b4-48ca-962b-ac506a2d6e11" d="M42.578,16.645a.856.856,0,0,0,.748-.487.411.411,0,0,1,.087-.481c-.043-.024-.081.021-.124,0a.1.1,0,0,0-.053-.075.231.231,0,0,1-.257-.162c-.1-.013-.134.092-.2.132-.072-.017-.13.036-.2.039l0,0h-.008c-.043.009-.075.052-.124.048.023-.075.023-.075.017-.082a.152.152,0,0,1-.19-.1l-.018-.007c-.222-.032-.854.259-1.053.188a.213.213,0,0,0,.017-.07,1.957,1.957,0,0,1-.667.147.23.23,0,0,0-.077.071.153.153,0,0,0,.013.015c.124,0,.359,0,.425.074-.055.289-.4.295-.519.524.026-.049.081-.188-.011.015a3,3,0,0,0,1.152.46,10.234,10.234,0,0,0,1.05-.244"/>
          <path class="29e55078-a2b4-48ca-962b-ac506a2d6e11" d="M52.155,9.966l.008-.009a1.966,1.966,0,0,0,.267.169l.082.271a.274.274,0,0,0,.207.206h.011c.085.19.2.269.346.254a3.021,3.021,0,0,1,.224-.511.25.25,0,0,1,.032-.254c0-.4.361.036.47.132-.087-.006-.07.118-.042.169-.007-.011-.017-.023,0,.009a.034.034,0,0,0,.015,0c.113-.086.226-.066.344.055.021-.023.047.009.071,0l.066-.192a.857.857,0,0,0,.09-.028.839.839,0,0,0-.208-.081.288.288,0,0,0-.316-.184,3,3,0,0,1-.222-.28.02.02,0,0,1-.009.011s-.226-.075-.222-.152a.175.175,0,0,1,.117.03,1.9,1.9,0,0,1,.451-.049.074.074,0,0,0,.011-.024c.088.047.145.02.171-.085.013-.28-.032-.355-.453-.374,0,0-.015.083-.021.126a.2.2,0,0,0-.159-.145c-.066.057-.059.124.02.2-.1.026-.094-.158-.188-.117a.668.668,0,0,1,.017.087.878.878,0,0,0-.248-.222h0c-.054.051,0,.118-.024.173,0,.019-.03.009-.034.026a.108.108,0,0,1,0,.019c-.03-.021-.043-.062-.079-.079a.59.59,0,0,0-.015.267c-.047-.006-.08-.049-.122-.064-.015.011-.015.011-.011.077l-.013,0a.6.6,0,0,0-.119-.089l-.009.025a.119.119,0,0,0-.028,0c-.006.013-.006.013.167.41h0c-.094-.074-.278-.457-.334-.267l-.015,0s-.085-.073-.124-.109c-.068.006-.055.083-.1.111l-.006-.005c-.013-.027-.02-.057-.035-.085a.516.516,0,0,1-.2.062.236.236,0,0,0-.034-.03,1.208,1.208,0,0,0,.072.391c-.209-.085-.158.019.152.316.026-.059-.03-.109-.021-.166"/>
          <path class="29e55078-a2b4-48ca-962b-ac506a2d6e11" d="M32.091,15.738a.467.467,0,0,1,.218-.028c-.141.194-.141.194-.156.291.028,0,.066.012.094.019-.064.151-.237.228-.273.4.019.02.049.043.068.062v.1c.224.051.308-.049.5-.269.023.01.053.025.077.038.214-.1.333-.323.545-.423.017.021.036.049.053.071.592-.439.592-.439.626-.642.148-.034.263-.171.428-.143.011.024.021.056.03.081.011,0,.925-.292.992-.557-.026-.011-.058-.024-.084-.037A4.586,4.586,0,0,1,36.5,14.09a1.846,1.846,0,0,0,.351.1,3.838,3.838,0,0,1,.432-.237c.025.019.057.043.083.06-.363.132-.393.179-.464.288a4.688,4.688,0,0,1,1.541-.329l1.323-.671c-.013.094-.013.19-.023.284l.081.058c.13-.023.248-.079.378-.1l.021.066a4.13,4.13,0,0,0,2.446-.492c-.338-.043-.629-.337-1-.188-.026-.013-.06-.03-.083-.043.261-.156.592-.034.85-.2.009-.032.013-.074.02-.106a1.982,1.982,0,0,1-.257-.069c.381-.051.381-.051.494-.141a1.526,1.526,0,0,1-.154-.092.361.361,0,0,1,.175-.015c.034.077.034.077.178.205a4.019,4.019,0,0,1-.182.366c.009.026.021.06.032.085a1.2,1.2,0,0,0,.351-.053c-.018.028-.041.064-.058.092.241.058.282-.212.425-.314-.006-.028-.011-.064-.015-.092-.028,0-.066-.009-.092-.013a.282.282,0,0,0,.049-.167.9.9,0,0,0,.154-.113c-.047-.079-.074-.167-.119-.246a.915.915,0,0,0-.214.022c-.021-.02-.053-.043-.075-.065.019-.019.049-.042.069-.059a.836.836,0,0,1,.079.04c.16-.049.224-.218.359-.3.015.024.032.056.045.079-.041.047-.092.113-.131.163.03.089.1.16.12.25.028,0,.066,0,.092,0,.09-.128.269-.158.342-.308l-.009,0c-.011-.024-.03-.056-.043-.079H44.06c-.038-.067-.079-.131-.122-.193.024-.149.09-.141.19-.124-.006.03-.012.069-.017.1l.118.134c.517-.04.517-.04.615-.134a.955.955,0,0,0-.1-.15l-.075-.006c-.006-.026-.015-.06-.023-.086.032-.01.07-.023.1-.032.2.107.2.107.413.011l.051.079h0l0,0h0a.191.191,0,0,0,.089,0A.24.24,0,0,0,45.4,11.2c-.021-.015-.051-.034-.073-.047A.3.3,0,0,0,45.407,11a1.07,1.07,0,0,1-.184.1.461.461,0,0,0,.092-.151c.2-.064.2-.064.269-.058.011.026.021.06.032.086a1.062,1.062,0,0,0,.359-.488l-.011,0A.557.557,0,0,1,45.8,10.4a.483.483,0,0,0,.066-.167c.192.07.466-.152.6.1a.378.378,0,0,0,.274-.256,1.032,1.032,0,0,0-.323-.094.336.336,0,0,1,.344-.054c.02-.019.043-.045.062-.064a.445.445,0,0,1-.132-.109,1.622,1.622,0,0,1-.267.064c.4-.241.84-.425,1.22-.7l.083.053c.494-.2.494-.2.582-.286a.508.508,0,0,0-.167-.053c.306-.2.69-.058,1.005-.227l.021-.09c-.182-.177-.116-.1-.056-.038-.25-.175-.545.07-.8-.049a4.248,4.248,0,0,1-.729.2c.24-.116.505-.178.735-.317,0-.025,0-.062,0-.089a3.163,3.163,0,0,0-.669.1c.122-.034.25-.049.372-.085,0-.03.013-.069.019-.1-.156,0-.314-.006-.47-.019.357,0,.885-.026.962-.015l.038,0A.538.538,0,0,0,48.732,8c-.113-.09-.113-.12-.115-.223.023-.014.053-.034.079-.049-.007-.027-.015-.062-.019-.087l-.086-.022c.015-.021.036-.051.054-.072-.184.023-.345-.109-.531-.073l0,0c-.013,0-.013,0-.474.077.043-.034.1-.077.145-.107a.556.556,0,0,1-.177.028c.006-.028.013-.064.019-.092-.216.019-.417.1-.63.134a.85.85,0,0,1,.038-.081c-.015,0-.346.188-.479.267l-.049-.025a1.645,1.645,0,0,0,.177-.229c0-.028-.006-.066-.01-.092-.513.165-.513.165-.526.167a.571.571,0,0,0,.237-.184,2.391,2.391,0,0,1-.6.141c.508-.147.508-.147.6-.207-.246.026-.491.006-.735.019a.3.3,0,0,0,.135-.117c-.233-.009-.443.124-.678.113.013-.022.03-.054.041-.077a3.1,3.1,0,0,0-.314.066c.059-.021.141-.051.2-.075-.822,0-.822,0-.951.075.017.022.039.049.056.069-.678.194-1.381-.251-2.05.089,0,.03,0,.069,0,.1a1.048,1.048,0,0,0-.254.1.549.549,0,0,0,.064.039l.09-.007-.043.077c.028.015.067.032.094.045l0,0-.008.011c-.094.043-.094.043-.267.015-.009-.026-.022-.058-.03-.083-.47-.035-.47-.035-.618.2-.2-.043-.2-.043-.265-.011-.047.038-.1.077-.145.111-.005.03-.009.068-.011.1l.09-.04a.843.843,0,0,0,.186.053,1.722,1.722,0,0,0-.178.075.459.459,0,0,1,.282.013l-.109.057c.033,0,.075-.008.107-.013a.36.36,0,0,1,.069.159,6.281,6.281,0,0,1-2.071,1.368.773.773,0,0,1,.064.064c-.381.222-.887.136-1.214.493.013.024.03.056.045.082a3.92,3.92,0,0,0,.733-.253.336.336,0,0,0-.1.163c-.2.1-.448.105-.6.3a.658.658,0,0,1,.183-.009.286.286,0,0,0-.091.154.18.18,0,0,0,.029.028c-.01.015-1.588,1.088-1.9.9l-.006-.092a7.314,7.314,0,0,0-1.278.543.428.428,0,0,1-.052.175,3.613,3.613,0,0,0-1.59,1.231c.139-.054.272-.12.413-.165.01.026.023.058.032.084a.542.542,0,0,1,.184-.007c-.032.043-.08.1-.116.135-.011-.024-.026-.058-.034-.081-.776.1-1.423,1.124-1.428,1.135l.056.079a2.279,2.279,0,0,0-.622.925c.051-.013.12-.032.171-.049.043.032.1.075.145.105"/>
          <path class="29e55078-a2b4-48ca-962b-ac506a2d6e11" d="M43.805,23.1l-.192-.4a1.448,1.448,0,0,1-.421-.235c-1,.092-2.14,2.574-1.742,2.518h0a2.54,2.54,0,0,0,.906-.353,1.652,1.652,0,0,1,.556-.03,10.586,10.586,0,0,0,.889-1.378.128.128,0,0,0,0-.126"/>
          <path class="29e55078-a2b4-48ca-962b-ac506a2d6e11" d="M24.292,19.511l-.3.058c-.56.3-1.052.7-1.6,1.008a.055.055,0,0,1-.047,0,2.149,2.149,0,0,0-.537.24c.007,0,.007,0,.107.013a.49.49,0,1,0,.079.976c.051.092-.073.148-.047.233.7.032-.3-.015-.224.347l.017.008a1.276,1.276,0,0,0,.122-.1l.008,0c.077-.019.13-.13.229-.077a.129.129,0,0,1,0,.039,1.13,1.13,0,0,0,.351-.169l.015.008a3.368,3.368,0,0,1-.554.577c.071.026.118-.074.192-.038-.021.12-.156.137-.207.231.056.028.028.083.047.124a4.019,4.019,0,0,0,.727-.554c.13-.126.132-.16.132-.179H22.8a1.729,1.729,0,0,0-.227.147.077.077,0,0,0-.019-.008c.077-.154.312-.133.357-.321-.152.071-.306.135-.462.194l-.011-.012a.215.215,0,0,1,.09-.12,1.351,1.351,0,0,1,.569-.286.364.364,0,0,0,.122-.122c-.039-.019-.039-.019-.276,0l0-.015c.3-.383.534-.389.615-.789a.751.751,0,0,0-.4.049c-.077-.235,0-.376.235-.425.018-.013.05-.077-.017-.1-.006-.043.043-.062.047-.1l-.01-.015c-.154.009-.263.135-.411.154.135-.171,1.383-.716,1.387-.9a.372.372,0,0,0-.089,0c0-.028.01-.055,0-.083"/>
        </g>
      </g>
    </g>
  </g>
</svg>
