<svg id="f4a4a042-b380-468c-b0f4-273b31088e06" data-name="Layer 1" xmlns="http://www.w3.org/2000/svg" viewBox="0 0 314.119 435.62">
  <defs>
    <style>
      .c8fcf2fa-09b6-4da6-8d2f-9799692ff057, .d1118298-9d7a-4f21-99d4-f11913d2ef08, .de518686-377c-47c3-967c-0ac2c4f8d2a3 {
        fill: #fff;
      }

      .\36 34efdee-cad7-432d-b096-f92417e1dfd4 {
        fill: #022544;
      }

      .\39 4f38ebc-788c-420f-a87c-85e0c644fe77 {
        fill: #d3d800;
      }

      .\34 88c73e6-4fc6-4cdb-9b5a-475648c8b2d0, .c8fcf2fa-09b6-4da6-8d2f-9799692ff057, .de518686-377c-47c3-967c-0ac2c4f8d2a3 {
        isolation: isolate;
      }

      .de518686-377c-47c3-967c-0ac2c4f8d2a3 {
        font-size: 38.76px;
      }

      .c8fcf2fa-09b6-4da6-8d2f-9799692ff057, .de518686-377c-47c3-967c-0ac2c4f8d2a3 {
        font-family: Arial-BoldMT, Arial;
        font-weight: 700;
      }

      .c8fcf2fa-09b6-4da6-8d2f-9799692ff057 {
        font-size: 15.61px;
      }
    </style>
  </defs>
  <title>batterywithsolar</title>
  <g id="f4fca8d3-6a90-46fc-a6ec-cf4c85bcc7e2" data-name="Layer 2">
    <g id="eb69a334-1c06-4cdf-b035-fde5f8ad0b97" data-name="battery">
      <g class="solararea">
        <g>
          <rect class="d1118298-9d7a-4f21-99d4-f11913d2ef08" x="21.499" y="307.22" width="282" height="121.5"/>
          <path class="634efdee-cad7-432d-b096-f92417e1dfd4" d="M162,299.42H292.9c14.35,0,18.37,4.17,18.36,18.57V419.27c0,11.41-4.63,16.3-15.89,16.3q-133.23.1-266.46,0c-10.3,0-15-4.88-15.45-15.33-.18-4.67-.21-9.36-.05-14,.22-6,.52-11.22-7.07-14.21C3.22,390.85,1,384.54.51,380.33c-.89-8.48-.36-17.12-.27-25.69.06-6.25,3-10.61,8.54-13.8a10,10,0,0,0,4.4-6.53c.66-5.37.17-10.88.22-16.34.13-14.61,4-18.57,18.48-18.57h130.1ZM297.27,421.85a17.318,17.318,0,0,0,.7-3.27c0-33.49,0-67,.18-100.46,0-6.09-3.58-5.74-7.64-5.74q-128.11,0-256.22-.11c-6.13,0-8,1.72-8,7.92.28,27,.07,54,.05,81v20.67Z" transform="translate(-0.001)"/>
        </g>
        <g class="batterycells">
          <path class="94f38ebc-788c-420f-a87c-85e0c644fe77" d="M27,312.27c-.41,0-.54,1.72-.54,7.92V421.86H44.93V318.13c0-6.09-.25-5.74-.52-5.74C38.66,312.4,32.85,312.45,27,312.27Z" transform="translate(-0.001)"/>
          <path class="94f38ebc-788c-420f-a87c-85e0c644fe77" d="M50,312.27c-.41,0-.54,1.72-.54,7.92V421.86H67.93V318.13c0-6.09-.24-5.74-.52-5.74C61.66,312.4,55.85,312.45,50,312.27Z" transform="translate(-0.001)"/>
          <path class="94f38ebc-788c-420f-a87c-85e0c644fe77" d="M73,312.27c-.41,0-.54,1.72-.54,7.92V421.86H90.93V318.13c0-6.09-.24-5.74-.52-5.74C84.66,312.4,78.85,312.45,73,312.27Z" transform="translate(-0.001)"/>
          <path class="94f38ebc-788c-420f-a87c-85e0c644fe77" d="M96.05,312.27c-.42,0-.55,1.72-.55,7.92V421.86h18.42V318.13c0-6.09-.24-5.74-.52-5.74C107.66,312.4,101.85,312.45,96.05,312.27Z" transform="translate(-0.001)"/>
          <path class="94f38ebc-788c-420f-a87c-85e0c644fe77" d="M119.05,312.27c-.42,0-.55,1.72-.55,7.92V421.86h18.42V318.13c0-6.09-.24-5.74-.52-5.74C130.66,312.4,124.86,312.45,119.05,312.27Z" transform="translate(-0.001)"/>
          <path class="94f38ebc-788c-420f-a87c-85e0c644fe77" d="M142.05,312.27c-.42,0-.55,1.72-.54,7.92V421.86h18.42V318.13c0-6.09-.24-5.74-.52-5.74C153.66,312.4,147.86,312.45,142.05,312.27Z" transform="translate(-0.001)"/>
          <path class="94f38ebc-788c-420f-a87c-85e0c644fe77" d="M165.05,312.27c-.42,0-.55,1.72-.54,7.92V421.86h18.42V318.13c0-6.09-.24-5.74-.52-5.74C176.67,312.4,170.86,312.45,165.05,312.27Z" transform="translate(-0.001)"/>
          <path class="94f38ebc-788c-420f-a87c-85e0c644fe77" d="M188.05,312.27c-.42,0-.55,1.72-.54,7.92V421.86h18.43V318.13c0-6.09-.25-5.74-.52-5.74C199.67,312.4,193.86,312.45,188.05,312.27Z" transform="translate(-0.001)"/>
          <path class="94f38ebc-788c-420f-a87c-85e0c644fe77" d="M211.05,312.27c-.42,0-.54,1.72-.54,7.92V421.86h18.43V318.13c0-6.09-.25-5.74-.52-5.74C222.67,312.4,216.86,312.45,211.05,312.27Z" transform="translate(-0.001)"/>
          <path class="94f38ebc-788c-420f-a87c-85e0c644fe77" d="M234.05,312.27c-.41,0-.54,1.72-.54,7.92V421.86h18.43c0-1.31.05-2.29.05-3.27V318.13c0-6.09-.25-5.74-.52-5.74C245.67,312.4,239.86,312.45,234.05,312.27Z" transform="translate(-0.001)"/>
          <path class="94f38ebc-788c-420f-a87c-85e0c644fe77" d="M257.05,312.27c-.41,0-.54,1.72-.54,7.92V421.86h18.42c0-1.31.05-2.29.05-3.27V318.13c0-6.09-.24-5.74-.52-5.74C268.67,312.4,262.86,312.45,257.05,312.27Z" transform="translate(-0.001)"/>
          <path class="94f38ebc-788c-420f-a87c-85e0c644fe77" d="M280.05,312.27c-.41,0-.54,1.72-.54,7.92V421.86h18.42c0-1.31.05-2.29.05-3.27V318.13c0-6.09-.24-5.74-.52-5.74C291.67,312.4,285.86,312.45,280.05,312.27Z" transform="translate(-0.001)"/>
        </g>
        <g>
          <rect class="634efdee-cad7-432d-b096-f92417e1dfd4" x="210.589" y="305.96" width="97.01" height="122.52"/>
          <g class="488c73e6-4fc6-4cdb-9b5a-475648c8b2d0">
            <text class="de518686-377c-47c3-967c-0ac2c4f8d2a3" transform="translate(221.199 366.9)">10X</text>
            <text class="c8fcf2fa-09b6-4da6-8d2f-9799692ff057" transform="translate(221.199 385.64)">INCREASE</text>
          </g>
        </g>
        <g class="batteryblocks">
          <g>
            <g id="605d7190-569a-4e1c-b1ec-0eb6d7e27f81" data-name=" Group 7">
              <g>
                <path class="94f38ebc-788c-420f-a87c-85e0c644fe77" d="M29.2,7.37h43v.55a8.63,8.63,0,0,0,8.62,8.64h.56v7.63h-.63a8.63,8.63,0,0,0-8.63,8.63v.48H29.24c0-.32.05-.64.05-1a8.63,8.63,0,0,0-8.63-8.63H20.1V16.46h.48a8.63,8.63,0,0,0,8.63-8.63V7.82C29.21,7.69,29.21,7.53,29.2,7.37Zm22.47,4.87a8.63,8.63,0,1,0,8.63,8.63,8.63,8.63,0,0,0-8.63-8.63Z" transform="translate(-0.001)"/>
                <g>
                  <path class="634efdee-cad7-432d-b096-f92417e1dfd4" d="M15.23,38.28V2.34H86V38.28Zm55.51-6.45A10.07,10.07,0,0,1,80,22.75V18a10.08,10.08,0,0,1-9.19-9.2H30.6a10.08,10.08,0,0,1-9.07,9.06v4.41a10.08,10.08,0,0,1,9.18,9.56Z" transform="translate(-0.001)"/>
                  <path class="d1118298-9d7a-4f21-99d4-f11913d2ef08" d="M84.59,3.77V36.85H16.67V3.77H84.59M72.22,7.37h-43v.47a8.63,8.63,0,0,1-8.62,8.64h-.49v7.23h.56a8.63,8.63,0,0,1,8.63,8.63h0a6.972,6.972,0,0,1-.05,1h42.9v-.48a8.63,8.63,0,0,1,8.63-8.63h.63V16.54h-.55A8.64,8.64,0,0,1,72.2,7.92h0V7.37M87.45.91H13.8V39.72H87.45ZM31.83,10.23H69.57a11.55,11.55,0,0,0,9,9V21.5a11.541,11.541,0,0,0-9,8.89H32A11.52,11.52,0,0,0,23,21V19.09a11.54,11.54,0,0,0,8.86-8.86Z" transform="translate(-0.001)"/>
                </g>
                <circle class="634efdee-cad7-432d-b096-f92417e1dfd4" cx="51.669" cy="20.87" r="8.63"/>
              </g>
            </g>
            <g id="37ca521f-86be-48fe-9f2f-d1eaf23bbf68" data-name=" Group 14">
              <g>
                <path class="94f38ebc-788c-420f-a87c-85e0c644fe77" d="M104.75,7.67h43v.56a8.63,8.63,0,0,0,8.63,8.63h.56v7.63h-.64a8.63,8.63,0,0,0-8.63,8.63h0v.48h-42.9v-1A8.63,8.63,0,0,0,96.21,24h-.56V16.76h.48a8.63,8.63,0,0,0,8.63-8.63C104.76,8,104.76,7.83,104.75,7.67Zm22.47,4.87a8.63,8.63,0,1,0,8.63,8.63,8.63,8.63,0,0,0-8.63-8.63Z" transform="translate(-0.001)"/>
                <g>
                  <path class="634efdee-cad7-432d-b096-f92417e1dfd4" d="M90.79,38.59V2.64h70.78v36Zm55.5-6.46a10.08,10.08,0,0,1,9.22-9.08v-4.8a10.079,10.079,0,0,1-9.15-9.15H106.15a10.07,10.07,0,0,1-9.07,9.06v4.42a10.07,10.07,0,0,1,9.18,9.55Z" transform="translate(-0.001)"/>
                  <path class="d1118298-9d7a-4f21-99d4-f11913d2ef08" d="M160.14,4.07V37.15H92.22V4.07h67.92m-12.37,3.6h-43v.48a8.63,8.63,0,0,1-8.63,8.63h-.48V24h.56a8.63,8.63,0,0,1,8.63,8.63v1h42.9v-.48a8.63,8.63,0,0,1,8.63-8.63h.64V16.84h-.56a8.63,8.63,0,0,1-8.63-8.63h0V7.65M163,1.21H89.35V40H163Zm-55.62,9.32h37.74a11.55,11.55,0,0,0,9,9V21.8a11.531,11.531,0,0,0-9,8.9H107.55a11.509,11.509,0,0,0-9-9.36V19.39a11.531,11.531,0,0,0,8.86-8.86Z" transform="translate(-0.001)"/>
                </g>
                <circle class="634efdee-cad7-432d-b096-f92417e1dfd4" cx="127.219" cy="21.17" r="8.63"/>
              </g>
            </g>
            <g id="0fe34cb4-0af1-4dbf-856f-8c0c3cb36d40" data-name=" Group 21">
              <g>
                <path class="94f38ebc-788c-420f-a87c-85e0c644fe77" d="M180.3,7.06h43v.56a8.63,8.63,0,0,0,8.63,8.63h.56v7.64h-.64a8.63,8.63,0,0,0-8.63,8.63V33h-42.9V32a8.63,8.63,0,0,0-8.63-8.63h-.56V16.16h.48a8.63,8.63,0,0,0,8.63-8.63h0A.943.943,0,0,0,180.3,7.06Zm22.47,4.88a8.63,8.63,0,1,0,8.63,8.63,8.63,8.63,0,0,0-8.63-8.63Z" transform="translate(-0.001)"/>
                <g>
                  <path class="634efdee-cad7-432d-b096-f92417e1dfd4" d="M166.34,38V2h70.78V38Zm55.5-6.46a10.08,10.08,0,0,1,9.22-9.08V17.65a10.08,10.08,0,0,1-9.15-9.16H181.7a10.08,10.08,0,0,1-9.06,9.07V22a10.069,10.069,0,0,1,9.17,9.55Z" transform="translate(-0.001)"/>
                  <path class="d1118298-9d7a-4f21-99d4-f11913d2ef08" d="M235.69,3.47V36.55H167.77V3.47h67.92M223.33,7.06h-43v.48a8.63,8.63,0,0,1-8.63,8.63h-.48v7.22h.56A8.629,8.629,0,0,1,180.39,32v1h42.9v-.47a8.63,8.63,0,0,1,8.62-8.64h.65V16.23H232a8.63,8.63,0,0,1-8.63-8.63h0V7.04M238.56.6H164.91V39.41h73.65ZM182.93,9.93h37.75a11.5,11.5,0,0,0,8.95,9V21.2a11.52,11.52,0,0,0-9,8.89H183.1a11.541,11.541,0,0,0-9-9.36V18.79a11.54,11.54,0,0,0,8.86-8.86Z" transform="translate(-0.001)"/>
                </g>
                <circle class="634efdee-cad7-432d-b096-f92417e1dfd4" cx="202.769" cy="20.57" r="8.63"/>
              </g>
            </g>
            <g id="75ebfc7b-f560-4763-9f26-cd5932613202" data-name=" Group 28">
              <g>
                <path class="94f38ebc-788c-420f-a87c-85e0c644fe77" d="M255.85,6.46h43v.56a8.63,8.63,0,0,0,8.63,8.63h.56v7.64h-.64a8.63,8.63,0,0,0-8.63,8.63h0v.48h-42.9a7.771,7.771,0,0,0,.05-1,8.63,8.63,0,0,0-8.63-8.63h-.56V15.56h.48a8.63,8.63,0,0,0,8.63-8.63h0A2.444,2.444,0,0,0,255.85,6.46Zm22.47,4.87a8.635,8.635,0,1,0,.09,0Z" transform="translate(-0.001)"/>
                <g>
                  <path class="634efdee-cad7-432d-b096-f92417e1dfd4" d="M241.89,37.38V1.43h70.78v36Zm55.5-6.46a10.089,10.089,0,0,1,9.23-9.08V17a10.08,10.08,0,0,1-9.16-9.15H257.25A10.089,10.089,0,0,1,248.19,17v4.41a10.089,10.089,0,0,1,9.18,9.55Z" transform="translate(-0.001)"/>
                  <path class="d1118298-9d7a-4f21-99d4-f11913d2ef08" d="M311.24,2.86V36H243.32V2.86h67.92m-12.36,3.6h-43v.48a8.63,8.63,0,0,1-8.63,8.63h-.47v7.22h.55a8.63,8.63,0,0,1,8.63,8.63h0a7.771,7.771,0,0,1-.05,1h42.9v-.48a8.63,8.63,0,0,1,8.63-8.63h.64V15.63h-.56a8.63,8.63,0,0,1-8.66-8.6V6.44M314.11,0H240.46V38.81h73.65V0ZM258.48,9.32h37.75a11.521,11.521,0,0,0,8.95,9v2.31a11.55,11.55,0,0,0-9,8.9H258.65a11.519,11.519,0,0,0-9-9.36V18.18a11.509,11.509,0,0,0,8.86-8.86Z" transform="translate(-0.001)"/>
                </g>
                <circle class="634efdee-cad7-432d-b096-f92417e1dfd4" cx="278.319" cy="19.96" r="8.63"/>
              </g>
            </g>

            <g id="514de137-e1e9-482c-843d-ca9b97cf895d" data-name=" Group 6">
              <g>
                <path class="94f38ebc-788c-420f-a87c-85e0c644fe77" d="M29.2,47.77h43v.55A8.63,8.63,0,0,0,80.78,57h.61v7.63h-.63a8.63,8.63,0,0,0-8.63,8.63v.48H29.24c0-.32.05-.64.05-1a8.63,8.63,0,0,0-8.63-8.63H20.1V56.86h.48a8.63,8.63,0,0,0,8.63-8.63v-.01C29.21,48.08,29.21,47.93,29.2,47.77Zm22.47,4.87a8.63,8.63,0,1,0,8.63,8.63,8.63,8.63,0,0,0-8.63-8.63Z" transform="translate(-0.001)"/>
                <g>
                  <path class="634efdee-cad7-432d-b096-f92417e1dfd4" d="M15.23,78.68V42.74H86V78.68Zm55.51-6.46A10.07,10.07,0,0,1,80,63.15v-4.8a10.079,10.079,0,0,1-9.15-9.15H30.6a10.08,10.08,0,0,1-9.07,9.06v4.41a10.08,10.08,0,0,1,9.18,9.55Z" transform="translate(-0.001)"/>
                  <path class="d1118298-9d7a-4f21-99d4-f11913d2ef08" d="M84.59,44.17V77.25H16.67V44.17H84.59m-12.37,3.6h-43v.47a8.63,8.63,0,0,1-8.62,8.64h-.49v7.23h.56a8.63,8.63,0,0,1,8.63,8.63,6.972,6.972,0,0,1-.05,1h42.9v-.48a8.63,8.63,0,0,1,8.63-8.63h.63V56.94h-.55a8.64,8.64,0,0,1-8.64-8.64v-.55m15.23-6.46H13.8V80.12H87.45V41.29ZM31.83,50.63H69.57a11.55,11.55,0,0,0,9,9V61.9a11.541,11.541,0,0,0-9,8.89H32a11.52,11.52,0,0,0-9-9.35V59.49a11.54,11.54,0,0,0,8.86-8.86Z" transform="translate(-0.001)"/>
                </g>
                <circle class="634efdee-cad7-432d-b096-f92417e1dfd4" cx="51.669" cy="61.27" r="8.63"/>
              </g>
            </g>
            <g id="284d0eb1-b5af-4fb4-8590-0a26a6b75bb3" data-name=" Group 13">
              <g>
                <path class="94f38ebc-788c-420f-a87c-85e0c644fe77" d="M104.75,48.07h43v.56a8.63,8.63,0,0,0,8.63,8.63h.56v7.63h-.64a8.63,8.63,0,0,0-8.63,8.63h0V74h-42.9V73a8.63,8.63,0,0,0-8.63-8.63h-.56V57.16h.48a8.63,8.63,0,0,0,8.63-8.63A.891.891,0,0,0,104.75,48.07Zm22.47,4.87a8.63,8.63,0,1,0,8.63,8.63,8.63,8.63,0,0,0-8.63-8.63Z" transform="translate(-0.001)"/>
                <g>
                  <path class="634efdee-cad7-432d-b096-f92417e1dfd4" d="M90.79,79V43h70.78V79Zm55.5-6.46a10.08,10.08,0,0,1,9.22-9.08v-4.8a10.079,10.079,0,0,1-9.15-9.15H106.15a10.07,10.07,0,0,1-9.07,9.06V63a10.091,10.091,0,0,1,9.18,9.56Z" transform="translate(-0.001)"/>
                  <path class="d1118298-9d7a-4f21-99d4-f11913d2ef08" d="M160.14,44.47V77.55H92.22V44.47h67.92m-12.37,3.6h-43v.48a8.63,8.63,0,0,1-8.63,8.63h-.48v7.23h.56A8.629,8.629,0,0,1,104.84,73v1h42.9v-.48a8.63,8.63,0,0,1,8.63-8.63h.64V57.24h-.56a8.63,8.63,0,0,1-8.63-8.63h0v-.56M163,41.61H89.35V80.42H163Zm-55.62,9.32h37.74a11.55,11.55,0,0,0,9,9V62.2a11.531,11.531,0,0,0-9,8.9H107.55a11.509,11.509,0,0,0-9-9.36v-2a11.531,11.531,0,0,0,8.86-8.86Z" transform="translate(-0.001)"/>
                </g>
                <circle class="634efdee-cad7-432d-b096-f92417e1dfd4" cx="127.219" cy="61.57" r="8.63"/>
              </g>
            </g>
            <g id="dd80d9ca-d63a-463f-927e-13cc1c10dbf2" data-name=" Group 20">
              <g>
                <path class="94f38ebc-788c-420f-a87c-85e0c644fe77" d="M180.3,47.46h43v.56a8.63,8.63,0,0,0,8.63,8.63h.56v7.64h-.64a8.63,8.63,0,0,0-8.63,8.63h0v.48h-42.9v-.95a8.63,8.63,0,0,0-8.62-8.64h-.57V56.56h.48a8.63,8.63,0,0,0,8.63-8.63h0A.943.943,0,0,0,180.3,47.46Zm22.47,4.88a8.615,8.615,0,1,0,.03,0Z" transform="translate(-0.001)"/>
                <g>
                  <path class="634efdee-cad7-432d-b096-f92417e1dfd4" d="M166.34,78.38V42.44h70.78V78.38Zm55.5-6.46a10.08,10.08,0,0,1,9.22-9.08V58.05a10.08,10.08,0,0,1-9.15-9.16H181.7A10.08,10.08,0,0,1,172.64,58v4.41a10.069,10.069,0,0,1,9.17,9.55Z" transform="translate(-0.001)"/>
                  <path class="d1118298-9d7a-4f21-99d4-f11913d2ef08" d="M235.69,43.87V77H167.77V43.87h67.92m-12.36,3.59h-43v.48a8.63,8.63,0,0,1-8.63,8.63h-.48v7.22h.56a8.63,8.63,0,0,1,8.63,8.63v.96h42.9V72.9a8.63,8.63,0,0,1,8.63-8.63h.64V56.63h-.56a8.631,8.631,0,0,1-8.71-8.55v-.64M238.56,41H164.91V79.81h73.65Zm-55.63,9.33h37.75a11.5,11.5,0,0,0,8.95,9V61.6a11.52,11.52,0,0,0-9,8.89H183.1a11.541,11.541,0,0,0-9-9.36V59.19a11.54,11.54,0,0,0,8.86-8.86Z" transform="translate(-0.001)"/>
                </g>
                <circle class="634efdee-cad7-432d-b096-f92417e1dfd4" cx="202.769" cy="60.97" r="8.63"/>
              </g>
            </g>
            <g id="e173404f-3d0a-4b13-a4ea-c10c89ed64ae" data-name=" Group 27">
              <g>
                <path class="94f38ebc-788c-420f-a87c-85e0c644fe77" d="M255.85,46.86h43v.56a8.63,8.63,0,0,0,8.63,8.63h.56v7.64h-.64a8.63,8.63,0,0,0-8.63,8.63h0v.48h-42.9a7.771,7.771,0,0,0,.05-1,8.63,8.63,0,0,0-8.63-8.63h-.56V56h.48a8.63,8.63,0,0,0,8.63-8.63h0A2.978,2.978,0,0,0,255.85,46.86Zm22.47,4.87a8.655,8.655,0,1,0,.05,0Z" transform="translate(-0.001)"/>
                <g>
                  <path class="634efdee-cad7-432d-b096-f92417e1dfd4" d="M241.89,77.78V41.83h70.78v36Zm55.5-6.46a10.089,10.089,0,0,1,9.23-9.08v-4.8a10.08,10.08,0,0,1-9.16-9.15H257.25a10.091,10.091,0,0,1-9.06,9.07v4.41a10.089,10.089,0,0,1,9.18,9.55Z" transform="translate(-0.001)"/>
                  <path class="d1118298-9d7a-4f21-99d4-f11913d2ef08" d="M311.24,43.26V76.35H243.32V43.26h67.92m-12.36,3.6h-43v.48a8.63,8.63,0,0,1-8.6,8.66h-.52v7.22h.55a8.63,8.63,0,0,1,8.63,8.63h0a7.771,7.771,0,0,1-.05,1h42.9v-.48a8.63,8.63,0,0,1,8.63-8.63h.64V56h-.56a8.63,8.63,0,0,1-8.63-8.63h0v-.56m15.23-6.46H240.46V79.21h73.65V40.4Zm-55.63,9.32h37.75a11.521,11.521,0,0,0,8.95,9V61a11.55,11.55,0,0,0-9,8.9H258.65a11.519,11.519,0,0,0-9-9.36v-2a11.509,11.509,0,0,0,8.86-8.86Z" transform="translate(-0.001)"/>
                </g>
                <circle class="634efdee-cad7-432d-b096-f92417e1dfd4" cx="278.319" cy="60.36" r="8.63"/>
              </g>
            </g>

            <g id="847e242b-005b-46c0-93d4-e65a9f149c43" data-name=" Group 5">
              <g>
                <path class="94f38ebc-788c-420f-a87c-85e0c644fe77" d="M29.2,88.16h43v.56a8.63,8.63,0,0,0,8.63,8.63h.55V105h-.63a8.63,8.63,0,0,0-8.63,8.63v.48H29.24c0-.32.05-.64.05-1a8.63,8.63,0,0,0-8.63-8.63H20.1V97.26h.48a8.63,8.63,0,0,0,8.63-8.63C29.21,88.48,29.21,88.32,29.2,88.16ZM51.67,93a8.63,8.63,0,1,0,8.63,8.63h0A8.63,8.63,0,0,0,51.67,93Z" transform="translate(-0.001)"/>
                <g>
                  <path class="634efdee-cad7-432d-b096-f92417e1dfd4" d="M15.23,119.08V83.14H86v35.94Zm55.51-6.46A10.07,10.07,0,0,1,80,103.55v-4.8a10.079,10.079,0,0,1-9.15-9.15H30.6a10.08,10.08,0,0,1-9.07,9.06v4.41a10.08,10.08,0,0,1,9.18,9.55Z" transform="translate(-0.001)"/>
                  <path class="d1118298-9d7a-4f21-99d4-f11913d2ef08" d="M84.59,84.57v33.08H16.67V84.57H84.59m-12.37,3.6h-43v.47a8.63,8.63,0,0,1-8.63,8.63H20.1v7.23h.56a8.63,8.63,0,0,1,8.63,8.63,6.972,6.972,0,0,1-.05,1h42.9v-.48A8.63,8.63,0,0,1,80.75,105h.64V97.34h-.55a8.63,8.63,0,0,1-8.64-8.62v-.56M87.43,81.7H13.8v38.81H87.45V81.71ZM31.83,91H69.57a11.55,11.55,0,0,0,9,9v2.31a11.541,11.541,0,0,0-9,8.89H32a11.52,11.52,0,0,0-9-9.35v-2A11.539,11.539,0,0,0,31.83,91Z" transform="translate(-0.001)"/>
                </g>
                <circle class="634efdee-cad7-432d-b096-f92417e1dfd4" cx="51.669" cy="101.67" r="8.63"/>
              </g>
            </g>
            <g id="cc6b7605-2913-4375-a8e3-05bcb8a3bea6" data-name=" Group 12">
              <g>
                <path class="94f38ebc-788c-420f-a87c-85e0c644fe77" d="M104.75,88.47h43v.56a8.63,8.63,0,0,0,8.63,8.63h.56v7.63h-.64a8.63,8.63,0,0,0-8.63,8.63h0v.48h-42.9v-1a8.63,8.63,0,0,0-8.63-8.63h-.56V97.56h.48A8.63,8.63,0,0,0,104.76,89h0C104.76,88.79,104.76,88.63,104.75,88.47Zm22.47,4.87a8.63,8.63,0,1,0,8.63,8.63,8.63,8.63,0,0,0-8.63-8.63Z" transform="translate(-0.001)"/>
                <g>
                  <path class="634efdee-cad7-432d-b096-f92417e1dfd4" d="M90.79,119.39V83.44h70.78v36Zm55.5-6.46a10.08,10.08,0,0,1,9.22-9.08v-4.8a10.079,10.079,0,0,1-9.15-9.15H106.15A10.069,10.069,0,0,1,97.08,99v4.41a10.091,10.091,0,0,1,9.18,9.56Z" transform="translate(-0.001)"/>
                  <path class="d1118298-9d7a-4f21-99d4-f11913d2ef08" d="M160.14,84.87V118H92.22V84.87h67.92m-12.37,3.6h-43v.48a8.63,8.63,0,0,1-8.63,8.63h-.48v7.23h.56a8.63,8.63,0,0,1,8.63,8.63v1h42.9v-.48a8.63,8.63,0,0,1,8.63-8.63h.64V97.64h-.56a8.631,8.631,0,0,1-8.7-8.56v-.64M163,82H89.35v38.81H163Zm-55.62,9.32h37.74a11.55,11.55,0,0,0,9,9v2.31a11.531,11.531,0,0,0-9,8.9H107.55a11.519,11.519,0,0,0-9-9.36v-2a11.531,11.531,0,0,0,8.86-8.86Z" transform="translate(-0.001)"/>
                </g>
                <circle class="634efdee-cad7-432d-b096-f92417e1dfd4" cx="127.219" cy="101.97" r="8.63"/>
              </g>
            </g>
            <g id="06c1986e-f865-456f-a142-45ed792243bf" data-name=" Group 19">
              <g>
                <path class="94f38ebc-788c-420f-a87c-85e0c644fe77" d="M180.3,87.86h43v.56a8.63,8.63,0,0,0,8.63,8.63h.56v7.64h-.64a8.63,8.63,0,0,0-8.63,8.63h0v.48h-42.9v-1a8.63,8.63,0,0,0-8.62-8.64h-.57V97h.48a8.63,8.63,0,0,0,8.63-8.63h0A1.2,1.2,0,0,0,180.3,87.86Zm22.47,4.88a8.63,8.63,0,1,0,8.63,8.63,8.63,8.63,0,0,0-8.63-8.63Z" transform="translate(-0.001)"/>
                <g>
                  <path class="634efdee-cad7-432d-b096-f92417e1dfd4" d="M166.34,118.78V82.83h70.78v36Zm55.5-6.46a10.08,10.08,0,0,1,9.22-9.08V98.45a10.08,10.08,0,0,1-9.15-9.16H181.7a10.08,10.08,0,0,1-9.06,9.07v4.41a10.069,10.069,0,0,1,9.17,9.55Z" transform="translate(-0.001)"/>
                  <path class="d1118298-9d7a-4f21-99d4-f11913d2ef08" d="M235.69,84.27v33.08H167.77V84.27h67.92m-12.36,3.59h-43v.48a8.63,8.63,0,0,1-8.6,8.66h-.53v7.22h.56a8.63,8.63,0,0,1,8.63,8.63v1.01h42.9v-.48a8.63,8.63,0,0,1,8.63-8.63h.64V97H232a8.63,8.63,0,0,1-8.63-8.63h0v-.56m15.23-6.46H164.91v38.81h73.65V81.4Zm-55.63,9.33h37.75a11.5,11.5,0,0,0,8.95,9V102a11.52,11.52,0,0,0-9,8.89H183.1a11.541,11.541,0,0,0-9-9.36V99.59a11.54,11.54,0,0,0,8.86-8.86Z" transform="translate(-0.001)"/>
                </g>
                <circle class="634efdee-cad7-432d-b096-f92417e1dfd4" cx="202.769" cy="101.37" r="8.63"/>
              </g>
            </g>
            <g id="a3489226-613f-44fc-8f35-18e9998ff9d3" data-name=" Group 26">
              <g>
                <path class="94f38ebc-788c-420f-a87c-85e0c644fe77" d="M255.85,87.26h43v.56a8.63,8.63,0,0,0,8.63,8.63h.56v7.64h-.64a8.63,8.63,0,0,0-8.63,8.63h0v.48h-42.9a7.771,7.771,0,0,0,.05-1,8.63,8.63,0,0,0-8.63-8.63h-.56V96.36h.48a8.63,8.63,0,0,0,8.63-8.63h0A2.444,2.444,0,0,0,255.85,87.26Zm22.47,4.87a8.63,8.63,0,1,0,8.63,8.63,8.63,8.63,0,0,0-8.63-8.63Z" transform="translate(-0.001)"/>
                <g>
                  <path class="634efdee-cad7-432d-b096-f92417e1dfd4" d="M241.89,118.18V82.23h70.78v36Zm55.5-6.46a10.079,10.079,0,0,1,9.23-9.08v-4.8a10.08,10.08,0,0,1-9.16-9.15H257.25a10.068,10.068,0,0,1-9.06,9.06v4.42a10.089,10.089,0,0,1,9.18,9.55Z" transform="translate(-0.001)"/>
                  <path class="d1118298-9d7a-4f21-99d4-f11913d2ef08" d="M311.24,83.66v33.09H243.32V83.66h67.92m-12.36,3.6h-43v.48a8.63,8.63,0,0,1-8.63,8.63h-.47v7.22h.55a8.63,8.63,0,0,1,8.63,8.63h0a7.771,7.771,0,0,1-.05,1h42.9v-.48a8.63,8.63,0,0,1,8.63-8.63h.64V96.43h-.56a8.63,8.63,0,0,1-8.63-8.63h0v-.56m15.23-6.46H240.46v38.81h73.65V80.8ZM258.49,90.1h37.75a11.521,11.521,0,0,0,8.95,9v2.31a11.55,11.55,0,0,0-9,8.9H258.65a11.519,11.519,0,0,0-9-9.36V99a11.509,11.509,0,0,0,8.86-8.86Z" transform="translate(-0.001)"/>
                </g>
                <circle class="634efdee-cad7-432d-b096-f92417e1dfd4" cx="278.319" cy="100.76" r="8.63"/>
              </g>
            </g>

            <g id="aba79161-9157-429e-bc78-1ec698aa9551" data-name=" Group 4">
              <g>
                <path class="94f38ebc-788c-420f-a87c-85e0c644fe77" d="M29.2,128.56h43v.56a8.63,8.63,0,0,0,8.63,8.63h.55v7.63h-.63A8.631,8.631,0,0,0,72.13,154v.48H29.24c0-.32.05-.64.05-1a8.63,8.63,0,0,0-8.63-8.63H20.1v-7.23h.48A8.631,8.631,0,0,0,29.21,129C29.21,128.88,29.21,128.72,29.2,128.56Zm22.47,4.88a8.63,8.63,0,1,0,8.63,8.63,8.63,8.63,0,0,0-8.63-8.63Z" transform="translate(-0.001)"/>
                <g>
                  <path class="634efdee-cad7-432d-b096-f92417e1dfd4" d="M15.23,159.48V123.54H86v35.94ZM70.74,153A10.07,10.07,0,0,1,80,144v-4.8a10.08,10.08,0,0,1-9.19-9.2H30.6a10.08,10.08,0,0,1-9.07,9.06v4.41A10.079,10.079,0,0,1,30.71,153Z" transform="translate(-0.001)"/>
                  <path class="d1118298-9d7a-4f21-99d4-f11913d2ef08" d="M84.59,125v33.08H16.67V125H84.59m-12.37,3.59h-43v.48a8.63,8.63,0,0,1-8.63,8.63H20.1v7.23h.56a8.63,8.63,0,0,1,8.63,8.63h0a6.972,6.972,0,0,1-.05,1h42.9v-.48a8.63,8.63,0,0,1,8.63-8.63h.63v-7.63h-.55a8.63,8.63,0,0,1-8.64-8.62v-.57m15.23-6.45H13.8v38.8H87.45v-38.8ZM31.82,131.5H69.57a11.55,11.55,0,0,0,9,9v2.31a11.541,11.541,0,0,0-9,8.89H32a11.52,11.52,0,0,0-9-9.35v-2a11.54,11.54,0,0,0,8.86-8.86Z" transform="translate(-0.001)"/>
                </g>
                <circle class="634efdee-cad7-432d-b096-f92417e1dfd4" cx="51.669" cy="142.07" r="8.63"/>
              </g>
            </g>
            <g id="eeb71b81-105e-49c9-b1c8-6c8454ade83c" data-name=" Group 11">
              <g>
                <path class="94f38ebc-788c-420f-a87c-85e0c644fe77" d="M104.75,128.87h43v.56a8.63,8.63,0,0,0,8.63,8.63h.56v7.63h-.64a8.63,8.63,0,0,0-8.63,8.63h0v.48h-42.9v-1a8.63,8.63,0,0,0-8.63-8.63h-.56V138h.48a8.63,8.63,0,0,0,8.63-8.63h0A1.156,1.156,0,0,0,104.75,128.87Zm22.47,4.87a8.63,8.63,0,1,0,8.63,8.63,8.63,8.63,0,0,0-8.63-8.63Z" transform="translate(-0.001)"/>
                <g>
                  <path class="634efdee-cad7-432d-b096-f92417e1dfd4" d="M90.79,159.79V123.84h70.78v35.95Zm55.5-6.46a10.08,10.08,0,0,1,9.22-9.08v-4.8a10.079,10.079,0,0,1-9.15-9.15H106.15a10.07,10.07,0,0,1-9.07,9.06v4.41a10.08,10.08,0,0,1,9.18,9.56Z" transform="translate(-0.001)"/>
                  <path class="d1118298-9d7a-4f21-99d4-f11913d2ef08" d="M160.14,125.27v33.08H92.22V125.27h67.92m-12.37,3.6h-43v.48A8.63,8.63,0,0,1,96.16,138h-.51v7.23h.56a8.63,8.63,0,0,1,8.63,8.63h0v1h42.9v-.48a8.63,8.63,0,0,1,8.63-8.63h.64V138h-.56a8.63,8.63,0,0,1-8.63-8.63h0v-.56m15.18-6.4H89.35v38.81H163Zm-55.62,9.32h37.74a11.55,11.55,0,0,0,9,9V143a11.531,11.531,0,0,0-9,8.9H107.55a11.509,11.509,0,0,0-9-9.36v-1.95a11.531,11.531,0,0,0,8.86-8.86Z" transform="translate(-0.001)"/>
                </g>
                <circle class="634efdee-cad7-432d-b096-f92417e1dfd4" cx="127.219" cy="142.37" r="8.63"/>
              </g>
            </g>
            <g id="6836b787-32d0-4130-9a31-c01e432ae443" data-name=" Group 18">
              <g>
                <path class="94f38ebc-788c-420f-a87c-85e0c644fe77" d="M180.3,128.26h43v.56a8.63,8.63,0,0,0,8.63,8.63h.56v7.64h-.64a8.63,8.63,0,0,0-8.63,8.63h0v.48h-42.9v-1a8.63,8.63,0,0,0-8.63-8.63h-.56v-7.22h.48a8.63,8.63,0,0,0,8.63-8.63h0A.891.891,0,0,0,180.3,128.26Zm22.47,4.88a8.63,8.63,0,1,0,8.63,8.63,8.63,8.63,0,0,0-8.63-8.63Z" transform="translate(-0.001)"/>
                <g>
                  <path class="634efdee-cad7-432d-b096-f92417e1dfd4" d="M166.34,159.18V123.24h70.78v35.94Zm55.5-6.46a10.08,10.08,0,0,1,9.22-9.08v-4.79a10.08,10.08,0,0,1-9.15-9.16H181.7a10.08,10.08,0,0,1-9.06,9.07v4.41a10.069,10.069,0,0,1,9.17,9.55Z" transform="translate(-0.001)"/>
                  <path class="d1118298-9d7a-4f21-99d4-f11913d2ef08" d="M235.69,124.67v33.08H167.77V124.67h67.92m-12.36,3.59h-43v.48a8.63,8.63,0,0,1-8.63,8.63h-.48v7.22h.56a8.63,8.63,0,0,1,8.63,8.63h0v1h42.9v-.48a8.63,8.63,0,0,1,8.63-8.63h.64v-7.64h-.56a8.63,8.63,0,0,1-8.63-8.63h0v-.56m15.23-6.46H164.91v38.81h73.65V121.8Zm-55.63,9.33h37.75a11.5,11.5,0,0,0,8.95,9v2.32a11.52,11.52,0,0,0-9,8.89H183.1a11.541,11.541,0,0,0-9-9.36v-2a11.54,11.54,0,0,0,8.86-8.86Z" transform="translate(-0.001)"/>
                </g>
                <circle class="634efdee-cad7-432d-b096-f92417e1dfd4" cx="202.769" cy="141.77" r="8.63"/>
              </g>
            </g>
            <g id="e60f3346-ae00-4e9c-b8b7-66eceeb7df56" data-name=" Group 25">

              <g>
                <path class="94f38ebc-788c-420f-a87c-85e0c644fe77" d="M255.85,127.66h43v.56a8.63,8.63,0,0,0,8.63,8.63h.56v7.64h-.64a8.63,8.63,0,0,0-8.63,8.63h0v.48h-42.9a7.771,7.771,0,0,0,.05-1,8.63,8.63,0,0,0-8.63-8.63h-.56v-7.22h.48a8.63,8.63,0,0,0,8.63-8.63h0A2.283,2.283,0,0,0,255.85,127.66Zm22.47,4.87a8.63,8.63,0,1,0,8.63,8.63,8.63,8.63,0,0,0-8.63-8.63Z" transform="translate(-0.001)"/>
                <g>
                  <path class="634efdee-cad7-432d-b096-f92417e1dfd4" d="M241.89,158.58v-36h70.78v36Zm55.5-6.46a10.089,10.089,0,0,1,9.23-9.08v-4.8a10.08,10.08,0,0,1-9.16-9.15H257.25a10.091,10.091,0,0,1-9.06,9.07v4.41a10.089,10.089,0,0,1,9.18,9.55Z" transform="translate(-0.001)"/>
                  <path class="d1118298-9d7a-4f21-99d4-f11913d2ef08" d="M311.24,124.06v33.09H243.32V124.06h67.92m-12.36,3.6h-43v.48a8.63,8.63,0,0,1-8.63,8.63h-.47V144h.55a8.63,8.63,0,0,1,8.63,8.63h0a7.771,7.771,0,0,1-.05,1h42.9v-.48a8.63,8.63,0,0,1,8.63-8.63h.64v-7.64h-.56a8.63,8.63,0,0,1-8.63-8.63h0v-.56m15.23-6.46H240.46V160h73.65V121.2Zm-55.63,9.32h37.75a11.521,11.521,0,0,0,8.95,9v2.31a11.531,11.531,0,0,0-9,8.9H258.65a11.519,11.519,0,0,0-9-9.36v-2a11.531,11.531,0,0,0,8.86-8.86Z" transform="translate(-0.001)"/>
                </g>
                <circle class="634efdee-cad7-432d-b096-f92417e1dfd4" cx="278.319" cy="141.16" r="8.63"/>
              </g>
            </g>
            <g id="98900ca6-5d40-44fb-954f-458f488f6bdd" data-name=" Group 3">
              <g>
                <path class="94f38ebc-788c-420f-a87c-85e0c644fe77" d="M29.2,169h43v.56a8.63,8.63,0,0,0,8.63,8.63h.55v7.63h-.63a8.63,8.63,0,0,0-8.63,8.63h0v.48H29.24c0-.32.05-.64.05-1a8.63,8.63,0,0,0-8.63-8.63H20.1v-7.23h.48a8.63,8.63,0,0,0,8.63-8.63h0C29.21,169.28,29.21,169.12,29.2,169Zm22.47,4.88a6.1,6.1,0,1,0,.04-.04h-.04Z" transform="translate(-0.001)"/>
                <g>
                  <path class="634efdee-cad7-432d-b096-f92417e1dfd4" d="M15.23,199.88V163.94H86v35.94Zm55.51-6.46A10.07,10.07,0,0,1,80,184.35v-4.8a10.079,10.079,0,0,1-9.15-9.15H30.6a10.08,10.08,0,0,1-9.07,9.06v4.41a10.08,10.08,0,0,1,9.18,9.55Z" transform="translate(-0.001)"/>
                  <path class="d1118298-9d7a-4f21-99d4-f11913d2ef08" d="M84.59,165.37v33.08H16.67V165.37H84.59M72.22,169h-43v.48a8.63,8.63,0,0,1-8.63,8.63H20.1v7.23h.56a8.63,8.63,0,0,1,8.63,8.63h0a6.972,6.972,0,0,1-.05,1h42.9v-.48a8.63,8.63,0,0,1,8.63-8.63h.63v-7.63h-.55a8.63,8.63,0,0,1-8.64-8.62v-.57m15.23-6.45H13.8v38.8H87.45v-38.8Zm-55.62,9.32H69.57a11.55,11.55,0,0,0,9,9v2.31a11.541,11.541,0,0,0-9,8.89H32a11.52,11.52,0,0,0-9-9.35v-1.95a11.54,11.54,0,0,0,8.86-8.86Z" transform="translate(-0.001)"/>
                </g>
                <circle class="634efdee-cad7-432d-b096-f92417e1dfd4" cx="51.669" cy="182.47" r="8.63"/>
              </g>
            </g>
            <g id="41e7b307-696a-4596-b3a1-1fc712d82a54" data-name=" Group 10">
              <g>
                <path class="94f38ebc-788c-420f-a87c-85e0c644fe77" d="M104.75,169.27h43v.56a8.63,8.63,0,0,0,8.63,8.63h.56v7.63h-.64a8.63,8.63,0,0,0-8.63,8.63h0v.48h-42.9v-1a8.63,8.63,0,0,0-8.63-8.63h-.56v-7.23h.48a8.63,8.63,0,0,0,8.63-8.63h0A.79.79,0,0,0,104.75,169.27Zm22.47,4.87a8.63,8.63,0,1,0,8.63,8.63,8.63,8.63,0,0,0-8.63-8.63Z" transform="translate(-0.001)"/>
                <g>
                  <path class="634efdee-cad7-432d-b096-f92417e1dfd4" d="M90.79,200.19V164.24h70.78v35.95Zm55.5-6.46a10.08,10.08,0,0,1,9.22-9.08v-4.8a10.079,10.079,0,0,1-9.15-9.15H106.15a10.07,10.07,0,0,1-9.07,9.06v4.41a10.08,10.08,0,0,1,9.18,9.56Z" transform="translate(-0.001)"/>
                  <path class="d1118298-9d7a-4f21-99d4-f11913d2ef08" d="M160.14,165.67v33.08H92.22V165.67h67.92m-12.37,3.6h-43v.48a8.63,8.63,0,0,1-8.63,8.63h-.48v7.23h.56a8.63,8.63,0,0,1,8.63,8.63h0v1h42.9v-.48a8.63,8.63,0,0,1,8.63-8.63h.64V178.5h-.56a8.63,8.63,0,0,1-8.63-8.63h0v-.56m15.17-6.5H89.35v38.81H163Zm-55.62,9.32h37.74a11.55,11.55,0,0,0,9,9v2.31a11.531,11.531,0,0,0-9,8.9H107.55a11.509,11.509,0,0,0-9-9.36V181a11.531,11.531,0,0,0,8.86-8.86Z" transform="translate(-0.001)"/>
                </g>
                <circle class="634efdee-cad7-432d-b096-f92417e1dfd4" cx="127.219" cy="182.77" r="8.63"/>
              </g>
            </g>
            <g id="9b2cf5de-55cb-48b3-a2a4-ff0ebc9de76c" data-name=" Group 17">
              <g>
                <path class="94f38ebc-788c-420f-a87c-85e0c644fe77" d="M180.3,168.66h43v.56a8.63,8.63,0,0,0,8.63,8.63h.56v7.64h-.64a8.63,8.63,0,0,0-8.63,8.63h0v.48h-42.9v-1a8.63,8.63,0,0,0-8.63-8.63h-.56v-7.22h.48a8.63,8.63,0,0,0,8.63-8.63h0A.863.863,0,0,0,180.3,168.66Zm22.47,4.88a8.63,8.63,0,1,0,8.63,8.63,8.63,8.63,0,0,0-8.63-8.63Z" transform="translate(-0.001)"/>
                <g>
                  <path class="634efdee-cad7-432d-b096-f92417e1dfd4" d="M166.34,199.58v-36h70.78v36Zm55.5-6.46a10.08,10.08,0,0,1,9.22-9.08v-4.79a10.08,10.08,0,0,1-9.15-9.16H181.7a10.08,10.08,0,0,1-9.06,9.07v4.41a10.069,10.069,0,0,1,9.17,9.55Z" transform="translate(-0.001)"/>
                  <path class="d1118298-9d7a-4f21-99d4-f11913d2ef08" d="M235.69,165.07v33.08H167.77V165.07h67.92m-12.36,3.59h-43v.48a8.63,8.63,0,0,1-8.63,8.63h-.48V185h.56a8.63,8.63,0,0,1,8.63,8.63h0v1h42.9v-.48a8.63,8.63,0,0,1,8.63-8.63h.64v-7.64h-.56a8.63,8.63,0,0,1-8.63-8.63h0v-.56m15.23-6.46H164.91V201h73.65V162.2Zm-55.63,9.33h37.75a11.5,11.5,0,0,0,8.95,8.95v2.32a11.52,11.52,0,0,0-9,8.89H183.1a11.541,11.541,0,0,0-9-9.36v-1.94a11.54,11.54,0,0,0,8.86-8.86Z" transform="translate(-0.001)"/>
                </g>
                <circle class="634efdee-cad7-432d-b096-f92417e1dfd4" cx="202.769" cy="182.17" r="8.63"/>
              </g>
            </g>
            <g id="e1ebc2a3-8d77-4b20-a9be-d6f9684caff5" data-name=" Group 24">
              <g>
                <path class="94f38ebc-788c-420f-a87c-85e0c644fe77" d="M255.85,168.06h43v.56a8.63,8.63,0,0,0,8.63,8.63h.56v7.63h-.64a8.63,8.63,0,0,0-8.63,8.63h0v.48h-42.9a7.771,7.771,0,0,0,.05-1,8.63,8.63,0,0,0-8.63-8.63h-.56v-7.23h.48a8.63,8.63,0,0,0,8.63-8.63h0A2.086,2.086,0,0,0,255.85,168.06Zm22.47,4.87a8.63,8.63,0,1,0,8.63,8.63,8.63,8.63,0,0,0-8.63-8.63Z" transform="translate(-0.001)"/>
                <g>
                  <path class="634efdee-cad7-432d-b096-f92417e1dfd4" d="M241.89,199V163h70.78v36Zm55.5-6.46a10.079,10.079,0,0,1,9.23-9.08v-4.8a10.08,10.08,0,0,1-9.16-9.15H257.25a10.068,10.068,0,0,1-9.06,9.06V183a10.089,10.089,0,0,1,9.18,9.55Z" transform="translate(-0.001)"/>
                  <path class="d1118298-9d7a-4f21-99d4-f11913d2ef08" d="M311.24,164.46v33.09H243.32V164.46h67.92m-12.36,3.6h-43v.48a8.63,8.63,0,0,1-8.63,8.63h-.47v7.23h.55a8.63,8.63,0,0,1,8.63,8.63h0a7.771,7.771,0,0,1-.05,1h42.9v-.48a8.63,8.63,0,0,1,8.63-8.63h.64v-7.63h-.56a8.63,8.63,0,0,1-8.63-8.63h0v-.56m15.23-6.46H240.46v38.81h73.65V161.6Zm-55.63,9.32h37.75a11.521,11.521,0,0,0,8.95,9v2.31a11.531,11.531,0,0,0-9,8.9H258.65a11.519,11.519,0,0,0-9-9.36v-1.95a11.531,11.531,0,0,0,8.86-8.86Z" transform="translate(-0.001)"/>
                </g>
                <circle class="634efdee-cad7-432d-b096-f92417e1dfd4" cx="278.319" cy="181.56" r="8.63"/>
              </g>
            </g>

            <g id="06bcd286-a915-4d3c-a6b6-684ffb1a7a04" data-name=" Group 2">
              <g>
                <path class="94f38ebc-788c-420f-a87c-85e0c644fe77" d="M29.2,209.36h43v.56a8.63,8.63,0,0,0,8.63,8.63h.55v7.64h-.63a8.63,8.63,0,0,0-8.63,8.63h0v.48H29.24c0-.32.05-.64.05-1a8.63,8.63,0,0,0-8.63-8.63H20.1v-7.23h.48a8.63,8.63,0,0,0,8.63-8.63h0C29.21,209.68,29.21,209.52,29.2,209.36Zm22.47,4.88a8.63,8.63,0,1,0,8.63,8.63,8.63,8.63,0,0,0-8.63-8.63Z" transform="translate(-0.001)"/>
                <g>
                  <path class="634efdee-cad7-432d-b096-f92417e1dfd4" d="M15.23,240.28V204.34H86v35.94Zm55.51-6.46A10.081,10.081,0,0,1,80,224.74V220a10.079,10.079,0,0,1-9.15-9.15H30.6a10.08,10.08,0,0,1-9.07,9.06v4.41a10.08,10.08,0,0,1,9.18,9.55Z" transform="translate(-0.001)"/>
                  <path class="d1118298-9d7a-4f21-99d4-f11913d2ef08" d="M84.59,205.77v33.08H16.67V205.77H84.59m-12.37,3.59h-43v.48a8.63,8.63,0,0,1-8.63,8.63H20.1v7.23h.56a8.63,8.63,0,0,1,8.63,8.63h0a6.972,6.972,0,0,1-.05,1h42.9v-.48a8.63,8.63,0,0,1,8.63-8.63h.63v-7.64h-.55a8.63,8.63,0,0,1-8.64-8.62v-.57m15.23-6.45H13.8v38.8H87.45v-38.8Zm-55.62,9.32H69.57a11.55,11.55,0,0,0,9,9v2.31a11.541,11.541,0,0,0-9,8.89H32A11.521,11.521,0,0,0,23,223v-1.95a11.54,11.54,0,0,0,8.86-8.86Z" transform="translate(-0.001)"/>
                </g>
                <circle class="634efdee-cad7-432d-b096-f92417e1dfd4" cx="51.669" cy="222.87" r="8.63"/>
              </g>
            </g>
            <g id="2b1b65f3-2962-4be8-9ab0-7ab8531a3f25" data-name=" Group 9">
              <g>
                <path class="94f38ebc-788c-420f-a87c-85e0c644fe77" d="M104.75,209.67h43v.56a8.63,8.63,0,0,0,8.63,8.63h.56v7.63h-.64a8.63,8.63,0,0,0-8.63,8.63h0v.48h-42.9v-1a8.63,8.63,0,0,0-8.56-8.6h-.56v-7.23h.48a8.63,8.63,0,0,0,8.63-8.63h0C104.76,210,104.76,209.83,104.75,209.67Zm22.47,4.87a8.63,8.63,0,1,0,8.63,8.63,8.63,8.63,0,0,0-8.63-8.63Z" transform="translate(-0.001)"/>
                <g>
                  <path class="634efdee-cad7-432d-b096-f92417e1dfd4" d="M90.79,240.58V204.64h70.78v35.94Zm55.5-6.45a10.08,10.08,0,0,1,9.22-9.08v-4.8a10.079,10.079,0,0,1-9.15-9.15H106.15a10.07,10.07,0,0,1-9.07,9.06v4.41a10.08,10.08,0,0,1,9.18,9.56Z" transform="translate(-0.001)"/>
                  <path class="d1118298-9d7a-4f21-99d4-f11913d2ef08" d="M160.14,206.07v33.08H92.22V206.07h67.92m-12.37,3.6h-43v.48a8.63,8.63,0,0,1-8.63,8.63h-.48V226h.56a8.63,8.63,0,0,1,8.63,8.63h0v1h42.9v-.48a8.63,8.63,0,0,1,8.63-8.63h.64v-7.63h-.56a8.63,8.63,0,0,1-8.63-8.63h0v-.56M163,203.21H89.35V242H163Zm-55.62,9.32h37.74a11.55,11.55,0,0,0,9,9v2.31a11.541,11.541,0,0,0-9,8.89H107.55a11.52,11.52,0,0,0-9-9.35v-2a11.531,11.531,0,0,0,8.86-8.86Z" transform="translate(-0.001)"/>
                </g>
                <circle class="634efdee-cad7-432d-b096-f92417e1dfd4" cx="127.219" cy="223.17" r="8.63"/>
              </g>
            </g>
            <g id="6ab1cfdb-4127-419f-97bd-e6d6f4fc7e0e" data-name=" Group 16">
              <g>
                <path class="94f38ebc-788c-420f-a87c-85e0c644fe77" d="M180.3,209.06h43v.56a8.63,8.63,0,0,0,8.63,8.63h.56v7.64h-.64a8.63,8.63,0,0,0-8.63,8.63h0V235h-42.9v-1a8.63,8.63,0,0,0-8.63-8.63h-.56v-7.22h.48a8.63,8.63,0,0,0,8.63-8.63h0A.891.891,0,0,0,180.3,209.06Zm22.47,4.88a8.63,8.63,0,1,0,8.63,8.63,8.63,8.63,0,0,0-8.63-8.63Z" transform="translate(-0.001)"/>
                <g>
                  <path class="634efdee-cad7-432d-b096-f92417e1dfd4" d="M166.34,240V204h70.78v36Zm55.5-6.46a10.08,10.08,0,0,1,9.22-9.08v-4.79a10.08,10.08,0,0,1-9.15-9.16H181.7a10.08,10.08,0,0,1-9.06,9.07V224a10.069,10.069,0,0,1,9.17,9.55Z" transform="translate(-0.001)"/>
                  <path class="d1118298-9d7a-4f21-99d4-f11913d2ef08" d="M235.69,205.47v33.08H167.77V205.47h67.92m-12.36,3.59h-43v.48a8.63,8.63,0,0,1-8.63,8.63h-.48v7.22h.56a8.63,8.63,0,0,1,8.63,8.63h0v1h42.9v-.48a8.63,8.63,0,0,1,8.63-8.63h.64v-7.64h-.56a8.63,8.63,0,0,1-8.63-8.63h0v-.56m15.23-6.46H164.91v38.81h73.65V202.6Zm-55.63,9.32h37.75a11.5,11.5,0,0,0,8.95,9v2.32a11.52,11.52,0,0,0-9,8.89H183.1a11.541,11.541,0,0,0-9-9.36v-1.94a11.541,11.541,0,0,0,8.86-8.87Z" transform="translate(-0.001)"/>
                </g>
                <circle class="634efdee-cad7-432d-b096-f92417e1dfd4" cx="202.769" cy="222.57" r="8.63"/>
              </g>
            </g>
            <g id="bd9d8cef-1bc3-4d7c-8ee2-52fa0f26ab93" data-name=" Group 23">
              <g>
                <path class="94f38ebc-788c-420f-a87c-85e0c644fe77" d="M255.85,208.46h43v.56a8.63,8.63,0,0,0,8.63,8.63h.56v7.63h-.64a8.63,8.63,0,0,0-8.63,8.63h0v.48h-42.9a7.771,7.771,0,0,0,.05-1,8.63,8.63,0,0,0-8.63-8.63h-.56v-7.23h.48a8.63,8.63,0,0,0,8.63-8.63h0A2.086,2.086,0,0,0,255.85,208.46Zm22.47,4.87a8.635,8.635,0,1,0,.09,0Z" transform="translate(-0.001)"/>
                <g>
                  <path class="634efdee-cad7-432d-b096-f92417e1dfd4" d="M241.89,239.38V203.43h70.78v35.95Zm55.5-6.46a10.079,10.079,0,0,1,9.23-9.08V219a10.08,10.08,0,0,1-9.16-9.15H257.25a10.068,10.068,0,0,1-9.06,9.06v4.42a10.089,10.089,0,0,1,9.18,9.55Z" transform="translate(-0.001)"/>
                  <path class="d1118298-9d7a-4f21-99d4-f11913d2ef08" d="M311.24,204.86v33.08H243.32V204.86h67.92m-12.36,3.6h-43v.48a8.63,8.63,0,0,1-8.63,8.63h-.47v7.23h.55a8.63,8.63,0,0,1,8.63,8.63h0a7.771,7.771,0,0,1-.05,1h42.9v-.48a8.63,8.63,0,0,1,8.63-8.63h.64v-7.63h-.56a8.63,8.63,0,0,1-8.63-8.63h0v-.56m15.22-6.5H240.46v38.81h73.65V202Zm-55.63,9.32h37.75a11.521,11.521,0,0,0,8.95,9v2.31a11.531,11.531,0,0,0-9,8.9H258.65a11.509,11.509,0,0,0-9-9.36v-1.95a11.531,11.531,0,0,0,8.86-8.86Z" transform="translate(-0.001)"/>
                </g>
                <circle class="634efdee-cad7-432d-b096-f92417e1dfd4" cx="278.319" cy="221.96" r="8.63"/>
              </g>
            </g>

            <g id="508c793a-d730-405b-a3e3-ce988b5d674f" data-name=" Group ">
              <g>
                <path class="94f38ebc-788c-420f-a87c-85e0c644fe77" d="M29.2,249.76h43v.56A8.63,8.63,0,0,0,80.78,259h.61v7.64h-.63a8.63,8.63,0,0,0-8.63,8.63h0v.48H29.24c0-.32.05-.64.05-1a8.63,8.63,0,0,0-8.63-8.63H20.1v-7.23h.48a8.63,8.63,0,0,0,8.63-8.63h0C29.21,250.08,29.21,249.92,29.2,249.76Zm22.47,4.88a8.63,8.63,0,1,0,8.63,8.63h0A8.63,8.63,0,0,0,51.67,254.64Z" transform="translate(-0.001)"/>
                <g>
                  <path class="634efdee-cad7-432d-b096-f92417e1dfd4" d="M15.23,280.68V244.74H86v35.94Zm55.51-6.46A10.07,10.07,0,0,1,80,265.15v-4.8a10.079,10.079,0,0,1-9.15-9.15H30.6a10.08,10.08,0,0,1-9.07,9.06v4.41a10.08,10.08,0,0,1,9.18,9.55Z" transform="translate(-0.001)"/>
                  <path class="d1118298-9d7a-4f21-99d4-f11913d2ef08" d="M84.59,246.17v33.08H16.67V246.17H84.59m-12.37,3.59h-43v.48a8.63,8.63,0,0,1-8.63,8.63H20.1v7.23h.56a8.63,8.63,0,0,1,8.63,8.63h0a6.972,6.972,0,0,1-.05,1h42.9v-.48a8.63,8.63,0,0,1,8.63-8.63h.63v-7.64h-.55a8.63,8.63,0,0,1-8.64-8.62v-.57m15.23-6.45H13.8v38.8H87.45v-38.8Zm-55.62,9.32H69.57a11.521,11.521,0,0,0,9,8.95v2.32a11.52,11.52,0,0,0-9,8.89H32a11.55,11.55,0,0,0-9-9.36v-1.94a11.54,11.54,0,0,0,8.86-8.86Z" transform="translate(-0.001)"/>
                </g>
                <circle class="634efdee-cad7-432d-b096-f92417e1dfd4" cx="51.669" cy="263.27" r="8.63"/>
              </g>
            </g>
            <g id="bf3a82a4-19c5-4431-91cb-96e695449b55" data-name=" Group 8">
              <g>
                <path class="94f38ebc-788c-420f-a87c-85e0c644fe77" d="M104.75,250.07h43v.56a8.63,8.63,0,0,0,8.63,8.63h.56v7.63h-.64a8.63,8.63,0,0,0-8.63,8.63h0V276h-42.9v-1a8.63,8.63,0,0,0-8.63-8.63h-.56v-7.23h.48a8.63,8.63,0,0,0,8.63-8.63h0A.79.79,0,0,0,104.75,250.07Zm22.47,4.87a8.63,8.63,0,1,0,8.63,8.63,8.63,8.63,0,0,0-8.63-8.63Z" transform="translate(-0.001)"/>
                <g>
                  <path class="634efdee-cad7-432d-b096-f92417e1dfd4" d="M90.79,281V245h70.78v36Zm55.5-6.46a10.08,10.08,0,0,1,9.22-9.08v-4.8a10.079,10.079,0,0,1-9.15-9.15H106.15a10.07,10.07,0,0,1-9.07,9.06V265a10.08,10.08,0,0,1,9.18,9.56Z" transform="translate(-0.001)"/>
                  <path class="d1118298-9d7a-4f21-99d4-f11913d2ef08" d="M160.14,246.47v33.08H92.22V246.47h67.92m-12.37,3.6h-43v.48a8.63,8.63,0,0,1-8.63,8.63h-.48v7.23h.56a8.63,8.63,0,0,1,8.63,8.63h0v1h42.9v-.48a8.63,8.63,0,0,1,8.63-8.63h.64V259.3h-.56a8.63,8.63,0,0,1-8.63-8.63h0v-.56m15.17-6.5H89.35v38.81H163Zm-55.62,9.32h37.74a11.55,11.55,0,0,0,9,9v2.31a11.541,11.541,0,0,0-9,8.89H107.55a11.509,11.509,0,0,0-9-9.35v-1.95a11.531,11.531,0,0,0,8.86-8.86Z" transform="translate(-0.001)"/>
                </g>
                <circle class="634efdee-cad7-432d-b096-f92417e1dfd4" cx="127.219" cy="263.57" r="8.63"/>
              </g>
            </g>
            <g id="c18bddea-1ce5-4d44-9d2b-8e74d6d31d93" data-name=" Group 15">
              <g>
                <path class="94f38ebc-788c-420f-a87c-85e0c644fe77" d="M180.3,249.46h43v.56a8.63,8.63,0,0,0,8.63,8.63h.56v7.64h-.64a8.63,8.63,0,0,0-8.63,8.63h0v.48h-42.9v-1a8.63,8.63,0,0,0-8.63-8.63h-.56v-7.22h.48a8.63,8.63,0,0,0,8.63-8.63h0A.891.891,0,0,0,180.3,249.46Zm22.47,4.88a8.615,8.615,0,1,0,.03,0Z" transform="translate(-0.001)"/>
                <g>
                  <path class="634efdee-cad7-432d-b096-f92417e1dfd4" d="M166.34,280.38V244.43h70.78v35.95Zm55.5-6.46a10.08,10.08,0,0,1,9.22-9.08V260a10.07,10.07,0,0,1-9.15-9.15H181.7a10.08,10.08,0,0,1-9.06,9.07v4.41a10.069,10.069,0,0,1,9.17,9.55Z" transform="translate(-0.001)"/>
                  <path class="d1118298-9d7a-4f21-99d4-f11913d2ef08" d="M235.69,245.87V279H167.77V245.87h67.92m-12.36,3.59h-43v.48a8.63,8.63,0,0,1-8.63,8.63h-.48v7.22h.56a8.63,8.63,0,0,1,8.63,8.63h0v1h42.9v-.48a8.63,8.63,0,0,1,8.63-8.63h.64v-7.64h-.56a8.63,8.63,0,0,1-8.63-8.63h0v-.56M238.56,243H164.91v38.81h73.65Zm-55.63,9.32h37.75a11.51,11.51,0,0,0,8.95,9v2.32a11.52,11.52,0,0,0-9,8.89H183.1a11.541,11.541,0,0,0-9-9.36v-1.94a11.541,11.541,0,0,0,8.86-8.87Z" transform="translate(-0.001)"/>
                </g>
                <circle class="634efdee-cad7-432d-b096-f92417e1dfd4" cx="202.769" cy="262.97" r="8.63"/>
              </g>
            </g>
            <g id="11f0ebea-9710-45aa-97be-26b28c6d7236" data-name=" Group 22">
              <g>
                <path class="94f38ebc-788c-420f-a87c-85e0c644fe77" d="M255.85,248.86h43v.56a8.63,8.63,0,0,0,8.63,8.63h.56v7.63h-.64a8.63,8.63,0,0,0-8.63,8.63h0v.48h-42.9a7.771,7.771,0,0,0,.05-1,8.63,8.63,0,0,0-8.63-8.63h-.56V258h.48a8.63,8.63,0,0,0,8.63-8.63h0A2.978,2.978,0,0,0,255.85,248.86Zm22.47,4.87a8.63,8.63,0,1,0,8.63,8.63h0A8.63,8.63,0,0,0,278.32,253.73Z" transform="translate(-0.001)"/>
                <g>
                  <path class="634efdee-cad7-432d-b096-f92417e1dfd4" d="M241.89,279.78V243.83h70.78v35.95Zm55.5-6.46a10.079,10.079,0,0,1,9.23-9.08v-4.8a10.08,10.08,0,0,1-9.16-9.15H257.25a10.068,10.068,0,0,1-9.06,9.06v4.41a10.1,10.1,0,0,1,9.18,9.56Z" transform="translate(-0.001)"/>
                  <path class="d1118298-9d7a-4f21-99d4-f11913d2ef08" d="M311.24,245.26v33.08H243.32V245.26h67.92m-12.36,3.6h-43v.48a8.63,8.63,0,0,1-8.63,8.63h-.47v7.23h.55a8.63,8.63,0,0,1,8.63,8.63h0a7.771,7.771,0,0,1-.05,1h42.9v-.48a8.63,8.63,0,0,1,8.63-8.63h.64V258h-.56a8.63,8.63,0,0,1-8.63-8.63h0v-.56m15.23-6.46H240.46v38.81h73.65V242.4Zm-55.63,9.32h37.75a11.521,11.521,0,0,0,8.95,9V263a11.531,11.531,0,0,0-9,8.9H258.65a11.509,11.509,0,0,0-9-9.36v-1.95a11.531,11.531,0,0,0,8.86-8.86Z" transform="translate(-0.001)"/>
                </g>
                <circle class="634efdee-cad7-432d-b096-f92417e1dfd4" cx="278.319" cy="262.36" r="8.63"/>
              </g>
            </g>
          </g>
        </g>

      </g>
    </g>
  </g>
</svg>
