<svg id="e2f12311-dc19-4116-b469-e9c1bac8c287" data-name="Layer 1" xmlns="http://www.w3.org/2000/svg" viewBox="0 0 614.203 365.016">
  <defs>
    <style>
      .bf204559-1819-45ba-b29c-a17edd10f88f {
        fill: #2390d0;
      }

      .\39 140805b-7544-44a7-9fb6-5785bbeace05 {
        fill: #0072bc;
        opacity: 0.15;
        isolation: isolate;
      }

      .\32 ab1d441-08ac-4dfc-b9f2-9a45daf7f78e {
        fill: #fff;
      }
    </style>
  </defs>
  <title>placebrick</title>
  <g id="74ea3292-c373-4427-84fc-1cafab20ab79" data-name="Layer 2">
    <g id="d1958607-69f5-4713-982b-58f755a65c48" data-name=" 1954">
      <g class="sixpanels">
        <ellipse class="9140805b-7544-44a7-9fb6-5785bbeace05" cx="235" cy="336.216" rx="235" ry="28.8"/>
        <path class="2ab1d441-08ac-4dfc-b9f2-9a45daf7f78e" d="M348.8,129.5h-.5l-3.8.6h-.2l-.7.1.4,2.6,4.1-.7.1.2,2.4-1.2h0c0-.1-.1-.2-.1-.3h0l-.1-.2h0a.349.349,0,0,0-.1-.2h0l-.1-.2-1.2.8h0v-1.5Zm-10.4,1.6-3.8.6h-.8l-.5.1.4,2.6,5.2-.8-.4-2.6Zm-10.3,1.8-3.1.5h-.4l-.5.1h-.5l-.6.1.4,2.6,5.2-.9-.4-2.6Zm-10.4,1.7-1,.2h-.3l-3.4.6h-.4l.4,2.7,5.2-.9-.5-2.6Zm-10.3,1.7-.8.1h-1.5l-2.9.4.4,2.6c1.7-.3,3.5-.5,5.2-.8l-.4-2.6Zm-10.3,1.6-2,.3h-.3l-1.2.2h-.3l-1.2.2H292l.4,2.6,1.4-.2,3.7-.6-.4-2.5Zm-10.4,1.8-2,.4h0l-1.6.3h-.4l-1.1.2.5,2.6,4.3-.8.9-.2-.6-2.5Zm-10.3,1.7-.7.1h-.8c-1.2.2-2.5.4-3.7.5l.4,2.6c1.8-.3,3.5-.5,5.2-.8l-.4-2.6Zm-10.3,1.9-.2.2h0l-.1.1h0l-.1.3h0v.1h0v.1h0v.1h0v.1h0l-.1.2h0v.1h0v.1h-.8v.1H264l2.3,1.3a24.818,24.818,0,0,0,2-4.4v-.1h0l-.6-.3-1.5-1.3Zm-5.4,8.9a20.113,20.113,0,0,1-2.8,2.3h-.1a1.756,1.756,0,0,0-.5.4h0l-.2.2h0a.758.758,0,0,0-.2.4l1.5.5.7.8h0l.3-.2a20.194,20.194,0,0,0,3.2-2.6l-1.9-1.8Zm-3.8,8.7c0,1.5-.1,3.1-.1,4.6h0v.6l2.6.1v-.1c.1-1.7.1-3.4.2-5.2Zm-.3,10.5v1.5h0v.1h0v.1h0v.4h0l-.1,3.1h2.6c0-1.7.1-3.5.1-5.2Zm-.2,10.4V187H259v-5.3l-2.6.1Zm-.1,10.5v2.5h0v1.4h0v1.3l2.6.1c0-1.8.1-3.5.1-5.3Zm-.2,10.5v2.9h0v.2h0v.1h0v.1h0v.6h0v.2h0v1.2h2.6v-5.2l-2.6-.1Zm-.1,10.5v1.5h0v3h0v.6h2.6v-5.3l-2.6.2Zm-.1,10.5c0,1.2-.1,2.5-.1,3.7h0v.3h0a.749.749,0,0,0,.1.5h.1a.758.758,0,0,0,.2.4l1.7-1.1.6-.1h0v-.2c0-1.2.1-2.5.1-3.7l-2.6-.1Zm6.2,6.4-1.8,1.9.1.1h0v.1h.6l.1.1h0l.1.1h0l.1.1h0l.1.1h0l.1.1h0l.1.1h0l.1.1h0l.1.1h0l.1.1h0v.1h0v.1h0v.1h0l.1.1h0l.2.3h0l.1.1h0a12.9,12.9,0,0,1,.9,1.6l2.3-1.2a17.242,17.242,0,0,0-3.6-4.9Zm4.5,7.1v2.6h0Zm0,0v2.6h0Zm5.2,0h-5.2v2.6h5.2Zm10.5,0h-5.2v2.6h5.2v-2.6Zm8.3,0h-3v2.6h5.2v-2.6Zm7.5,0v2.6h5.2v-2.6Zm10.4,0v2.6h5.2v-2.6Zm10.5,0v2.6h5.2v-2.6Zm10.5,0v2.6h5.2v-2.6Zm10.5,0v2.6h5.2v-2.6Zm10.1-6.4a21.151,21.151,0,0,0-3.5,4.8L349,237h0a21.933,21.933,0,0,1,2.9-3.9l-1.9-1.8Zm7-5.3-.1.1c-.8.4-1.6.9-2.4,1.4l1.5,2.2.7-.4h.2c.4-.2.7-.4,1.1-.6h.1l.3-.1h0l.1-.1-1.1-1.5h0l1.8.2v-.1h0v-.5H357l-.1-.2Zm.5.7,1.1,1.5.1-.1h.2a3.552,3.552,0,0,0,.4-.9l-1.8-.2Zm-.6-10.9-.1,5.2h2.6v-5.2Zm.2-10.5-.1,5.2h2.6c0-1.2,0-2.4.1-3.7v-1.6h-2.6Zm.2-10.5-.1,5.3h2.6c0-1.6,0-3.2.1-4.8v-.4l-2.6-.1Zm.1-10.5-.1,5.2H360v-1.2c0-1.2,0-2.4.1-3.6h0v-.4Zm.2-10.5-.1,5.3,2.6.1v-5.3l-2.5-.1ZM358,163l-.1,5.2h2.6v-2.5a24.369,24.369,0,0,1,.1-2.7Zm.2-10.5-.1,5.2,2.6.1v-.4c0-1.6.1-3.2.1-4.9Zm.2-10.5-.1,5.2,2.6.1.1-5.2Zm-4.8-6.4-1.9,1.9a19.024,19.024,0,0,0,4.9,3.5l1.2-2.4H357a10.382,10.382,0,0,1-1.7-1.2h-.7Zm-4.8-6.1V131l1.2-.8a1.445,1.445,0,0,0-1-.7Z" transform="translate(0 0.016)"/>
        <path class="2ab1d441-08ac-4dfc-b9f2-9a45daf7f78e" d="M327.7,12.1h-.3a40.454,40.454,0,0,0-4.9.4l.4,2.6a38.838,38.838,0,0,1,4.8-.4Zm-10.3,1.5a41.616,41.616,0,0,0-5,1.6l.9,2.5q2.7-.9,4.8-1.5l-.7-2.6Zm-10,3.3-2.7,1h-.6l-1.3.5.9,2.5,4.9-1.8-.9-2.5Zm-9.9,3.5-3.4,1.2-1.5.5.9,2.5,5-1.8Zm-9.8,3.5h-.1l-1,.3h-.5l-3.4,1.2.9,2.5,4.9-1.7-.9-2.5Zm-9.9,3.5-5,1.7.9,2.5,5-1.7Zm-9.9,3.5h0l-.2.1h-.1l-.1.1h-.1a2.092,2.092,0,0,0-.4.6h0l-.1.3h0a25.571,25.571,0,0,1-1.1,2.4h0v.1h0l-.1.1h0l2.3,1.2q.75-1.5,1.5-3.3l.1-.2h0l-.1-.1-1.2-2.1Zm-5.5,8.8a34.463,34.463,0,0,1-2.6,2.8h-.7l1.6,2a25.221,25.221,0,0,0,4-4l-2.1-1.6Zm-4.3,8.8v5.3h2.6l.1-5.2-2.7-.1ZM258,59c0,1.8,0,3.5-.1,5.2h2.6l.1-5.2Zm-.2,10.5v1.4l-.1,3.9h2.6l.1-5.2h-2.6ZM257.6,80v5.3h2.6l.1-5.2h-2.7Zm2.2,10.1h-2.6v5.3h2.6V90.1Zm-2.6,10.5v5.2h2.6v-5.2Zm0,10.5v5.2h2.6V111Zm1.8,9.6-.2.9-1.6.1v.4h0a1.135,1.135,0,0,0,.3.8h.3a.349.349,0,0,1,.2.1h.7a6.117,6.117,0,0,1,1.2.5h0l.1.1h.4a2.092,2.092,0,0,1,.6.4l1.5-2.2a9.929,9.929,0,0,0-3.6-1.7Zm9.9,5.6-2.3.4h-.4v.6l-1.7,1v.1h0a1.205,1.205,0,0,0,.5.5h.1c.2.1.5.2.7.3h.3v-1.9h0v1.9a2.769,2.769,0,0,0,.9-.1h.2l1.3-.3h.1l.7-.1-.5-2.6Zm10.3-2-1.4.3h-.3l-3.5.7.5,2.6,1.1-.2h.1l1.6-.3h.9l.4-.1.7-.1.3-.1-.5-2.6v-.2Zm10.3-1.9-5.1,1,.5,2.6.9-.2,1-.2h.3l3-.6-.6-2.6Zm10.3-1.9-5.2,1,.5,2.6,1.7-.3h.4l2.3-.4.8-.2-.5-2.6Zm10.3-2-5.1,1,.5,2.6,3.2-.6h0l.5-.1h.1l.5-.1h0l.8-.2-.5-2.6Zm10.3-1.9-5.1,1,.5,2.6,5.1-1-.5-2.6Zm10.3-1.9-5.1,1,.5,2.6.9-.2.4-.1h.1l3.5-.7h.3l-.5-2.6h-.1Zm10.4-1.9-5.1,1,.5,2.6,2.6-.5h0l.5-.1h.1l.5-.1h.1l1.4-.3-.6-2.6Zm8.4-1.6a.584.584,0,0,1-.4.1l-2.9.5.5,2.6,1.5-.3h.4l.5-.1h0l.5-.1h.9a1.794,1.794,0,0,0,.7-.5h.2l.1-.1-2-1.6Zm6.9-8.5a25.859,25.859,0,0,0-4,4.1l2,1.6.8-.9h0l.1-.1h0l.1-.1h.2v-.1h0l.1-.1h0l.1-.1h0c.5-.5,1-.9,1.5-1.4h0l.1-.1h.1l-1.7-2Zm2.8-6.8-.1,4.6v.4l2.6.3v-.4h0v-.2h0V96l-2.5-.1Zm.2-10.5-.1,5.2h2.6V85.5h-2.6Zm.2-10.5-.1,5.2h2.6V78.9c0-1.3,0-2.7.1-4Zm.2-10.5-.1,5.2h2.6V68.2c0-1.3,0-2.6.1-3.9l-2.6.1ZM360,54l-.1,5.2h2.6V54Zm2.8-10.4h-2.6v.9l-.1,4.2h2.6V44.5h0v-.3Zm-2.1-10.2-2.4,1a24.438,24.438,0,0,1,1.4,4.6l2.6-.5-.6-2.4h0l-.1-.2h0v-.1h0v-.1h0c0-.1-.1-.1-.1-.2h0a6.943,6.943,0,0,0-.5-1.3Zm-5.4-9-2,1.7a14.309,14.309,0,0,1,1.1,1.5c.6.8,1.2,1.7,1.7,2.5l2.3-1.4a21.956,21.956,0,0,0-1.7-2.5h-.1c-.3-.4-.6-.8-1-1.3h0l-.1-.1Zm-7.8-7-1.4,2.2a27.222,27.222,0,0,1,3.8,2.9l1.8-2-.8-.7H349l-1.2-.8Zm-9.6-4.1-.6,2.5a35.326,35.326,0,0,1,4.6,1.5l1-2.4h-.2a37.127,37.127,0,0,0-4.7-1.6Zm-10.2-1.2h0v2.6h1c1.3.1,2.5.1,3.7.3l.3-2.6-.6-.1h-.5c-.8-.1-1.7-.1-2.5-.2h-1.4Z" transform="translate(0 0.016)"/>
        <path class="2ab1d441-08ac-4dfc-b9f2-9a45daf7f78e" d="M265.4,252.9h-.8a2.068,2.068,0,0,0-1.4,1l-.1.2h0a14,14,0,0,1-1,1.6H262l-.1.1,2.1,1.6a17.611,17.611,0,0,0,1.4-2.3h.1v-.2h0v.2h.3l3.1.1.1-2.6-3.1-.1h-.3v2.4h0l-.2-2Zm-7.4,6.8h-.4l-.8.4h0a2.137,2.137,0,0,0-1.2,1.7h0V263h2.6v-1a14.8,14.8,0,0,0,1.3-.8Zm-2.6,9.3c0,1.8,0,3.5-.1,5.2h2.6V269Zm-.1,10.5v5.2h2.6v-5.2Zm-.1,10.5v2h0v3.3h2.6l.1-5.2-2.7-.1Zm-.1,10.5v5.2h2.6l.1-5.2Zm-.2,10.5v5.3h2.6l.1-5.2-2.7-.1Zm-.1,10.5v.1l-.1,5.1h2.6l.1-5.2Zm-.1,10.5v4.1h0v.1h0v.2h0v.2l2.6-.6v-4.2h-2.6Zm5.8,7-1.9,1.8c.4.4.7.8,1.1,1.2h.2a15.29,15.29,0,0,1,1.7,2.7l2.4-1.2a19.024,19.024,0,0,0-3.5-4.9Zm5.3,7-.6,2.5.7.1,2.2.4h.3l1.9.3.5-2.6-4.5-.8-.5.1Zm10.1,1.8-.5,2.6,5.1.9.5-2.6Zm10.4,1.9-.5,2.6,4.3.8h.3l.6.1.5-2.6a51.585,51.585,0,0,0-5.2-.9Zm10.3,1.9-.5,2.6,2.3.4h.4l2.5.5.5-2.6c-1.8-.3-3.5-.6-5.2-.9Zm10.2,2.1-.5,2.6.5.1h.3a34.69,34.69,0,0,0,4.5.6l.2-2.6c-1.6-.2-3.3-.4-5-.7Zm14.8.5c-1.6.2-3.3.3-4.9.4v2.6a9.7,9.7,0,0,0,1.7-.1h1.7l1.8-.2-.4-2.6Zm9.5-2.5c-.5.2-1.1.4-1.6.6a28.115,28.115,0,0,1-3.1,1l.7,2.5.6-.2h.3a17.233,17.233,0,0,0,2.1-.7h.4l1-.4h.2l.4-.1-1-2.4Zm8.6-4.8a25.654,25.654,0,0,1-4.1,2.6l1.3,2.3,1-.6h.4c1-.6,2-1.3,3-2l-1.6-2.1Zm7.1-6.8-.9,1a30.7,30.7,0,0,1-2.5,2.6l1.8,1.9h0l.1-.1h0l.6-.6h1.3l.1-.1h0l.7-.8-2-1.7Zm5.4-8.2a28.632,28.632,0,0,1-2.4,4.2l2.2,1.5c.1-.2.3-.4.4-.6h.4l.6-1.2-2.4-1.1Zm2.6-9.1a17.863,17.863,0,0,1-.9,4.6l2.5.7h0V328h0c.3-1.2.6-2.4.8-3.5h0a1.7,1.7,0,0,1,.1-.7l-2.6-.2Zm.4-10.3c-.1,1.7-.1,3.5-.2,5.2l2.6.1c.1-1.7.1-3.5.2-5.2Zm.2-10.5-.1,5.2,2.6.1v-.8c0-1.1,0-2.2.1-3.3h0V302Zm.2-10.5-.1,5.2h2.6v-3.5h0v-1.8l-2.5.1Zm.2-10.5v1.7l-.1,3.6h2.6l.1-3.6v-1.6h-2.6Zm.2-10.5-.1,5.3h2.6v-5.3Zm1.9-6.3-1.2,1.5,1.9-.4h0A1.9,1.9,0,0,0,357.9,264.2Zm-3.2-2.1-1.6,2.1a20.452,20.452,0,0,0,3.1,2l.1.1h0l.4-.6h0l1.2-1.5-.1-.1h0l-.3-.2h-.9c-.6-.4-1.2-.8-1.7-1.2Zm-6.9-7.2-.6,2.2,1.6-1.6-.1-.1h-.1a1.234,1.234,0,0,0-.8-.5Zm-.4-.1-.3,2.4-.1.1h0a.349.349,0,0,1,.1.2,15.1,15.1,0,0,0,1.8,2.6l2-1.6-.1-.2h-.3l-.1-.2h-.3c-.1-.2-.3-.4-.4-.6l-1.6,1.6h0l.6-2.2c-.1,0-.3-.1-.4-.1Zm-10.5-.2v2.6l5.2.1v-2.6l-2.6-.1Zm-10.4-.3-.1,2.7,5.2.1.1-2.6h-1.4l-2.8-.1h-1Zm-10.5-.2-.1,2.6,5.2.1.1-2.6-4-.1Zm-10.5-.2-.1,2.6h.8l4.4.1.1-2.6-4.4-.1h-.8Zm-10.5-.3-.1,2.6,3.2.1h2l.1-2.6h-2l-3.2-.1Zm-10.5-.2-.1,2.6,5.2.1.1-2.6-4.2-.1h-1Zm-10.5-.3-.1,2.6,5.3.1.1-2.6-2.1-.1H274Z" transform="translate(0 0.016)"/>
        <path class="bf204559-1819-45ba-b29c-a17edd10f88f" d="M245.2,86.6v36a2.761,2.761,0,0,1-1.4,2.8,19.5,19.5,0,0,0-6.8,8,2.845,2.845,0,0,1-2.4,1.8c-7.9,1.4-15.7,2.8-23.6,4.3-6.2,1.2-12.4,2.4-18.7,3.5-5,.9-10.1,1.8-15.1,2.8a1.351,1.351,0,0,1-1.6-.7V145a8.642,8.642,0,0,0-2.1-2.9c-2.2-1.3-2.4-3.1-2.4-5.4q.3-31.2.4-62.3a5.327,5.327,0,0,1,1.3-3.6,19.831,19.831,0,0,0,3.8-7c.3-1.2,1.2-1.5,2.2-1.8,8.1-2.8,16.2-5.7,24.2-8.5,10.7-3.8,21.3-7.5,32-11.3,1.2-.4,1.9-.4,2.5.9a9.27,9.27,0,0,0,7.3,5.2c.8.1,1,.5,1,1.3v37Z" transform="translate(0 0.016)"/>
        <path class="bf204559-1819-45ba-b29c-a17edd10f88f" d="M205.4,239.6H178.1a2.12,2.12,0,0,1-2.4-1.7,11.72,11.72,0,0,0-4.3-6.2,2.513,2.513,0,0,1-1-2.8c.6-2.4.3-4.9.3-7.4.1-17.6.2-35.3.3-53a4.224,4.224,0,0,1,1.6-3.6,13.863,13.863,0,0,0,3.8-6.5,1.806,1.806,0,0,1,1.6-1.5c5.8-.9,11.5-1.9,17.3-2.8,12.8-2.1,25.6-4.2,38.3-6.3a1.867,1.867,0,0,1,2.3,1.1.349.349,0,0,0,.1.2,12.224,12.224,0,0,0,7.4,7.5c1.3.5,1.4,1.1,1.4,2.3,0,5.3-.2,10.5-.2,15.8,0,11.9-.2,23.7-.3,35.6-.1,5.3-.1,10.7-.1,16a3.036,3.036,0,0,1-1.9,3.1,14.9,14.9,0,0,0-7.1,8.3,2.12,2.12,0,0,1-2.4,1.7c-9,.2-18.2.2-27.4.2Z" transform="translate(0 0.016)"/>
        <path class="bf204559-1819-45ba-b29c-a17edd10f88f" d="M170.6,290.5V258.9a2.96,2.96,0,0,1,1.2-2.6,8.17,8.17,0,0,0,2.9-3.7,2.444,2.444,0,0,1,2.9-1.7c18.2.5,36.3.9,54.5,1.2,2.2,0,3.5.4,4.6,2.6a13.764,13.764,0,0,0,5.9,5.8,2.227,2.227,0,0,1,1.3,2.1c-.1,12.2-.3,24.4-.4,36.6-.1,11.5-.3,23-.4,34.5a1.787,1.787,0,0,1-1.5,2,11.185,11.185,0,0,0-6.8,5.8,1.811,1.811,0,0,1-2.4,1.1L181.1,333c-.4-.1-.9-.1-1.3-.2-2.7-.2-5.1-.7-5.8-4a6.616,6.616,0,0,0-2.1-3.1c-1.6-1.3-1.7-2.9-1.7-4.7.1-10.1,0-20.2,0-30.3Z" transform="translate(0 0.016)"/>
        <path class="bf204559-1819-45ba-b29c-a17edd10f88f" d="M162.2,199.7v28.4a2.35,2.35,0,0,1-1.3,2.4,12.413,12.413,0,0,0-6.1,7.7,1.769,1.769,0,0,1-2,1.4H114.7a1.691,1.691,0,0,1-1.9-1.4v-.1a11.79,11.79,0,0,0-4.5-6.6,1.689,1.689,0,0,1-.8-1.7V178.4a1.731,1.731,0,0,1,.7-1.6,14.609,14.609,0,0,0,4.9-7.9c.3-1,.8-1.2,1.7-1.4,12.8-2.1,25.7-4.2,38.5-6.3,1.3-.2,1.7.4,2,1.4a10.128,10.128,0,0,0,6.4,6.8c1.4.5.9,1.6.9,2.4,0,8.3-.1,16.5-.1,24.8l-.3,3.1Z" transform="translate(0 0.016)"/>
        <path class="bf204559-1819-45ba-b29c-a17edd10f88f" d="M162.6,108.6v29.3c0,1.9-.3,3.2-2.4,4.4s-3.3,3.8-4.3,6.1a3.18,3.18,0,0,1-2.7,2c-10.7,1.9-21.3,4-32,5.9-2.4.4-4.8.8-7.1,1.3a1.553,1.553,0,0,1-2-.9v-.1a7.335,7.335,0,0,0-3.9-4.2c-.8-.3-.8-.9-.8-1.5,0-11.8-.5-23.5.2-35.2.9-13.6,6.3-25.3,17.4-34a13.983,13.983,0,0,1,4.4-2.2c3.8-1.3,7.5-2.7,11.3-4,4.4-1.5,8.8-3,13.1-4.6,1-.3,1.4-.2,1.8.8a7.505,7.505,0,0,0,5.7,4.9c1.3.2,1.4,1,1.4,2-.1,9.9-.1,19.9-.1,30Z" transform="translate(0 0.016)"/>
        <path class="bf204559-1819-45ba-b29c-a17edd10f88f" d="M161.9,289.4v29.2c0,1.6-.4,2.5-2,3a7.875,7.875,0,0,0-4.8,4.8,1.752,1.752,0,0,1-2.1,1.3c-.1,0-.2,0-.2-.1-7.7-1.5-15.4-2.9-23.2-4.3-5.4-1-9.5-4.1-12.9-8.2a39.893,39.893,0,0,1-9.3-25.6c-.1-10.7,0-21.4,0-32.1a2.526,2.526,0,0,1,1.2-2.4,9.122,9.122,0,0,0,3.6-4.6,1.445,1.445,0,0,1,1.8-1.1c11.6.3,23.1.4,34.7.9,1.5.1,3,.1,4.5.1a2.3,2.3,0,0,1,2.5,1.5,12.564,12.564,0,0,0,5.6,6c1.1.5.8,1.4.8,2.1v29.5Z" transform="translate(0 0.016)"/>
      </g>
      <g class="threepanels">
        <path class="bf204559-1819-45ba-b29c-a17edd10f88f" d="M611.8,168.3c-.3,17.5-.5,31.6-.8,45.8a1.961,1.961,0,0,1-1.2,1.9,21.5,21.5,0,0,0-10,10.4,2.418,2.418,0,0,1-2.5,1.5c-26.4-.1-52.7-.1-79.1,0a2.1,2.1,0,0,1-2.3-1.7,15.883,15.883,0,0,0-7.2-8.5,2.214,2.214,0,0,1-1.3-2.3c.3-9.8.1-19.7.4-29.5.2-9.6.1-19.3.4-28.9.1-4.3.4-8.6.1-12.8,0-.8.5-1.1,1-1.5a20.905,20.905,0,0,0,7.9-10.6,1.832,1.832,0,0,1,1.8-1.4q6-.75,12-1.8c4.6-.8,9.2-1.7,13.8-2.4,5.6-.9,11.3-1.7,16.8-2.6,6.9-1.2,13.7-2.3,20.6-3.5,5.8-1,11.7-1.8,17.5-2.9a1.606,1.606,0,0,1,2,1v.1a16.494,16.494,0,0,0,9,8.6,2.471,2.471,0,0,1,1.8,2.8C612.3,143.8,612.1,157.7,611.8,168.3Z" transform="translate(0 0.016)"/>
        <path class="bf204559-1819-45ba-b29c-a17edd10f88f" d="M509.1,74.1l.6-40.8a2.372,2.372,0,0,1,.7-2,27.082,27.082,0,0,0,7.8-11.1,2.767,2.767,0,0,1,1.8-1.7c14.1-4.9,28.3-9.9,42.3-14.9,5.8-2.1,11.7-3.8,18-3.6,11.3.4,20.9,4.5,27.7,13.8a29.974,29.974,0,0,1,6.2,18.6c-.3,18.7-.7,37.3-1,56a2.515,2.515,0,0,1-1,2.3,25.9,25.9,0,0,0-8.8,9.5,3.137,3.137,0,0,1-2.3,1.7l-35.9,6.6c-11.9,2.2-23.8,4.4-35.7,6.7l-10.8,2.1a2.073,2.073,0,0,1-2.6-.9,10.513,10.513,0,0,0-6.3-5.2c-1-.3-1.1-1-1.1-1.9V74.2Z" transform="translate(0 0.016)"/>
        <path class="bf204559-1819-45ba-b29c-a17edd10f88f" d="M557.9,241.8c13.5.3,27,.6,40.6.9a2.35,2.35,0,0,1,2.4,1.3,21.635,21.635,0,0,0,8.1,7.8,2.009,2.009,0,0,1,1.2,2.1c-.4,18.5-.5,37.1-1.2,55.6-.3,8.1-4.2,15.1-9.5,21.1A42.082,42.082,0,0,1,582,342.5c-8.5,3.1-17,3-25.8,1.2-12.8-2.7-25.8-4.9-38.7-7.3-1.8-.3-3-.8-3.8-2.7a18.347,18.347,0,0,0-6.2-7.6,2.526,2.526,0,0,1-1.2-2.4c.3-24.5.6-48.9.8-73.4a2.087,2.087,0,0,1,1.2-2.1,14.968,14.968,0,0,0,6.4-6.3c.6-1.2,1.5-1.3,2.7-1.3C530.9,241.2,544.4,241.5,557.9,241.8Z" transform="translate(0 0.016)"/>
      </g>
    </g>
  </g>
</svg>
