<svg id="6e8e8149-0857-44aa-af53-ad545078460d" data-name="Layer 1" xmlns="http://www.w3.org/2000/svg" xmlns:xlink="http://www.w3.org/1999/xlink" viewBox="0 0 673.84 530.46">
  <defs>
    <style>
      .\30 a561774-6440-4fbd-8779-28b79e94487a, .\37 e8a68f9-e92d-4654-97a9-eb0dca7f9db6 {
        fill: none;
      }

      .\30 a561774-6440-4fbd-8779-28b79e94487a {
        clip-path: url(#e5ec13ab-519e-48bb-bc2f-0372c96e6d4a);
      }

      .e789e15e-cfa8-45de-989f-f90bfffcb2f9 {
        clip-path: url(#1f4e8097-7285-4df9-bf3a-e87b033d271a);
      }

      .b4a7617a-b19b-462a-93a5-e19ed66a4eba {
        fill: #231f20;
      }

      .\37 5f2f5a1-209a-4187-a2a4-83e5aa313b1b {
        fill: #de2910;
      }

      .d740b77e-3483-4702-b99a-5625043f270c {
        fill: #ffde00;
      }

      .\31 8fc5812-d6b1-4b26-95db-576ea90aac01 {
        clip-path: url(#cc04c14f-495a-4653-a54c-6ad61fed6419);
      }

      .\38 138bda8-7b4e-4441-bedd-7cd6dfa42d8a {
        fill: #fff;
      }

      .da728ba6-5380-4e3e-ada6-197ec10100be {
        fill: #bf0a30;
      }

      .dedaf5b8-5676-444b-80bb-e4e1cdb79988 {
        fill: #002868;
      }
    </style>
    <clipPath id="e5ec13ab-519e-48bb-bc2f-0372c96e6d4a">
      <path class="7e8a68f9-e92d-4654-97a9-eb0dca7f9db6" d="M299.67,139.2c.56.31.22.77.3,1.15s.49.7.71,1.07c.1.16.07.4.14.59a.8.8,0,0,0,.26.46c1,.5,1.94,1,2.91,1.44h.19c.52.14,1.06.28,1.58.44s.7.5,1.12.09,1-.86.69-1.62c-.1-.27-.24-.52-.32-.8a4.755,4.755,0,0,1-.42-1.71c.18-1.6,1.3-2.78,2.16-4,.41-.61,1.37-.85,2.06-1.29a38.986,38.986,0,0,0,3.95-2.6,7,7,0,0,1,2.39-1.33,4.571,4.571,0,0,1,3.76.08,2.273,2.273,0,0,0,2.08.22.648.648,0,0,1,.36,0,4.536,4.536,0,0,1,2.33,1,1.949,1.949,0,0,0,2.12.25,5.145,5.145,0,0,0,.85-.55l.14.1-.21.65a1.111,1.111,0,0,0,1.2-.64c.07-.15-.11-.42-.21-.76a1.749,1.749,0,0,1,.55,0c.24.11.42.32.65.45a4.732,4.732,0,0,1,.71.36c.54.49.89.5,1.32,0,.18-.23.19-.33-.09-.52a2.059,2.059,0,0,0-1.49-.51c-.13,0-.3-.22-.45-.34l.27-.32.78-1-.46-1.17-.77,1.24-.46-.33c.4-.46.74-.87,1.1-1.27.08-.09.23-.2.33-.18.72.11,1.47-.52,2.18.06h.29c.54-.25,1.22-.35,1.34-1.12,0-.1.14-.18.22-.28.68.59.75.89.27,1.5a1.44,1.44,0,0,0,.49,0,12.374,12.374,0,0,0,1.46-.45,6,6,0,0,1,3.65-.3,3.371,3.371,0,0,1,2.74,1.86l.72-.27c.39-.15.79-.28,1.17-.45.17-.07.32-.3.46-.29.55.06.65-.24.57-.73h.8a2.889,2.889,0,0,1,2.16,1.38,3,3,0,0,0,1.46,1.16,1.759,1.759,0,0,1,1.32,1.78,13.048,13.048,0,0,0-.2,1.85c0,.7,0,1.49.64,1.81.08.35.06.65.2.76a5.7,5.7,0,0,1,1.67,2.48c.28.7.46.75,1.23.43.16.44.31.87.46,1.3a.678.678,0,0,0,.13.27c.27.31.41.74,1,.61s1.16.76,1.3,1.6c.1.59.43.76,1,.51.22-.1.5-.11.72-.22.47-.23,1.26,0,1.38-.69a20.155,20.155,0,0,0,.16-2.8c0-.39-.09-.78-.1-1.17-.05-1.86-1-3.35-1.88-4.9-.08-.15-.28-.23-.43-.35a1.72,1.72,0,0,1-.45-1.68.82.82,0,0,0-.19-.73,11.852,11.852,0,0,1-3.31-5.07,4.825,4.825,0,0,1-.54-2.87c.27-1.2.13-2.52,1-3.54a.14.14,0,0,0,0-.11c-.13-.57.33-.72.66-1a3.509,3.509,0,0,0,.51-.63c.32-.41.74-.74,1.08-1.15s.69-1,1-1.46a.235.235,0,0,0,.17-.07,1.46,1.46,0,0,0,.9-1.31,2.72,2.72,0,0,1,2.28-2.59c.59,0,.76-.29.86-.8a3.33,3.33,0,0,1,2.8-2.7,1.189,1.189,0,0,0,1-.76A3,3,0,0,1,370,105a.667.667,0,0,0,.26-.24,2.571,2.571,0,0,0-.4-2.37,5.088,5.088,0,0,1-.95-1.27,5.475,5.475,0,0,0-.9-1.72c-.22-.23-.76-.56-.37-1.12a2.618,2.618,0,0,0,.64-2,.625.625,0,0,1,.07-.35,14.752,14.752,0,0,0,.73-1.81,4.425,4.425,0,0,0,0-1.31c0-.24-.18-.51-.11-.71a29.221,29.221,0,0,1,1.17-2.9,3.393,3.393,0,0,0,.49-2.32,7.792,7.792,0,0,1,.09-2,6.972,6.972,0,0,0,1.16-.44c1-.68,2.25-1.11,2.79-2.48a3.6,3.6,0,0,1,2-1.93,14.02,14.02,0,0,0,1.45-.5c.59-.34,1.12-.8,1.77-1.27a10.388,10.388,0,0,0-.65-1.19c-.09-.14-.4-.16-.61-.18-.06,0-.14.18-.21.27.14.11.3.2.43.32s.27.24.28.37a.569.569,0,0,1-.26.35c-.48.33-.75,0-1-.37s-.39-.85-.94-.88-.43-.27-.32-.59a1.1,1.1,0,0,0-.08-1.21.507.507,0,0,1,0-.42,5.891,5.891,0,0,0,.16-1.16c0-.71.49-1.33.28-2.07a.8.8,0,0,1,.55-.34,1.33,1.33,0,0,0,1.26-.64c.4-.52.73-1.08,1.45-.93l.6-1.26c.38.27.38.27.58-.18a.886.886,0,0,1,.19-.31c.85-.83,1.72-1.65,2.54-2.43a5.7,5.7,0,0,0-.7-1.06,1.412,1.412,0,0,0-.74-.23,2.305,2.305,0,0,0-.46.13,3.49,3.49,0,0,1,0-.56c.11-.6,0-.76-.62-.74a.66.66,0,0,1-.71-.55c-.3-1.07-.64-2.12-.89-3.2a2.131,2.131,0,0,0-1.41-1.69.82.82,0,0,0-1,.18,12.05,12.05,0,0,1-.9.82l-.14-.24-.43-.57a5.6,5.6,0,0,0-.54.56,1.85,1.85,0,0,0-.21.52c-.29,1-1,1.88-.67,3a.758.758,0,0,1-.11.33,1.28,1.28,0,0,0,.14,1.75l-.85,2.56h-.24c-.33.29-1.07,0-1.06.7,0,.45-.22.55-.56.65-1.11.32-2.2.68-3.31,1a14.68,14.68,0,0,1-3.44.7,2.522,2.522,0,0,0-1.46.88c-.72.76-1.28,1.67-2,2.44s-.71,1.21.25,1.61c-.46.4-.27.81,0,1.19-.3.19-.66.29-.79.52-.36.66-1,.71-1.56,1s-1.22,0-1.83.07a9.774,9.774,0,0,0-2.68.63c-.16,0-.29.52-.26.78a1,1,0,0,0,.46.68c.43.17.51.38.21.69q-1.24,1.37-2.55,2.67a2.274,2.274,0,0,1-.87.59,6.666,6.666,0,0,0-2.75,1.93,1.51,1.51,0,0,1-.55.38c-.61.24-1.24.44-2,.69a1.358,1.358,0,0,0-1.41-.53,1.605,1.605,0,0,1-.8-.29.41.41,0,0,1-.05-.75c.64-.29.48-.76.41-1.28.89,0,.23-.85.68-1.07.24,0,.63-.07.64-.16a6.168,6.168,0,0,0,0-1.82,13.4,13.4,0,0,0-.76-2.58,1.7,1.7,0,0,0-1-.91c-.23-.06-.64.44-.93.73s-.65.77-1,1.13h-.31c0-.36-.08-1,.07-1,.76-.34.7-1.13.88-1.67a1.71,1.71,0,0,0-.35-2.06c.1-.32.31-.63.22-.78a1.089,1.089,0,0,0-.71-.54c-.94-.07-1.56-.91-2.58-.9a8.037,8.037,0,0,0-1.4.15c-.13,0-.29.31-.29.47s.23.27.37.39a1.327,1.327,0,0,0,.31.12c-1.09.3-1.18.43-1.06,1.41a1.352,1.352,0,0,0,0,.18c.11.38,0,.58-.51.6l.21-1.5c-.23.06-.43.08-.44.13a1.858,1.858,0,0,1-1,1.23.393.393,0,0,0-.11.21c-.14.5-.64.93-.28,1.53a2.816,2.816,0,0,1-.1.34,5.34,5.34,0,0,0,.3,4.42,7.85,7.85,0,0,1,.53,1.18,1.173,1.173,0,0,1,.13.59c-.25,1.34-.44,2.68-1.88,3.42-.81.41-1.29.29-1.46-.61a3.515,3.515,0,0,0-.31-.66,3.2,3.2,0,0,1-.3-.75,21.7,21.7,0,0,0-.45-3,1.432,1.432,0,0,1,.1-1.21,1.429,1.429,0,0,0,.08-1.36.691.691,0,0,1,.19-.88c.14-.13.28-.47.21-.6-.32-.56,0-1,.21-1.44a11.1,11.1,0,0,0,.6-1.48,3.06,3.06,0,0,0,.06-.81h-.19l-2.18,2.64-.05-.06L333.6,72l1.64-.19c.11-.68.67-.8,1.39-.74.18,0,.38-.21.59-.28a2.748,2.748,0,0,1,.88-.2c1.18,0,2.36.08,3.54.11.12,0,.23-.09.35-.09.35,0,.48-.18.43-.52s-.27-.41-.58-.38-.73,0-1.12,0v-.84c0-.56-.18-.59-.7-.4a12.021,12.021,0,0,1-1.77.38V67.78c-.33.07-.66.12-1,.21-.15,0-.28.17-.44.21s-.6.09-.88.17a2.616,2.616,0,0,0-.73.31c-.29.19-.52.54-.83.62-.59.14-1.19-.4-1.82-.09a.714.714,0,0,1-.18-.16,2.3,2.3,0,0,0-1.84-1.14l-.57.53c.21-.85.35-1.7,1.33-2,.11,0,.15-.29.22-.44-.16-.06-.36-.22-.46-.17a4.486,4.486,0,0,0-2.38,1.62,1.8,1.8,0,0,1-2.08,1.05.621.621,0,0,0-.5.23c-.62.88-1,1-2.19.78a1.425,1.425,0,0,1,.15-.33c.24-.33.39-.64,0-1s-.66,0-.82.26a2.6,2.6,0,0,1-1.57.88.621.621,0,0,1-.81-.26,7.726,7.726,0,0,0,.82-.47,6.22,6.22,0,0,0,.76-.7,8.068,8.068,0,0,0,.65-.78c.2-.28.31-.71.57-.84a9.3,9.3,0,0,1,3.92-1.24,1.91,1.91,0,0,0,1.9-1.43.227.227,0,0,0-.11,0c-.08,0-.18,0-.23.06a2.591,2.591,0,0,1-1.91.59c-.45,0-1,.26-1.32.08a2.36,2.36,0,0,0-1.81-.22h-.22c-.31-.58-.6-.11-.91,0s-.74.29-1,.18a6.663,6.663,0,0,1-1.37-.88c-.34.34-.76.14-1.17-.15a2.925,2.925,0,0,0-.47-.3c-.6-.25-1.2-.58-1.8,0a.352.352,0,0,1-.33.05,3.272,3.272,0,0,0-2-.5c-.13,0-.34-.22-.41-.38a3.956,3.956,0,0,1-.18-.84c-.12-.59-.16-1.24-1.07-1.2a.437.437,0,0,0-.08.11.9.9,0,0,0-.08.23c-.2,1-.2,1-1.15.94h-.25c-5.27-.15-10.55-.28-15.82-.46-2-.06-4-.18-6.07-.39-3-.31-6.11-.69-9.15-1.09-2.57-.34-5.15-.71-7.7-1.16q-4.35-.77-8.66-1.71-5.28-1.14-10.51-2.44c-1.73-.43-3.41-1.06-5.13-1.57a1.986,1.986,0,0,0-.78.1c.07.24.08.55.23.7a.849.849,0,0,1,.174,1.189l-.024.031-.62-.47c.18-.78,0-.87-1.08-.57L246.21,55c-.4-.17-.66-.37-.89-.36a2.126,2.126,0,0,1-1.44-.61c-.33-.24-.63-.52-.94-.78-.16.38-.35.75-.47,1.14a1.56,1.56,0,0,0,0,.68,4.847,4.847,0,0,1,.18,1,2.729,2.729,0,0,0,.7,2.76h-.81a2.012,2.012,0,0,0,0,.61,2.343,2.343,0,0,0,.41.51,1.6,1.6,0,0,1-.24.17c-.7.35-.69.35-.33,1a.607.607,0,0,1,0,.44c-.22.49-.54,1-.71,1.46a30.562,30.562,0,0,1-3.82,8.53,5,5,0,0,0-.66,4,1.148,1.148,0,0,1,0,.37,7.489,7.489,0,0,1-.13,1.16,2.257,2.257,0,0,1-.18.83,22.2,22.2,0,0,1-1.43,2.14,1.659,1.659,0,0,0-.16,1.83,3,3,0,0,1,.43,2.54,3.139,3.139,0,0,0,.14,3.24,3.84,3.84,0,0,1,.49,1c.09.32.08.67.14,1s.05.64.23.82a1.52,1.52,0,0,1,.43,1.71,2.449,2.449,0,0,0,1.24,2.89c-.14.28-.21.65-.43.81a.941.941,0,0,0-.355,1.281.91.91,0,0,0,.105.149,8.9,8.9,0,0,1,.76,1.51c.27.64.43,1.33.74,1.94.4.78.92,1.5.49,2.44a5.9,5.9,0,0,0-.15.72.55.55,0,0,0,.3.716.515.515,0,0,0,.076.024c.81.3,1.61.62,2.44.84a.81.81,0,0,1,.7.64,2.058,2.058,0,0,0,1.63,1.57.731.731,0,0,1,.38.61c-.13.5.13.49.45.49a.7.7,0,0,1,.8.53.824.824,0,0,0,.24.35,3.229,3.229,0,0,1,1.09,2.77,3.22,3.22,0,0,0,0,.93.63.63,0,0,0,.42.39c1.47.2,2.94.35,4.42.53.76.09,1.53.21,2.32.32-.35.64-.3.79.26,1.07.33.16.67.31,1,.5,2.49,1.5,5,3,7.47,4.5a8.108,8.108,0,0,0,2.07.9,30.091,30.091,0,0,0,3,.46c1.57.23,3.14.45,4.71.7.44.07.59-.1.66-.5s.18-.74.29-1.17l4.28.73c.32.06.84.09.91.27a5.156,5.156,0,0,0,1.35,1.65,12.384,12.384,0,0,0,1.69,1.84,3.638,3.638,0,0,1,1.56,2.39c.16.65-.05,1.41.52,1.93.81.75,1.62,1.51,2.47,2.22a4.794,4.794,0,0,0,1.14.61c.17.07.5.09.56,0a16.227,16.227,0,0,0,1.17-1.9c.22-.45,1.3-1.2,1.68-1a3.593,3.593,0,0,0,2,.33c.22,0,.51,0,.64.14.61.61,1.19,1.25,1.75,1.9a2.843,2.843,0,0,1,.46.84c.22.56.41,1.15.62,1.72.13.36.27.72.41,1.07a8.294,8.294,0,0,1,.91,1,5.015,5.015,0,0,0,1,1.21C299.9,138.4,300.18,138.63,299.67,139.2Z"/>
    </clipPath>
    <clipPath id="1f4e8097-7285-4df9-bf3a-e87b033d271a">
      <path class="7e8a68f9-e92d-4654-97a9-eb0dca7f9db6" d="M366.08,483.34l-3.63-13.13c-4.42-.28-9.69-1-14.95-.87-8.34.13-14.8-4.93-14.85-13.6-3.84-1.47-7.57-3.05-11.43-4.24a3.889,3.889,0,0,0-3.38,1.25c-3.36,4.79-8.38,5.08-13.41,5.19-8.75.18-15,1.26-18.61,3.08l-1,11.82L276,469.38c-3.23,1.89-7.24,1.73-10.23-4.14-.88-1.72-4-2.28-6.47-3.54.5-2.45,1-5,1.29-6.35-2.14-3.29-4.53-5.59-5.25-8.33-1.44-5.52-3.9-6.9-8.82-3.93-.69.42-1.78.19-2.65.25-1.59-7.89-.3-14.21,6.18-19.75,6.69-5.7,6.18-15,.16-21.53-1-1.06-1.19-2.85-2.2-3.86-1.44-1.44-3.14-3.09-5-3.52a83.22,83.22,0,0,0-10.47-1.31l-3.43-8.88H214.29a3.787,3.787,0,0,0-2.08.69c-6,4.49-11.78,9.2-17.91,13.47-2,1.41-5.06,2.83-7.21,2.35-6.37-1.43-12.53-3.81-19.9-6.18L156.05,405.4c-.59-2.8-1-4.86-1.59-7.48-3.23.81-6.5,2.68-9.23,2.09-7.08-1.53-14.47.55-21.53-4-5.33-3.46-10.53-7.31-15.84-10.39-7.31-4.23-14.32-8.4-20.7-14-1.2-1-5.09,1-8.77,1.87L54.56,358.2c-.74-2.88-1.71-6.29-2.5-9.74-.69-3-.65-5.42,3.79-4.15,1.25.35,4.08-.49,4.13-1,.18-1.8.13-4.52-1-5.41-4.33-3.39-5.31-7.39-4.09-12.5.24-1-1-2.43-1.76-3.53-1.75-2.54-3.52-5.08-5.48-7.45-1.38-1.67-2.86-3.55-4.72-4.47A70.4,70.4,0,0,0,33,306.42c-4-1.27-6.22-3.1-7.15-8-.55-2.85-5.75-5-9.11-7.06-1.54-.95-3.67-1-5.54-1.4l-.31-1.53,5.44-3.73c-.38-2.36-.92-4.91-1.18-7.48-.47-4.66-1.48-8.22-7.64-6.36-.77.24-3.62-2.79-3.66-4.36-.21-6.93-.73-14.24,7.85-17.48,3-1.14,5.64-3.28,8.62-4.56,1-.41,2.71.12,3.7.8,3.27,2.24,7.89,1.27,8.82-2.59,1.14-4.72,4-5.37,8-4.79s7-.61,10.28-3.9c3.94-3.95,9.58-6.37,14.78-8.84,2.8-1.32,3-2.31,2.84-5.37s2.19-6.39,3.31-9.64c.64-1.83,1.65-3.85,1.38-5.62A113.825,113.825,0,0,0,70.14,190c-.45-1.53-2.17-2.69-3.78-4.58,2.16-5,8-3.39,12.15-4.68,4.28-1.35,9.18-.74,12.52-.92.44-3.76.64-7,1.23-10.16a64.142,64.142,0,0,1,2.24-8.11c3-9.16,3-9,12.2-7a47.614,47.614,0,0,0,10,1.07c4.54,0,7.46-4.28,6.57-9.13-1.75-9.58-1.28-10.22,6.85-14.11,1.88-.9,4.22-3.28,4.31-5.08.3-6.62,5.71-3.36,8.59-4.65.65-.3,2.9,2.58,4.18,4.18,4.11,5.13,7.09,11.43,14.4,13,5.82,1.29,9.52,4.3,12.12,10.27,2.47,5.66,6.66,10.38,4.35,17.13-.59,1.72-.74,3.59-1.35,5.3-1.88,5.28-.8,7.76,4.8,9a60.593,60.593,0,0,0,12.3,1.42,26.262,26.262,0,0,1,17.6,6.32c4.37,3.78,10.93,4.73,13.31,11.21,1.52,4.14,4.15,7.91,6.51,11.7a5.287,5.287,0,0,0,3.25,2.42c6.53.72,13.08,1.32,19.63,1.6,8.21.35,16.46-.06,24.62.68,3.48.32,6.71,2.88,10.15,4.15q8.809,3.24,17.75,6.12A40.562,40.562,0,0,0,315,229a10,10,0,0,0,5.23-1.14c8.85-4.57,17.74-8.7,28-9.24,6.4-.34,12.75-1.62,19.11-2.6a7.2,7.2,0,0,0,3.55-1.56c4.9-4.47,9.67-9.07,14.83-14-2.23-3.17-5.54-6.47-3.06-12s5.65-7.52,11.23-5c9.45,4.27,10.09,4,17.63-3.14a10.687,10.687,0,0,1,6.75-2.93c5.62.06,9.5-2.28,11.49-7.21,2.7-6.72,9.53-6.41,14.55-9.07s10.35-4,16.07-1.5c1.23.54,3.84.15,4.48-.75a5,5,0,0,0-.21-4.69,99.427,99.427,0,0,0-7.95-8.62c-.88-.92-2-1.59-2.87-2.55-2.91-3.34-6-3.05-8.56,0-2.07,2.5-3.7,2.76-6.72,1.51-2.52-1-5.68-.58-8.55-.61-1.83,0-4.8,1-5.25.27a11.13,11.13,0,0,1-1.19-6.28c.11-1.78,1.14-3.53,1.87-5.25,2.41-5.69,4.91-11.33,7.27-17,1.23-3,2.94-3.37,5.76-2,4.88,2.43,9.59,3.15,13.36-2.23.64-.91,2.27-1.36,3.52-1.57,3.61-.6,6.33-1.49,4.42-6.15a4.771,4.771,0,0,1,.73-3.71c4.74-7,5.33-16.46,13.14-21.85,2.93-2-.79-8.47-7-10.59,2.94-3.51,5-8.52,8.33-9.49,9.33-2.74,19.11-4.05,28.78-5.38,2-.28,4.39,1.69,6.57,2.69,1.69.78,3.39,2.49,5,2.38,10.34-.75,13.39,6.92,16.3,14.21,2.62,6.56,3.14,14.19,6.66,20.1,3.76,6.3,3.89,13.11,6.16,19.5.68,1.92,3.62,4.26,5.54,4.28,7.44.09,13.59,2.19,18.1,8.3.33.45.83,1,1.28,1.07,7.1.57,5.35,6.82,7,10.86,1.07,2.56,2,7.22,3.22,7.33A36.267,36.267,0,0,0,593.41,142c5.86-1.92,11.21-5.36,17-7.47,2.72-1,5,.48,5,4.22,0,4.82,1.35,9.24-4.11,13.1-2.72,1.93-2.32,8-3.81,12-2.39,6.42-5,12.77-8,18.93-.44.9-3.46.72-5.29.74-3.16.05-6.54-.89-9.45-.07-5.1,1.44-5.63,5.06-4.22,10.16,1.29,4.67,1.21,9.88.81,14.78-.18,2.15-2.53,4.23-4.15,6.12a36.791,36.791,0,0,1-4.6,3.84l-5.09-3.73c-3.5,7.11-8.79,11.82-17,12,.5,9.11-2.19,9.85-12.62,4.83-7.21,5.61-14.38,10.26-20.35,16.13-5.38,5.29-11.4,8.21-18.45,10.15-3.07.84-5.63,3.48-8.48,5.22a59.27,59.27,0,0,1-10.88,5.5c2.15-3.26,4.86-5.83.73-9.37-.4-.34,2.3-4.94,4.12-7.07,2.07-2.41,6.4-3.77,3.26-8-2.51-3.38-7.73-2.81-11.2.48-3.3,3.13-7,5.8-10.43,8.83-1.65,1.46-3.65,3.05-4.34,5-1.93,5.43-6.34,6.56-10.85,6-4-.51-6.4.92-6.26,4.15.1,2.31,2.64,4.67,4.48,6.65.7.75,2.5.76,3.76.65,4.56-.4,6,1.67,5.78,6-.1,1.87.74,5,1.94,5.41,1.51.56,4.34-.45,5.69-1.74,4.71-4.46,9-7.6,15.67-2.85,2.48,1.78,6.48,1.3,9.62,2.36,1.14.39,2.71,2.57,2.44,3.4-.55,1.67-2.12,4.15-3.45,4.27-15.06,1.32-21.2,13.82-30.55,22.77,1,1.22,1.38,2,2,2.25,9,3.36,11.95,11.49,14.12,19.47,1.48,5.44,4.84,9.1,8.47,12.43s1.64,6.47,2.12,9.79c.6,4.27-.93,6.17-4.73,7.3-1.3.38-2.32,1.68-4.46,3.33l13.34,4.12c-1.36,3.28-3.28,7.11-4.55,11.14-3.79,12.09-14.37,19.87-19.47,31.09a32.452,32.452,0,0,0-1.62,2.92c-.92,2.83-3.48,8.37-4.6,9.05-3.74,2.25-3.75,8.51-9.49,8.74-.68,0-1.16,1.81-2,2.54-7.22,6.62-13.9,14-23.85,16.78-5.13,1.43-10.21,4.35-15.28,4.3-6.44-.07-9.61,4.1-14.25,6.68s-10.77,1.73-16,3.22c-2.73.78-6.53,3-7,5.22-.59,2.71-1.68,7.58,3.73,8.87.77.19,1.84,3,1.39,3.73-3.29,5.6-4.45,13.47-11.95,15.07-3.44.74-8.18-.49-11.11-2.55-3.24-2.29-2-8.62,1.63-11.34C359.58,487.18,363,485.3,366.08,483.34Z"/>
    </clipPath>
    <clipPath id="cc04c14f-495a-4653-a54c-6ad61fed6419">
      <path class="0a561774-6440-4fbd-8779-28b79e94487a" d="M299.67,139.2c.51-.57.23-.8-.31-1.12a5.015,5.015,0,0,1-1-1.21,8.294,8.294,0,0,0-.91-1c-.14-.35-.28-.71-.41-1.07-.21-.57-.4-1.16-.62-1.72a2.866,2.866,0,0,0-.46-.84c-.56-.65-1.14-1.29-1.75-1.9-.13-.13-.42-.12-.64-.14a3.591,3.591,0,0,1-2-.33c-.38-.25-1.46.5-1.68,1a16.227,16.227,0,0,1-1.17,1.9c-.06.1-.39.08-.56,0a4.794,4.794,0,0,1-1.14-.61c-.85-.71-1.66-1.47-2.47-2.22-.57-.52-.36-1.28-.52-1.93a3.638,3.638,0,0,0-1.56-2.39,12.384,12.384,0,0,1-1.69-1.84,5.156,5.156,0,0,1-1.35-1.65c-.07-.18-.59-.21-.91-.27l-4.28-.73c-.11.43-.22.8-.29,1.17s-.22.57-.66.5c-1.57-.25-3.14-.47-4.71-.7a30.091,30.091,0,0,1-3-.46,8.093,8.093,0,0,1-2.07-.9c-2.5-1.47-5-3-7.47-4.5-.32-.19-.66-.34-1-.5-.56-.28-.61-.43-.26-1.07-.79-.11-1.56-.23-2.32-.32-1.48-.18-2.95-.33-4.42-.53a.63.63,0,0,1-.42-.39,3.22,3.22,0,0,1,0-.93,3.232,3.232,0,0,0-1.09-2.77.824.824,0,0,1-.24-.35.7.7,0,0,0-.8-.53c-.32,0-.58,0-.45-.49a.731.731,0,0,0-.38-.61,2.058,2.058,0,0,1-1.63-1.57.81.81,0,0,0-.7-.64c-.83-.22-1.63-.54-2.44-.84a.549.549,0,0,1-.4-.664.515.515,0,0,1,.024-.076,5.9,5.9,0,0,1,.15-.72c.43-.94-.09-1.66-.49-2.44-.31-.61-.47-1.3-.74-1.94a8.9,8.9,0,0,0-.76-1.51.939.939,0,0,1,.1-1.325.91.91,0,0,1,.149-.105c.22-.16.29-.53.43-.81a2.449,2.449,0,0,1-1.24-2.89,1.52,1.52,0,0,0-.43-1.71c-.18-.18-.18-.53-.23-.82a4.076,4.076,0,0,0-.14-1,3.84,3.84,0,0,0-.49-1,3.139,3.139,0,0,1-.14-3.24,3,3,0,0,0-.43-2.54,1.659,1.659,0,0,1,.16-1.83A22.062,22.062,0,0,0,236.87,78a2.257,2.257,0,0,0,.18-.83c.06-.38.09-.77.13-1.16a1.148,1.148,0,0,0,0-.37,5,5,0,0,1,.66-4A30.565,30.565,0,0,0,241.68,63a13.157,13.157,0,0,1,.71-1.46.607.607,0,0,0,0-.44c-.36-.69-.37-.69.33-1a1.6,1.6,0,0,0,.24-.17,2.343,2.343,0,0,1-.41-.51,2.012,2.012,0,0,1,0-.61h.81a2.729,2.729,0,0,1-.7-2.76,4.847,4.847,0,0,0-.18-1,1.56,1.56,0,0,1,0-.68c.12-.39.31-.76.47-1.14.31.26.61.54.94.78a2.126,2.126,0,0,0,1.44.61,3.194,3.194,0,0,1,.89.36l.25-1.44c1-.3,1.26-.21,1.08.57l.62.47a.85.85,0,0,0-.119-1.2l-.031-.024c-.15-.15-.16-.46-.23-.7a1.986,1.986,0,0,1,.78-.1c1.72.51,3.4,1.14,5.13,1.57q5.239,1.3,10.51,2.44,4.31.95,8.66,1.71c2.55.45,5.13.82,7.7,1.16,3,.4,6.1.78,9.15,1.09,2,.21,4,.33,6.07.39,5.27.18,10.55.31,15.82.46h.25c.95,0,.95,0,1.15-.94a.9.9,0,0,1,.08-.23.437.437,0,0,1,.08-.11c.91,0,.95.61,1.07,1.2a3.9,3.9,0,0,0,.18.84c.07.16.28.39.41.38a3.272,3.272,0,0,1,2,.5.352.352,0,0,0,.33-.05c.6-.61,1.2-.28,1.8,0a2.925,2.925,0,0,1,.47.3c.41.29.83.49,1.17.15a6.663,6.663,0,0,0,1.37.88c.28.11.69-.07,1-.18s.6-.57.91,0c0,0,.15.06.22,0a2.36,2.36,0,0,1,1.81.22c.31.18.87-.1,1.32-.08a2.591,2.591,0,0,0,1.91-.59.376.376,0,0,0,.23-.06.227.227,0,0,1,.11,0,1.91,1.91,0,0,1-1.9,1.43,9.3,9.3,0,0,0-3.92,1.24c-.26.13-.37.56-.57.84a8.068,8.068,0,0,1-.65.78,6.294,6.294,0,0,1-.76.7,7.726,7.726,0,0,1-.82.47.621.621,0,0,0,.81.26,2.6,2.6,0,0,0,1.57-.88c.16-.23.43-.57.82-.26s.26.63,0,1a1.425,1.425,0,0,0-.15.33c1.2.25,1.57.1,2.19-.78a.621.621,0,0,1,.5-.23,1.8,1.8,0,0,0,2.08-1.05,4.486,4.486,0,0,1,2.38-1.62,2.235,2.235,0,0,1,.46.17c-.07.15-.11.41-.22.44-1,.29-1.12,1.14-1.33,2l.57-.53a2.3,2.3,0,0,1,1.84,1.14c0,.07.15.17.18.16.63-.31,1.23.23,1.82.09.31-.08.54-.43.83-.62a2.616,2.616,0,0,1,.73-.31c.28-.08.59-.09.88-.17s.29-.17.44-.21c.33-.09.66-.14,1-.21v1.07a12.021,12.021,0,0,0,1.77-.38c.52-.19.68-.16.7.4v.84h1.12c.36,0,.53,0,.58.38s-.08.51-.43.52c-.12,0-.23.1-.35.09-1.18,0-2.36-.09-3.54-.11a2.748,2.748,0,0,0-.88.2c-.21.07-.41.29-.59.28-.72-.06-1.28.06-1.39.74L333.6,72l-2.15,4.25.05.06,2.18-2.64h.19a3.1,3.1,0,0,1-.06.81,11.1,11.1,0,0,1-.6,1.48c-.22.47-.53.88-.21,1.44.07.13-.07.47-.21.6a.691.691,0,0,0-.19.88,1.429,1.429,0,0,1-.08,1.36,1.432,1.432,0,0,0-.1,1.21,21.847,21.847,0,0,1,.45,3,3.2,3.2,0,0,0,.3.75,3.644,3.644,0,0,1,.31.66c.17.9.65,1,1.46.61,1.44-.74,1.63-2.08,1.88-3.42a1.173,1.173,0,0,0-.13-.59,7.85,7.85,0,0,0-.53-1.18,5.34,5.34,0,0,1-.3-4.42c0-.12.14-.27.1-.34-.36-.6.14-1,.28-1.53a.387.387,0,0,1,.11-.21,1.858,1.858,0,0,0,1-1.23c0-.05.21-.07.44-.13l-.21,1.5c.48,0,.62-.22.51-.6a1.082,1.082,0,0,1,0-.18c-.12-1,0-1.11,1.06-1.41a1.327,1.327,0,0,1-.31-.12c-.14-.12-.36-.25-.37-.39s.16-.45.29-.47a8.026,8.026,0,0,1,1.4-.15c1,0,1.64.83,2.58.9a1.089,1.089,0,0,1,.71.54c.09.15-.12.46-.22.78a1.711,1.711,0,0,1,.35,2.06c-.18.54-.12,1.33-.88,1.67-.15.07-.07.67-.07,1,0,0,.27.09.31,0,.35-.36.65-.77,1-1.13s.7-.79.93-.73a1.7,1.7,0,0,1,1,.91,13.4,13.4,0,0,1,.76,2.58,6.168,6.168,0,0,1,0,1.82c0,.09-.4.14-.64.16-.45.22.21,1.07-.68,1.07.07.52.23,1-.41,1.28a.41.41,0,0,0,.05.75,1.605,1.605,0,0,0,.8.29,1.358,1.358,0,0,1,1.41.53c.72-.25,1.35-.45,2-.69a1.519,1.519,0,0,0,.55-.38,6.659,6.659,0,0,1,2.75-1.93,2.274,2.274,0,0,0,.87-.59q1.31-1.3,2.55-2.67c.3-.31.22-.52-.21-.69a1,1,0,0,1-.46-.68c0-.26.1-.73.26-.78A9.761,9.761,0,0,1,358,77.1c.61,0,1.11.26,1.83-.07s1.2-.32,1.56-1c.13-.23.49-.33.79-.52-.29-.38-.48-.79,0-1.19-1-.4-1-.83-.25-1.61s1.27-1.68,2-2.44a2.522,2.522,0,0,1,1.46-.88,14.7,14.7,0,0,0,3.44-.7c1.11-.29,2.2-.65,3.31-1,.34-.1.57-.2.56-.65,0-.68.73-.41,1.06-.7.07-.06.24,0,.24,0l.85-2.56a1.28,1.28,0,0,1-.14-1.75c.06-.1.14-.24.11-.33-.29-1.13.38-2,.67-3a1.85,1.85,0,0,1,.21-.52,5.6,5.6,0,0,1,.54-.56l.43.57.14.24a12.05,12.05,0,0,0,.9-.82.82.82,0,0,1,1-.18,2.131,2.131,0,0,1,1.41,1.69c.25,1.08.59,2.13.89,3.2a.66.66,0,0,0,.71.55c.6,0,.73.14.62.74a3.49,3.49,0,0,0,0,.56c.16,0,.32-.15.46-.13a1.412,1.412,0,0,1,.74.23,5.7,5.7,0,0,1,.7,1.06c-.82.78-1.69,1.6-2.54,2.43a.886.886,0,0,0-.19.31c-.2.45-.2.45-.58.18l-.6,1.26c-.72-.15-1.05.41-1.45.93a1.331,1.331,0,0,1-1.26.64.8.8,0,0,0-.55.34c.21.74-.32,1.36-.28,2.07a5.891,5.891,0,0,1-.16,1.16v.42c.38.39.23.8.08,1.21s-.13.56.32.59.73.47.94.88.48.7,1,.37a.569.569,0,0,0,.26-.35c0-.13-.17-.26-.28-.37a5.344,5.344,0,0,0-.43-.32c.07-.09.15-.27.21-.27.21,0,.52,0,.61.18A10.263,10.263,0,0,1,380,78.2c-.65.47-1.18.93-1.77,1.27a14.02,14.02,0,0,1-1.45.5,3.6,3.6,0,0,0-2,1.93c-.54,1.37-1.74,1.8-2.79,2.48a6.972,6.972,0,0,1-1.16.44,7.792,7.792,0,0,0-.09,2,3.393,3.393,0,0,1-.49,2.32c-.44.95-.81,1.92-1.17,2.9-.07.2.1.47.11.71a4.425,4.425,0,0,1,0,1.31,14.752,14.752,0,0,1-.73,1.81.625.625,0,0,0-.07.35,2.618,2.618,0,0,1-.64,2c-.39.56.15.89.37,1.12a5.475,5.475,0,0,1,.9,1.72,5.088,5.088,0,0,0,.95,1.27,2.571,2.571,0,0,1,.4,2.37.667.667,0,0,1-.26.24,3,3,0,0,0-1.76,1.74,1.189,1.189,0,0,1-1,.76,3.33,3.33,0,0,0-2.8,2.7c-.1.51-.27.76-.86.8a2.72,2.72,0,0,0-2.28,2.59,1.46,1.46,0,0,1-.9,1.31c-.05,0-.14,0-.17.07-.34.49-.65,1-1,1.46s-.76.74-1.08,1.15a3.509,3.509,0,0,1-.51.63c-.33.26-.79.41-.66,1a.14.14,0,0,1,0,.11c-.9,1-.76,2.34-1,3.54a4.818,4.818,0,0,0,.54,2.87,11.852,11.852,0,0,0,3.31,5.07.82.82,0,0,1,.19.73,1.72,1.72,0,0,0,.45,1.68c.15.12.35.2.43.35.84,1.55,1.83,3,1.88,4.9,0,.39.11.78.1,1.17a20.164,20.164,0,0,1-.16,2.8c-.12.69-.91.46-1.38.69-.22.11-.5.12-.72.22-.53.25-.86.08-1-.51-.14-.84-.75-1.71-1.3-1.6s-.77-.3-1-.61a.678.678,0,0,1-.13-.27c-.15-.43-.3-.86-.46-1.3-.77.32-.95.27-1.23-.43a5.7,5.7,0,0,0-1.67-2.48c-.14-.11-.12-.41-.2-.76-.61-.32-.6-1.11-.64-1.81a13.048,13.048,0,0,1,.2-1.85,1.759,1.759,0,0,0-1.32-1.78,3,3,0,0,1-1.46-1.16,2.889,2.889,0,0,0-2.16-1.38h-.8c.08.49,0,.79-.57.73-.14,0-.29.22-.46.29-.38.17-.78.3-1.17.45l-.72.27a3.371,3.371,0,0,0-2.74-1.86,6,6,0,0,0-3.65.3,12.432,12.432,0,0,1-1.46.45,1.44,1.44,0,0,1-.49,0c.48-.61.41-.91-.27-1.5-.08.1-.2.18-.22.28-.12.77-.8.87-1.34,1.12-.09,0-.24.09-.29,0-.71-.58-1.46,0-2.18-.06a.547.547,0,0,0-.33.18c-.36.4-.7.81-1.1,1.27l.46.33.77-1.24.46,1.17-.78,1-.27.32c.15.12.32.36.45.34a2.059,2.059,0,0,1,1.49.51c.28.19.27.29.09.52-.43.54-.78.53-1.32,0a4.732,4.732,0,0,0-.71-.36c-.23-.13-.41-.34-.65-.45a1.749,1.749,0,0,0-.55,0c.1.34.28.61.21.76a1.111,1.111,0,0,1-1.2.64l.21-.65-.14-.1a5.145,5.145,0,0,1-.85.55,1.949,1.949,0,0,1-2.12-.25,4.536,4.536,0,0,0-2.33-1,.648.648,0,0,0-.36,0,2.273,2.273,0,0,1-2.08-.22,4.571,4.571,0,0,0-3.76-.08A7,7,0,0,0,315,132.4a38.986,38.986,0,0,1-3.95,2.6c-.69.44-1.65.68-2.06,1.29-.86,1.26-2,2.44-2.16,4a4.755,4.755,0,0,0,.42,1.71c.08.28.22.53.32.8.29.76-.23,1.18-.69,1.62s-.75,0-1.12-.09-1.06-.3-1.58-.44h-.19c-1-.47-1.95-.94-2.91-1.44a.8.8,0,0,1-.26-.46c-.07-.19,0-.43-.14-.59-.22-.37-.62-.68-.71-1.07S300.23,139.51,299.67,139.2Z"/>
    </clipPath>
  </defs>
  <title>russiamap</title>
  <g id="a7aa7f87-be96-4e16-b29f-45bb2f6ec948" data-name="Layer 2">
    <g id="a79133c9-fd32-4844-a15c-2446f073184c" data-name="world leader">
      <g>
        <g class="e789e15e-cfa8-45de-989f-f90bfffcb2f9">
          <g>
            <path class="b4a7617a-b19b-462a-93a5-e19ed66a4eba" d="M0,501.83V51.71H673.84V501.83Zm672.43-1.37ZM2.82,499H671V54.46H2.82Z"/>
            <rect class="75f2f5a1-209a-4187-a2a4-83e5aa313b1b" x="1.41" y="23.1" width="671.03" height="507.36"/>
            <polygon class="d740b77e-3483-4702-b99a-5625043f270c" points="113.79 103.61 127.95 147.19 173.79 147.19 136.69 174.15 150.85 217.76 113.79 190.8 76.7 217.76 90.86 174.15 53.77 147.19 99.61 147.19 113.79 103.61"/>
            <polygon class="d740b77e-3483-4702-b99a-5625043f270c" points="233.25 80.84 232.3 95.91 246.29 101.48 231.68 105.2 230.7 120.27 222.64 107.51 208.03 111.24 217.66 99.63 209.63 86.9 223.62 92.47 233.25 80.84"/>
            <polygon class="d740b77e-3483-4702-b99a-5625043f270c" points="284.73 129.69 277.85 143.13 288.5 153.8 273.62 151.4 266.71 164.85 264.41 149.94 249.5 147.55 262.94 140.73 260.65 125.84 271.26 136.52 284.73 129.69"/>
            <polygon class="d740b77e-3483-4702-b99a-5625043f270c" points="269.26 190.83 273.88 205.18 288.99 205.2 276.76 214.04 281.42 228.41 269.23 219.53 257.01 228.4 261.69 214.04 249.5 205.18 264.58 205.2 269.26 190.83"/>
            <polygon class="d740b77e-3483-4702-b99a-5625043f270c" points="233.15 236.86 232.17 251.92 246.2 257.51 231.55 261.23 230.6 276.3 222.54 263.53 207.89 267.25 217.53 255.66 209.5 242.89 223.52 248.5 233.15 236.86"/>
          </g>
        </g>
        <g class="18fc5812-d6b1-4b26-95db-576ea90aac01">
          <g>
            <path class="b4a7617a-b19b-462a-93a5-e19ed66a4eba" d="M158.63,207.18V0H468.77V207.18Zm309.5-.64Zm-308.21-.65H467.48V1.27H159.92Z"/>
            <rect class="8138bda8-7b4e-4441-bedd-7cd6dfa42d8a" x="159.28" y="143.19" width="308.85" height="15.83"/>
            <rect class="da728ba6-5380-4e3e-ada6-197ec10100be" x="159.28" y="127.34" width="308.85" height="15.85"/>
            <rect class="8138bda8-7b4e-4441-bedd-7cd6dfa42d8a" x="159.28" y="174.86" width="308.85" height="15.83"/>
            <rect class="da728ba6-5380-4e3e-ada6-197ec10100be" x="159.28" y="190.69" width="308.85" height="15.85"/>
            <rect class="da728ba6-5380-4e3e-ada6-197ec10100be" x="159.28" y="159.02" width="308.85" height="15.83"/>
            <rect class="8138bda8-7b4e-4441-bedd-7cd6dfa42d8a" x="159.28" y="111.51" width="308.85" height="15.83"/>
            <rect class="da728ba6-5380-4e3e-ada6-197ec10100be" x="159.28" y="63.99" width="308.85" height="15.83"/>
            <rect class="8138bda8-7b4e-4441-bedd-7cd6dfa42d8a" x="159.28" y="16.47" width="308.85" height="15.83"/>
            <rect class="da728ba6-5380-4e3e-ada6-197ec10100be" x="159.28" y="32.3" width="308.85" height="15.85"/>
            <rect class="da728ba6-5380-4e3e-ada6-197ec10100be" x="159.28" y="95.66" width="308.85" height="15.85"/>
            <rect class="da728ba6-5380-4e3e-ada6-197ec10100be" x="159.28" y="0.65" width="308.85" height="15.82"/>
            <rect class="8138bda8-7b4e-4441-bedd-7cd6dfa42d8a" x="159.28" y="48.15" width="308.85" height="15.83"/>
            <rect class="8138bda8-7b4e-4441-bedd-7cd6dfa42d8a" x="159.28" y="79.82" width="308.85" height="15.83"/>
            <rect class="dedaf5b8-5676-444b-80bb-e4e1cdb79988" x="159.28" y="0.65" width="123.54" height="110.99"/>
            <polygon class="8138bda8-7b4e-4441-bedd-7cd6dfa42d8a" points="252.07 6.57 252.91 9.2 255.67 9.2 253.44 10.83 254.3 13.45 252.07 11.82 249.82 13.45 250.68 10.83 248.45 9.2 251.21 9.2 252.07 6.57"/>
            <polygon class="8138bda8-7b4e-4441-bedd-7cd6dfa42d8a" points="252.07 29.63 252.91 32.26 255.67 32.26 253.44 33.89 254.3 36.51 252.07 34.9 249.82 36.51 250.68 33.89 248.45 32.26 251.21 32.26 252.07 29.63"/>
            <polygon class="8138bda8-7b4e-4441-bedd-7cd6dfa42d8a" points="252.07 52.71 252.91 55.33 255.67 55.33 253.44 56.96 254.3 59.58 252.07 57.95 249.82 59.58 250.68 56.96 248.45 55.33 251.21 55.33 252.07 52.71"/>
            <polygon class="8138bda8-7b4e-4441-bedd-7cd6dfa42d8a" points="252.07 76.29 252.91 78.93 255.67 78.93 253.44 80.55 254.3 83.18 252.07 81.56 249.82 83.18 250.68 80.55 248.45 78.93 251.21 78.93 252.07 76.29"/>
            <polygon class="8138bda8-7b4e-4441-bedd-7cd6dfa42d8a" points="252.07 98.82 252.91 101.45 255.67 101.45 253.44 103.08 254.3 105.7 252.07 104.07 249.82 105.7 250.68 103.08 248.45 101.45 251.21 101.45 252.07 98.82"/>
            <polygon class="8138bda8-7b4e-4441-bedd-7cd6dfa42d8a" points="231.39 6.57 232.24 9.2 235.01 9.2 232.77 10.83 233.62 13.45 231.39 11.82 229.15 13.45 230 10.83 227.77 9.2 230.53 9.2 231.39 6.57"/>
            <polygon class="8138bda8-7b4e-4441-bedd-7cd6dfa42d8a" points="231.39 29.63 232.24 32.26 235.01 32.26 232.77 33.89 233.62 36.51 231.39 34.9 229.15 36.51 230 33.89 227.77 32.26 230.53 32.26 231.39 29.63"/>
            <polygon class="8138bda8-7b4e-4441-bedd-7cd6dfa42d8a" points="231.39 52.71 232.24 55.33 235.01 55.33 232.77 56.96 233.62 59.58 231.39 57.95 229.15 59.58 230 56.96 227.77 55.33 230.53 55.33 231.39 52.71"/>
            <polygon class="8138bda8-7b4e-4441-bedd-7cd6dfa42d8a" points="231.39 76.29 232.24 78.93 235.01 78.93 232.77 80.55 233.62 83.18 231.39 81.56 229.15 83.18 230 80.55 227.77 78.93 230.53 78.93 231.39 76.29"/>
            <polygon class="8138bda8-7b4e-4441-bedd-7cd6dfa42d8a" points="231.39 98.82 232.24 101.45 235.01 101.45 232.77 103.08 233.62 105.7 231.39 104.07 229.15 105.7 230 103.08 227.77 101.45 230.53 101.45 231.39 98.82"/>
            <polygon class="8138bda8-7b4e-4441-bedd-7cd6dfa42d8a" points="210.72 6.57 211.56 9.2 214.32 9.2 212.09 10.83 212.95 13.45 210.72 11.82 208.47 13.45 209.33 10.83 207.1 9.2 209.85 9.2 210.72 6.57"/>
            <polygon class="8138bda8-7b4e-4441-bedd-7cd6dfa42d8a" points="210.72 29.63 211.56 32.26 214.32 32.26 212.09 33.89 212.95 36.51 210.72 34.9 208.47 36.51 209.33 33.89 207.1 32.26 209.85 32.26 210.72 29.63"/>
            <polygon class="8138bda8-7b4e-4441-bedd-7cd6dfa42d8a" points="210.72 52.71 211.56 55.33 214.32 55.33 212.09 56.96 212.95 59.58 210.72 57.95 208.47 59.58 209.33 56.96 207.1 55.33 209.85 55.33 210.72 52.71"/>
            <polygon class="8138bda8-7b4e-4441-bedd-7cd6dfa42d8a" points="210.72 76.29 211.56 78.93 214.32 78.93 212.09 80.55 212.95 83.18 210.72 81.56 208.47 83.18 209.33 80.55 207.1 78.93 209.85 78.93 210.72 76.29"/>
            <polygon class="8138bda8-7b4e-4441-bedd-7cd6dfa42d8a" points="210.72 98.82 211.56 101.45 214.32 101.45 212.09 103.08 212.95 105.7 210.72 104.07 208.47 105.7 209.33 103.08 207.1 101.45 209.85 101.45 210.72 98.82"/>
            <polygon class="8138bda8-7b4e-4441-bedd-7cd6dfa42d8a" points="190.03 6.57 190.88 9.2 193.65 9.2 191.42 10.83 192.27 13.45 190.03 11.82 187.8 13.45 188.65 10.83 186.41 9.2 189.17 9.2 190.03 6.57"/>
            <polygon class="8138bda8-7b4e-4441-bedd-7cd6dfa42d8a" points="190.03 29.63 190.88 32.26 193.65 32.26 191.42 33.89 192.27 36.51 190.03 34.9 187.8 36.51 188.65 33.89 186.41 32.26 189.17 32.26 190.03 29.63"/>
            <polygon class="8138bda8-7b4e-4441-bedd-7cd6dfa42d8a" points="190.03 52.71 190.88 55.33 193.65 55.33 191.42 56.96 192.27 59.58 190.03 57.95 187.8 59.58 188.65 56.96 186.41 55.33 189.17 55.33 190.03 52.71"/>
            <polygon class="8138bda8-7b4e-4441-bedd-7cd6dfa42d8a" points="190.03 76.29 190.88 78.93 193.65 78.93 191.42 80.55 192.27 83.18 190.03 81.56 187.8 83.18 188.65 80.55 186.41 78.93 189.17 78.93 190.03 76.29"/>
            <polygon class="8138bda8-7b4e-4441-bedd-7cd6dfa42d8a" points="190.03 98.82 190.88 101.45 193.65 101.45 191.42 103.08 192.27 105.7 190.03 104.07 187.8 105.7 188.65 103.08 186.41 101.45 189.17 101.45 190.03 98.82"/>
            <polygon class="8138bda8-7b4e-4441-bedd-7cd6dfa42d8a" points="169.35 6.57 170.21 9.2 172.97 9.2 170.73 10.83 171.59 13.45 169.35 11.82 167.11 13.45 167.97 10.83 165.73 9.2 168.5 9.2 169.35 6.57"/>
            <polygon class="8138bda8-7b4e-4441-bedd-7cd6dfa42d8a" points="169.35 29.63 170.21 32.26 172.97 32.26 170.73 33.89 171.59 36.51 169.35 34.9 167.11 36.51 167.97 33.89 165.73 32.26 168.5 32.26 169.35 29.63"/>
            <polygon class="8138bda8-7b4e-4441-bedd-7cd6dfa42d8a" points="169.35 52.71 170.21 55.33 172.97 55.33 170.73 56.96 171.59 59.58 169.35 57.95 167.11 59.58 167.97 56.96 165.73 55.33 168.5 55.33 169.35 52.71"/>
            <polygon class="8138bda8-7b4e-4441-bedd-7cd6dfa42d8a" points="169.35 76.29 170.21 78.93 172.97 78.93 170.73 80.55 171.59 83.18 169.35 81.56 167.11 83.18 167.97 80.55 165.73 78.93 168.5 78.93 169.35 76.29"/>
            <polygon class="8138bda8-7b4e-4441-bedd-7cd6dfa42d8a" points="169.35 98.82 170.21 101.45 172.97 101.45 170.73 103.08 171.59 105.7 169.35 104.07 167.11 105.7 167.97 103.08 165.73 101.45 168.5 101.45 169.35 98.82"/>
            <polygon class="8138bda8-7b4e-4441-bedd-7cd6dfa42d8a" points="262.61 18.1 263.46 20.73 266.23 20.73 263.99 22.35 264.84 24.99 262.61 23.36 260.37 24.99 261.23 22.35 258.99 20.73 261.75 20.73 262.61 18.1"/>
            <polygon class="8138bda8-7b4e-4441-bedd-7cd6dfa42d8a" points="262.61 41.91 263.46 44.53 266.23 44.53 263.99 46.16 264.84 48.78 262.61 47.16 260.37 48.78 261.23 46.16 258.99 44.53 261.75 44.53 262.61 41.91"/>
            <polygon class="8138bda8-7b4e-4441-bedd-7cd6dfa42d8a" points="262.4 65.24 263.25 67.86 266.02 67.86 263.79 69.49 264.64 72.11 262.4 70.49 260.17 72.11 261.02 69.49 258.78 67.86 261.55 67.86 262.4 65.24"/>
            <polygon class="8138bda8-7b4e-4441-bedd-7cd6dfa42d8a" points="262.2 88.3 263.05 90.92 265.82 90.92 263.58 92.55 264.44 95.17 262.2 93.55 259.96 95.17 260.82 92.55 258.58 90.92 261.34 90.92 262.2 88.3"/>
            <polygon class="8138bda8-7b4e-4441-bedd-7cd6dfa42d8a" points="241.93 18.1 242.78 20.73 245.55 20.73 243.31 22.35 244.17 24.99 241.93 23.36 239.69 24.99 240.55 22.35 238.32 20.73 241.08 20.73 241.93 18.1"/>
            <polygon class="8138bda8-7b4e-4441-bedd-7cd6dfa42d8a" points="241.93 41.91 242.78 44.53 245.55 44.53 243.31 46.16 244.17 48.78 241.93 47.16 239.69 48.78 240.55 46.16 238.32 44.53 241.08 44.53 241.93 41.91"/>
            <polygon class="8138bda8-7b4e-4441-bedd-7cd6dfa42d8a" points="241.72 65.24 242.58 67.86 245.34 67.86 243.11 69.49 243.96 72.11 241.72 70.49 239.49 72.11 240.34 69.49 238.1 67.86 240.87 67.86 241.72 65.24"/>
            <polygon class="8138bda8-7b4e-4441-bedd-7cd6dfa42d8a" points="241.52 88.3 242.37 90.92 245.13 90.92 242.9 92.55 243.75 95.17 241.52 93.55 239.28 95.17 240.13 92.55 237.9 90.92 240.66 90.92 241.52 88.3"/>
            <polygon class="8138bda8-7b4e-4441-bedd-7cd6dfa42d8a" points="221.25 17.28 222.1 19.91 224.86 19.91 222.63 21.52 223.49 24.16 221.25 22.53 219.01 24.16 219.87 21.52 217.63 19.91 220.39 19.91 221.25 17.28"/>
            <polygon class="8138bda8-7b4e-4441-bedd-7cd6dfa42d8a" points="221.25 41.08 222.1 43.7 224.86 43.7 222.63 45.33 223.49 47.95 221.25 46.34 219.01 47.95 219.87 45.33 217.63 43.7 220.39 43.7 221.25 41.08"/>
            <polygon class="8138bda8-7b4e-4441-bedd-7cd6dfa42d8a" points="221.05 64.41 221.89 67.03 224.66 67.03 222.42 68.66 223.28 71.29 221.05 69.66 218.8 71.29 219.66 68.66 217.43 67.03 220.19 67.03 221.05 64.41"/>
            <polygon class="8138bda8-7b4e-4441-bedd-7cd6dfa42d8a" points="220.84 87.48 221.69 90.11 224.46 90.11 222.22 91.72 223.08 94.36 220.84 92.73 218.61 94.36 219.46 91.72 217.22 90.11 219.98 90.11 220.84 87.48"/>
            <polygon class="8138bda8-7b4e-4441-bedd-7cd6dfa42d8a" points="200.58 17.06 201.43 19.68 204.2 19.68 201.96 21.31 202.81 23.93 200.58 22.3 198.34 23.93 199.2 21.31 196.96 19.68 199.72 19.68 200.58 17.06"/>
            <polygon class="8138bda8-7b4e-4441-bedd-7cd6dfa42d8a" points="200.58 40.85 201.43 43.48 204.2 43.48 201.96 45.11 202.81 47.73 200.58 46.1 198.34 47.73 199.2 45.11 196.96 43.48 199.72 43.48 200.58 40.85"/>
            <polygon class="8138bda8-7b4e-4441-bedd-7cd6dfa42d8a" points="200.37 64.18 201.22 66.81 203.99 66.81 201.75 68.44 202.6 71.06 200.37 69.43 198.13 71.06 198.99 68.44 196.75 66.81 199.51 66.81 200.37 64.18"/>
            <polygon class="8138bda8-7b4e-4441-bedd-7cd6dfa42d8a" points="200.16 87.24 201.02 89.86 203.78 89.86 201.54 91.49 202.39 94.12 200.16 92.49 197.93 94.12 198.78 91.49 196.54 89.86 199.31 89.86 200.16 87.24"/>
            <polygon class="8138bda8-7b4e-4441-bedd-7cd6dfa42d8a" points="179.89 16.63 180.75 19.26 183.51 19.26 181.28 20.89 182.13 23.51 179.89 21.88 177.66 23.51 178.51 20.89 176.27 19.26 179.04 19.26 179.89 16.63"/>
            <polygon class="8138bda8-7b4e-4441-bedd-7cd6dfa42d8a" points="179.89 40.43 180.75 43.05 183.51 43.05 181.28 44.68 182.13 47.31 179.89 45.69 177.66 47.31 178.51 44.68 176.27 43.05 179.04 43.05 179.89 40.43"/>
            <polygon class="8138bda8-7b4e-4441-bedd-7cd6dfa42d8a" points="179.68 63.78 180.54 66.4 183.3 66.4 181.06 68.03 181.92 70.65 179.68 69.02 177.45 70.65 178.3 68.03 176.06 66.4 178.83 66.4 179.68 63.78"/>
            <polygon class="8138bda8-7b4e-4441-bedd-7cd6dfa42d8a" points="179.49 86.83 180.33 89.46 183.1 89.46 180.86 91.09 181.72 93.71 179.49 92.08 177.24 93.71 178.1 91.09 175.87 89.46 178.63 89.46 179.49 86.83"/>
            <polygon class="8138bda8-7b4e-4441-bedd-7cd6dfa42d8a" points="272.75 6.57 273.59 9.2 276.36 9.2 274.13 10.83 274.98 13.45 272.75 11.82 270.51 13.45 271.36 10.83 269.13 9.2 271.88 9.2 272.75 6.57"/>
            <polygon class="8138bda8-7b4e-4441-bedd-7cd6dfa42d8a" points="272.75 29.63 273.59 32.26 276.36 32.26 274.13 33.89 274.98 36.51 272.75 34.9 270.51 36.51 271.36 33.89 269.13 32.26 271.88 32.26 272.75 29.63"/>
            <polygon class="8138bda8-7b4e-4441-bedd-7cd6dfa42d8a" points="272.75 52.71 273.59 55.33 276.36 55.33 274.13 56.96 274.98 59.58 272.75 57.95 270.51 59.58 271.36 56.96 269.13 55.33 271.88 55.33 272.75 52.71"/>
            <polygon class="8138bda8-7b4e-4441-bedd-7cd6dfa42d8a" points="272.75 76.29 273.59 78.93 276.36 78.93 274.13 80.55 274.98 83.18 272.75 81.56 270.51 83.18 271.36 80.55 269.13 78.93 271.88 78.93 272.75 76.29"/>
            <polygon class="8138bda8-7b4e-4441-bedd-7cd6dfa42d8a" points="272.75 98.82 273.59 101.45 276.36 101.45 274.13 103.08 274.98 105.7 272.75 104.07 270.51 105.7 271.36 103.08 269.13 101.45 271.88 101.45 272.75 98.82"/>
          </g>
        </g>
      </g>
    </g>
  </g>
</svg>
