<?xml version="1.0" encoding="utf-8"?>
<!-- Generator: Adobe Illustrator 22.1.0, SVG Export Plug-In . SVG Version: 6.00 Build 0)  -->
<svg version="1.1" id="Layer_1" xmlns="http://www.w3.org/2000/svg" xmlns:xlink="http://www.w3.org/1999/xlink" x="0px" y="0px"
	 viewBox="0 0 800 649.7" style="enable-background:new 0 0 800 649.7;" xml:space="preserve">
<style type="text/css">
	
		.st0{fill:none;stroke:#FFFFFF;stroke-width:5;stroke-linecap:round;stroke-linejoin:round;stroke-dasharray:61.0123,61.0123,22.6273,33.9409,11.3136,33.9409;}
	.st1{fill:#FFFFFF;}
	.st2{fill:#E4E4E4;}
	.st3{fill:#0093CD;}
	.st4{fill:#15BEF0;}
	.st5{fill:none;}
</style>
<title>space2</title>
<g>
	<g>
		<g>
			<circle class="st0" cx="386.3" cy="313.2" r="285"/>
		</g>
		<g>
			
				<ellipse transform="matrix(0.7071 -0.7071 0.7071 0.7071 -75.8101 680.3619)" class="st1" cx="783.4" cy="431.7" rx="16.5" ry="16.7"/>
			<g>
				<circle class="st2" cx="787.1" cy="424.7" r="3"/>
				<circle class="st2" cx="782.6" cy="437.1" r="1.9"/>
				<circle class="st2" cx="775.2" cy="428.7" r="0.7"/>
				<path class="st2" d="M774.9,417.3c-1.2,0.7-2.3,1.6-3.3,2.6c-6.4,6.4-6.4,16.9,0.1,23.5c4.3,4.3,10.5,5.8,16,4.4
					c-7.7-3.4-11.7-7.9-13.6-12.4c0,0,0.1-0.1,0.1-0.1c1-1,1-2.7-0.1-3.8c-0.3-0.3-0.8-0.6-1.2-0.7
					C772.1,425.5,773.5,420.6,774.9,417.3z"/>
			</g>
		</g>
		<g>
			<ellipse class="st1" cx="152.3" cy="599.3" rx="17.5" ry="17.7"/>
			<g>
				<circle class="st2" cx="160.3" cy="596.9" r="3.2"/>
				<circle class="st2" cx="147.7" cy="602.8" r="2"/>
				<circle class="st2" cx="148.5" cy="590.9" r="0.8"/>
				<path class="st2" d="M156.8,582.2c-1.4-0.4-2.9-0.6-4.4-0.6c-9.7,0-17.5,7.9-17.5,17.7c0,6.5,3.5,12.2,8.7,15.3
					c-3.2-8.3-2.9-14.7-0.9-19.5c0,0,0.1,0,0.1,0c1.5,0,2.8-1.3,2.8-3c0-0.5-0.1-1-0.4-1.4C148.5,586.3,153.2,583.7,156.8,582.2z"/>
			</g>
		</g>
		<g>
			<path class="st1" d="M773.2,306.2l-3.9,2.9c-0.2,0.1-0.3,0.3-0.4,0.5l-1.7,4.5c-0.3,0.8-1.3,0.9-1.8,0.2l-2.9-3.9
				c-0.1-0.2-0.3-0.3-0.5-0.4l-4.5-1.7c-0.8-0.3-0.9-1.3-0.2-1.8l3.9-2.9c0.2-0.1,0.3-0.3,0.4-0.5l1.7-4.5c0.3-0.8,1.3-0.9,1.8-0.2
				l2.9,3.9c0.1,0.2,0.3,0.3,0.5,0.4l4.5,1.7C773.7,304.6,773.8,305.7,773.2,306.2z"/>
			<path class="st1" d="M654.9,63.4l-4.5,1.6c-0.2,0.1-0.4,0.2-0.5,0.3l-2.9,3.8c-0.5,0.7-1.5,0.5-1.8-0.3l-1.6-4.5
				c-0.1-0.2-0.2-0.4-0.3-0.5l-3.8-2.9c-0.7-0.5-0.5-1.5,0.3-1.8l4.5-1.6c0.2-0.1,0.4-0.2,0.5-0.3l2.9-3.8c0.5-0.7,1.5-0.5,1.8,0.3
				l1.6,4.5c0.1,0.2,0.2,0.4,0.3,0.5l3.8,2.9C655.8,62.1,655.6,63.2,654.9,63.4z"/>
			<path class="st1" d="M719.1,7.9l-3.8,3c-0.2,0.1-0.3,0.3-0.3,0.5l-1.6,4.6c-0.3,0.8-1.3,1-1.8,0.3l-3-3.8
				c-0.1-0.2-0.3-0.3-0.5-0.3l-4.6-1.6c-0.8-0.3-1-1.3-0.3-1.8l3.8-3c0.2-0.1,0.3-0.3,0.3-0.5l1.6-4.6c0.3-0.8,1.3-1,1.8-0.3l3,3.8
				c0.1,0.2,0.3,0.3,0.5,0.3l4.6,1.6C719.6,6.4,719.8,7.4,719.1,7.9z"/>
			<path class="st1" d="M42.2,371.2l-3.9,2.9c-0.2,0.1-0.3,0.3-0.4,0.5l-1.7,4.5c-0.3,0.8-1.3,0.9-1.8,0.2l-2.9-3.9
				c-0.1-0.2-0.3-0.3-0.5-0.4l-4.5-1.7c-0.8-0.3-0.9-1.3-0.2-1.8l3.9-2.9c0.2-0.1,0.3-0.3,0.4-0.5l1.7-4.5c0.3-0.8,1.3-0.9,1.8-0.2
				l2.9,3.9c0.1,0.2,0.3,0.3,0.5,0.4l4.5,1.7C42.7,369.6,42.8,370.7,42.2,371.2z"/>
			<path class="st1" d="M80.7,67.4L76.2,69c-0.2,0.1-0.4,0.2-0.5,0.3l-2.9,3.8c-0.5,0.7-1.5,0.5-1.8-0.3l-1.6-4.5
				c-0.1-0.2-0.2-0.4-0.3-0.5L65.1,65c-0.7-0.5-0.5-1.5,0.3-1.8l4.5-1.6c0.2-0.1,0.4-0.2,0.5-0.3l2.9-3.8c0.5-0.7,1.5-0.5,1.8,0.3
				l1.6,4.5c0.1,0.2,0.2,0.4,0.3,0.5l3.8,2.9C81.6,66.1,81.5,67.1,80.7,67.4z"/>
			<path class="st1" d="M145,11.9l-3.8,3c-0.2,0.1-0.3,0.3-0.3,0.5l-1.6,4.6c-0.3,0.8-1.3,1-1.8,0.3l-3-3.8
				c-0.1-0.2-0.3-0.3-0.5-0.3l-4.6-1.6c-0.8-0.3-1-1.3-0.3-1.8l3.8-3c0.2-0.1,0.3-0.3,0.3-0.5l1.6-4.6c0.3-0.8,1.3-1,1.8-0.3l3,3.8
				c0.1,0.2,0.3,0.3,0.5,0.3l4.6,1.6C145.4,10.3,145.6,11.4,145,11.9z"/>
			<path class="st1" d="M747.2,641.2l-3.9,2.9c-0.2,0.1-0.3,0.3-0.4,0.5l-1.7,4.5c-0.3,0.8-1.3,0.9-1.8,0.2l-2.9-3.9
				c-0.1-0.2-0.3-0.3-0.5-0.4l-4.5-1.7c-0.8-0.3-0.9-1.3-0.2-1.8l3.9-2.9c0.2-0.1,0.3-0.3,0.4-0.5l1.7-4.5c0.3-0.8,1.3-0.9,1.8-0.2
				l2.9,3.9c0.1,0.2,0.3,0.3,0.5,0.4l4.5,1.7C747.7,639.6,747.8,640.7,747.2,641.2z"/>
			<path class="st1" d="M599.9,586.4l-4.5,1.6c-0.2,0.1-0.4,0.2-0.5,0.3l-2.9,3.8c-0.5,0.7-1.5,0.5-1.8-0.3l-1.6-4.5
				c-0.1-0.2-0.2-0.4-0.3-0.5l-3.8-2.9c-0.7-0.5-0.5-1.5,0.3-1.8l4.5-1.6c0.2-0.1,0.4-0.2,0.5-0.3l2.9-3.8c0.5-0.7,1.5-0.5,1.8,0.3
				l1.6,4.5c0.1,0.2,0.2,0.4,0.3,0.5l3.8,2.9C600.8,585.1,600.6,586.2,599.9,586.4z"/>
			<path class="st1" d="M727.5,471.6l-4.7,0.9c-0.2,0-0.4,0.1-0.5,0.3l-3.5,3.3c-0.6,0.6-1.6,0.3-1.7-0.6l-0.9-4.7
				c0-0.2-0.1-0.4-0.3-0.5l-3.3-3.5c-0.6-0.6-0.3-1.6,0.6-1.7l4.7-0.9c0.2,0,0.4-0.1,0.5-0.3l3.5-3.3c0.6-0.6,1.6-0.3,1.7,0.6
				l0.9,4.7c0,0.2,0.1,0.4,0.3,0.5l3.3,3.5C728.6,470.4,728.3,471.4,727.5,471.6z"/>
			<path class="st1" d="M64.9,631.2l-2.6,4c-0.1,0.2-0.2,0.4-0.2,0.6l0,4.8c0,0.8-0.9,1.3-1.6,0.9l-4-2.6c-0.2-0.1-0.4-0.2-0.6-0.2
				l-4.8,0c-0.8,0-1.3-0.9-0.9-1.6l2.6-4c0.1-0.2,0.2-0.4,0.2-0.6l0-4.8c0-0.8,0.9-1.3,1.6-0.9l4,2.6c0.2,0.1,0.4,0.2,0.6,0.2l4.8,0
				C64.8,629.6,65.3,630.5,64.9,631.2z"/>
			<g>
				<ellipse class="st1" cx="44.3" cy="133.9" rx="44.3" ry="44.8"/>
				<g>
					<circle class="st2" cx="64.5" cy="127.6" r="8"/>
					<circle class="st2" cx="32.5" cy="142.6" r="5"/>
					<circle class="st2" cx="34.5" cy="112.6" r="2"/>
					<path class="st2" d="M55.5,90.6c-3.6-0.9-7.3-1.5-11.2-1.5c-24.4,0-44.3,20-44.3,44.7c0,16.5,8.8,30.9,21.9,38.6
						c-8.1-21-7.3-37.1-2.2-49.4c0.1,0,0.2,0,0.3,0c3.9,0,7-3.4,7-7.5c0-1.3-0.3-2.6-0.9-3.7C34.6,100.9,46.6,94.3,55.5,90.6z"/>
				</g>
			</g>
		</g>
	</g>
	<g>
		<g>
			<path class="st1" d="M669.2,201.5c2-2.9,3.1-6.4,3.1-10.2c0-2.8-0.7-5.5-1.8-7.9l4-4c4.9,3.1,10.6,4.8,16.8,4.8
				c8.5,0,16.5-3.4,22.5-9.5c1.1-1.1,1.1-2.9,0-3.9l-18-18l16.9-16.9c0.6,0.2,1.3,0.3,2,0.3c3.9,0,7-3.1,7-7s-3.1-7-7-7s-7,3.1-7,7
				c0,0.7,0.1,1.4,0.3,2l-16.9,16.9l-17.9-17.9c-1.1-1.1-2.8-1.1-3.9,0c-6.1,6-9.5,14-9.5,22.5c0,6.5,2,12.6,5.4,17.6l-4.1,4.1
				c-2.1-0.9-4.5-1.4-6.9-1.4c-3.9,0-7.4,1.2-10.4,3.3l-46.4-45.8c-1.1-1.1-2.9-1.1-4,0c-1.1,1.1-1.1,2.9,0,4l46.3,45.7
				c-2.3,3.1-3.8,6.9-3.8,11c0,0.3,0,0.6,0,0.9l-9.7,9.7c-1.1,1.1-1.1,2.9,0,4l4.9,4.9l-7.2,7.9l-3.1-3.1c-0.7-0.7-1.9-0.7-2.7,0
				l-8,8c-0.7,0.7-0.7,1.9,0,2.7l8,8c0.4,0.4,0.9,0.6,1.3,0.6s1-0.2,1.3-0.6l8-8c0.7-0.7,0.7-1.9,0-2.7l-2.2-2.2l7.2-7.9l4.3,4.3
				c0.5,0.5,1.3,0.8,2,0.8s1.4-0.3,2-0.8l8.6-8.6c1.1,0.2,2.3,0.3,3.4,0.3c4.2,0,8.1-1.5,11.2-3.9l42.8,42.3c0.5,0.5,1.3,0.8,2,0.8
				c0.7,0,1.4-0.3,2-0.8c1.1-1.1,1.1-2.9,0-4L669.2,201.5z"/>
			
				<rect x="602" y="117.4" transform="matrix(0.7071 -0.7071 0.7071 0.7071 89.6142 469.0269)" class="st3" width="17.8" height="17.8"/>
			
				<rect x="617" y="132.3" transform="matrix(0.7071 -0.7071 0.7071 0.7071 83.4345 483.9362)" class="st3" width="17.8" height="17.8"/>
			
				<rect x="631.9" y="147.2" transform="matrix(0.7071 -0.7071 0.7071 0.7071 77.2581 498.8506)" class="st3" width="17.8" height="17.8"/>
			
				<rect x="578.9" y="137.1" transform="matrix(0.7071 -0.7071 0.7071 0.7071 68.9035 458.4532)" class="st3" width="17.8" height="17.8"/>
			
				<rect x="593.8" y="152" transform="matrix(0.7071 -0.7071 0.7071 0.7071 62.7263 473.3662)" class="st3" width="17.8" height="17.8"/>
			
				<rect x="608.8" y="167" transform="matrix(0.7071 -0.7071 0.7071 0.7071 56.5506 488.282)" class="st3" width="17.8" height="17.8"/>
			
				<rect x="679.8" y="195.4" transform="matrix(0.7071 -0.7071 0.7071 0.7071 57.2576 546.8444)" class="st4" width="17.8" height="17.8"/>
			
				<rect x="694.7" y="210.3" transform="matrix(0.7071 -0.7071 0.7071 0.7071 51.0821 561.7606)" class="st4" width="17.8" height="17.8"/>
			
				<rect x="709.6" y="225.2" transform="matrix(0.7071 -0.7071 0.7071 0.7071 44.9048 576.6737)" class="st4" width="17.8" height="17.8"/>
			
				<rect x="658.7" y="215.1" transform="matrix(0.7071 -0.7071 0.7071 0.7071 37.1368 537.6915)" class="st4" width="17.8" height="17.8"/>
			
				<rect x="673.6" y="230" transform="matrix(0.7071 -0.7071 0.7071 0.7071 30.9588 552.603)" class="st4" width="17.8" height="17.8"/>
			
				<rect x="688.5" y="244.9" transform="matrix(0.7071 -0.7071 0.7071 0.7071 24.7824 567.5177)" class="st4" width="17.8" height="17.8"/>
			<path class="st2" d="M672.9,130.1c-1.1-1.1-2.8-1.1-3.9,0c-6.1,6-9.5,14-9.5,22.5c0,6.5,2,12.6,5.4,17.6l0,0l-4.2,4
				c-2.1-0.9-4.4-1.3-6.8-1.3c-10,0-18.2,8.1-18.2,18.2c0,0.3,0,0.6,0,0.9l-9.7,9.7c-1.1,1.1-1.1,2.9,0,4l4.9,4.9l-7.2,7.9l-3.1-3.1
				c-0.7-0.7-1.9-0.7-2.7,0l-8,8c-0.7,0.7-0.7,1.9,0,2.7l8,8c0.4,0.4,0.9,0.6,1.3,0.6s1-0.2,1.3-0.6l8-8c0.7-0.7,0.7-1.9,0-2.7
				l-2.2-2.2l6.6-7.2c0.2-1.6,0.6-3.1,1.1-4.3c1.4-2.4,3.2-5,5.4-7.5c0.2,0.2,0.3,0.4,0.5,0.6c5.1-7.6,14.8-20,25.8-25.5
				c-0.2-0.1,0.3-0.3,0.3-0.3l1-4l0,0c0,0,0,0,0,0c2.5-6.1,9.9-21,23.1-25.7L672.9,130.1z"/>
		</g>
		<circle class="st5" cx="386.3" cy="313.2" r="5.3"/>
	</g>
</g>
</svg>
