<svg id="22983e14-71fe-4ac8-8fce-f74a9a9e6056" data-name="Layer 1" xmlns="http://www.w3.org/2000/svg" viewBox="0 0 799.958 649.682">
  <defs>
    <style>
      .\37 2b7238e-bf2c-437b-9a10-978d502f6d8f, .\37 7051de7-f2df-49a2-b035-116d7946e952 {
        fill: none;
      }

      .\37 2b7238e-bf2c-437b-9a10-978d502f6d8f {
        stroke: #fff;
        stroke-linecap: round;
        stroke-linejoin: round;
        stroke-width: 5px;
        stroke-dasharray: 61.012 61.012 22.627 33.941 11.314 33.941;
      }

      .c3689dee-7e69-4976-a279-1bfce9e1f66d {
        fill: #fff;
      }

      .\33 7d82129-c990-49c6-8916-b95bd28146f4 {
        fill: #e4e4e4;
      }

      .\31 7ba433f-f48c-4853-b2b3-aa30ab309d7b {
        fill: #0093cd;
      }

      .\31 52c6230-3e03-4fb2-9d2b-9bdd49e0261b {
        fill: #15bef0;
      }
    </style>
  </defs>
  <title>space2</title>
  <g>
    <g >
      <circle class="72b7238e-bf2c-437b-9a10-978d502f6d8f" cx="386.334" cy="313.192" r="285"/>
      <g>
        <ellipse class="c3689dee-7e69-4976-a279-1bfce9e1f66d" cx="783.364" cy="431.692" rx="16.5" ry="16.686" transform="translate(-75.81 680.362) rotate(-45)"/>
        <g>
          <circle class="37d82129-c990-49c6-8916-b95bd28146f4" cx="787.056" cy="424.705" r="2.983"/>
          <circle class="37d82129-c990-49c6-8916-b95bd28146f4" cx="782.573" cy="437.097" r="1.864"/>
          <circle class="37d82129-c990-49c6-8916-b95bd28146f4" cx="775.191" cy="428.66" r="0.746"/>
          <path class="37d82129-c990-49c6-8916-b95bd28146f4" d="M774.905,417.32a16.309,16.309,0,0,0-3.34,2.573,16.721,16.721,0,0,0,16.091,27.873c-7.675-3.4-11.717-7.856-13.61-12.433.03-.028.061-.053.09-.082a2.708,2.708,0,0,0-.132-3.823,2.93,2.93,0,0,0-1.2-.728A26.464,26.464,0,0,1,774.905,417.32Z" transform="translate(0 0)"/>
        </g>
      </g>
      <g>
        <ellipse class="c3689dee-7e69-4976-a279-1bfce9e1f66d" cx="152.333" cy="599.33" rx="17.5" ry="17.698"/>
        <g>
          <circle class="37d82129-c990-49c6-8916-b95bd28146f4" cx="160.342" cy="596.858" r="3.164"/>
          <circle class="37d82129-c990-49c6-8916-b95bd28146f4" cx="147.686" cy="602.791" r="1.977"/>
          <circle class="37d82129-c990-49c6-8916-b95bd28146f4" cx="148.477" cy="590.926" r="0.791"/>
          <path class="37d82129-c990-49c6-8916-b95bd28146f4" d="M156.768,582.207a17.349,17.349,0,0,0-4.435-.574A17.734,17.734,0,0,0,143.5,614.6c-3.2-8.307-2.894-14.679-.882-19.532.043,0,.085.007.129.007a2.872,2.872,0,0,0,2.768-2.966,3.12,3.12,0,0,0-.351-1.445A28.078,28.078,0,0,1,156.768,582.207Z" transform="translate(0 0)"/>
        </g>
      </g>
      <g>
        <path class="c3689dee-7e69-4976-a279-1bfce9e1f66d" d="M773.158,306.166l-3.885,2.868a1.035,1.035,0,0,0-.355.466l-1.724,4.511a1.043,1.043,0,0,1-1.813.247l-2.868-3.885a1.049,1.049,0,0,0-.466-.355l-4.511-1.723a1.043,1.043,0,0,1-.247-1.813l3.885-2.868a1.048,1.048,0,0,0,.354-.467l1.724-4.511a1.043,1.043,0,0,1,1.813-.247l2.868,3.885a1.043,1.043,0,0,0,.467.355l4.511,1.724A1.043,1.043,0,0,1,773.158,306.166Z" transform="translate(0 0)"/>
        <path class="c3689dee-7e69-4976-a279-1bfce9e1f66d" d="M654.873,63.437l-4.542,1.64a1.034,1.034,0,0,0-.473.346l-2.94,3.831a1.042,1.042,0,0,1-1.808-.281l-1.64-4.542a1.047,1.047,0,0,0-.346-.473l-3.831-2.939a1.043,1.043,0,0,1,.281-1.809l4.542-1.639a1.052,1.052,0,0,0,.473-.346l2.939-3.832a1.044,1.044,0,0,1,1.809.281l1.639,4.542a1.041,1.041,0,0,0,.346.473l3.832,2.94A1.043,1.043,0,0,1,654.873,63.437Z" transform="translate(0 0)"/>
        <path class="c3689dee-7e69-4976-a279-1bfce9e1f66d" d="M719.149,7.917l-3.793,2.988a1.044,1.044,0,0,0-.34.478l-1.582,4.563a1.042,1.042,0,0,1-1.8.3l-2.989-3.793a1.036,1.036,0,0,0-.477-.34L703.6,10.534a1.042,1.042,0,0,1-.3-1.8l3.793-2.988a1.054,1.054,0,0,0,.34-.478L709.012.7a1.043,1.043,0,0,1,1.805-.3l2.988,3.793a1.039,1.039,0,0,0,.478.34l4.562,1.582A1.042,1.042,0,0,1,719.149,7.917Z" transform="translate(0 0)"/>
        <path class="c3689dee-7e69-4976-a279-1bfce9e1f66d" d="M42.158,371.166l-3.885,2.868a1.035,1.035,0,0,0-.355.466l-1.724,4.511a1.043,1.043,0,0,1-1.813.247l-2.868-3.885a1.049,1.049,0,0,0-.466-.355L26.536,373.3a1.043,1.043,0,0,1-.247-1.813l3.885-2.868a1.048,1.048,0,0,0,.354-.467l1.724-4.511a1.043,1.043,0,0,1,1.813-.247l2.868,3.885a1.043,1.043,0,0,0,.467.355l4.511,1.724A1.043,1.043,0,0,1,42.158,371.166Z" transform="translate(0 0)"/>
        <path class="c3689dee-7e69-4976-a279-1bfce9e1f66d" d="M80.695,67.39l-4.542,1.64a1.047,1.047,0,0,0-.473.346l-2.94,3.831a1.043,1.043,0,0,1-1.808-.281l-1.64-4.542a1.038,1.038,0,0,0-.346-.473l-3.831-2.939a1.044,1.044,0,0,1,.281-1.809l4.542-1.639a1.047,1.047,0,0,0,.473-.346l2.94-3.832a1.043,1.043,0,0,1,1.808.281l1.64,4.542a1.027,1.027,0,0,0,.346.473l3.831,2.94A1.043,1.043,0,0,1,80.695,67.39Z" transform="translate(0 0)"/>
        <path class="c3689dee-7e69-4976-a279-1bfce9e1f66d" d="M144.971,11.87l-3.793,2.989a1.036,1.036,0,0,0-.34.477L139.256,19.9a1.042,1.042,0,0,1-1.8.3l-2.988-3.793a1.059,1.059,0,0,0-.478-.34l-4.562-1.581a1.043,1.043,0,0,1-.3-1.8L132.913,9.7a1.039,1.039,0,0,0,.34-.478l1.582-4.562a1.042,1.042,0,0,1,1.8-.3l2.988,3.793a1.039,1.039,0,0,0,.478.34l4.562,1.582A1.042,1.042,0,0,1,144.971,11.87Z" transform="translate(0 0)"/>
        <path class="c3689dee-7e69-4976-a279-1bfce9e1f66d" d="M747.158,641.166l-3.885,2.868a1.035,1.035,0,0,0-.355.466l-1.724,4.511a1.043,1.043,0,0,1-1.813.247l-2.868-3.885a1.049,1.049,0,0,0-.466-.355l-4.511-1.723a1.043,1.043,0,0,1-.247-1.813l3.885-2.868a1.048,1.048,0,0,0,.354-.467l1.724-4.511a1.043,1.043,0,0,1,1.813-.247l2.868,3.885a1.043,1.043,0,0,0,.467.355l4.511,1.724A1.043,1.043,0,0,1,747.158,641.166Z" transform="translate(0 0)"/>
        <path class="c3689dee-7e69-4976-a279-1bfce9e1f66d" d="M599.873,586.437l-4.542,1.64a1.034,1.034,0,0,0-.473.346l-2.94,3.831a1.042,1.042,0,0,1-1.808-.281l-1.64-4.542a1.047,1.047,0,0,0-.346-.473l-3.831-2.939a1.043,1.043,0,0,1,.281-1.809l4.542-1.639a1.052,1.052,0,0,0,.473-.346l2.939-3.832a1.044,1.044,0,0,1,1.809.281l1.639,4.542a1.041,1.041,0,0,0,.346.473l3.832,2.94A1.043,1.043,0,0,1,599.873,586.437Z" transform="translate(0 0)"/>
        <path class="c3689dee-7e69-4976-a279-1bfce9e1f66d" d="M727.454,471.6l-4.741.918a1.036,1.036,0,0,0-.521.268l-3.5,3.33a1.043,1.043,0,0,1-1.743-.557l-.917-4.741a1.036,1.036,0,0,0-.268-.521l-3.33-3.5a1.043,1.043,0,0,1,.557-1.743l4.741-.917a1.038,1.038,0,0,0,.521-.269l3.5-3.33a1.043,1.043,0,0,1,1.743.557l.917,4.741a1.038,1.038,0,0,0,.269.521l3.33,3.5A1.042,1.042,0,0,1,727.454,471.6Z" transform="translate(0 0)"/>
        <path class="c3689dee-7e69-4976-a279-1bfce9e1f66d" d="M64.872,631.174l-2.636,4.046a1.046,1.046,0,0,0-.169.561l-.037,4.829a1.043,1.043,0,0,1-1.612.866l-4.045-2.636a1.04,1.04,0,0,0-.562-.169l-4.829-.037a1.043,1.043,0,0,1-.865-1.612l2.636-4.046a1.046,1.046,0,0,0,.169-.561l.037-4.829a1.043,1.043,0,0,1,1.612-.866l4.046,2.636a1.037,1.037,0,0,0,.561.169l4.829.037A1.042,1.042,0,0,1,64.872,631.174Z" transform="translate(0 0)"/>
        <g>
          <ellipse class="c3689dee-7e69-4976-a279-1bfce9e1f66d" cx="44.25" cy="133.895" rx="44.25" ry="44.75"/>
          <g>
            <circle class="37d82129-c990-49c6-8916-b95bd28146f4" cx="64.5" cy="127.645" r="8"/>
            <circle class="37d82129-c990-49c6-8916-b95bd28146f4" cx="32.5" cy="142.645" r="5"/>
            <circle class="37d82129-c990-49c6-8916-b95bd28146f4" cx="34.5" cy="112.645" r="2"/>
            <path class="37d82129-c990-49c6-8916-b95bd28146f4" d="M55.463,90.6A43.848,43.848,0,0,0,44.25,89.145C19.812,89.145,0,109.18,0,133.9a44.813,44.813,0,0,0,21.905,38.62c-8.1-21-7.318-37.117-2.231-49.388.109.006.216.018.326.018a7.263,7.263,0,0,0,7-7.5,7.867,7.867,0,0,0-.889-3.652C34.566,100.9,46.559,94.274,55.463,90.6Z" transform="translate(0 0)"/>
          </g>
        </g>
      </g>
    </g>
    <g class="satalite-area">
      <g class="satalite">
        <path class="c3689dee-7e69-4976-a279-1bfce9e1f66d" d="M669.17,201.533a18.114,18.114,0,0,0,1.321-18.108l3.954-3.954a31.414,31.414,0,0,0,39.284-4.66,2.8,2.8,0,0,0-.024-3.934l-17.967-17.966,16.937-16.936a7,7,0,1,0-4.653-4.652l-16.936,16.936-17.927-17.927a2.8,2.8,0,0,0-3.934-.024,31.435,31.435,0,0,0-4.112,40.135l-4.058,4.058a18.152,18.152,0,0,0-17.33,1.9l-46.413-45.846a2.8,2.8,0,1,0-3.933,3.982l46.306,45.741a18.086,18.086,0,0,0-3.758,11.041c0,.309.031.61.046.914l-9.7,9.7a2.8,2.8,0,0,0,0,3.958l4.9,4.9-7.2,7.87-3.138-3.138a1.9,1.9,0,0,0-2.679,0l-8.036,8.036a1.9,1.9,0,0,0,0,2.679l8.036,8.036a1.894,1.894,0,0,0,2.679,0l8.036-8.036a1.894,1.894,0,0,0,0-2.679l-2.217-2.217,7.2-7.87,4.288,4.289a2.8,2.8,0,0,0,3.958,0l8.589-8.589a18.05,18.05,0,0,0,14.646-3.558l42.788,42.266a2.8,2.8,0,1,0,3.934-3.982Z" transform="translate(0 0)"/>
        <rect class="17ba433f-f48c-4853-b2b3-aa30ab309d7b" x="602.046" y="117.417" width="17.846" height="17.846" transform="translate(89.614 469.027) rotate(-45)"/>
        <rect class="17ba433f-f48c-4853-b2b3-aa30ab309d7b" x="616.959" y="132.331" width="17.846" height="17.846" transform="translate(83.434 483.936) rotate(-45)"/>
        <rect class="17ba433f-f48c-4853-b2b3-aa30ab309d7b" x="631.872" y="147.244" width="17.846" height="17.846" transform="translate(77.258 498.85) rotate(-45)"/>
        <rect class="17ba433f-f48c-4853-b2b3-aa30ab309d7b" x="578.935" y="137.129" width="17.846" height="17.846" transform="translate(68.903 458.453) rotate(-45)"/>
        <rect class="17ba433f-f48c-4853-b2b3-aa30ab309d7b" x="593.848" y="152.042" width="17.846" height="17.846" transform="translate(62.726 473.366) rotate(-45)"/>
        <rect class="17ba433f-f48c-4853-b2b3-aa30ab309d7b" x="608.761" y="166.956" width="17.846" height="17.846" transform="translate(56.55 488.282) rotate(-45)"/>
        <rect class="152c6230-3e03-4fb2-9d2b-9bdd49e0261b" x="679.81" y="195.383" width="17.846" height="17.846" transform="translate(57.257 546.844) rotate(-45)"/>
        <rect class="152c6230-3e03-4fb2-9d2b-9bdd49e0261b" x="694.723" y="210.296" width="17.846" height="17.846" transform="translate(51.082 561.76) rotate(-45)"/>
        <rect class="152c6230-3e03-4fb2-9d2b-9bdd49e0261b" x="709.636" y="225.209" width="17.846" height="17.846" transform="translate(44.905 576.674) rotate(-45)"/>
        <rect class="152c6230-3e03-4fb2-9d2b-9bdd49e0261b" x="658.699" y="215.095" width="17.846" height="17.846" transform="translate(37.137 537.691) rotate(-45)"/>
        <rect class="152c6230-3e03-4fb2-9d2b-9bdd49e0261b" x="673.612" y="230.008" width="17.846" height="17.846" transform="translate(30.959 552.603) rotate(-45)"/>
        <rect class="152c6230-3e03-4fb2-9d2b-9bdd49e0261b" x="688.525" y="244.921" width="17.846" height="17.846" transform="translate(24.782 567.518) rotate(-45)"/>
        <path class="37d82129-c990-49c6-8916-b95bd28146f4" d="M672.909,130.082a2.8,2.8,0,0,0-3.934-.024,31.4,31.4,0,0,0-4.106,40.119l-.006.016-4.161,4.03a18.159,18.159,0,0,0-25.025,16.843c0,.31.026.614.041.92l-9.7,9.7a2.8,2.8,0,0,0,0,3.958l4.9,4.9-7.2,7.87-3.138-3.138a1.9,1.9,0,0,0-2.679,0l-8.036,8.036a1.9,1.9,0,0,0,0,2.679l8.036,8.036a1.894,1.894,0,0,0,2.679,0l8.036-8.036a1.894,1.894,0,0,0,0-2.679L626.4,221.1l6.565-7.171a17.373,17.373,0,0,1,1.07-4.347,54.146,54.146,0,0,1,5.362-7.515c.161.211.313.429.483.633,5.147-7.59,14.79-20.042,25.751-25.491-.154-.131.294-.262.294-.262l1-4,0-.036.015.018c2.529-6.139,9.879-21.042,23.12-25.685Z" transform="translate(0 0)"/>
      </g>
      <circle class="77051de7-f2df-49a2-b035-116d7946e952" cx="386.334" cy="313.192" r="5.295"/>
    </g>
  </g>
</svg>
