<svg id="e1c4770f-d630-4a3d-960c-d17cdf4fc624" data-name="Layer 1" xmlns="http://www.w3.org/2000/svg" xmlns:xlink="http://www.w3.org/1999/xlink" viewBox="0 0 1281.989 985.1">
  <defs>
    <style>
      .\30 5224f5d-cfe3-443e-94dd-0150fb2620c8 {
        fill: none;
      }

      .b65f3f58-1f16-476e-a318-7cb3aac92053 {
        clip-path: url(#281a5502-005f-4684-af74-deb6bacda5ec);
      }

      .\35 440c95f-e1af-407c-b11c-bd2006855b05 {
        fill: #009639;
      }

      .\31 595dab7-2438-49ce-b186-8eeb90204158 {
        fill: #82bc00;
      }

      .\35 227b451-a71a-46e1-9a17-6938120a3a87 {
        fill: #709606;
      }

      .a526bb51-cbe9-411d-9070-2287a92202cb {
        fill: #5e6367;
      }

      .eba254b0-60f5-4f79-8225-1f0fd87b45e8 {
        fill: #e4e4e4;
      }

      .e43b8a5f-0954-43d1-91d6-306473d7bd70 {
        fill: #666;
      }

      .\38 399c672-a8fa-4437-94de-27e08f5520df {
        fill: #fff;
      }

      .\33 2df8e95-4714-481e-931c-7ff0e07b48b3 {
        fill: #333;
      }

      .\33 c589a2f-675f-4455-a7f9-71f960d7ec7d {
        fill: #006747;
      }

      .\37 30eae46-e457-484f-804e-94155a57382c {
        clip-path: url(#6d53025f-4abd-464f-a69b-ad37ae568f5c);
      }

      .c68cdb51-861b-4647-bf3f-625f0931d48f {
        fill: #592007;
      }

      .c2d98caf-0e4c-489c-9b68-48b82b0b9f97 {
        fill: #15bef0;
      }

      .\37 6f2fdcb-fc02-45c9-86af-88a9dda23839 {
        fill: #002f60;
      }

      .\30 d60ade1-7bc8-454f-84ed-8c5176d31189 {
        fill: #8dd3f0;
      }

      .\38 233b40f-b106-486b-b18b-51f53f82c6d7 {
        fill: #073586;
      }

      .\39 8ca194b-32b7-45ce-93bf-4141911da400 {
        fill: #06873d;
      }
    </style>
    <clipPath id="281a5502-005f-4684-af74-deb6bacda5ec" transform="translate(0.002)">
      <rect class="05224f5d-cfe3-443e-94dd-0150fb2620c8" x="0.667" y="260" width="1281" height="725.1"/>
    </clipPath>
    <clipPath id="6d53025f-4abd-464f-a69b-ad37ae568f5c" transform="translate(0.002)">
      <rect class="05224f5d-cfe3-443e-94dd-0150fb2620c8" x="-1.333" y="185" width="148" height="386"/>
    </clipPath>
  </defs>
  <title>windmill</title>
  <g id="a062c993-5d5e-4936-9c1a-af38cb8fbbfc" data-name="Layer 2">
    <g id="155c9e87-24f7-4581-a59e-56e2bb2959cc" data-name="wind">
      <g class="b65f3f58-1f16-476e-a318-7cb3aac92053">
        <g>
          <path class="5440c95f-e1af-407c-b11c-bd2006855b05" d="M1042.667,450a360.625,360.625,0,0,1,239.217,90.3c.324.286-.217,3.9-.217,7.453v128c0,.333.433,2.075,0,2.131-180.9,23.082-585.3,21.862-570.147-12.344a361.853,361.853,0,0,1,46.145-76.762C823.934,504.285,926.961,450,1042.667,450Z" transform="translate(0.002)"/>
          <path class="5440c95f-e1af-407c-b11c-bd2006855b05" d="M314.667,377c116.29,0,219.773,54.835,286,140.059q10.863,13.976,20.356,29.01c35.245,55.85-619.482-15.236-542.3-81.624Q91.218,453.7,104.673,444.1A360.349,360.349,0,0,1,314.667,377Z" transform="translate(0.002)"/>
          <path class="1595dab7-2438-49ce-b186-8eeb90204158" d="M1086.667,511A360.457,360.457,0,0,0,861.65,589.421C789.263,472.155,659.594,394,511.667,394a409.092,409.092,0,0,0-230.458,70.646A325.541,325.541,0,0,0,84.667,399a284.082,284.082,0,0,0-84,12.759c-.247.076-.468.148-.666.215V985.1H1281.667V961c0-96.183-.3-287.167.035-391.833l-.035-1.21A360.3,360.3,0,0,0,1086.667,511Z" transform="translate(0.002)"/>
          <path class="5227b451-a71a-46e1-9a17-6938120a3a87" d="M719.967,629.2l-8.2-1-156.8,23,5,.7-7.5,1c-4.4-.3-9.4-.4-14.8-.4l-58.5-64.2-51.8,2.7,92.7,62.4a93.146,93.146,0,0,0-11.8,1.7l-9.1-.2,2-.8c-17.1-1.2-27-4.8-27-4.8l-171.5,3.3-3.5,1.8,190.8,4.5,2.7-1.1,8.6.2a.98.98,0,0,0,.3,1.2c2.5,2.1,14.9,3.3,29.4,3l1.3,1.2-5.6.3-.3.3-.4-.2c-2.2,3.1-20.9,6.7-20.9,6.7l74.2,20.2-1.1-.6.9.3,11.8-.7-32-27.6-7.7.4-1.4-1.3c12.2-1.3,19.4-3.4,17-5.4a5.155,5.155,0,0,0-2-.9l7.6-1.1,3.6.5c2-.2,4.2-.4,6.4-.5l-4.5.8c19.6-1.8,49.4-2,49.4-2l95.3-23.3-7.2,1.3Z" transform="translate(0.002)"/>
        </g>
      </g>
      <polygon class="a526bb51-cbe9-411d-9070-2287a92202cb" points="441.268 219.6 428.468 590 470.068 590 455.068 214.3 447.668 194 441.268 219.6"/>
      <path class="3c589a2f-675f-4455-a7f9-71f960d7ec7d" d="M444.667,566s-6.4,0-9,4.3a49.284,49.284,0,0,0-9-12.3c-18-18-16,5-16,5s3-8,6-7,14,10,17,21a57.794,57.794,0,0,1,1.8,10.1c-3.1-6.8-8.7-18.1-10.8-18.1-3,0-5-5-5-5a20.39,20.39,0,0,0,1,6c1,3,7,8,9,11,1.7,2.5,1.9,7,2,8.5-1.9-3.2-4.6-6.5-8-7.5-7-2-10,3-10,3s5-2,9-1,10,14,10,14h1.3c1.7.6,6.8,0,6.8,0a46.22,46.22,0,0,0-2.5-21.8c1.3-2.7,3.2-6,5.5-7.2,4-2,10,1,13,5S453.667,566,444.667,566Z" transform="translate(0.002)"/>
      <path class="3c589a2f-675f-4455-a7f9-71f960d7ec7d" d="M459.067,575.8s4.3,0,6,2.8a34.058,34.058,0,0,1,6-8.1c11.9-11.9,10.6,3.3,10.6,3.3s-2-5.3-4-4.6-9.3,6.6-11.3,13.9a37.618,37.618,0,0,0-1.2,6.7c2.1-4.5,5.8-12,7.2-12,2,0,3.3-3.3,3.3-3.3a13.442,13.442,0,0,1-.7,4c-.7,2-4.6,5.3-6,7.3-1.1,1.7-1.3,4.7-1.3,5.7,1.2-2.1,3-4.3,5.3-5,4.6-1.3,6.6,2,6.6,2a12.185,12.185,0,0,0-6-.7c-2.7.6-6.6,9.3-6.6,9.3h-.8a16.95,16.95,0,0,1-4.5,0,31.167,31.167,0,0,1,1.6-14.5c-.8-1.8-2.1-4-3.6-4.8-2.7-1.3-6.6.7-8.6,3.3S453.067,575.8,459.067,575.8Z" transform="translate(0.002)"/>
      <g class="730eae46-e457-484f-804e-94155a57382c">
        <g>
          <path class="c68cdb51-861b-4647-bf3f-625f0931d48f" d="M60.767,382.5a10.392,10.392,0,0,0-10.4,10.4h0v49.2h-39.2v1.7h-3.3V489H0v20.8H7.867V554h35V463h17.5a11.087,11.087,0,0,0,10.8-10.8V393A10.477,10.477,0,0,0,60.767,382.5Z" transform="translate(0.002)"/>
          <path class="5440c95f-e1af-407c-b11c-bd2006855b05" d="M112.667,360a37.4,37.4,0,0,0-41.8-32.6c-.2,0-.4.1-.7.1a37.592,37.592,0,0,0-42.3-28.3,37.233,37.233,0,0,0-27.2-12.116c-.313,0-.523,0-.667,0v.5C0,295.035.021,459.6.021,462.527.021,463.6,0,465.59,0,465.59a2.781,2.781,0,0,0,.669.724,28.428,28.428,0,0,0,17.2,5.986c13.9,0,25.5-10.3,27.9-23.9l13.8-6.1-1.5-44.3a24.083,24.083,0,0,0,3.3,1.5c1.9,19.3,17.8,34.4,37.1,34.4,20.6,0,37.3-17.2,37.3-38.4A38.41,38.41,0,0,0,112.667,360Z" transform="translate(0.002)"/>
        </g>
      </g>
      <path class="c68cdb51-861b-4647-bf3f-625f0931d48f" d="M1219.467,394.3a6.274,6.274,0,0,0-6.3,6.3h0V430h-23.5v1h-2v27h-15.8V428.5a6.3,6.3,0,0,0-12.6,0V464a6.759,6.759,0,0,0,6.5,6.5h21.8V497h21V442.5h10.5a6.759,6.759,0,0,0,6.5-6.5V400.5a6.023,6.023,0,0,0-6.1-6.2Z" transform="translate(0.002)"/>
      <path class="5440c95f-e1af-407c-b11c-bd2006855b05" d="M1250.467,380.7a22.462,22.462,0,0,0-22.3-19.7c-1,0-2.1.1-3.1.2a22.478,22.478,0,0,0-21.9-17.2,18.7,18.7,0,0,0-3.4.3,22.5,22.5,0,0,0-39,15.2,8.6,8.6,0,0,0,.1,1.6,11.329,11.329,0,0,0-2.6-.1,22.586,22.586,0,0,0-22.6,22,22.652,22.652,0,0,0-13.6,11.4,22.518,22.518,0,1,0,25.5,36.6,18,18,0,0,0,17.2,13,17.313,17.313,0,0,0,13.5-6.4,16.825,16.825,0,0,0,32.2-4l8.3-3.6-.9-26.5c.7.3,1.3.6,2,.9,1.2,11.6,10.7,20.6,22.2,20.6,12.3,0,22.3-10.3,22.3-23A23.038,23.038,0,0,0,1250.467,380.7Z" transform="translate(0.002)"/>
      <path class="c68cdb51-861b-4647-bf3f-625f0931d48f" d="M1187.667,497a11.921,11.921,0,0,0,10,5,14.945,14.945,0,0,0,11-5Z" transform="translate(0.002)"/>
      <path class="c68cdb51-861b-4647-bf3f-625f0931d48f" d="M672.567,384.9a2.476,2.476,0,0,0-2.5,2.5v11.8h-9.4v.4h-.8v10.8h-6.3V398.6a2.5,2.5,0,1,0-5,0v14.2a2.647,2.647,0,0,0,2.6,2.6h8.7V426h8.4V404.2h4.2a2.647,2.647,0,0,0,2.6-2.6V387.4A2.476,2.476,0,0,0,672.567,384.9Z" transform="translate(0.002)"/>
      <path class="5440c95f-e1af-407c-b11c-bd2006855b05" d="M684.967,379.5a9.044,9.044,0,0,0-8.9-7.9,6.151,6.151,0,0,0-1.3.1,13.355,13.355,0,0,0-25.8-.7v.7c-.3,0-.7-.1-1-.1a8.986,8.986,0,0,0-9,8.8,8.823,8.823,0,0,0-5.4,4.6,9.011,9.011,0,1,0,8.1,16.1,8.008,8.008,0,0,0,2.1-1.5,7.393,7.393,0,0,0,6.8,5.2,6.936,6.936,0,0,0,5.4-2.5,6.762,6.762,0,0,0,12.9-1.6l3.3-1.5-.3-10.6c.3.1.5.3.8.4a8.914,8.914,0,0,0,17.8-1A9.04,9.04,0,0,0,684.967,379.5Z" transform="translate(0.002)"/>
      <path class="c68cdb51-861b-4647-bf3f-625f0931d48f" d="M659.867,426a4.794,4.794,0,0,0,4,2,5.707,5.707,0,0,0,4.4-2Z" transform="translate(0.002)"/>
      <polygon class="5227b451-a71a-46e1-9a17-6938120a3a87" points="1010.668 525 1131.668 582 1189.168 560 1111.968 529.1 1010.668 525"/>
      <path class="c2d98caf-0e4c-489c-9b68-48b82b0b9f97" d="M1094.867,439l30.8,40.6-72.1,14-30.2-44.3,22.4-3.2v.1l15.6-2.2v-.1Zm18.9,39.4-25.4-35.1-52.4,6.8-.2,1.1,24.6,37.2Z" transform="translate(0.002)"/>
      <path class="76f2fdcb-fc02-45c9-86af-88a9dda23839" d="M1125.667,479.7l-1.4,2.1-72.3,14.8-28.9-43.7-23.7,24.8a7.24,7.24,0,0,0-1.1-1.9h0l24-26.2,1.1-.2,30.2,44.3Z" transform="translate(0.002)"/>
      <path class="8399c672-a8fa-4437-94de-27e08f5520df" d="M1088.367,443.3l25.4,35.1-53.4,10-24.6-37.2.2-1.1Zm22.4,32.6-11.1-14.6-9.8,1.6,10.5,14.5Zm-12,2.4-11.1-15.4-9.8,1.9,10.3,15.2Zm-.4-18.8-10.3-14.1-10.2,1,10.5,14.5Zm-11.6,1.9-10.5-14.6-10.8,1.6,10.8,14.6Zm-.8,19.1-9.5-14.9-11.8,1.8,10.2,15.6Zm-11.3-17-11.1-15.1-11,1.4,10.5,15.4Zm-1.4,19.7-10.8-15.6-11.1,1.9,10.3,16.4Zm-11.6-17.5-10.6-15.6-11.9,1.9,10.5,15.4Z" transform="translate(0.002)"/>
      <path class="76f2fdcb-fc02-45c9-86af-88a9dda23839" d="M1113.467,484.1l-1.4,44.9-57.4,16-13.2-6.5-.5-33.2,1.3-.1-.3-4-11.1-17.5-6.8.8-10.2,10,.2,3.3,3,.1-.2-2.7,7.8-7,11.1,17.6.3,34.5-2.5-1,.1-1.3-.2-30.6-12.2-4.8-1.9-.5.3,30.8-2.2-1v-3.7l-6.8-3.3-.8-47.8-.2-3.6,15.6-16.4,26.7,39.4Zm-8.6,37.4V499.4l-13.7,3.3-.2,21.7Zm-28.6,7.1-.3-23-14.8,3.6.2,23Z" transform="translate(0.002)"/>
      <polygon class="76f2fdcb-fc02-45c9-86af-88a9dda23839" points="1099.568 461.3 1110.768 475.9 1100.268 477.3 1089.768 462.9 1099.568 461.3"/>
      <polygon class="0d60ade1-7bc8-454f-84ed-8c5176d31189" points="1104.868 499.4 1104.868 521.5 1091.068 524.5 1091.168 502.7 1104.868 499.4"/>
      <polygon class="76f2fdcb-fc02-45c9-86af-88a9dda23839" points="1087.668 462.9 1098.768 478.3 1088.168 480 1077.868 464.8 1087.668 462.9"/>
      <polygon class="76f2fdcb-fc02-45c9-86af-88a9dda23839" points="1087.968 445.4 1098.368 459.5 1088.368 460.8 1077.868 446.4 1087.968 445.4"/>
      <polygon class="76f2fdcb-fc02-45c9-86af-88a9dda23839" points="1076.268 446.8 1086.768 461.4 1076.268 463 1065.468 448.4 1076.268 446.8"/>
      <polygon class="76f2fdcb-fc02-45c9-86af-88a9dda23839" points="1076.468 465.6 1085.968 480.5 1074.868 482.9 1064.668 467.3 1076.468 465.6"/>
      <polygon class="0d60ade1-7bc8-454f-84ed-8c5176d31189" points="1075.968 505.6 1076.268 528.6 1061.368 532.3 1061.168 509.2 1075.968 505.6"/>
      <polygon class="76f2fdcb-fc02-45c9-86af-88a9dda23839" points="1063.568 448.4 1074.668 463.5 1063.068 465.3 1052.568 449.8 1063.568 448.4"/>
      <polygon class="76f2fdcb-fc02-45c9-86af-88a9dda23839" points="1062.468 467.6 1073.268 483.2 1061.668 485.9 1051.368 469.5 1062.468 467.6"/>
      <polygon class="76f2fdcb-fc02-45c9-86af-88a9dda23839" points="1063.068 437.6 1063.268 441 1061.168 440.6 1061.368 443.9 1045.768 446.1 1045.568 440.6 1043.068 440.5 1042.968 437.3 1054.168 435.1 1063.068 437.6"/>
      <polygon class="76f2fdcb-fc02-45c9-86af-88a9dda23839" points="1050.968 450.2 1061.668 465.7 1049.568 467.5 1039.068 452.1 1050.968 450.2"/>
      <path class="c2d98caf-0e4c-489c-9b68-48b82b0b9f97" d="M1023.067,452.9l28.9,43.7-26.7-39.4-15.6,16.4.2,3.6s-10.5,1-10.5.5Z" transform="translate(0.002)"/>
      <polygon class="8399c672-a8fa-4437-94de-27e08f5520df" points="1041.968 501.1 1042.268 505.1 1040.968 505.3 1040.968 505.1 1035.768 505.9 1024.668 488.3 1016.868 495.2 1016.868 495.1 1013.968 497.8 1013.868 494.5 1023.968 484.5 1036.568 503.5 1041.768 503.4 1041.968 501.1"/>
      <polygon class="0d60ade1-7bc8-454f-84ed-8c5176d31189" points="1030.868 483.7 1041.968 501.1 1041.768 503.4 1036.568 503.5 1023.968 484.5 1030.868 483.7"/>
      <polygon class="0d60ade1-7bc8-454f-84ed-8c5176d31189" points="1040.968 505.3 1041.468 538.5 1036.068 540.3 1035.768 505.9 1040.968 505.3"/>
      <polygon class="0d60ade1-7bc8-454f-84ed-8c5176d31189" points="1040.968 505.1 1040.968 505.3 1035.768 505.9 1040.968 505.1"/>
      <polygon class="8399c672-a8fa-4437-94de-27e08f5520df" points="1033.568 507.3 1033.668 538 1021.768 532.3 1021.368 502.6 1033.568 507.3"/>
      <polygon class="0d60ade1-7bc8-454f-84ed-8c5176d31189" points="1021.368 502.6 1021.768 532.3 1019.768 532.9 1019.468 502.1 1021.368 502.6"/>
      <polygon class="0d60ade1-7bc8-454f-84ed-8c5176d31189" points="1016.868 495.2 1017.068 498 1013.968 497.8 1016.868 495.2"/>
      <polygon class="0d60ade1-7bc8-454f-84ed-8c5176d31189" points="1016.868 495.1 1016.868 495.2 1013.968 497.8 1016.868 495.1"/>
      <path class="8233b40f-b106-486b-b18b-51f53f82c6d7" d="M999.367,477.6l-1.1-1.9A5.243,5.243,0,0,1,999.367,477.6Z" transform="translate(0.002)"/>
      <polygon class="5227b451-a71a-46e1-9a17-6938120a3a87" points="516.068 470.8 679.868 548 757.668 518.2 653.168 476.4 516.068 470.8"/>
      <path class="c2d98caf-0e4c-489c-9b68-48b82b0b9f97" d="M629.967,354.5l41.7,55-97.6,18.9-40.8-60,30.3-4.4v.1l21.1-3V361Zm25.6,53.3-34.4-47.5-70.9,9.3-.2,1.5,33.3,50.3Z" transform="translate(0.002)"/>
      <path class="76f2fdcb-fc02-45c9-86af-88a9dda23839" d="M671.667,409.5l-1.9,2.8-97.8,20-39.1-59.1-32,33.5a6.437,6.437,0,0,0-1.5-2.5h0l32.5-35.5,1.5-.2,40.8,60Z" transform="translate(0.002)"/>
      <path class="8399c672-a8fa-4437-94de-27e08f5520df" d="M621.167,360.3l34.4,47.5-72.2,13.5-33.4-50.3.2-1.5Zm30.3,44.1-15-19.8-13.3,2.1,14.2,19.6Zm-16.1,3.2-15-20.9-13.3,2.6,14,20.6Zm-.7-25.4-14-19.1-13.8,1.3,14.2,19.6Zm-15.7,2.6-14.1-19.8-14.6,2.1,14.6,19.9Zm-1.1,25.8-12.9-20.2-15.9,2.4,13.8,21.1Zm-15.2-23-15-20.4-14.8,1.9,14.2,20.9Zm-2,26.6-14.6-21.1-15,2.6,14,22.1Zm-15.6-23.6-14.4-21.1-16.1,2.6,14.1,20.9Z" transform="translate(0.002)"/>
      <path class="76f2fdcb-fc02-45c9-86af-88a9dda23839" d="M655.167,415.5l-1.9,60.8-77.6,21.5-17.8-8.9-.6-44.9,1.7-.2-.4-5.4-15-23.6-9.3,1.2-13.8,13.5.2,4.5,4.1.2-.2-3.7,10.5-9.4,15,23.9.4,46.6-3.4-1.3.2-1.9-.2-41.5-16.5-6.4-2.6-.6.4,41.7-3-1.3v-4.9l-9.3-4.5-1.1-64.7-.2-5,21.1-22.1,36.1,53.3Zm-11.7,50.5V436.2l-18.5,4.5-.2,29.5Zm-38.6,9.7-.4-31.2-20,4.9.2,31.2Z" transform="translate(0.002)"/>
      <polygon class="76f2fdcb-fc02-45c9-86af-88a9dda23839" points="636.468 384.6 651.468 404.4 637.268 406.3 623.068 386.7 636.468 384.6"/>
      <polygon class="0d60ade1-7bc8-454f-84ed-8c5176d31189" points="643.468 436.2 643.468 466 624.868 470.1 625.068 440.7 643.468 436.2"/>
      <polygon class="76f2fdcb-fc02-45c9-86af-88a9dda23839" points="620.268 386.7 635.368 407.6 620.968 409.9 606.968 389.3 620.268 386.7"/>
      <polygon class="76f2fdcb-fc02-45c9-86af-88a9dda23839" points="620.768 363.1 634.668 382.2 621.168 383.9 606.968 364.4 620.768 363.1"/>
      <polygon class="76f2fdcb-fc02-45c9-86af-88a9dda23839" points="604.868 365 618.968 384.8 604.868 387 590.168 367.2 604.868 365"/>
      <polygon class="76f2fdcb-fc02-45c9-86af-88a9dda23839" points="605.068 390.4 617.968 410.6 602.868 413.8 589.168 392.8 605.068 390.4"/>
      <polygon class="0d60ade1-7bc8-454f-84ed-8c5176d31189" points="604.368 444.5 604.868 475.7 584.668 480.7 584.368 449.5 604.368 444.5"/>
      <polygon class="76f2fdcb-fc02-45c9-86af-88a9dda23839" points="587.668 367.2 602.668 387.6 586.968 390 572.768 369.1 587.668 367.2"/>
      <polygon class="76f2fdcb-fc02-45c9-86af-88a9dda23839" points="586.168 393.2 600.768 414.2 585.068 417.9 571.068 395.8 586.168 393.2"/>
      <polygon class="76f2fdcb-fc02-45c9-86af-88a9dda23839" points="586.968 352.6 587.168 357.1 584.368 356.6 584.668 361 563.568 364.1 563.368 356.6 559.868 356.4 559.668 352.1 574.968 349.1 586.968 352.6"/>
      <polygon class="76f2fdcb-fc02-45c9-86af-88a9dda23839" points="570.668 369.5 585.068 390.6 568.668 393 554.568 372.1 570.668 369.5"/>
      <path class="c2d98caf-0e4c-489c-9b68-48b82b0b9f97" d="M532.867,373.2l39.1,59.1-36.1-53.3-21.1,22.1.2,5s-14.2,1.3-14.2.6Z" transform="translate(0.002)"/>
      <polygon class="8399c672-a8fa-4437-94de-27e08f5520df" points="558.368 438.5 558.868 443.9 557.168 444.1 557.168 443.9 549.968 445 534.968 421.1 524.468 430.5 524.468 430.4 520.568 434 520.368 429.5 534.168 416 551.068 441.8 558.168 441.5 558.368 438.5"/>
      <polygon class="0d60ade1-7bc8-454f-84ed-8c5176d31189" points="543.368 414.9 558.368 438.5 558.168 441.5 551.068 441.8 534.168 416 543.368 414.9"/>
      <polygon class="0d60ade1-7bc8-454f-84ed-8c5176d31189" points="557.168 444.1 557.768 489 550.468 491.6 549.968 445 557.168 444.1"/>
      <polygon class="0d60ade1-7bc8-454f-84ed-8c5176d31189" points="557.168 443.9 557.168 444.1 549.968 445 557.168 443.9"/>
      <polygon class="8399c672-a8fa-4437-94de-27e08f5520df" points="546.968 446.9 547.268 488.4 531.068 480.7 530.468 440.5 546.968 446.9"/>
      <polygon class="0d60ade1-7bc8-454f-84ed-8c5176d31189" points="530.468 440.5 531.068 480.7 528.268 481.5 527.868 439.8 530.468 440.5"/>
      <polygon class="0d60ade1-7bc8-454f-84ed-8c5176d31189" points="524.468 430.5 524.668 434.2 520.568 434 524.468 430.5"/>
      <polygon class="0d60ade1-7bc8-454f-84ed-8c5176d31189" points="524.468 430.4 524.468 430.5 520.568 434 524.468 430.4"/>
      <path class="8233b40f-b106-486b-b18b-51f53f82c6d7" d="M500.767,406.7l-1.5-2.5A6.437,6.437,0,0,1,500.767,406.7Z" transform="translate(0.002)"/>
      <polygon class="98ca194b-32b7-45ce-93bf-4141911da400" points="296.868 385.1 340.268 405.6 360.968 397.7 333.168 386.6 296.868 385.1"/>
      <path class="c2d98caf-0e4c-489c-9b68-48b82b0b9f97" d="M327.067,354.3l11.1,14.6-25.9,5-10.9-15.9,8-1.2h0l5.6-.8h0Zm6.8,14.1-9.1-12.6-18.8,2.5v.4l8.7,13.3Z" transform="translate(0.002)"/>
      <path class="76f2fdcb-fc02-45c9-86af-88a9dda23839" d="M338.167,368.9l-.5.7-25.9,5.3-10.4-15.7-8.5,8.9a2.506,2.506,0,0,0-.4-.7h0l8.6-9.4h.4l10.8,15.9Z" transform="translate(0.002)"/>
      <path class="8399c672-a8fa-4437-94de-27e08f5520df" d="M324.767,355.8l9.1,12.6-19.2,3.6-8.8-13.3v-.4Zm8,11.7-4-5.3-3.5.6,3.8,5.2Zm-4.3.9-4-5.5-3.5.7,3.8,5.5Zm-.2-6.8-3.7-5.1-3.7.3,3.8,5.2Zm-4.1.7-3.8-5.3-3.9.6,3.9,5.3Zm-.3,6.9-3.4-5.4-4.2.6,3.7,5.6Zm-4.1-6.1-4-5.4-3.9.5,3.8,5.5Zm-.5,7-3.9-5.6-4,.7,3.7,5.9Zm-4.2-6.2-3.8-5.6-4.3.7,3.8,5.5Z" transform="translate(0.002)"/>
      <path class="76f2fdcb-fc02-45c9-86af-88a9dda23839" d="M333.767,370.5l-.5,16.1-20.5,5.7-4.8-2.3-.2-11.9h.5l-.1-1.4-4-6.3-2.5.3-3.7,3.6v1.2h1.1l-.1-1,2.8-2.5,4,6.3.1,12.4-.9-.4V378.8l-4.3-1.7-.7-.2.1,11.1-.8-.4v-1.3l-2.5-1.2-.3-17.1-.1-1.3,5.6-5.9,9.6,14.1Zm-3.1,13.4V376l-4.9,1.2-.1,7.8Zm-10.3,2.6-.1-8.3-5.3,1.3v8.3Z" transform="translate(0.002)"/>
      <polygon class="76f2fdcb-fc02-45c9-86af-88a9dda23839" points="328.768 362.3 332.768 367.5 328.968 368 325.268 362.8 328.768 362.3"/>
      <polygon class="0d60ade1-7bc8-454f-84ed-8c5176d31189" points="330.668 376 330.668 383.9 325.668 385 325.768 377.1 330.668 376"/>
      <polygon class="76f2fdcb-fc02-45c9-86af-88a9dda23839" points="324.468 362.8 328.468 368.4 324.668 369 320.968 363.5 324.468 362.8"/>
      <polygon class="76f2fdcb-fc02-45c9-86af-88a9dda23839" points="324.568 356.6 328.368 361.6 324.768 362.1 320.968 356.9 324.568 356.6"/>
      <polygon class="76f2fdcb-fc02-45c9-86af-88a9dda23839" points="320.368 357.1 324.168 362.3 320.368 362.9 316.468 357.6 320.368 357.1"/>
      <polygon class="76f2fdcb-fc02-45c9-86af-88a9dda23839" points="320.468 363.8 323.868 369.2 319.868 370 316.268 364.4 320.468 363.8"/>
      <polygon class="0d60ade1-7bc8-454f-84ed-8c5176d31189" points="320.268 378.2 320.368 386.5 315.068 387.8 314.968 379.5 320.268 378.2"/>
      <polygon class="76f2fdcb-fc02-45c9-86af-88a9dda23839" points="315.868 357.6 319.868 363.1 315.668 363.7 311.868 358.2 315.868 357.6"/>
      <polygon class="76f2fdcb-fc02-45c9-86af-88a9dda23839" points="315.468 364.5 319.268 370.1 315.168 371.1 311.468 365.2 315.468 364.5"/>
      <polygon class="76f2fdcb-fc02-45c9-86af-88a9dda23839" points="315.668 353.8 315.668 355 314.968 354.9 315.068 356 309.468 356.8 309.368 354.9 308.468 354.8 308.468 353.7 312.468 352.9 315.668 353.8"/>
      <polygon class="76f2fdcb-fc02-45c9-86af-88a9dda23839" points="311.368 358.3 315.168 363.9 310.768 364.5 307.068 359 311.368 358.3"/>
      <path class="c2d98caf-0e4c-489c-9b68-48b82b0b9f97" d="M301.267,359.3l10.4,15.7-9.6-14.1-5.6,5.9.1,1.3c-1.2.1-2.5.2-3.8.2Z" transform="translate(0.002)"/>
      <polygon class="8399c672-a8fa-4437-94de-27e08f5520df" points="308.068 376.6 308.168 378 307.768 378.1 307.768 378 305.868 378.3 301.868 372 299.068 374.5 299.068 374.4 298.068 375.4 297.968 374.2 301.668 370.6 306.168 377.4 307.968 377.4 308.068 376.6"/>
      <polygon class="0d60ade1-7bc8-454f-84ed-8c5176d31189" points="304.068 370.3 308.068 376.6 307.968 377.4 306.168 377.4 301.668 370.6 304.068 370.3"/>
      <polygon class="0d60ade1-7bc8-454f-84ed-8c5176d31189" points="307.768 378.1 307.868 390 305.968 390.7 305.868 378.3 307.768 378.1"/>
      <polygon class="0d60ade1-7bc8-454f-84ed-8c5176d31189" points="307.768 378 307.768 378.1 305.868 378.3 307.768 378"/>
      <polygon class="8399c672-a8fa-4437-94de-27e08f5520df" points="305.068 378.8 305.068 389.8 300.868 387.8 300.668 377.1 305.068 378.8"/>
      <polygon class="0d60ade1-7bc8-454f-84ed-8c5176d31189" points="300.668 377.1 300.868 387.8 300.068 388 299.968 376.9 300.668 377.1"/>
      <polygon class="0d60ade1-7bc8-454f-84ed-8c5176d31189" points="299.068 374.5 299.168 375.4 298.068 375.4 299.068 374.5"/>
      <polygon class="0d60ade1-7bc8-454f-84ed-8c5176d31189" points="299.068 374.4 299.068 374.5 298.068 375.4 299.068 374.4"/>
      <path class="8233b40f-b106-486b-b18b-51f53f82c6d7" d="M292.767,368.1l-.4-.7A5.736,5.736,0,0,1,292.767,368.1Z" transform="translate(0.002)"/>
      <polygon class="98ca194b-32b7-45ce-93bf-4141911da400" points="917.768 473.2 949.468 488.1 964.468 482.4 944.268 474.3 917.768 473.2"/>
      <path class="c2d98caf-0e4c-489c-9b68-48b82b0b9f97" d="M939.767,450.7l8.1,10.6-18.9,3.7-7.9-11.6,5.9-.9h0l4.1-.6h0Zm5,10.3-6.7-9.2-13.7,1.8v.3l6.4,9.7Z" transform="translate(0.002)"/>
      <path class="76f2fdcb-fc02-45c9-86af-88a9dda23839" d="M947.867,461.3l-.4.5-18.9,3.9-7.6-11.4-6.2,6.5a2.186,2.186,0,0,0-.3-.5h0l6.3-6.9h.3l7.9,11.6Z" transform="translate(0.002)"/>
      <path class="8399c672-a8fa-4437-94de-27e08f5520df" d="M938.067,451.8l6.7,9.2-14,2.6-6.4-9.7v-.3Zm5.9,8.5-2.9-3.8-2.6.4,2.8,3.8Zm-3.1.6-2.9-4-2.6.5,2.7,4Zm-.2-4.9-2.7-3.7-2.7.3,2.8,3.8Zm-3,.5-2.7-3.8-2.8.4,2.8,3.8Zm-.2,5-2.5-3.9-3.1.5,2.7,4.1Zm-3-4.5-2.9-4-2.9.4,2.8,4Zm-.4,5.2-2.8-4.1-2.9.5,2.7,4.3Zm-3-4.6-2.8-4.1-3.1.5,2.7,4Z" transform="translate(0.002)"/>
      <path class="76f2fdcb-fc02-45c9-86af-88a9dda23839" d="M944.667,462.5l-.4,11.8-15,4.2-3.5-1.7-.1-8.8h.3l-.1-1-2.9-4.6-1.8.2-2.7,2.6v.9h.8v-.7l2-1.8,2.9,4.6.1,9-.6-.2v-8.4l-3.2-1.3-.5-.1.1,8.1-.6-.3v-1l-1.8-.9-.2-12.5v-1l4.1-4.3,7,10.3Zm-2.2,9.8v-5.8l-3.6.9v5.7Zm-7.5,1.8-.1-6-3.9,1v6Z" transform="translate(0.002)"/>
      <polygon class="76f2fdcb-fc02-45c9-86af-88a9dda23839" points="941.068 456.5 943.968 460.3 941.168 460.7 938.468 456.9 941.068 456.5"/>
      <polygon class="0d60ade1-7bc8-454f-84ed-8c5176d31189" points="942.368 466.5 942.368 472.3 938.768 473.1 938.868 467.4 942.368 466.5"/>
      <polygon class="76f2fdcb-fc02-45c9-86af-88a9dda23839" points="937.868 456.9 940.868 461 938.068 461.4 935.368 457.4 937.868 456.9"/>
      <polygon class="76f2fdcb-fc02-45c9-86af-88a9dda23839" points="937.968 452.3 940.668 456 938.068 456.4 935.368 452.6 937.968 452.3"/>
      <polygon class="76f2fdcb-fc02-45c9-86af-88a9dda23839" points="934.868 452.7 937.668 456.5 934.868 457 932.068 453.1 934.868 452.7"/>
      <polygon class="76f2fdcb-fc02-45c9-86af-88a9dda23839" points="934.968 457.6 937.468 461.5 934.568 462.2 931.868 458.1 934.968 457.6"/>
      <polygon class="0d60ade1-7bc8-454f-84ed-8c5176d31189" points="934.868 468.1 934.868 474.1 930.968 475.1 930.968 469.1 934.868 468.1"/>
      <polygon class="76f2fdcb-fc02-45c9-86af-88a9dda23839" points="931.568 453.1 934.468 457.1 931.468 457.5 928.768 453.5 931.568 453.1"/>
      <polygon class="76f2fdcb-fc02-45c9-86af-88a9dda23839" points="931.268 458.2 934.068 462.2 931.068 463 928.368 458.7 931.268 458.2"/>
      <polygon class="76f2fdcb-fc02-45c9-86af-88a9dda23839" points="931.468 450.3 931.468 451.2 930.968 451.1 930.968 451.9 926.968 452.5 926.868 451.1 926.268 451 926.168 450.2 929.168 449.6 931.468 450.3"/>
      <polygon class="76f2fdcb-fc02-45c9-86af-88a9dda23839" points="928.268 453.6 931.068 457.7 927.968 458.1 925.168 454.1 928.268 453.6"/>
      <path class="c2d98caf-0e4c-489c-9b68-48b82b0b9f97" d="M920.967,454.3l7.6,11.4-7-10.3-4.1,4.3v1a25.283,25.283,0,0,1-2.8.1Z" transform="translate(0.002)"/>
      <polygon class="8399c672-a8fa-4437-94de-27e08f5520df" points="925.968 467 925.968 468 925.668 468 925.668 468 924.268 468.2 921.368 463.6 919.368 465.4 919.368 465.4 918.568 466.1 918.568 465.2 921.268 462.6 924.468 467.6 925.868 467.5 925.968 467"/>
      <polygon class="0d60ade1-7bc8-454f-84ed-8c5176d31189" points="922.968 462.4 925.968 467 925.868 467.5 924.468 467.6 921.268 462.6 922.968 462.4"/>
      <polygon class="0d60ade1-7bc8-454f-84ed-8c5176d31189" points="925.668 468 925.768 476.7 924.368 477.2 924.268 468.2 925.668 468"/>
      <polygon class="0d60ade1-7bc8-454f-84ed-8c5176d31189" points="925.668 468 925.668 468 924.268 468.2 925.668 468"/>
      <polygon class="8399c672-a8fa-4437-94de-27e08f5520df" points="923.768 468.6 923.768 476.6 920.668 475.1 920.468 467.3 923.768 468.6"/>
      <polygon class="0d60ade1-7bc8-454f-84ed-8c5176d31189" points="920.468 467.3 920.668 475.1 920.068 475.3 919.968 467.2 920.468 467.3"/>
      <polygon class="0d60ade1-7bc8-454f-84ed-8c5176d31189" points="919.368 465.4 919.368 466.1 918.568 466.1 919.368 465.4"/>
      <polygon class="0d60ade1-7bc8-454f-84ed-8c5176d31189" points="919.368 465.4 919.368 465.4 918.568 466.1 919.368 465.4"/>
      <path class="8233b40f-b106-486b-b18b-51f53f82c6d7" d="M914.767,460.8l-.3-.5A2.186,2.186,0,0,1,914.767,460.8Z" transform="translate(0.002)"/>
      <path class="c68cdb51-861b-4647-bf3f-625f0931d48f" d="M384.767,359.1a1.9,1.9,0,0,0-1.9,1.9v9h-7.2v.3h-.6v8.3h-4.8v-9a1.956,1.956,0,1,0-3.9-.3v11.2a2.006,2.006,0,0,0,2,2h6.7v8.1h6.4V373.9h3.2a2.006,2.006,0,0,0,2-2V361A1.965,1.965,0,0,0,384.767,359.1Z" transform="translate(0.002)"/>
      <path class="5440c95f-e1af-407c-b11c-bd2006855b05" d="M394.367,355a6.9,6.9,0,0,0-6.8-6,3.4,3.4,0,0,0-1,.1,6.94,6.94,0,0,0-6.7-5.3,4.1,4.1,0,0,0-1.1.1,6.924,6.924,0,0,0-9.7-.5,6.822,6.822,0,0,0-2.3,5.2v.5h-.8a6.941,6.941,0,0,0-6.9,6.7,8.413,8.413,0,0,0-3.3,16.5,8.2,8.2,0,0,0,6.9-1.7,5.58,5.58,0,0,0,5.3,4,5.453,5.453,0,0,0,4.2-2,5.175,5.175,0,0,0,9.9-1.2l2.5-1.1-.3-8.1.6.3a6.86,6.86,0,0,0,13.7-.7A7.334,7.334,0,0,0,394.367,355Z" transform="translate(0.002)"/>
      <path class="c68cdb51-861b-4647-bf3f-625f0931d48f" d="M375.067,390.6a3.5,3.5,0,0,0,3.1,1.5,4.859,4.859,0,0,0,3.4-1.5Z" transform="translate(0.002)"/>
      <g class="windmillrotate">
        <g class="">
          <rect class="e43b8a5f-0954-43d1-91d6-306473d7bd70" x="408.167" y="202.304" width="33.099" height="15.1" transform="translate(-48.024 240.479) rotate(-30.001)"></rect>
          <path class="8399c672-a8fa-4437-94de-27e08f5520df" d="M273.667,280.5l4.3,8.5,132.3-32s4.3-22.4,16-34.1l-12.8-22.4Z" transform="translate(0.002)"></path>
          <rect class="e43b8a5f-0954-43d1-91d6-306473d7bd70" x="464.677" y="192.718" width="15.1" height="33.1" transform="translate(55.412 514.319) rotate(-60.099)"></rect>
          <path class="8399c672-a8fa-4437-94de-27e08f5520df" d="M609.167,304.5l5.2-8-94.1-98.4s-21.5,7.5-37.6,3.3l-13,22.3Z" transform="translate(0.002)"></path>
          <rect class="e43b8a5f-0954-43d1-91d6-306473d7bd70" x="441.453" y="152.095" width="15.1" height="33.099" transform="translate(-1.94 5.262) rotate(-0.67)"></rect>
          <path class="8399c672-a8fa-4437-94de-27e08f5520df" d="M461.367,2.3l-9.5-.5-36.9,131.1s17.4,14.7,21.9,30.7l25.8-.2Z" transform="translate(0.002)"></path>
          <path class="eba254b0-60f5-4f79-8225-1f0fd87b45e8" d="M410.267,257s4.3-22.4,16-34.1L277.967,289Z" transform="translate(0.002)"></path><path class="eba254b0-60f5-4f79-8225-1f0fd87b45e8" d="M522.967,196.2s-22.7,7.6-39.2,3.1l132.5,97.2Z" transform="translate(0.002)"></path>
          <path class="eba254b0-60f5-4f79-8225-1f0fd87b45e8" d="M414.267,132.4s17.5,14.8,22,30.9L451.667,0Z" transform="translate(0.002)"></path>
          <circle class="32df8e95-4714-481e-931c-7ff0e07b48b3" cx="448.168" cy="195.6" r="26.2"></circle>
        </g>
      </g>
    </g>
  </g>
</svg>
