<?xml version="1.0" encoding="utf-8"?>
<!-- Generator: Adobe Illustrator 22.1.0, SVG Export Plug-In . SVG Version: 6.00 Build 0)  -->
<svg version="1.1" id="Layer_1" xmlns="http://www.w3.org/2000/svg" xmlns:xlink="http://www.w3.org/1999/xlink" x="0px" y="0px"
	 viewBox="0 0 673.8 530.5" enable-background="new 0 0 673.8 530.5" xml:space="preserve">
<title>Asset 21</title>
<g id="Layer_2_1_">
	<g id="world_leader">
		<g>
			<defs>
				<path id="SVGID_1_" d="M366.1,483.3l-3.6-13.1c-4.4-0.3-9.7-1-15-0.9c-8.3,0.1-14.8-4.9-14.9-13.6c-3.8-1.5-7.6-3-11.4-4.2
					c-1.3-0.2-2.5,0.3-3.4,1.3c-3.4,4.8-8.4,5.1-13.4,5.2c-8.8,0.2-15,1.3-18.6,3.1l-1,11.8l-8.8-3.5c-3.2,1.9-7.2,1.7-10.2-4.1
					c-0.9-1.7-4-2.3-6.5-3.5c0.5-2.5,1-5,1.3-6.4c-2.1-3.3-4.5-5.6-5.3-8.3c-1.4-5.5-3.9-6.9-8.8-3.9c-0.7,0.4-1.8,0.2-2.6,0.3
					c-1.6-7.9-0.3-14.2,6.2-19.8c6.7-5.7,6.2-15,0.2-21.5c-1-1.1-1.2-2.9-2.2-3.9c-1.4-1.4-3.1-3.1-5-3.5c-3.5-0.7-7-1.1-10.5-1.3
					l-3.4-8.9c-5.7,0-10.3,0-14.8,0c-0.7,0-1.5,0.3-2.1,0.7c-6,4.5-11.8,9.2-17.9,13.5c-2,1.4-5.1,2.8-7.2,2.4
					c-6.4-1.4-12.5-3.8-19.9-6.2l-11.1,10.6c-0.6-2.8-1-4.9-1.6-7.5c-3.2,0.8-6.5,2.7-9.2,2.1c-7.1-1.5-14.5,0.5-21.5-4
					c-5.3-3.5-10.5-7.3-15.8-10.4c-7.3-4.2-14.3-8.4-20.7-14c-1.2-1-5.1,1-8.8,1.9l-23.8-15.3c-0.7-2.9-1.7-6.3-2.5-9.7
					c-0.7-3-0.7-5.4,3.8-4.1c1.3,0.4,4.1-0.5,4.1-1c0.2-1.8,0.1-4.5-1-5.4c-4.3-3.4-5.3-7.4-4.1-12.5c0.2-1-1-2.4-1.8-3.5
					c-1.8-2.5-3.5-5.1-5.5-7.5c-1.4-1.7-2.9-3.5-4.7-4.5c-3.2-1.4-6.5-2.6-9.9-3.5c-4-1.3-6.2-3.1-7.1-8c-0.5-2.9-5.8-5-9.1-7.1
					c-1.5-1-3.7-1-5.5-1.4l-0.3-1.5l5.4-3.7c-0.4-2.4-0.9-4.9-1.2-7.5c-0.5-4.7-1.5-8.2-7.6-6.4c-0.8,0.2-3.6-2.8-3.7-4.4
					c-0.2-6.9-0.7-14.2,7.9-17.5c3-1.1,5.6-3.3,8.6-4.6c1-0.4,2.7,0.1,3.7,0.8c3.3,2.2,7.9,1.3,8.8-2.6c1.1-4.7,4-5.4,8-4.8
					s7-0.6,10.3-3.9c3.9-3.9,9.6-6.4,14.8-8.8c2.8-1.3,3-2.3,2.8-5.4s2.2-6.4,3.3-9.6c0.6-1.8,1.7-3.9,1.4-5.6
					c-0.8-4.9-1.9-9.8-3.3-14.5c-0.4-1.5-2.2-2.7-3.8-4.6c2.2-5,8-3.4,12.2-4.7c4.3-1.4,9.2-0.7,12.5-0.9c0.4-3.8,0.6-7,1.2-10.2
					c0.6-2.7,1.3-5.5,2.2-8.1c3-9.2,3-9,12.2-7c3.3,0.7,6.6,1.1,10,1.1c4.5,0,7.5-4.3,6.6-9.1c-1.8-9.6-1.3-10.2,6.8-14.1
					c1.9-0.9,4.2-3.3,4.3-5.1c0.3-6.6,5.7-3.4,8.6-4.7c0.6-0.3,2.9,2.6,4.2,4.2c4.1,5.1,7.1,11.4,14.4,13c5.8,1.3,9.5,4.3,12.1,10.3
					c2.5,5.7,6.7,10.4,4.4,17.1c-0.6,1.7-0.7,3.6-1.4,5.3c-1.9,5.3-0.8,7.8,4.8,9c4,0.9,8.2,1.4,12.3,1.4c6.4-0.1,12.7,2.1,17.6,6.3
					c4.4,3.8,10.9,4.7,13.3,11.2c1.5,4.1,4.1,7.9,6.5,11.7c0.7,1.2,1.9,2.1,3.3,2.4c6.5,0.7,13.1,1.3,19.6,1.6
					c8.2,0.4,16.5-0.1,24.6,0.7c3.5,0.3,6.7,2.9,10.1,4.1c5.9,2.2,11.8,4.2,17.8,6.1c2.7,0.9,5.5,1.5,8.4,1.8
					c1.8,0.1,3.6-0.3,5.2-1.1c8.9-4.6,17.7-8.7,28-9.2c6.4-0.3,12.8-1.6,19.1-2.6c1.3-0.2,2.5-0.7,3.5-1.6c4.9-4.5,9.7-9.1,14.8-14
					c-2.2-3.2-5.5-6.5-3.1-12s5.6-7.5,11.2-5c9.5,4.3,10.1,4,17.6-3.1c1.8-1.7,4.2-2.8,6.8-2.9c5.6,0.1,9.5-2.3,11.5-7.2
					c2.7-6.7,9.5-6.4,14.5-9.1s10.4-4,16.1-1.5c1.2,0.5,3.8,0.1,4.5-0.8c0.7-1.5,0.6-3.3-0.2-4.7c-2.5-3-5.1-5.9-8-8.6
					c-0.9-0.9-2-1.6-2.9-2.6c-2.9-3.3-6-3.1-8.6,0c-2.1,2.5-3.7,2.8-6.7,1.5c-2.5-1-5.7-0.6-8.5-0.6c-1.8,0-4.8,1-5.3,0.3
					c-1-1.9-1.4-4.1-1.2-6.3c0.1-1.8,1.1-3.5,1.9-5.3c2.4-5.7,4.9-11.3,7.3-17c1.2-3,2.9-3.4,5.8-2c4.9,2.4,9.6,3.2,13.4-2.2
					c0.6-0.9,2.3-1.4,3.5-1.6c3.6-0.6,6.3-1.5,4.4-6.2c-0.3-1.3,0-2.6,0.7-3.7c4.7-7,5.3-16.5,13.1-21.8c2.9-2-0.8-8.5-7-10.6
					c2.9-3.5,5-8.5,8.3-9.5c9.3-2.7,19.1-4,28.8-5.4c2-0.3,4.4,1.7,6.6,2.7c1.7,0.8,3.4,2.5,5,2.4c10.3-0.8,13.4,6.9,16.3,14.2
					c2.6,6.6,3.1,14.2,6.7,20.1c3.8,6.3,3.9,13.1,6.2,19.5c0.7,1.9,3.6,4.3,5.5,4.3c7.4,0.1,13.6,2.2,18.1,8.3
					c0.3,0.4,0.8,1,1.3,1.1c7.1,0.6,5.3,6.8,7,10.9c1.1,2.6,2,7.2,3.2,7.3c4.7,0.4,9.4,0,13.8-1.4c5.9-1.9,11.2-5.4,17-7.5
					c2.7-1,5,0.5,5,4.2c0,4.8,1.3,9.2-4.1,13.1c-2.7,1.9-2.3,8-3.8,12c-2.4,6.4-5,12.8-8,18.9c-0.4,0.9-3.5,0.7-5.3,0.7
					c-3.2,0.1-6.5-0.9-9.5-0.1c-5.1,1.4-5.6,5.1-4.2,10.2c1.3,4.7,1.2,9.9,0.8,14.8c-0.2,2.1-2.5,4.2-4.2,6.1
					c-1.4,1.4-3,2.7-4.6,3.8l-5.1-3.7c-3.5,7.1-8.8,11.8-17,12c0.5,9.1-2.2,9.9-12.6,4.8c-7.2,5.6-14.4,10.3-20.3,16.1
					c-5.4,5.3-11.4,8.2-18.5,10.2c-3.1,0.8-5.6,3.5-8.5,5.2c-3.4,2.2-7.1,4-10.9,5.5c2.1-3.3,4.9-5.8,0.7-9.4
					c-0.4-0.3,2.3-4.9,4.1-7.1c2.1-2.4,6.4-3.8,3.3-8c-2.5-3.4-7.7-2.8-11.2,0.5c-3.3,3.1-7,5.8-10.4,8.8c-1.6,1.5-3.6,3-4.3,5
					c-1.9,5.4-6.3,6.6-10.9,6c-4-0.5-6.4,0.9-6.3,4.1c0.1,2.3,2.6,4.7,4.5,6.6c0.7,0.8,2.5,0.8,3.8,0.6c4.6-0.4,6,1.7,5.8,6
					c-0.1,1.9,0.7,5,1.9,5.4c1.5,0.6,4.3-0.5,5.7-1.7c4.7-4.5,9-7.6,15.7-2.9c2.5,1.8,6.5,1.3,9.6,2.4c1.1,0.4,2.7,2.6,2.4,3.4
					c-0.5,1.7-2.1,4.1-3.5,4.3c-15.1,1.3-21.2,13.8-30.5,22.8c1,1.2,1.4,2,2,2.3c9,3.4,12,11.5,14.1,19.5c1.5,5.4,4.8,9.1,8.5,12.4
					s1.6,6.5,2.1,9.8c0.6,4.3-0.9,6.2-4.7,7.3c-1.3,0.4-2.3,1.7-4.5,3.3l13.3,4.1c-1.4,3.3-3.3,7.1-4.5,11.1
					c-3.8,12.1-14.4,19.9-19.5,31.1c-0.6,0.9-1.1,1.9-1.6,2.9c-0.9,2.8-3.5,8.4-4.6,9c-3.7,2.3-3.8,8.5-9.5,8.7
					c-0.7,0-1.2,1.8-2,2.5c-7.2,6.6-13.9,14-23.9,16.8c-5.1,1.4-10.2,4.4-15.3,4.3c-6.4-0.1-9.6,4.1-14.3,6.7s-10.8,1.7-16,3.2
					c-2.7,0.8-6.5,3-7,5.2c-0.6,2.7-1.7,7.6,3.7,8.9c0.8,0.2,1.8,3,1.4,3.7c-3.3,5.6-4.5,13.5-12,15.1c-3.4,0.7-8.2-0.5-11.1-2.5
					c-3.2-2.3-2-8.6,1.6-11.3C359.6,487.2,363,485.3,366.1,483.3z"/>
			</defs>
			<clipPath id="SVGID_2_">
				<use xlink:href="#SVGID_1_"  overflow="visible"/>
			</clipPath>
			<g clip-path="url(#SVGID_2_)">
				<path fill="#231F20" d="M0,501.8V51.7h673.8v450.1H0z M672.4,500.5L672.4,500.5z M2.8,499H671V54.5H2.8V499z"/>
				<rect x="1.4" y="23.1" fill="#DE2910" width="671" height="507.4"/>
				<polygon fill="#FFDE00" points="113.8,103.6 127.9,147.2 173.8,147.2 136.7,174.1 150.9,217.8 113.8,190.8 76.7,217.8 
					90.9,174.1 53.8,147.2 99.6,147.2 				"/>
				<polygon fill="#FFDE00" points="233.3,80.8 232.3,95.9 246.3,101.5 231.7,105.2 230.7,120.3 222.6,107.5 208,111.2 217.7,99.6 
					209.6,86.9 223.6,92.5 				"/>
				<polygon fill="#FFDE00" points="284.7,129.7 277.9,143.1 288.5,153.8 273.6,151.4 266.7,164.9 264.4,149.9 249.5,147.6 
					262.9,140.7 260.6,125.8 271.3,136.5 				"/>
				<polygon fill="#FFDE00" points="269.3,190.8 273.9,205.2 289,205.2 276.8,214 281.4,228.4 269.2,219.5 257,228.4 261.7,214 
					249.5,205.2 264.6,205.2 				"/>
				<polygon fill="#FFDE00" points="233.1,236.9 232.2,251.9 246.2,257.5 231.6,261.2 230.6,276.3 222.5,263.5 207.9,267.3 
					217.5,255.7 209.5,242.9 223.5,248.5 				"/>
			</g>
		</g>
		<g>
			<defs>
				<path id="SVGID_3_" d="M299.7,139.2c0.6,0.3,0.2,0.8,0.3,1.1s0.5,0.7,0.7,1.1c0.1,0.2,0.1,0.4,0.1,0.6c0,0.2,0.1,0.3,0.3,0.5
					c1,0.5,1.9,1,2.9,1.4c0.1,0,0.1,0,0.2,0c0.5,0.1,1.1,0.3,1.6,0.4s0.7,0.5,1.1,0.1s1-0.9,0.7-1.6c-0.1-0.3-0.2-0.5-0.3-0.8
					c-0.2-0.5-0.4-1.1-0.4-1.7c0.2-1.6,1.3-2.8,2.2-4c0.4-0.6,1.4-0.9,2.1-1.3c1.4-0.8,2.7-1.7,4-2.6c0.7-0.6,1.5-1,2.4-1.3
					c1.2-0.5,2.6-0.5,3.8,0.1c0.6,0.4,1.4,0.5,2.1,0.2c0.1,0,0.2,0,0.4,0c0.9,0.1,1.7,0.5,2.3,1c0.3,0.3,0.7,0.4,1.1,0.4
					c0.3,0,0.7,0,1-0.2c0.3-0.2,0.6-0.3,0.9-0.6l0.1,0.1l-0.2,0.6c0.5,0.1,1-0.2,1.2-0.6c0.1-0.1-0.1-0.4-0.2-0.8c0.2,0,0.4,0,0.5,0
					c0.2,0.1,0.4,0.3,0.6,0.4c0.2,0.1,0.5,0.2,0.7,0.4c0.5,0.5,0.9,0.5,1.3,0c0.2-0.2,0.2-0.3-0.1-0.5c-0.4-0.4-0.9-0.5-1.5-0.5
					c-0.1,0-0.3-0.2-0.5-0.3l0.3-0.3l0.8-1l-0.5-1.2l-0.8,1.2l-0.5-0.3c0.4-0.5,0.7-0.9,1.1-1.3c0.1-0.1,0.2-0.2,0.3-0.2
					c0.7,0.1,1.5-0.5,2.2,0.1c0,0,0.2,0,0.3,0c0.5-0.3,1.2-0.3,1.3-1.1c0-0.1,0.1-0.2,0.2-0.3c0.7,0.6,0.8,0.9,0.3,1.5
					c0.2,0,0.3,0,0.5,0c0.5-0.1,1-0.3,1.5-0.4c1.2-0.5,2.4-0.6,3.6-0.3c1.2,0.1,2.2,0.8,2.7,1.9l0.7-0.3c0.4-0.1,0.8-0.3,1.2-0.4
					c0.2-0.1,0.3-0.3,0.5-0.3c0.5,0.1,0.6-0.2,0.6-0.7h0.8c0.9,0.1,1.7,0.6,2.2,1.4c0.4,0.5,0.9,0.9,1.5,1.2
					c0.8,0.2,1.4,0.9,1.3,1.8c-0.1,0.6-0.2,1.2-0.2,1.9c0,0.7,0,1.5,0.6,1.8c0.1,0.4,0.1,0.6,0.2,0.8c0.8,0.7,1.3,1.5,1.7,2.5
					c0.3,0.7,0.5,0.8,1.2,0.4c0.2,0.4,0.3,0.9,0.5,1.3c0,0.1,0.1,0.2,0.1,0.3c0.3,0.3,0.4,0.7,1,0.6s1.2,0.8,1.3,1.6
					c0.1,0.6,0.4,0.8,1,0.5c0.2-0.1,0.5-0.1,0.7-0.2c0.5-0.2,1.3,0,1.4-0.7c0.1-0.9,0.2-1.9,0.2-2.8c0-0.4-0.1-0.8-0.1-1.2
					c0-1.9-1-3.4-1.9-4.9c-0.1-0.1-0.3-0.2-0.4-0.4c-0.4-0.4-0.6-1.1-0.5-1.7c0.1-0.3,0-0.5-0.2-0.7c-1.5-1.4-2.7-3.1-3.3-5.1
					c-0.5-0.9-0.7-1.9-0.5-2.9c0.3-1.2,0.1-2.5,1-3.5c0,0,0-0.1,0-0.1c-0.1-0.6,0.3-0.7,0.7-1c0.2-0.2,0.4-0.4,0.5-0.6
					c0.3-0.4,0.7-0.7,1.1-1.2s0.7-1,1-1.5c0,0,0.1,0,0.2-0.1c0.5-0.2,0.9-0.7,0.9-1.3c0-1.3,1-2.4,2.3-2.6c0.6,0,0.8-0.3,0.9-0.8
					c0.3-1.4,1.4-2.5,2.8-2.7c0.5,0,0.8-0.3,1-0.8c0.3-0.8,1-1.4,1.9-1.7c0.1-0.1,0.2-0.1,0.3-0.2c0.3-0.8,0.1-1.7-0.4-2.4
					c-0.4-0.4-0.7-0.8-1-1.3c-0.2-0.6-0.5-1.2-0.9-1.7c-0.2-0.2-0.8-0.6-0.4-1.1c0.5-0.5,0.7-1.3,0.6-2c0-0.1,0-0.2,0.1-0.3
					c0.3-0.6,0.5-1.2,0.7-1.8c0.1-0.4,0.1-0.9,0-1.3c0-0.2-0.2-0.5-0.1-0.7c0.4-1,0.7-2,1.2-2.9c0.4-0.7,0.6-1.5,0.5-2.3
					c-0.1-0.7,0-1.3,0.1-2c0.4-0.1,0.8-0.3,1.2-0.4c1-0.7,2.3-1.1,2.8-2.5c0.4-0.9,1.1-1.6,2-1.9c0.5-0.1,1-0.3,1.5-0.5
					c0.6-0.3,1.1-0.8,1.8-1.3c-0.2-0.4-0.4-0.8-0.6-1.2c-0.1-0.1-0.4-0.2-0.6-0.2c-0.1,0-0.1,0.2-0.2,0.3c0.1,0.1,0.3,0.2,0.4,0.3
					s0.3,0.2,0.3,0.4c0,0.1-0.1,0.3-0.3,0.3c-0.5,0.3-0.8,0-1-0.4s-0.4-0.8-0.9-0.9s-0.4-0.3-0.3-0.6s0.3-0.8-0.1-1.2
					c-0.1-0.1,0-0.3,0-0.4c0.1-0.4,0.1-0.8,0.2-1.2c0-0.7,0.5-1.3,0.3-2.1c0.1-0.2,0.3-0.3,0.5-0.3c0.5,0,1-0.2,1.3-0.6
					c0.4-0.5,0.7-1.1,1.5-0.9l0.6-1.3c0.4,0.3,0.4,0.3,0.6-0.2c0-0.1,0.1-0.2,0.2-0.3c0.9-0.8,1.7-1.7,2.5-2.4
					c-0.2-0.4-0.4-0.7-0.7-1.1c-0.2-0.1-0.5-0.2-0.7-0.2c-0.1,0-0.3,0.1-0.5,0.1c0-0.2,0-0.4,0-0.6c0.1-0.6,0-0.8-0.6-0.7
					c-0.3,0-0.7-0.2-0.7-0.5c-0.3-1.1-0.6-2.1-0.9-3.2c-0.1-0.8-0.7-1.4-1.4-1.7c-0.3-0.2-0.7-0.1-1,0.2c-0.3,0.3-0.6,0.6-0.9,0.8
					l-0.1-0.2l-0.4-0.6c-0.2,0.2-0.4,0.4-0.5,0.6c-0.1,0.2-0.2,0.3-0.2,0.5c-0.3,1-1,1.9-0.7,3c0,0.1,0,0.2-0.1,0.3
					c-0.4,0.5-0.4,1.3,0.1,1.8l-0.9,2.6c0,0-0.2,0-0.2,0c-0.3,0.3-1.1,0-1.1,0.7c0,0.4-0.2,0.6-0.6,0.7c-1.1,0.3-2.2,0.7-3.3,1
					c-1.1,0.4-2.3,0.6-3.4,0.7c-0.6,0.1-1.1,0.4-1.5,0.9c-0.7,0.8-1.3,1.7-2,2.4s-0.7,1.2,0.3,1.6c-0.5,0.4-0.3,0.8,0,1.2
					c-0.3,0.2-0.7,0.3-0.8,0.5c-0.4,0.7-1,0.7-1.6,1s-1.2,0-1.8,0.1c-0.9,0.1-1.8,0.3-2.7,0.6c-0.2,0-0.3,0.5-0.3,0.8
					c0,0.3,0.2,0.5,0.5,0.7c0.4,0.2,0.5,0.4,0.2,0.7c-0.8,0.9-1.7,1.8-2.5,2.7c-0.2,0.3-0.5,0.5-0.9,0.6c-1.1,0.4-2,1.1-2.8,1.9
					c-0.2,0.2-0.3,0.3-0.5,0.4c-0.6,0.2-1.2,0.4-2,0.7c-0.3-0.4-0.9-0.7-1.4-0.5c-0.3,0-0.6-0.1-0.8-0.3c-0.2-0.1-0.3-0.3-0.2-0.5
					c0-0.1,0.1-0.2,0.2-0.2c0.6-0.3,0.5-0.8,0.4-1.3c0.9,0,0.2-0.8,0.7-1.1c0.2,0,0.6-0.1,0.6-0.2c0.1-0.6,0.1-1.2,0-1.8
					c-0.2-0.9-0.4-1.7-0.8-2.6c-0.2-0.4-0.6-0.8-1-0.9c-0.2-0.1-0.6,0.4-0.9,0.7s-0.6,0.8-1,1.1h-0.3c0-0.4-0.1-1,0.1-1
					c0.8-0.3,0.7-1.1,0.9-1.7c0.4-0.7,0.2-1.5-0.4-2.1c0.1-0.3,0.3-0.6,0.2-0.8c-0.1-0.3-0.4-0.5-0.7-0.5c-0.9-0.1-1.6-0.9-2.6-0.9
					c-0.5,0-0.9,0.1-1.4,0.2c-0.1,0-0.3,0.3-0.3,0.5s0.2,0.3,0.4,0.4c0.1,0.1,0.2,0.1,0.3,0.1c-1.1,0.3-1.2,0.4-1.1,1.4
					c0,0.1,0,0.1,0,0.2c0.1,0.4,0,0.6-0.5,0.6l0.2-1.5c-0.2,0.1-0.4,0.1-0.4,0.1c-0.1,0.5-0.5,1-1,1.2c-0.1,0.1-0.1,0.1-0.1,0.2
					c-0.1,0.5-0.6,0.9-0.3,1.5c0,0.1-0.1,0.2-0.1,0.3c-0.5,1.4-0.4,3.1,0.3,4.4c0.2,0.4,0.4,0.8,0.5,1.2c0.1,0.2,0.1,0.4,0.1,0.6
					c-0.3,1.3-0.4,2.7-1.9,3.4c-0.8,0.4-1.3,0.3-1.5-0.6c-0.1-0.2-0.2-0.5-0.3-0.7c-0.1-0.2-0.2-0.5-0.3-0.8c-0.1-1-0.2-2-0.5-3
					c-0.1-0.4-0.1-0.8,0.1-1.2c0.3-0.4,0.3-0.9,0.1-1.4c-0.2-0.3-0.1-0.7,0.2-0.9c0.1-0.1,0.3-0.5,0.2-0.6c-0.3-0.6,0-1,0.2-1.4
					c0.2-0.5,0.4-1,0.6-1.5c0.1-0.3,0.1-0.5,0.1-0.8h-0.2l-2.2,2.6l0-0.1l2.4-4.4l1.6-0.2c0.1-0.7,0.7-0.8,1.4-0.7
					c0.2,0,0.4-0.2,0.6-0.3c0.3-0.1,0.6-0.2,0.9-0.2c1.2,0,2.4,0.1,3.5,0.1c0.1,0,0.2-0.1,0.4-0.1c0.4,0,0.5-0.2,0.4-0.5
					s-0.3-0.4-0.6-0.4s-0.7,0-1.1,0c0-0.3,0-0.6,0-0.8c0-0.6-0.2-0.6-0.7-0.4c-0.6,0.2-1.2,0.3-1.8,0.4v-1.1c-0.3,0.1-0.7,0.1-1,0.2
					c-0.1,0-0.3,0.2-0.4,0.2s-0.6,0.1-0.9,0.2c-0.3,0.1-0.5,0.2-0.7,0.3c-0.3,0.2-0.5,0.5-0.8,0.6c-0.6,0.1-1.2-0.4-1.8-0.1
					c0,0-0.1-0.1-0.2-0.2c-0.4-0.7-1.1-1.1-1.8-1.1l-0.6,0.5c0.2-0.8,0.4-1.7,1.3-2c0.1,0,0.1-0.3,0.2-0.4c-0.2-0.1-0.4-0.2-0.5-0.2
					c-0.9,0.3-1.8,0.8-2.4,1.6c-0.3,0.8-1.2,1.3-2.1,1.1c-0.2,0-0.4,0.1-0.5,0.2c-0.6,0.9-1,1-2.2,0.8c0-0.1,0.1-0.2,0.1-0.3
					c0.2-0.3,0.4-0.6,0-1s-0.7,0-0.8,0.3c-0.4,0.5-1,0.8-1.6,0.9c-0.3,0.1-0.7,0-0.8-0.3c0.3-0.1,0.6-0.3,0.8-0.5
					c0.3-0.2,0.5-0.4,0.8-0.7c0.2-0.2,0.4-0.5,0.6-0.8c0.2-0.3,0.3-0.7,0.6-0.8c1.2-0.7,2.5-1.1,3.9-1.2c0.9,0,1.7-0.6,1.9-1.4
					c0,0-0.1,0-0.1,0c-0.1,0-0.2,0-0.2,0.1c-0.5,0.4-1.2,0.7-1.9,0.6c-0.5,0-1,0.3-1.3,0.1c-0.5-0.3-1.2-0.4-1.8-0.2
					c-0.1,0-0.2,0-0.2,0c-0.3-0.6-0.6-0.1-0.9,0s-0.7,0.3-1,0.2c-0.5-0.2-1-0.5-1.4-0.9c-0.3,0.3-0.8,0.1-1.2-0.2
					c-0.1-0.1-0.3-0.2-0.5-0.3c-0.6-0.3-1.2-0.6-1.8,0c-0.1,0.1-0.2,0.1-0.3,0c-0.6-0.4-1.3-0.6-2-0.5c-0.1,0-0.3-0.2-0.4-0.4
					c-0.1-0.3-0.2-0.6-0.2-0.8c-0.1-0.6-0.2-1.2-1.1-1.2c0,0-0.1,0.1-0.1,0.1c0,0.1-0.1,0.2-0.1,0.2c-0.2,1-0.2,1-1.1,0.9h-0.3
					c-5.3-0.2-10.5-0.3-15.8-0.5c-2-0.1-4-0.2-6.1-0.4c-3-0.3-6.1-0.7-9.1-1.1c-2.6-0.3-5.1-0.7-7.7-1.2c-2.9-0.5-5.8-1.1-8.7-1.7
					c-3.5-0.8-7-1.6-10.5-2.4c-1.7-0.4-3.4-1.1-5.1-1.6c-0.3,0-0.5,0-0.8,0.1c0.1,0.2,0.1,0.5,0.2,0.7c0.4,0.3,0.5,0.8,0.2,1.2
					c0,0,0,0,0,0l-0.6-0.5c0.2-0.8,0-0.9-1.1-0.6l-0.3,1.5c-0.4-0.2-0.7-0.4-0.9-0.4c-0.5,0-1.1-0.2-1.4-0.6
					c-0.3-0.2-0.6-0.5-0.9-0.8c-0.2,0.4-0.4,0.8-0.5,1.1c-0.1,0.2-0.1,0.5,0,0.7c0.1,0.3,0.2,0.7,0.2,1c-0.3,1,0,2,0.7,2.8h-0.8
					c0,0.2,0,0.4,0,0.6c0.1,0.2,0.3,0.4,0.4,0.5c-0.1,0.1-0.2,0.1-0.2,0.2c-0.7,0.3-0.7,0.3-0.3,1c0.1,0.1,0.1,0.3,0,0.4
					c-0.2,0.5-0.5,1-0.7,1.5c-0.8,3-2.1,5.9-3.8,8.5c-0.8,1.2-1,2.6-0.7,4c0,0.1,0,0.2,0,0.4c0,0.4-0.1,0.8-0.1,1.2
					c0,0.3-0.1,0.6-0.2,0.8c-0.4,0.7-0.9,1.5-1.4,2.1c-0.4,0.5-0.5,1.2-0.2,1.8c0.5,0.7,0.7,1.7,0.4,2.5c-0.6,1-0.5,2.3,0.1,3.2
					c0.2,0.3,0.4,0.6,0.5,1c0.1,0.3,0.1,0.7,0.1,1s0.1,0.6,0.2,0.8c0.5,0.4,0.7,1.1,0.4,1.7c-0.3,1.1,0.2,2.4,1.2,2.9
					c-0.1,0.3-0.2,0.7-0.4,0.8c-0.5,0.3-0.6,0.8-0.4,1.3c0,0.1,0.1,0.1,0.1,0.1c0.3,0.5,0.6,1,0.8,1.5c0.3,0.6,0.4,1.3,0.7,1.9
					c0.4,0.8,0.9,1.5,0.5,2.4c-0.1,0.2-0.1,0.5-0.1,0.7c-0.1,0.3,0,0.6,0.3,0.7c0,0,0,0,0.1,0c0.8,0.3,1.6,0.6,2.4,0.8
					c0.3,0,0.6,0.3,0.7,0.6c0.2,0.8,0.8,1.4,1.6,1.6c0.2,0.1,0.4,0.4,0.4,0.6c-0.1,0.5,0.1,0.5,0.4,0.5c0.4-0.1,0.7,0.2,0.8,0.5
					c0,0.1,0.1,0.3,0.2,0.3c0.8,0.7,1.2,1.7,1.1,2.8c0,0.3,0,0.6,0,0.9c0.1,0.2,0.2,0.3,0.4,0.4c1.5,0.2,2.9,0.3,4.4,0.5
					c0.8,0.1,1.5,0.2,2.3,0.3c-0.4,0.6-0.3,0.8,0.3,1.1c0.3,0.2,0.7,0.3,1,0.5c2.5,1.5,5,3,7.5,4.5c0.6,0.4,1.3,0.7,2.1,0.9
					c1,0.2,2,0.4,3,0.5c1.6,0.2,3.1,0.4,4.7,0.7c0.4,0.1,0.6-0.1,0.7-0.5s0.2-0.7,0.3-1.2l4.3,0.7c0.3,0.1,0.8,0.1,0.9,0.3
					c0.3,0.6,0.8,1.2,1.4,1.7c0.5,0.7,1.1,1.3,1.7,1.8c0.8,0.6,1.4,1.4,1.6,2.4c0.2,0.7,0,1.4,0.5,1.9c0.8,0.8,1.6,1.5,2.5,2.2
					c0.4,0.3,0.7,0.5,1.1,0.6c0.2,0.1,0.5,0.1,0.6,0c0.4-0.6,0.8-1.2,1.2-1.9c0.2-0.4,1.3-1.2,1.7-1c0.6,0.3,1.3,0.4,2,0.3
					c0.2,0,0.5,0,0.6,0.1c0.6,0.6,1.2,1.3,1.8,1.9c0.2,0.3,0.4,0.5,0.5,0.8c0.2,0.6,0.4,1.1,0.6,1.7c0.1,0.4,0.3,0.7,0.4,1.1
					c0.3,0.3,0.6,0.6,0.9,1c0.3,0.5,0.6,0.9,1,1.2C299.9,138.4,300.2,138.6,299.7,139.2z"/>
			</defs>
			<defs>
				<path id="SVGID_4_" d="M299.7,139.2c0.5-0.6,0.2-0.8-0.3-1.1c-0.4-0.3-0.7-0.8-1-1.2c-0.3-0.4-0.6-0.7-0.9-1
					c-0.1-0.4-0.3-0.7-0.4-1.1c-0.2-0.6-0.4-1.2-0.6-1.7c-0.1-0.3-0.3-0.6-0.5-0.8c-0.6-0.6-1.1-1.3-1.8-1.9
					c-0.1-0.1-0.4-0.1-0.6-0.1c-0.7,0.1-1.4,0-2-0.3c-0.4-0.3-1.5,0.5-1.7,1c-0.3,0.7-0.7,1.3-1.2,1.9c-0.1,0.1-0.4,0.1-0.6,0
					c-0.4-0.2-0.8-0.4-1.1-0.6c-0.9-0.7-1.7-1.5-2.5-2.2c-0.6-0.5-0.4-1.3-0.5-1.9c-0.2-1-0.7-1.8-1.6-2.4c-0.6-0.6-1.2-1.2-1.7-1.8
					c-0.6-0.5-1-1-1.4-1.7c-0.1-0.2-0.6-0.2-0.9-0.3l-4.3-0.7c-0.1,0.4-0.2,0.8-0.3,1.2s-0.2,0.6-0.7,0.5c-1.6-0.3-3.1-0.5-4.7-0.7
					c-1-0.1-2-0.3-3-0.5c-0.7-0.2-1.4-0.5-2.1-0.9c-2.5-1.5-5-3-7.5-4.5c-0.3-0.2-0.7-0.3-1-0.5c-0.6-0.3-0.6-0.4-0.3-1.1
					c-0.8-0.1-1.6-0.2-2.3-0.3c-1.5-0.2-2.9-0.3-4.4-0.5c-0.2-0.1-0.4-0.2-0.4-0.4c0-0.3,0-0.6,0-0.9c0.1-1-0.3-2.1-1.1-2.8
					c-0.1-0.1-0.2-0.2-0.2-0.3c-0.1-0.4-0.4-0.6-0.8-0.5c-0.3,0-0.6,0-0.4-0.5c0-0.3-0.2-0.5-0.4-0.6c-0.8-0.2-1.4-0.8-1.6-1.6
					c-0.1-0.3-0.4-0.6-0.7-0.6c-0.8-0.2-1.6-0.5-2.4-0.8c-0.3-0.1-0.5-0.4-0.4-0.7c0,0,0-0.1,0-0.1c0-0.2,0.1-0.5,0.1-0.7
					c0.4-0.9-0.1-1.7-0.5-2.4c-0.3-0.6-0.5-1.3-0.7-1.9c-0.2-0.5-0.5-1-0.8-1.5c-0.3-0.4-0.3-1,0.1-1.3c0,0,0.1-0.1,0.1-0.1
					c0.2-0.2,0.3-0.5,0.4-0.8c-1.1-0.5-1.6-1.8-1.2-2.9c0.2-0.6,0.1-1.3-0.4-1.7c-0.2-0.2-0.2-0.5-0.2-0.8s0-0.7-0.1-1
					c-0.1-0.4-0.3-0.7-0.5-1c-0.6-1-0.7-2.2-0.1-3.2c0.2-0.9,0.1-1.8-0.4-2.5c-0.3-0.6-0.3-1.3,0.2-1.8c0.5-0.7,1-1.4,1.5-2.1
					c0.1-0.3,0.2-0.5,0.2-0.8c0.1-0.4,0.1-0.8,0.1-1.2c0-0.1,0-0.2,0-0.4c-0.4-1.4-0.1-2.8,0.7-4c1.7-2.7,3-5.6,3.8-8.6
					c0.2-0.5,0.5-1,0.7-1.5c0.1-0.1,0.1-0.3,0-0.4c-0.4-0.7-0.4-0.7,0.3-1c0.1,0,0.2-0.1,0.2-0.2c-0.2-0.2-0.3-0.3-0.4-0.5
					c0-0.2,0-0.4,0-0.6h0.8c-0.7-0.7-1-1.8-0.7-2.8c0-0.3-0.1-0.7-0.2-1c-0.1-0.2-0.1-0.5,0-0.7c0.1-0.4,0.3-0.8,0.5-1.1
					c0.3,0.3,0.6,0.5,0.9,0.8c0.4,0.4,0.9,0.6,1.4,0.6c0.2,0,0.5,0.2,0.9,0.4l0.3-1.4c1-0.3,1.3-0.2,1.1,0.6l0.6,0.5
					c0.3-0.4,0.2-0.9-0.1-1.2c0,0,0,0,0,0c-0.1-0.2-0.2-0.5-0.2-0.7c0.3-0.1,0.5-0.1,0.8-0.1c1.7,0.5,3.4,1.1,5.1,1.6
					c3.5,0.9,7,1.7,10.5,2.4c2.9,0.6,5.8,1.2,8.7,1.7c2.5,0.5,5.1,0.8,7.7,1.2c3,0.4,6.1,0.8,9.1,1.1c2,0.2,4,0.3,6.1,0.4
					c5.3,0.2,10.5,0.3,15.8,0.5h0.3c1,0,1,0,1.1-0.9c0-0.1,0-0.2,0.1-0.2c0,0,0-0.1,0.1-0.1c0.9,0,1,0.6,1.1,1.2
					c0,0.3,0.1,0.6,0.2,0.8c0.1,0.2,0.3,0.4,0.4,0.4c0.7-0.1,1.4,0.1,2,0.5c0.1,0,0.2,0,0.3,0c0.6-0.6,1.2-0.3,1.8,0
					c0.2,0.1,0.3,0.2,0.5,0.3c0.4,0.3,0.8,0.5,1.2,0.2c0.4,0.3,0.9,0.6,1.4,0.9c0.3,0.1,0.7-0.1,1-0.2s0.6-0.6,0.9,0
					c0,0,0.1,0.1,0.2,0c0.6-0.2,1.3-0.1,1.8,0.2c0.3,0.2,0.9-0.1,1.3-0.1c0.7,0.1,1.4-0.1,1.9-0.6c0,0,0.1,0,0.2-0.1
					c0,0,0.1,0,0.1,0c-0.2,0.9-1,1.5-1.9,1.4c-1.4,0.1-2.7,0.5-3.9,1.2c-0.3,0.1-0.4,0.6-0.6,0.8c-0.2,0.3-0.4,0.5-0.6,0.8
					c-0.2,0.3-0.5,0.5-0.8,0.7c-0.3,0.2-0.5,0.3-0.8,0.5c0.2,0.3,0.5,0.4,0.8,0.3c0.6-0.1,1.2-0.4,1.6-0.9c0.2-0.2,0.4-0.6,0.8-0.3
					s0.3,0.6,0,1c-0.1,0.1-0.1,0.2-0.1,0.3c1.2,0.3,1.6,0.1,2.2-0.8c0.1-0.2,0.3-0.2,0.5-0.2c0.9,0.2,1.7-0.2,2.1-1.1
					c0.6-0.8,1.4-1.4,2.4-1.6c0.1,0,0.3,0.1,0.5,0.2c-0.1,0.2-0.1,0.4-0.2,0.4c-1,0.3-1.1,1.1-1.3,2l0.6-0.5c0.8,0,1.5,0.5,1.8,1.1
					c0,0.1,0.1,0.2,0.2,0.2c0.6-0.3,1.2,0.2,1.8,0.1c0.3-0.1,0.5-0.4,0.8-0.6c0.2-0.1,0.5-0.2,0.7-0.3c0.3-0.1,0.6-0.1,0.9-0.2
					s0.3-0.2,0.4-0.2c0.3-0.1,0.7-0.1,1-0.2v1.1c0.6-0.1,1.2-0.2,1.8-0.4c0.5-0.2,0.7-0.2,0.7,0.4c0,0.3,0,0.5,0,0.8
					c0.4,0,0.8,0,1.1,0s0.5,0,0.6,0.4s-0.1,0.5-0.4,0.5c-0.1,0-0.2,0.1-0.4,0.1c-1.2,0-2.4-0.1-3.5-0.1c-0.3,0-0.6,0.1-0.9,0.2
					c-0.2,0.1-0.4,0.3-0.6,0.3c-0.7-0.1-1.3,0.1-1.4,0.7l-1.6,0.2l-2.1,4.3l0,0.1l2.2-2.6h0.2c0,0.3,0,0.5-0.1,0.8
					c-0.2,0.5-0.4,1-0.6,1.5c-0.2,0.5-0.5,0.9-0.2,1.4c0.1,0.1-0.1,0.5-0.2,0.6c-0.3,0.2-0.4,0.6-0.2,0.9c0.2,0.4,0.2,0.9-0.1,1.4
					c-0.2,0.4-0.2,0.8-0.1,1.2c0.2,1,0.4,2,0.5,3c0.1,0.3,0.2,0.5,0.3,0.8c0.1,0.2,0.2,0.4,0.3,0.7c0.2,0.9,0.6,1,1.5,0.6
					c1.4-0.7,1.6-2.1,1.9-3.4c0-0.2,0-0.4-0.1-0.6c-0.1-0.4-0.3-0.8-0.5-1.2c-0.7-1.4-0.8-3-0.3-4.4c0-0.1,0.1-0.3,0.1-0.3
					c-0.4-0.6,0.1-1,0.3-1.5c0-0.1,0.1-0.2,0.1-0.2c0.5-0.2,0.9-0.7,1-1.2c0-0.1,0.2-0.1,0.4-0.1l-0.2,1.5c0.5,0,0.6-0.2,0.5-0.6
					c0-0.1,0-0.1,0-0.2c-0.1-1,0-1.1,1.1-1.4c-0.1,0-0.2-0.1-0.3-0.1c-0.1-0.1-0.4-0.3-0.4-0.4s0.2-0.4,0.3-0.5
					c0.5-0.1,0.9-0.1,1.4-0.2c1,0,1.6,0.8,2.6,0.9c0.3,0.1,0.6,0.3,0.7,0.5c0.1,0.2-0.1,0.5-0.2,0.8c0.6,0.5,0.7,1.4,0.4,2.1
					c-0.2,0.5-0.1,1.3-0.9,1.7c-0.1,0.1-0.1,0.7-0.1,1c0,0,0.3,0.1,0.3,0c0.4-0.4,0.6-0.8,1-1.1s0.7-0.8,0.9-0.7
					c0.4,0.2,0.8,0.5,1,0.9c0.3,0.8,0.6,1.7,0.8,2.6c0.1,0.6,0.1,1.2,0,1.8c0,0.1-0.4,0.1-0.6,0.2c-0.5,0.2,0.2,1.1-0.7,1.1
					c0.1,0.5,0.2,1-0.4,1.3c-0.2,0.1-0.3,0.4-0.2,0.6c0,0.1,0.1,0.2,0.2,0.2c0.2,0.2,0.5,0.3,0.8,0.3c0.5-0.1,1.1,0.1,1.4,0.5
					c0.7-0.3,1.4-0.4,2-0.7c0.2-0.1,0.4-0.2,0.5-0.4c0.7-0.9,1.7-1.5,2.8-1.9c0.3-0.1,0.6-0.3,0.9-0.6c0.9-0.9,1.7-1.8,2.5-2.7
					c0.3-0.3,0.2-0.5-0.2-0.7c-0.2-0.2-0.4-0.4-0.5-0.7c0-0.3,0.1-0.7,0.3-0.8c0.8-0.3,1.7-0.5,2.5-0.6c0.6,0,1.1,0.3,1.8-0.1
					s1.2-0.3,1.6-1c0.1-0.2,0.5-0.3,0.8-0.5c-0.3-0.4-0.5-0.8,0-1.2c-1-0.4-1-0.8-0.3-1.6s1.3-1.7,2-2.4c0.4-0.5,0.9-0.8,1.5-0.9
					c1.2-0.1,2.3-0.3,3.4-0.7c1.1-0.3,2.2-0.7,3.3-1c0.3-0.1,0.6-0.2,0.6-0.7c0-0.7,0.7-0.4,1.1-0.7c0.1-0.1,0.2,0,0.2,0l0.9-2.6
					c-0.5-0.5-0.6-1.2-0.1-1.8c0.1-0.1,0.1-0.2,0.1-0.3c-0.3-1.1,0.4-2,0.7-3c0-0.2,0.1-0.4,0.2-0.5c0.2-0.2,0.3-0.4,0.5-0.6
					l0.4,0.6l0.1,0.2c0.3-0.3,0.6-0.5,0.9-0.8c0.3-0.3,0.7-0.4,1-0.2c0.7,0.3,1.3,0.9,1.4,1.7c0.3,1.1,0.6,2.1,0.9,3.2
					c0.1,0.3,0.4,0.6,0.7,0.5c0.6,0,0.7,0.1,0.6,0.7c0,0.2,0,0.4,0,0.6c0.2,0,0.3-0.2,0.5-0.1c0.3,0,0.5,0.1,0.7,0.2
					c0.3,0.3,0.5,0.7,0.7,1.1c-0.8,0.8-1.7,1.6-2.5,2.4c-0.1,0.1-0.1,0.2-0.2,0.3c-0.2,0.4-0.2,0.4-0.6,0.2l-0.6,1.3
					c-0.7-0.2-1,0.4-1.5,0.9c-0.3,0.4-0.8,0.7-1.3,0.6c-0.2,0-0.4,0.2-0.5,0.3c0.2,0.7-0.3,1.4-0.3,2.1c0,0.4-0.1,0.8-0.2,1.2
					c0,0.1,0,0.3,0,0.4c0.4,0.4,0.2,0.8,0.1,1.2s-0.1,0.6,0.3,0.6s0.7,0.5,0.9,0.9s0.5,0.7,1,0.4c0.1-0.1,0.2-0.2,0.3-0.3
					c0-0.1-0.2-0.3-0.3-0.4s-0.3-0.2-0.4-0.3c0.1-0.1,0.1-0.3,0.2-0.3c0.2,0,0.5,0,0.6,0.2c0.2,0.4,0.5,0.8,0.7,1.2
					c-0.6,0.5-1.2,0.9-1.8,1.3c-0.5,0.2-1,0.4-1.5,0.5c-0.9,0.3-1.6,1-2,1.9c-0.5,1.4-1.7,1.8-2.8,2.5c-0.4,0.2-0.8,0.3-1.2,0.4
					c-0.1,0.7-0.1,1.3-0.1,2c0.1,0.8-0.1,1.6-0.5,2.3c-0.4,0.9-0.8,1.9-1.2,2.9c-0.1,0.2,0.1,0.5,0.1,0.7c0.1,0.4,0.1,0.9,0,1.3
					c-0.2,0.6-0.4,1.2-0.7,1.8c-0.1,0.1-0.1,0.2-0.1,0.3c0.1,0.7-0.2,1.5-0.6,2c-0.4,0.6,0.1,0.9,0.4,1.1c0.4,0.5,0.7,1.1,0.9,1.7
					c0.2,0.5,0.6,0.9,1,1.3c0.5,0.7,0.7,1.6,0.4,2.4c-0.1,0.1-0.2,0.2-0.3,0.2c-0.8,0.3-1.5,0.9-1.8,1.7c-0.2,0.4-0.5,0.7-1,0.8
					c-1.4,0.2-2.5,1.3-2.8,2.7c-0.1,0.5-0.3,0.8-0.9,0.8c-1.3,0.2-2.2,1.3-2.3,2.6c0,0.6-0.4,1.1-0.9,1.3c0,0-0.1,0-0.2,0.1
					c-0.3,0.5-0.6,1-1,1.5s-0.8,0.7-1.1,1.2c-0.1,0.2-0.3,0.4-0.5,0.6c-0.3,0.3-0.8,0.4-0.7,1c0,0,0,0.1,0,0.1c-0.9,1-0.8,2.3-1,3.5
					c-0.1,1,0.1,2,0.5,2.9c0.6,1.9,1.8,3.7,3.3,5.1c0.2,0.2,0.2,0.5,0.2,0.7c-0.2,0.6,0,1.2,0.5,1.7c0.1,0.1,0.4,0.2,0.4,0.4
					c0.8,1.6,1.8,3,1.9,4.9c0,0.4,0.1,0.8,0.1,1.2c0,0.9,0,1.9-0.2,2.8c-0.1,0.7-0.9,0.5-1.4,0.7c-0.2,0.1-0.5,0.1-0.7,0.2
					c-0.5,0.3-0.9,0.1-1-0.5c-0.1-0.8-0.8-1.7-1.3-1.6s-0.8-0.3-1-0.6c-0.1-0.1-0.1-0.2-0.1-0.3c-0.1-0.4-0.3-0.9-0.5-1.3
					c-0.8,0.3-1,0.3-1.2-0.4c-0.3-1-0.9-1.8-1.7-2.5c-0.1-0.1-0.1-0.4-0.2-0.8c-0.6-0.3-0.6-1.1-0.6-1.8c0-0.6,0.1-1.2,0.2-1.9
					c0-0.8-0.5-1.6-1.3-1.8c-0.6-0.2-1.1-0.6-1.5-1.2c-0.5-0.8-1.3-1.3-2.2-1.4h-0.8c0.1,0.5,0,0.8-0.6,0.7c-0.1,0-0.3,0.2-0.5,0.3
					c-0.4,0.2-0.8,0.3-1.2,0.4l-0.7,0.3c-0.5-1.1-1.6-1.8-2.7-1.9c-1.2-0.3-2.5-0.2-3.6,0.3c-0.5,0.2-1,0.3-1.5,0.4
					c-0.2,0-0.3,0-0.5,0c0.5-0.6,0.4-0.9-0.3-1.5c-0.1,0.1-0.2,0.2-0.2,0.3c-0.1,0.8-0.8,0.9-1.3,1.1c-0.1,0-0.2,0.1-0.3,0
					c-0.7-0.6-1.5,0-2.2-0.1c-0.1,0-0.3,0.1-0.3,0.2c-0.4,0.4-0.7,0.8-1.1,1.3l0.5,0.3l0.8-1.2l0.5,1.2l-0.8,1l-0.3,0.3
					c0.1,0.1,0.3,0.4,0.5,0.3c0.5,0,1.1,0.1,1.5,0.5c0.3,0.2,0.3,0.3,0.1,0.5c-0.4,0.5-0.8,0.5-1.3,0c-0.2-0.1-0.5-0.3-0.7-0.4
					c-0.2-0.1-0.4-0.3-0.6-0.4c-0.2,0-0.4,0-0.5,0c0.1,0.3,0.3,0.6,0.2,0.8c-0.2,0.5-0.7,0.7-1.2,0.6l0.2-0.6l-0.1-0.1
					c-0.3,0.2-0.5,0.4-0.9,0.6c-0.3,0.2-0.7,0.2-1,0.2c-0.4,0-0.8-0.2-1.1-0.4c-0.7-0.5-1.5-0.9-2.3-1c-0.1,0-0.2,0-0.4,0
					c-0.7,0.3-1.5,0.2-2.1-0.2c-1.2-0.6-2.6-0.6-3.8-0.1c-0.9,0.3-1.8,0.7-2.6,1.4c-1.3,0.9-2.6,1.8-4,2.6c-0.7,0.4-1.6,0.7-2.1,1.3
					c-0.9,1.3-2,2.4-2.2,4c0,0.6,0.2,1.2,0.4,1.7c0.1,0.3,0.2,0.5,0.3,0.8c0.3,0.8-0.2,1.2-0.7,1.6s-0.8,0-1.1-0.1s-1.1-0.3-1.6-0.4
					c-0.1,0-0.1,0-0.2,0c-1-0.5-2-0.9-2.9-1.4c-0.1-0.1-0.2-0.3-0.3-0.5c-0.1-0.2,0-0.4-0.1-0.6c-0.2-0.4-0.6-0.7-0.7-1.1
					S300.2,139.5,299.7,139.2z"/>
			</defs>
			<clipPath id="SVGID_5_">
				<use xlink:href="#SVGID_3_"  overflow="visible"/>
			</clipPath>
			<clipPath id="SVGID_6_" clip-path="url(#SVGID_5_)">
				<use xlink:href="#SVGID_4_"  overflow="visible"/>
			</clipPath>
			<g clip-path="url(#SVGID_6_)">
				<path fill="#231F20" d="M158.6,207.2V0h310.1v207.2H158.6z M468.1,206.5L468.1,206.5z M159.9,205.9h307.6V1.3H159.9L159.9,205.9
					z"/>
				<rect x="159.3" y="143.2" fill="#FFFFFF" width="308.9" height="15.8"/>
				<rect x="159.3" y="127.3" fill="#BF0A30" width="308.9" height="15.9"/>
				<rect x="159.3" y="174.9" fill="#FFFFFF" width="308.9" height="15.8"/>
				<rect x="159.3" y="190.7" fill="#BF0A30" width="308.9" height="15.9"/>
				<rect x="159.3" y="159" fill="#BF0A30" width="308.9" height="15.8"/>
				<rect x="159.3" y="111.5" fill="#FFFFFF" width="308.9" height="15.8"/>
				<rect x="159.3" y="64" fill="#BF0A30" width="308.9" height="15.8"/>
				<rect x="159.3" y="16.5" fill="#FFFFFF" width="308.9" height="15.8"/>
				<rect x="159.3" y="32.3" fill="#BF0A30" width="308.9" height="15.9"/>
				<rect x="159.3" y="95.7" fill="#BF0A30" width="308.9" height="15.8"/>
				<rect x="159.3" y="0.6" fill="#BF0A30" width="308.9" height="15.8"/>
				<rect x="159.3" y="48.2" fill="#FFFFFF" width="308.9" height="15.8"/>
				<rect x="159.3" y="79.8" fill="#FFFFFF" width="308.9" height="15.8"/>
				<rect x="159.3" y="0.6" fill="#002868" width="123.5" height="111"/>
				<polygon fill="#FFFFFF" points="252.1,6.6 252.9,9.2 255.7,9.2 253.4,10.8 254.3,13.4 252.1,11.8 249.8,13.4 250.7,10.8 
					248.4,9.2 251.2,9.2 				"/>
				<polygon fill="#FFFFFF" points="252.1,29.6 252.9,32.3 255.7,32.3 253.4,33.9 254.3,36.5 252.1,34.9 249.8,36.5 250.7,33.9 
					248.4,32.3 251.2,32.3 				"/>
				<polygon fill="#FFFFFF" points="252.1,52.7 252.9,55.3 255.7,55.3 253.4,57 254.3,59.6 252.1,58 249.8,59.6 250.7,57 
					248.4,55.3 251.2,55.3 				"/>
				<polygon fill="#FFFFFF" points="252.1,76.3 252.9,78.9 255.7,78.9 253.4,80.6 254.3,83.2 252.1,81.6 249.8,83.2 250.7,80.6 
					248.4,78.9 251.2,78.9 				"/>
				<polygon fill="#FFFFFF" points="252.1,98.8 252.9,101.4 255.7,101.4 253.4,103.1 254.3,105.7 252.1,104.1 249.8,105.7 
					250.7,103.1 248.4,101.4 251.2,101.4 				"/>
				<polygon fill="#FFFFFF" points="231.4,6.6 232.2,9.2 235,9.2 232.8,10.8 233.6,13.4 231.4,11.8 229.1,13.4 230,10.8 227.8,9.2 
					230.5,9.2 				"/>
				<polygon fill="#FFFFFF" points="231.4,29.6 232.2,32.3 235,32.3 232.8,33.9 233.6,36.5 231.4,34.9 229.1,36.5 230,33.9 
					227.8,32.3 230.5,32.3 				"/>
				<polygon fill="#FFFFFF" points="231.4,52.7 232.2,55.3 235,55.3 232.8,57 233.6,59.6 231.4,58 229.1,59.6 230,57 227.8,55.3 
					230.5,55.3 				"/>
				<polygon fill="#FFFFFF" points="231.4,76.3 232.2,78.9 235,78.9 232.8,80.6 233.6,83.2 231.4,81.6 229.1,83.2 230,80.6 
					227.8,78.9 230.5,78.9 				"/>
				<polygon fill="#FFFFFF" points="231.4,98.8 232.2,101.4 235,101.4 232.8,103.1 233.6,105.7 231.4,104.1 229.1,105.7 230,103.1 
					227.8,101.4 230.5,101.4 				"/>
				<polygon fill="#FFFFFF" points="210.7,6.6 211.6,9.2 214.3,9.2 212.1,10.8 212.9,13.4 210.7,11.8 208.5,13.4 209.3,10.8 
					207.1,9.2 209.9,9.2 				"/>
				<polygon fill="#FFFFFF" points="210.7,29.6 211.6,32.3 214.3,32.3 212.1,33.9 212.9,36.5 210.7,34.9 208.5,36.5 209.3,33.9 
					207.1,32.3 209.9,32.3 				"/>
				<polygon fill="#FFFFFF" points="210.7,52.7 211.6,55.3 214.3,55.3 212.1,57 212.9,59.6 210.7,58 208.5,59.6 209.3,57 
					207.1,55.3 209.9,55.3 				"/>
				<polygon fill="#FFFFFF" points="210.7,76.3 211.6,78.9 214.3,78.9 212.1,80.6 212.9,83.2 210.7,81.6 208.5,83.2 209.3,80.6 
					207.1,78.9 209.9,78.9 				"/>
				<polygon fill="#FFFFFF" points="210.7,98.8 211.6,101.4 214.3,101.4 212.1,103.1 212.9,105.7 210.7,104.1 208.5,105.7 
					209.3,103.1 207.1,101.4 209.9,101.4 				"/>
				<polygon fill="#FFFFFF" points="190,6.6 190.9,9.2 193.6,9.2 191.4,10.8 192.3,13.4 190,11.8 187.8,13.4 188.6,10.8 186.4,9.2 
					189.2,9.2 				"/>
				<polygon fill="#FFFFFF" points="190,29.6 190.9,32.3 193.6,32.3 191.4,33.9 192.3,36.5 190,34.9 187.8,36.5 188.6,33.9 
					186.4,32.3 189.2,32.3 				"/>
				<polygon fill="#FFFFFF" points="190,52.7 190.9,55.3 193.6,55.3 191.4,57 192.3,59.6 190,58 187.8,59.6 188.6,57 186.4,55.3 
					189.2,55.3 				"/>
				<polygon fill="#FFFFFF" points="190,76.3 190.9,78.9 193.6,78.9 191.4,80.6 192.3,83.2 190,81.6 187.8,83.2 188.6,80.6 
					186.4,78.9 189.2,78.9 				"/>
				<polygon fill="#FFFFFF" points="190,98.8 190.9,101.4 193.6,101.4 191.4,103.1 192.3,105.7 190,104.1 187.8,105.7 188.6,103.1 
					186.4,101.4 189.2,101.4 				"/>
				<polygon fill="#FFFFFF" points="169.4,6.6 170.2,9.2 173,9.2 170.7,10.8 171.6,13.4 169.4,11.8 167.1,13.4 168,10.8 165.7,9.2 
					168.5,9.2 				"/>
				<polygon fill="#FFFFFF" points="169.4,29.6 170.2,32.3 173,32.3 170.7,33.9 171.6,36.5 169.4,34.9 167.1,36.5 168,33.9 
					165.7,32.3 168.5,32.3 				"/>
				<polygon fill="#FFFFFF" points="169.4,52.7 170.2,55.3 173,55.3 170.7,57 171.6,59.6 169.4,58 167.1,59.6 168,57 165.7,55.3 
					168.5,55.3 				"/>
				<polygon fill="#FFFFFF" points="169.4,76.3 170.2,78.9 173,78.9 170.7,80.6 171.6,83.2 169.4,81.6 167.1,83.2 168,80.6 
					165.7,78.9 168.5,78.9 				"/>
				<polygon fill="#FFFFFF" points="169.4,98.8 170.2,101.4 173,101.4 170.7,103.1 171.6,105.7 169.4,104.1 167.1,105.7 168,103.1 
					165.7,101.4 168.5,101.4 				"/>
				<polygon fill="#FFFFFF" points="262.6,18.1 263.5,20.7 266.2,20.7 264,22.4 264.8,25 262.6,23.4 260.4,25 261.2,22.4 259,20.7 
					261.8,20.7 				"/>
				<polygon fill="#FFFFFF" points="262.6,41.9 263.5,44.5 266.2,44.5 264,46.2 264.8,48.8 262.6,47.2 260.4,48.8 261.2,46.2 
					259,44.5 261.8,44.5 				"/>
				<polygon fill="#FFFFFF" points="262.4,65.2 263.3,67.9 266,67.9 263.8,69.5 264.6,72.1 262.4,70.5 260.2,72.1 261,69.5 
					258.8,67.9 261.5,67.9 				"/>
				<polygon fill="#FFFFFF" points="262.2,88.3 263,90.9 265.8,90.9 263.6,92.6 264.4,95.2 262.2,93.6 260,95.2 260.8,92.6 
					258.6,90.9 261.3,90.9 				"/>
				<polygon fill="#FFFFFF" points="241.9,18.1 242.8,20.7 245.6,20.7 243.3,22.4 244.2,25 241.9,23.4 239.7,25 240.6,22.4 
					238.3,20.7 241.1,20.7 				"/>
				<polygon fill="#FFFFFF" points="241.9,41.9 242.8,44.5 245.6,44.5 243.3,46.2 244.2,48.8 241.9,47.2 239.7,48.8 240.6,46.2 
					238.3,44.5 241.1,44.5 				"/>
				<polygon fill="#FFFFFF" points="241.7,65.2 242.6,67.9 245.3,67.9 243.1,69.5 244,72.1 241.7,70.5 239.5,72.1 240.3,69.5 
					238.1,67.9 240.9,67.9 				"/>
				<polygon fill="#FFFFFF" points="241.5,88.3 242.4,90.9 245.1,90.9 242.9,92.6 243.8,95.2 241.5,93.6 239.3,95.2 240.1,92.6 
					237.9,90.9 240.7,90.9 				"/>
				<polygon fill="#FFFFFF" points="221.3,17.3 222.1,19.9 224.9,19.9 222.6,21.5 223.5,24.2 221.3,22.5 219,24.2 219.9,21.5 
					217.6,19.9 220.4,19.9 				"/>
				<polygon fill="#FFFFFF" points="221.3,41.1 222.1,43.7 224.9,43.7 222.6,45.3 223.5,48 221.3,46.3 219,48 219.9,45.3 
					217.6,43.7 220.4,43.7 				"/>
				<polygon fill="#FFFFFF" points="221.1,64.4 221.9,67 224.7,67 222.4,68.7 223.3,71.3 221.1,69.7 218.8,71.3 219.7,68.7 
					217.4,67 220.2,67 				"/>
				<polygon fill="#FFFFFF" points="220.8,87.5 221.7,90.1 224.5,90.1 222.2,91.7 223.1,94.4 220.8,92.7 218.6,94.4 219.5,91.7 
					217.2,90.1 220,90.1 				"/>
				<polygon fill="#FFFFFF" points="200.6,17.1 201.4,19.7 204.2,19.7 202,21.3 202.8,23.9 200.6,22.3 198.3,23.9 199.2,21.3 
					197,19.7 199.7,19.7 				"/>
				<polygon fill="#FFFFFF" points="200.6,40.8 201.4,43.5 204.2,43.5 202,45.1 202.8,47.7 200.6,46.1 198.3,47.7 199.2,45.1 
					197,43.5 199.7,43.5 				"/>
				<polygon fill="#FFFFFF" points="200.4,64.2 201.2,66.8 204,66.8 201.8,68.4 202.6,71.1 200.4,69.4 198.1,71.1 199,68.4 
					196.8,66.8 199.5,66.8 				"/>
				<polygon fill="#FFFFFF" points="200.2,87.2 201,89.9 203.8,89.9 201.5,91.5 202.4,94.1 200.2,92.5 197.9,94.1 198.8,91.5 
					196.5,89.9 199.3,89.9 				"/>
				<polygon fill="#FFFFFF" points="179.9,16.6 180.8,19.3 183.5,19.3 181.3,20.9 182.1,23.5 179.9,21.9 177.7,23.5 178.5,20.9 
					176.3,19.3 179,19.3 				"/>
				<polygon fill="#FFFFFF" points="179.9,40.4 180.8,43 183.5,43 181.3,44.7 182.1,47.3 179.9,45.7 177.7,47.3 178.5,44.7 
					176.3,43 179,43 				"/>
				<polygon fill="#FFFFFF" points="179.7,63.8 180.5,66.4 183.3,66.4 181.1,68 181.9,70.7 179.7,69 177.4,70.7 178.3,68 
					176.1,66.4 178.8,66.4 				"/>
				<polygon fill="#FFFFFF" points="179.5,86.8 180.3,89.5 183.1,89.5 180.9,91.1 181.7,93.7 179.5,92.1 177.2,93.7 178.1,91.1 
					175.9,89.5 178.6,89.5 				"/>
				<polygon fill="#FFFFFF" points="272.8,6.6 273.6,9.2 276.4,9.2 274.1,10.8 275,13.4 272.8,11.8 270.5,13.4 271.4,10.8 
					269.1,9.2 271.9,9.2 				"/>
				<polygon fill="#FFFFFF" points="272.8,29.6 273.6,32.3 276.4,32.3 274.1,33.9 275,36.5 272.8,34.9 270.5,36.5 271.4,33.9 
					269.1,32.3 271.9,32.3 				"/>
				<polygon fill="#FFFFFF" points="272.8,52.7 273.6,55.3 276.4,55.3 274.1,57 275,59.6 272.8,58 270.5,59.6 271.4,57 269.1,55.3 
					271.9,55.3 				"/>
				<polygon fill="#FFFFFF" points="272.8,76.3 273.6,78.9 276.4,78.9 274.1,80.6 275,83.2 272.8,81.6 270.5,83.2 271.4,80.6 
					269.1,78.9 271.9,78.9 				"/>
				<polygon fill="#FFFFFF" points="272.8,98.8 273.6,101.4 276.4,101.4 274.1,103.1 275,105.7 272.8,104.1 270.5,105.7 
					271.4,103.1 269.1,101.4 271.9,101.4 				"/>
			</g>
		</g>
	</g>
</g>
</svg>
