<svg xmlns="http://www.w3.org/2000/svg" xmlns:xlink="http://www.w3.org/1999/xlink" viewBox="0 0 803.33 311.08">
  <defs>
    <style>
      .cls-1, .cls-14, .cls-17, .cls-18, .cls-19, .cls-20 {
        fill: none;
      }

      .cls-15, .cls-2, .cls-3, .cls-4, .cls-5, .cls-6, .cls-7, .cls-8, .cls-9 {
        isolation: isolate;
      }

      .cls-3, .cls-4, .cls-5, .cls-6, .cls-7, .cls-8, .cls-9 {
        font-size: 22px;
      }

      .cls-10, .cls-15, .cls-3, .cls-4, .cls-5, .cls-6, .cls-7, .cls-8, .cls-9 {
        fill: #fff;
      }

      .cls-15, .cls-3, .cls-4, .cls-5 {
        font-family: Arial-BoldMT, Arial;
        font-weight: 700;
      }

      .cls-3 {
        letter-spacing: 0.01em;
      }

      .cls-5, .cls-8 {
        letter-spacing: -0.01em;
      }

      .cls-6, .cls-7, .cls-8, .cls-9 {
        font-family: ArialMT, Arial;
      }

      .cls-7 {
        letter-spacing: 0.02em;
      }

      .cls-9 {
        letter-spacing: -0.04em;
      }

      .cls-11 {
        fill: #d3d800;
      }

      .cls-12 {
        clip-path: url(#clip-path);
      }

      .cls-13 {
        opacity: 0.3;
      }

      .cls-14, .cls-17, .cls-18 {
        stroke: #fff;
      }

      .cls-14, .cls-18, .cls-20 {
        stroke-miterlimit: 10;
      }

      .cls-14 {
        stroke-width: 13.2px;
      }

      .cls-15 {
        font-size: 70px;
      }

      .cls-16 {
        clip-path: url(#clip-path-2);
      }

      .cls-17, .cls-19 {
        stroke-linecap: round;
        stroke-linejoin: round;
      }

      .cls-17, .cls-18, .cls-20 {
        stroke-width: 8.49px;
      }

      .cls-19, .cls-20 {
        stroke: #d3d800;
      }

      .cls-19 {
        stroke-width: 8.71px;
      }
    </style>
    <clipPath id="clip-path" transform="translate(-0.05)">
      <rect class="cls-1" x="267.48" y="13.93" width="240.29" height="91.13" rx="15.17" ry="15.17"/>
    </clipPath>
    <clipPath id="clip-path-2" transform="translate(-0.05)">
      <rect class="cls-1" y="24.72" width="803.37" height="282"/>
    </clipPath>
  </defs>
  <title>Asset 2</title>
  <g id="Layer_2" data-name="Layer 2">
    <g id="Layer_1-2" data-name="Layer 1">
      <g id="Layer_2-2" data-name="Layer 2">
        <g id="big_picture" data-name="big picture">
          <g class="cls-2">
            <text class="cls-3" transform="translate(282.41 172.89)">S</text>
            <text class="cls-4" transform="translate(293.39 172.89)">ou</text>
            <text class="cls-5" transform="translate(317.59 172.89)">r</text>
            <text class="cls-5" transform="translate(324.56 172.89)">c</text>
            <text class="cls-4" transform="translate(334.29 172.89)">e:</text>
            <text class="cls-6" transform="translate(349.86 172.89)"><tspan xml:space="preserve"> US </tspan></text>
            <text class="cls-6" transform="translate(384.26 172.89)">D</text>
            <text class="cls-6" transform="translate(399.01 172.89)">epa</text>
            <text class="cls-7" transform="translate(433.15 172.89)">r</text>
            <text class="cls-6" transform="translate(440.87 172.89)">tme</text>
            <text class="cls-6" transform="translate(477.51 172.89)">n</text>
            <text class="cls-6" transform="translate(489.65 172.89)">t of </text>
            <text class="cls-6" transform="translate(316.28 202.89)">Ene</text>
            <text class="cls-8" transform="translate(350.32 202.89)">r</text>
            <text class="cls-6" transform="translate(357.35 202.89)">g</text>
            <text class="cls-9" transform="translate(369.65 202.89)">y</text>
            <text class="cls-6" transform="translate(379.16 202.89)">, June 2018.</text>
          </g>
          <g>
            <g>
              <path class="cls-10" d="M551.08,43.25V33.67a14.23,14.23,0,0,0-14.23-14.23H527.5V8.81A8.8,8.8,0,0,0,518.71,0H259.16a8.8,8.8,0,0,0-8.81,8.81V41.15a19.71,19.71,0,0,1,0,35.09v35.68a8.83,8.83,0,0,0,8.81,8.81H518.69a8.8,8.8,0,0,0,8.81-8.81V101.86h9.35a14.23,14.23,0,0,0,14.23-14.22V79.55a19.72,19.72,0,0,1,0-36.3Z" transform="translate(-0.05)"/>
              <rect class="cls-11" x="267.44" y="13.93" width="240.29" height="91.13" rx="15.17" ry="15.17"/>
              <g class="cls-12">
                <g>
                  <g class="cls-13">
                    <line class="cls-14" x1="183.23" y1="116.85" x2="290.41" y2="9.67"/>
                    <line class="cls-14" x1="219.92" y1="116.85" x2="327.1" y2="9.67"/>
                    <line class="cls-14" x1="256.6" y1="116.85" x2="363.78" y2="9.67"/>
                    <line class="cls-14" x1="293.28" y1="116.85" x2="400.45" y2="9.67"/>
                    <line class="cls-14" x1="329.95" y1="116.85" x2="437.13" y2="9.67"/>
                    <line class="cls-14" x1="366.63" y1="116.85" x2="473.81" y2="9.67"/>
                    <line class="cls-14" x1="403.31" y1="116.85" x2="510.5" y2="9.67"/>
                  </g>
                  <g class="cls-13">
                    <line class="cls-14" x1="444.43" y1="116.85" x2="551.61" y2="9.67"/>
                    <line class="cls-14" x1="481.1" y1="116.85" x2="588.29" y2="9.67"/>
                    <line class="cls-14" x1="517.79" y1="116.85" x2="624.97" y2="9.67"/>
                    <line class="cls-14" x1="554.47" y1="116.85" x2="661.65" y2="9.67"/>
                    <line class="cls-14" x1="591.15" y1="116.85" x2="698.32" y2="9.67"/>
                    <line class="cls-14" x1="627.82" y1="116.85" x2="735" y2="9.67"/>
                    <line class="cls-14" x1="664.5" y1="116.85" x2="771.68" y2="9.67"/>
                  </g>
                </g>
              </g>
            </g>
            <path class="cls-10" d="M494.08,12.57s-15.36,11.31-2.43,34.75,10.51,48.49,2.43,55.76,17.78,17.78,21,1.62,6.47-55,6.47-55-4.85-38.79-12.13-42S494.08,12.57,494.08,12.57Z" transform="translate(-0.05)"/>
          </g>
          <text class="cls-15" transform="translate(302.09 85)">100%</text>
          <g class="cls-16">
            <g>
              <g>
                <path class="cls-17" d="M275.45,306.72V264.46a6.37,6.37,0,0,0-6.36-6.38H216.77a6.38,6.38,0,0,1-6.38-6.38h0V199.38" transform="translate(-0.05)"/>
                <circle class="cls-18" cx="210.34" cy="189.48" r="9.21"/>
              </g>
              <g>
                <path class="cls-17" d="M530.75,306.72V264.46a6.38,6.38,0,0,1,6.38-6.38h52.3a6.38,6.38,0,0,0,6.38-6.38h0V199.38" transform="translate(-0.05)"/>
                <circle class="cls-18" cx="596.45" cy="189.48" r="9.21"/>
              </g>
              <g>
                <path class="cls-19" d="M649.91,306.72V188.38l.88-127.16-50.5-.37-32-.13" transform="translate(-0.05)"/>
                <circle class="cls-20" cx="559.18" cy="61.85" r="9.21"/>
              </g>
              <path class="cls-17" d="M84.86,306.72V244.48a6.37,6.37,0,0,0-6.36-6.38H10.62a6.38,6.38,0,0,0-6.33,6.36v62.26" transform="translate(-0.05)"/>
              <path class="cls-17" d="M799.13,306.72V241.65a6.38,6.38,0,0,0-6.38-6.38H724.89a6.38,6.38,0,0,0-6.38,6.38h0v65.07" transform="translate(-0.05)"/>
              <g>
                <path class="cls-19" d="M149.9,306.72V185.38L149,58.22l50.5-.37,32-.13" transform="translate(-0.05)"/>
                <circle class="cls-20" cx="240.54" cy="58.85" r="9.21"/>
              </g>
            </g>
          </g>
        </g>
      </g>
    </g>
  </g>
</svg>
