<?xml version="1.0" encoding="utf-8"?>
<!-- Generator: Adobe Illustrator 22.1.0, SVG Export Plug-In . SVG Version: 6.00 Build 0)  -->
<svg version="1.1" id="Layer_1" xmlns="http://www.w3.org/2000/svg" xmlns:xlink="http://www.w3.org/1999/xlink" x="0px" y="0px"
	 viewBox="0 0 314.1 435.6" enable-background="new 0 0 314.1 435.6" xml:space="preserve">
<title>Asset 20</title>
<g id="Layer_2_1_">
	<g id="battery">
		<rect x="21.5" y="307.2" fill="#FFFFFF" width="282" height="121.5"/>
		<path fill="#022544" d="M162,299.4c43.6,0,87.3,0,130.9,0c14.4,0,18.4,4.2,18.4,18.6c0,33.8,0,67.5,0,101.3
			c0,11.4-4.6,16.3-15.9,16.3c-88.8,0.1-177.6,0.1-266.5,0c-10.3,0-15-4.9-15.4-15.3c-0.2-4.7-0.2-9.4-0.1-14
			c0.2-6,0.5-11.2-7.1-14.2c-3.1-1.2-5.3-7.5-5.8-11.7c-0.9-8.5-0.4-17.1-0.3-25.7c0.1-6.3,3-10.6,8.5-13.8c2.3-1.5,3.9-3.8,4.4-6.5
			c0.7-5.4,0.2-10.9,0.2-16.3c0.1-14.6,4-18.6,18.5-18.6C75.2,299.4,118.6,299.4,162,299.4L162,299.4z M297.3,421.9
			c0.3-1.1,0.6-2.2,0.7-3.3c0-33.5,0-67,0.2-100.5c0-6.1-3.6-5.7-7.6-5.7c-85.4,0-170.8,0-256.2-0.1c-6.1,0-8,1.7-8,7.9
			c0.3,27,0.1,54,0,81c0,6.7,0,13.4,0,20.7L297.3,421.9z"/>
		<path fill="#D3D800" d="M27,312.3c-0.4,0-0.5,1.7-0.5,7.9c0,27,0,54,0,81v20.7h18.5c0-1.3,0-2.3,0-3.3c0-33.5,0-67,0-100.5
			c0-6.1-0.3-5.7-0.5-5.7C38.7,312.4,32.8,312.5,27,312.3z"/>
		<path fill="#D3D800" d="M50,312.3c-0.4,0-0.5,1.7-0.5,7.9c0,27,0,54,0,81v20.7h18.5c0-1.3,0-2.3,0-3.3c0-33.5,0-67,0-100.5
			c0-6.1-0.2-5.7-0.5-5.7C61.7,312.4,55.8,312.5,50,312.3z"/>
		<path fill="#D3D800" d="M73,312.3c-0.4,0-0.5,1.7-0.5,7.9c0,27,0,54,0,81v20.7h18.5c0-1.3,0-2.3,0-3.3c0-33.5,0-67,0-100.5
			c0-6.1-0.2-5.7-0.5-5.7C84.7,312.4,78.8,312.5,73,312.3z"/>
		<path fill="#D3D800" d="M96.1,312.3c-0.4,0-0.6,1.7-0.6,7.9c0,27,0,54,0,81v20.7h18.4c0-1.3,0-2.3,0-3.3c0-33.5,0-67,0-100.5
			c0-6.1-0.2-5.7-0.5-5.7C107.7,312.4,101.8,312.5,96.1,312.3z"/>
		<path fill="#D3D800" d="M119.1,312.3c-0.4,0-0.6,1.7-0.6,7.9c0,27,0,54,0,81v20.7h18.4c0-1.3,0-2.3,0-3.3c0-33.5,0-67,0-100.5
			c0-6.1-0.2-5.7-0.5-5.7C130.7,312.4,124.9,312.5,119.1,312.3z"/>
		<path fill="#D3D800" d="M142.1,312.3c-0.4,0-0.6,1.7-0.5,7.9c0,27,0,54,0,81v20.7h18.4c0-1.3,0-2.3,0-3.3c0-33.5,0-67,0-100.5
			c0-6.1-0.2-5.7-0.5-5.7C153.7,312.4,147.9,312.5,142.1,312.3z"/>
		<path fill="#D3D800" d="M165.1,312.3c-0.4,0-0.6,1.7-0.5,7.9c0,27,0,54,0,81v20.7h18.4c0-1.3,0-2.3,0-3.3c0-33.5,0-67,0-100.5
			c0-6.1-0.2-5.7-0.5-5.7C176.7,312.4,170.9,312.5,165.1,312.3z"/>
		<path fill="#D3D800" d="M188.1,312.3c-0.4,0-0.6,1.7-0.5,7.9c0,27,0,54,0,81v20.7h18.4c0-1.3,0-2.3,0-3.3c0-33.5,0-67,0-100.5
			c0-6.1-0.3-5.7-0.5-5.7C199.7,312.4,193.9,312.5,188.1,312.3z"/>
		<path fill="#D3D800" d="M211.1,312.3c-0.4,0-0.5,1.7-0.5,7.9c0,27,0,54,0,81v20.7h18.4c0-1.3,0-2.3,0-3.3c0-33.5,0-67,0-100.5
			c0-6.1-0.3-5.7-0.5-5.7C222.7,312.4,216.9,312.5,211.1,312.3z"/>
		<path fill="#D3D800" d="M234.1,312.3c-0.4,0-0.5,1.7-0.5,7.9c0,27,0,54,0,81v20.7h18.4c0-1.3,0.1-2.3,0.1-3.3c0-33.5,0-67,0-100.5
			c0-6.1-0.3-5.7-0.5-5.7C245.7,312.4,239.9,312.5,234.1,312.3z"/>
		<path fill="#D3D800" d="M257,312.3c-0.4,0-0.5,1.7-0.5,7.9c0,27,0,54,0,81c0,6.7,0,13.4,0,20.7h18.4c0-1.3,0-2.3,0-3.3
			c0-33.5,0-67,0-100.5c0-6.1-0.2-5.7-0.5-5.7C268.7,312.4,262.9,312.5,257,312.3z"/>
		<path fill="#D3D800" d="M280,312.3c-0.4,0-0.5,1.7-0.5,7.9c0,27,0,54,0,81v20.7h18.4c0-1.3,0-2.3,0-3.3c0-33.5,0-67,0-100.5
			c0-6.1-0.2-5.7-0.5-5.7C291.7,312.4,285.9,312.5,280,312.3z"/>
		<g id="_Group_">
			<path fill="#D3D800" d="M29.2,249.8h43c0,0.2,0,0.4,0,0.6c0,4.8,3.8,8.7,8.6,8.7c0,0,0,0,0.1,0h0.6v7.6c-0.2,0-0.4,0-0.6,0
				c-4.8,0-8.6,3.9-8.6,8.6l0,0c0,0.2,0,0.3,0,0.5H29.2c0-0.3,0-0.6,0-1c0-4.8-3.9-8.6-8.6-8.6c0,0,0,0,0,0h-0.6v-7.2h0.5
				c4.8,0,8.6-3.9,8.6-8.6l0,0C29.2,250.1,29.2,249.9,29.2,249.8z M51.7,254.6c-4.8,0-8.6,3.9-8.6,8.6c0,4.8,3.9,8.6,8.6,8.6
				s8.6-3.9,8.6-8.6l0,0C60.3,258.5,56.4,254.6,51.7,254.6z"/>
			<path fill="#022544" d="M15.2,280.7v-35.9H86v35.9H15.2z M70.7,274.2c0.5-4.9,4.4-8.7,9.3-9.1v-4.8c-4.9-0.4-8.7-4.3-9.2-9.1
				H30.6c-0.5,4.8-4.3,8.6-9.1,9.1v4.4c5,0.4,8.9,4.5,9.2,9.5H70.7z"/>
			<path fill="#FFFFFF" d="M84.6,246.2v33.1H16.7v-33.1H84.6 M72.2,249.8h-43c0,0.2,0,0.3,0,0.5c0,4.8-3.9,8.6-8.6,8.6c0,0,0,0,0,0
				h-0.5v7.2h0.6c4.8,0,8.6,3.9,8.6,8.6l0,0c0,0.3,0,0.6,0,1h42.9c0-0.2,0-0.3,0-0.5c0-4.8,3.9-8.6,8.6-8.6l0,0c0.2,0,0.4,0,0.6,0
				V259h-0.6c-4.8,0-8.6-3.9-8.6-8.6c0,0,0,0,0,0C72.2,250.2,72.2,250,72.2,249.8 M87.4,243.3H13.8v38.8h73.6L87.4,243.3L87.4,243.3
				z M31.8,252.7h37.8c0.9,4.5,4.5,8,9,9v2.3c-4.5,0.9-8,4.4-9,8.9H32c-0.8-4.7-4.4-8.4-9-9.4v-1.9
				C27.4,260.6,30.9,257.1,31.8,252.7L31.8,252.7z"/>
			<circle fill="#022544" cx="51.7" cy="263.3" r="8.6"/>
		</g>
		<g id="_Group_2">
			<path fill="#D3D800" d="M29.2,209.4h43c0,0.2,0,0.4,0,0.6c0,4.8,3.9,8.6,8.6,8.6l0,0h0.6v7.6h-0.6c-4.8,0-8.6,3.9-8.6,8.6l0,0
				c0,0.2,0,0.3,0,0.5H29.2c0-0.3,0-0.6,0-1c0-4.8-3.9-8.6-8.6-8.6c0,0,0,0,0,0h-0.6v-7.2h0.5c4.8,0,8.6-3.9,8.6-8.6l0,0
				C29.2,209.7,29.2,209.5,29.2,209.4z M51.7,214.2c-4.8,0-8.6,3.9-8.6,8.6s3.9,8.6,8.6,8.6s8.6-3.9,8.6-8.6S56.4,214.2,51.7,214.2
				C51.7,214.2,51.7,214.2,51.7,214.2z"/>
			<path fill="#022544" d="M15.2,240.3v-35.9H86v35.9H15.2z M70.7,233.8c0.5-4.9,4.4-8.7,9.3-9.1V220c-4.9-0.4-8.7-4.3-9.2-9.1H30.6
				c-0.5,4.8-4.3,8.6-9.1,9.1v4.4c5,0.4,8.9,4.5,9.2,9.6L70.7,233.8z"/>
			<path fill="#FFFFFF" d="M84.6,205.8v33.1H16.7v-33.1H84.6 M72.2,209.4h-43c0,0.2,0,0.3,0,0.5c0,4.8-3.9,8.6-8.6,8.6c0,0,0,0,0,0
				h-0.5v7.2h0.6c4.8,0,8.6,3.9,8.6,8.6l0,0c0,0.3,0,0.6,0,1h42.9c0-0.2,0-0.3,0-0.5c0-4.8,3.9-8.6,8.6-8.6l0,0h0.6v-7.6h-0.6
				c-4.8,0-8.6-3.9-8.6-8.6c0,0,0,0,0,0C72.2,209.8,72.2,209.6,72.2,209.4 M87.4,202.9H13.8v38.8h73.6L87.4,202.9L87.4,202.9z
				 M31.8,212.3h37.8c0.9,4.5,4.5,8.1,9,9v2.3c-4.5,0.9-8,4.4-9,8.9H32c-0.8-4.7-4.3-8.5-9-9.5v-1.9
				C27.4,220.1,30.9,216.6,31.8,212.3L31.8,212.3z"/>
			<circle fill="#022544" cx="51.7" cy="222.9" r="8.6"/>
		</g>
		<g id="_Group_3">
			<path fill="#D3D800" d="M29.2,169h43c0,0.2,0,0.4,0,0.6c0,4.8,3.9,8.6,8.6,8.6l0,0h0.6v7.6h-0.6c-4.8,0-8.6,3.9-8.6,8.6l0,0
				c0,0.2,0,0.3,0,0.5H29.2c0-0.3,0-0.6,0-1c0-4.8-3.9-8.6-8.6-8.6c0,0,0,0,0,0h-0.6v-7.2h0.5c4.8,0,8.6-3.9,8.6-8.6l0,0
				C29.2,169.3,29.2,169.1,29.2,169z M51.7,173.9c-4.8,0-8.6,3.9-8.6,8.6s3.9,8.6,8.6,8.6s8.6-3.9,8.6-8.6
				C60.3,177.7,56.5,173.9,51.7,173.9C51.7,173.8,51.7,173.8,51.7,173.9L51.7,173.9z"/>
			<path fill="#022544" d="M15.2,199.9v-35.9H86v35.9H15.2z M70.7,193.4c0.5-4.9,4.4-8.7,9.3-9.1v-4.8c-4.9-0.4-8.7-4.3-9.2-9.1
				H30.6c-0.5,4.8-4.3,8.6-9.1,9.1v4.4c5,0.4,8.9,4.5,9.2,9.6L70.7,193.4z"/>
			<path fill="#FFFFFF" d="M84.6,165.4v33.1H16.7v-33.1H84.6 M72.2,169h-43c0,0.2,0,0.3,0,0.5c0,4.8-3.9,8.6-8.6,8.6c0,0,0,0,0,0
				h-0.5v7.2h0.6c4.8,0,8.6,3.9,8.6,8.6l0,0c0,0.3,0,0.6,0,1h42.9c0-0.2,0-0.3,0-0.5c0-4.8,3.9-8.6,8.6-8.6l0,0h0.6v-7.6h-0.6
				c-4.8,0-8.6-3.9-8.6-8.6c0,0,0,0,0,0C72.2,169.4,72.2,169.2,72.2,169 M87.4,162.6H13.8v38.8h73.6L87.4,162.6L87.4,162.6z
				 M31.8,171.9h37.8c0.9,4.5,4.5,8.1,9,9v2.3c-4.5,0.9-8,4.4-9,8.9H32c-0.8-4.7-4.4-8.4-9-9.4v-1.9
				C27.4,179.9,30.9,176.4,31.8,171.9L31.8,171.9z"/>
			<circle fill="#022544" cx="51.7" cy="182.5" r="8.6"/>
		</g>
		<g id="_Group_4">
			<path fill="#D3D800" d="M29.2,128.6h43c0,0.2,0,0.4,0,0.6c0,4.8,3.9,8.6,8.6,8.6l0,0h0.6v7.6h-0.6c-4.8,0-8.6,3.9-8.6,8.6
				c0,0.2,0,0.3,0,0.5H29.2c0-0.3,0-0.6,0-1c0-4.8-3.9-8.6-8.6-8.6c0,0,0,0,0,0h-0.6v-7.2h0.5c4.8,0,8.6-3.9,8.6-8.6
				C29.2,128.9,29.2,128.7,29.2,128.6z M51.7,133.4c-4.8,0-8.6,3.9-8.6,8.6s3.9,8.6,8.6,8.6s8.6-3.9,8.6-8.6S56.4,133.4,51.7,133.4
				C51.7,133.4,51.7,133.4,51.7,133.4z"/>
			<path fill="#022544" d="M15.2,159.5v-35.9H86v35.9H15.2z M70.7,153c0.5-4.8,4.4-8.6,9.3-9v-4.8c-4.9-0.4-8.8-4.3-9.2-9.2H30.6
				c-0.5,4.8-4.3,8.6-9.1,9.1v4.4c5,0.4,8.9,4.5,9.2,9.5H70.7z"/>
			<path fill="#FFFFFF" d="M84.6,125v33.1H16.7V125H84.6 M72.2,128.6h-43c0,0.2,0,0.3,0,0.5c0,4.8-3.9,8.6-8.6,8.6c0,0,0,0,0,0h-0.5
				v7.2h0.6c4.8,0,8.6,3.9,8.6,8.6l0,0c0,0.3,0,0.6,0,1h42.9c0-0.2,0-0.3,0-0.5c0-4.8,3.9-8.6,8.6-8.6l0,0h0.6v-7.6h-0.6
				c-4.8,0-8.6-3.9-8.6-8.6c0,0,0,0,0,0C72.2,129,72.2,128.8,72.2,128.6 M87.4,122.2H13.8V161h73.6L87.4,122.2L87.4,122.2z
				 M31.8,131.5h37.8c0.9,4.5,4.5,8.1,9,9v2.3c-4.5,0.9-8,4.4-9,8.9H32c-0.8-4.7-4.4-8.4-9-9.4v-2C27.4,139.4,30.9,135.9,31.8,131.5
				L31.8,131.5z"/>
			<circle fill="#022544" cx="51.7" cy="142.1" r="8.6"/>
		</g>
		<g id="_Group_5">
			<path fill="#D3D800" d="M29.2,88.2h43c0,0.2,0,0.4,0,0.6c0,4.8,3.9,8.6,8.6,8.6h0.6v7.7h-0.6c-4.8,0-8.6,3.9-8.6,8.6
				c0,0.2,0,0.3,0,0.5H29.2c0-0.3,0-0.6,0-1c0-4.8-3.9-8.6-8.6-8.6h-0.6v-7.2h0.5c4.8,0,8.6-3.9,8.6-8.6
				C29.2,88.5,29.2,88.3,29.2,88.2z M51.7,93c-4.8,0-8.6,3.9-8.6,8.6c0,4.8,3.9,8.6,8.6,8.6s8.6-3.9,8.6-8.6l0,0
				C60.3,96.9,56.4,93,51.7,93z"/>
			<path fill="#022544" d="M15.2,119.1V83.1H86v35.9H15.2z M70.7,112.6c0.5-4.9,4.4-8.7,9.3-9.1v-4.8c-4.9-0.4-8.7-4.3-9.2-9.2H30.6
				c-0.5,4.8-4.3,8.6-9.1,9.1v4.4c5,0.4,8.9,4.5,9.2,9.6L70.7,112.6z"/>
			<path fill="#FFFFFF" d="M84.6,84.6v33.1H16.7V84.6H84.6 M72.2,88.2h-43c0,0.2,0,0.3,0,0.5c0,4.8-3.9,8.6-8.6,8.6h-0.5v7.2h0.6
				c4.8,0,8.6,3.9,8.6,8.6c0,0.3,0,0.6,0,1h42.9c0-0.2,0-0.3,0-0.5c0-4.8,3.8-8.6,8.6-8.6c0,0,0,0,0,0h0.6v-7.7h-0.6
				c-4.8,0-8.6-3.9-8.6-8.6c0,0,0,0,0,0C72.2,88.5,72.2,88.3,72.2,88.2 M87.4,81.7H13.8v38.8h73.6L87.4,81.7L87.4,81.7z M31.8,91
				h37.7c0.9,4.5,4.5,8.1,9,9v2.3c-4.5,0.9-8,4.4-9,8.9H32c-0.8-4.7-4.4-8.4-9-9.3v-2C27.4,98.9,30.9,95.4,31.8,91z"/>
			<circle fill="#022544" cx="51.7" cy="101.7" r="8.6"/>
		</g>
		<g id="_Group_6">
			<path fill="#D3D800" d="M29.2,47.8h43c0,0.2,0,0.4,0,0.5c0,4.8,3.8,8.7,8.6,8.7c0,0,0,0,0.1,0h0.6v7.6h-0.6
				c-4.8,0-8.6,3.9-8.6,8.6c0,0.2,0,0.3,0,0.5H29.2c0-0.3,0-0.6,0-1c0-4.8-3.9-8.6-8.6-8.6h-0.6v-7.3h0.5c4.8,0,8.6-3.9,8.6-8.6
				c0,0,0,0,0,0C29.2,48.1,29.2,47.9,29.2,47.8z M51.7,52.6c-4.8,0-8.6,3.9-8.6,8.6s3.9,8.6,8.6,8.6s8.6-3.9,8.6-8.6
				S56.4,52.6,51.7,52.6C51.7,52.6,51.7,52.6,51.7,52.6z"/>
			<path fill="#022544" d="M15.2,78.7V42.7H86v35.9H15.2z M70.7,72.2c0.5-4.9,4.4-8.7,9.3-9.1v-4.8c-4.9-0.4-8.7-4.3-9.2-9.1H30.6
				c-0.5,4.8-4.3,8.6-9.1,9.1v4.4c5,0.4,8.9,4.5,9.2,9.6L70.7,72.2z"/>
			<path fill="#FFFFFF" d="M84.6,44.2v33.1H16.7V44.2H84.6 M72.2,47.8h-43c0,0.2,0,0.3,0,0.5c0,4.8-3.9,8.6-8.6,8.6c0,0,0,0,0,0
				h-0.5v7.2h0.6c4.8,0,8.6,3.9,8.6,8.6c0,0.3,0,0.6,0,1h42.9c0-0.2,0-0.3,0-0.5c0-4.8,3.9-8.6,8.6-8.6h0.6v-7.7h-0.6
				c-4.8,0-8.6-3.9-8.6-8.6C72.2,48.1,72.2,47.9,72.2,47.8 M87.4,41.3H13.8v38.8h73.6L87.4,41.3L87.4,41.3z M31.8,50.6h37.7
				c0.9,4.5,4.5,8.1,9,9v2.3c-4.5,0.9-8,4.4-9,8.9H32c-0.8-4.7-4.4-8.4-9-9.3v-2C27.4,58.5,30.9,55.1,31.8,50.6L31.8,50.6z"/>
			<circle fill="#022544" cx="51.7" cy="61.3" r="8.6"/>
		</g>
		<g id="_Group_7">
			<path fill="#D3D800" d="M29.2,7.4h43c0,0.2,0,0.4,0,0.6c0,4.8,3.9,8.6,8.6,8.6c0,0,0,0,0,0h0.6v7.6h-0.6c-4.8,0-8.6,3.9-8.6,8.6
				c0,0.2,0,0.3,0,0.5H29.2c0-0.3,0-0.6,0-1c0-4.8-3.9-8.6-8.6-8.6l0,0h-0.6v-7.2h0.5c4.8,0,8.6-3.9,8.6-8.6c0,0,0,0,0,0
				C29.2,7.7,29.2,7.5,29.2,7.4z M51.7,12.2c-4.8,0-8.6,3.9-8.6,8.6s3.9,8.6,8.6,8.6s8.6-3.9,8.6-8.6S56.4,12.2,51.7,12.2L51.7,12.2
				z"/>
			<path fill="#022544" d="M15.2,38.3V2.3H86v35.9H15.2z M70.7,31.8c0.5-4.9,4.4-8.7,9.3-9.1V18c-4.9-0.4-8.8-4.3-9.2-9.2H30.6
				c-0.5,4.8-4.3,8.6-9.1,9.1v4.4c5,0.4,8.9,4.5,9.2,9.6L70.7,31.8z"/>
			<path fill="#FFFFFF" d="M84.6,3.8v33.1H16.7V3.8H84.6 M72.2,7.4h-43c0,0.2,0,0.3,0,0.5c0,4.8-3.9,8.6-8.6,8.6c0,0,0,0,0,0h-0.5
				v7.2h0.6c4.8,0,8.6,3.9,8.6,8.6l0,0c0,0.3,0,0.6,0,1h42.9c0-0.2,0-0.3,0-0.5c0-4.8,3.9-8.6,8.6-8.6h0.6v-7.7h-0.6
				c-4.8,0-8.6-3.8-8.7-8.6c0,0,0,0,0,0C72.2,7.7,72.2,7.6,72.2,7.4 M87.4,0.9H13.8v38.8h73.6V0.9z M31.8,10.2h37.7
				c0.9,4.5,4.5,8.1,9,9v2.3c-4.5,0.9-8,4.4-9,8.9H32c-0.8-4.7-4.4-8.4-9-9.4v-1.9C27.4,18.1,30.9,14.7,31.8,10.2L31.8,10.2z"/>
			<circle fill="#022544" cx="51.7" cy="20.9" r="8.6"/>
		</g>
		<g id="_Group_8">
			<path fill="#D3D800" d="M104.8,250.1h43c0,0.2,0,0.4,0,0.6c0,4.8,3.9,8.6,8.6,8.6c0,0,0,0,0,0h0.6v7.6h-0.6
				c-4.8,0-8.6,3.9-8.6,8.6l0,0c0,0.2,0,0.3,0,0.5h-42.9c0-0.3,0-0.6,0-1c0-4.8-3.9-8.6-8.6-8.6l0,0h-0.6v-7.2h0.5
				c4.8,0,8.6-3.9,8.6-8.6l0,0C104.8,250.4,104.8,250.2,104.8,250.1z M127.2,254.9c-4.8,0-8.6,3.9-8.6,8.6c0,4.8,3.9,8.6,8.6,8.6
				s8.6-3.9,8.6-8.6S132,254.9,127.2,254.9L127.2,254.9z"/>
			<path fill="#022544" d="M90.8,281v-36h70.8v36H90.8z M146.3,274.5c0.5-4.9,4.4-8.7,9.2-9.1v-4.8c-4.9-0.4-8.7-4.3-9.1-9.1h-40.2
				c-0.5,4.8-4.3,8.6-9.1,9.1v4.4c5,0.4,8.9,4.5,9.2,9.6L146.3,274.5z"/>
			<path fill="#FFFFFF" d="M160.1,246.5v33.1H92.2v-33.1H160.1 M147.8,250.1h-43c0,0.2,0,0.3,0,0.5c0,4.8-3.9,8.6-8.6,8.6h-0.5v7.2
				h0.6c4.8,0,8.6,3.9,8.6,8.6l0,0c0,0.3,0,0.6,0,1h42.9c0-0.2,0-0.3,0-0.5c0-4.8,3.9-8.6,8.6-8.6c0,0,0,0,0,0h0.6v-7.6h-0.6
				c-4.8,0-8.6-3.9-8.6-8.6c0,0,0,0,0,0C147.8,250.5,147.8,250.3,147.8,250.1 M163,243.6H89.3v38.8H163V243.6z M107.4,252.9h37.7
				c0.9,4.5,4.5,8.1,9,9v2.3c-4.5,0.9-8,4.4-9,8.9h-37.6c-0.8-4.7-4.4-8.4-9-9.4v-2C103,260.9,106.5,257.4,107.4,252.9L107.4,252.9z
				"/>
			<circle fill="#022544" cx="127.2" cy="263.6" r="8.6"/>
		</g>
		<g id="_Group_9">
			<path fill="#D3D800" d="M104.8,209.7h43c0,0.2,0,0.4,0,0.6c0,4.8,3.9,8.6,8.6,8.6c0,0,0,0,0,0h0.6v7.6h-0.6
				c-4.8,0-8.6,3.9-8.6,8.6c0,0,0,0,0,0c0,0.2,0,0.3,0,0.5h-42.9c0-0.3,0-0.6,0-1c0-4.7-3.8-8.6-8.6-8.6h-0.6v-7.2h0.5
				c4.8,0,8.6-3.9,8.6-8.6l0,0C104.8,210,104.8,209.8,104.8,209.7z M127.2,214.5c-4.8,0-8.6,3.9-8.6,8.6c0,4.8,3.9,8.6,8.6,8.6
				c4.8,0,8.6-3.9,8.6-8.6S132,214.5,127.2,214.5L127.2,214.5z"/>
			<path fill="#022544" d="M90.8,240.6v-35.9h70.8v35.9H90.8z M146.3,234.1c0.5-4.9,4.4-8.7,9.2-9.1v-4.8c-4.9-0.4-8.7-4.3-9.1-9.1
				h-40.2c-0.5,4.8-4.3,8.6-9.1,9.1v4.4c5,0.4,8.9,4.5,9.2,9.6H146.3z"/>
			<path fill="#FFFFFF" d="M160.1,206.1v33.1H92.2v-33.1H160.1 M147.8,209.7h-43c0,0.2,0,0.3,0,0.5c0,4.8-3.9,8.6-8.6,8.6l0,0h-0.5
				v7.2h0.6c4.8,0,8.6,3.9,8.6,8.6l0,0c0,0.3,0,0.6,0,1h42.9c0-0.2,0-0.3,0-0.5c0-4.8,3.9-8.6,8.6-8.6c0,0,0,0,0,0h0.6v-7.6h-0.6
				c-4.8,0-8.6-3.9-8.6-8.6c0,0,0,0,0,0C147.8,210.1,147.8,209.9,147.8,209.7 M163,203.2H89.3V242H163V203.2z M107.4,212.5h37.7
				c0.9,4.5,4.5,8.1,9,9v2.3c-4.5,0.9-8,4.4-9,8.9h-37.6c-0.8-4.7-4.4-8.4-9-9.4v-2C103,220.4,106.5,217,107.4,212.5L107.4,212.5z"
				/>
			<circle fill="#022544" cx="127.2" cy="223.2" r="8.6"/>
		</g>
		<g id="_Group_10">
			<path fill="#D3D800" d="M104.8,169.3h43c0,0.2,0,0.4,0,0.6c0,4.8,3.9,8.6,8.6,8.6c0,0,0,0,0,0h0.6v7.6h-0.6
				c-4.8,0-8.6,3.9-8.6,8.6c0,0,0,0,0,0c0,0.2,0,0.3,0,0.5h-42.9c0-0.3,0-0.6,0-1c0-4.8-3.9-8.6-8.6-8.6l0,0h-0.6v-7.2h0.5
				c4.8,0,8.6-3.9,8.6-8.6l0,0C104.8,169.6,104.8,169.4,104.8,169.3z M127.2,174.1c-4.8,0-8.6,3.9-8.6,8.6c0,4.8,3.9,8.6,8.6,8.6
				c4.8,0,8.6-3.9,8.6-8.6S132,174.1,127.2,174.1L127.2,174.1z"/>
			<path fill="#022544" d="M90.8,200.2v-35.9h70.8v35.9H90.8z M146.3,193.7c0.5-4.9,4.4-8.7,9.2-9.1v-4.8c-4.9-0.4-8.7-4.3-9.1-9.1
				h-40.2c-0.5,4.8-4.3,8.6-9.1,9.1v4.4c5,0.4,8.9,4.5,9.2,9.6H146.3z"/>
			<path fill="#FFFFFF" d="M160.1,165.7v33.1H92.2v-33.1H160.1 M147.8,169.3h-43c0,0.2,0,0.3,0,0.5c0,4.8-3.9,8.6-8.6,8.6l0,0h-0.5
				v7.2h0.6c4.8,0,8.6,3.9,8.6,8.6l0,0c0,0.3,0,0.6,0,1h42.9c0-0.2,0-0.3,0-0.5c0-4.8,3.9-8.6,8.6-8.6c0,0,0,0,0,0h0.6v-7.6h-0.6
				c-4.8,0-8.6-3.9-8.6-8.6c0,0,0,0,0,0C147.8,169.7,147.8,169.5,147.8,169.3 M163,162.8H89.3v38.8H163V162.8z M107.4,172.1h37.7
				c0.9,4.5,4.5,8.1,9,9v2.3c-4.5,0.9-8,4.4-9,8.9h-37.6c-0.8-4.7-4.4-8.4-9-9.4v-2C103,180,106.5,176.6,107.4,172.1L107.4,172.1z"
				/>
			<circle fill="#022544" cx="127.2" cy="182.8" r="8.6"/>
		</g>
		<g id="_Group_11">
			<path fill="#D3D800" d="M104.8,128.9h43c0,0.2,0,0.4,0,0.6c0,4.8,3.9,8.6,8.6,8.6c0,0,0,0,0,0h0.6v7.6h-0.6
				c-4.8,0-8.6,3.9-8.6,8.6c0,0,0,0,0,0c0,0.2,0,0.3,0,0.5h-42.9c0-0.3,0-0.6,0-1c0-4.8-3.9-8.6-8.6-8.6l0,0h-0.6V138h0.5
				c4.8,0,8.6-3.9,8.6-8.6l0,0C104.8,129.2,104.8,129,104.8,128.9z M127.2,133.7c-4.8,0-8.6,3.9-8.6,8.6c0,4.8,3.9,8.6,8.6,8.6
				c4.8,0,8.6-3.9,8.6-8.6S132,133.7,127.2,133.7L127.2,133.7z"/>
			<path fill="#022544" d="M90.8,159.8v-35.9h70.8v35.9H90.8z M146.3,153.3c0.5-4.9,4.4-8.7,9.2-9.1v-4.8c-4.9-0.4-8.7-4.3-9.1-9.1
				h-40.2c-0.5,4.8-4.3,8.6-9.1,9.1v4.4c5,0.4,8.9,4.5,9.2,9.6H146.3z"/>
			<path fill="#FFFFFF" d="M160.1,125.3v33.1H92.2v-33.1H160.1 M147.8,128.9h-43c0,0.2,0,0.3,0,0.5c0,4.8-3.8,8.6-8.6,8.6
				c0,0,0,0,0,0h-0.5v7.2h0.6c4.8,0,8.6,3.9,8.6,8.6l0,0c0,0.3,0,0.6,0,1h42.9c0-0.2,0-0.3,0-0.5c0-4.8,3.9-8.6,8.6-8.6c0,0,0,0,0,0
				h0.6V138h-0.6c-4.8,0-8.6-3.9-8.6-8.6c0,0,0,0,0,0C147.8,129.2,147.8,129,147.8,128.9 M163,122.4H89.3v38.8H163V122.4z
				 M107.4,131.7h37.7c0.9,4.5,4.5,8.1,9,9v2.3c-4.5,0.9-8,4.4-9,8.9h-37.6c-0.8-4.7-4.4-8.4-9-9.4v-1.9
				C103,139.6,106.5,136.2,107.4,131.7L107.4,131.7z"/>
			<circle fill="#022544" cx="127.2" cy="142.4" r="8.6"/>
		</g>
		<g id="_Group_12">
			<path fill="#D3D800" d="M104.8,88.5h43c0,0.2,0,0.4,0,0.6c0,4.8,3.9,8.6,8.6,8.6l0,0h0.6v7.6h-0.6c-4.8,0-8.6,3.9-8.6,8.6l0,0
				c0,0.2,0,0.3,0,0.5h-42.9c0-0.3,0-0.6,0-1c0-4.8-3.9-8.6-8.6-8.6h-0.6v-7.2h0.5c4.8,0,8.7-3.8,8.7-8.6c0,0,0,0,0,0
				C104.8,88.8,104.8,88.6,104.8,88.5z M127.2,93.3c-4.8,0-8.6,3.9-8.6,8.6c0,4.8,3.9,8.6,8.6,8.6c4.8,0,8.6-3.9,8.6-8.6
				S132,93.3,127.2,93.3C127.2,93.3,127.2,93.3,127.2,93.3z"/>
			<path fill="#022544" d="M90.8,119.4V83.4h70.8v36L90.8,119.4z M146.3,112.9c0.5-4.9,4.4-8.7,9.2-9.1V99c-4.9-0.4-8.7-4.3-9.1-9.2
				h-40.2c-0.4,4.8-4.3,8.6-9.1,9.1v4.4c5,0.4,8.9,4.5,9.2,9.6L146.3,112.9z"/>
			<path fill="#FFFFFF" d="M160.1,84.9V118H92.2V84.9H160.1 M147.8,88.5h-43c0,0.2,0,0.3,0,0.5c0,4.8-3.9,8.6-8.6,8.6h-0.5v7.2h0.6
				c4.8,0,8.6,3.9,8.6,8.6c0,0.3,0,0.6,0,1h42.9c0-0.2,0-0.3,0-0.5c0-4.8,3.9-8.6,8.6-8.6l0,0h0.6v-7.7h-0.6c-4.8,0-8.7-3.8-8.7-8.6
				c0,0,0-0.1,0-0.1C147.8,88.8,147.8,88.6,147.8,88.5 M163,82H89.3v38.8H163V82z M107.4,91.3h37.7c0.9,4.5,4.5,8.1,9,9v2.3
				c-4.5,0.9-8,4.4-9,8.9h-37.6c-0.8-4.7-4.4-8.4-9-9.4v-2C103,99.2,106.5,95.8,107.4,91.3L107.4,91.3z"/>
			<circle fill="#022544" cx="127.2" cy="102" r="8.6"/>
		</g>
		<g id="_Group_13">
			<path fill="#D3D800" d="M104.8,48.1h43c0,0.2,0,0.4,0,0.6c0,4.8,3.9,8.6,8.6,8.6l0,0h0.6v7.6h-0.6c-4.8,0-8.6,3.9-8.6,8.6l0,0
				c0,0.2,0,0.3,0,0.5h-42.9c0-0.3,0-0.6,0-1c0-4.8-3.9-8.6-8.6-8.6h-0.6v-7.2h0.5c4.8,0,8.6-3.9,8.6-8.6
				C104.8,48.4,104.8,48.2,104.8,48.1z M127.2,52.9c-4.8,0-8.6,3.9-8.6,8.6c0,4.8,3.9,8.6,8.6,8.6c4.8,0,8.6-3.9,8.6-8.6
				S132,52.9,127.2,52.9L127.2,52.9z"/>
			<path fill="#022544" d="M90.8,79V43h70.8v36H90.8z M146.3,72.5c0.5-4.9,4.4-8.7,9.2-9.1v-4.8c-4.9-0.4-8.7-4.3-9.1-9.1h-40.2
				c-0.5,4.8-4.3,8.6-9.1,9.1V63c5,0.4,8.9,4.5,9.2,9.6L146.3,72.5z"/>
			<path fill="#FFFFFF" d="M160.1,44.5v33.1H92.2V44.5H160.1 M147.8,48.1h-43c0,0.2,0,0.3,0,0.5c0,4.8-3.9,8.6-8.6,8.6h-0.5v7.2h0.6
				c4.7,0,8.6,3.8,8.6,8.6c0,0.3,0,0.6,0,1h42.9c0-0.2,0-0.3,0-0.5c0-4.8,3.9-8.6,8.6-8.6l0,0h0.6v-7.6h-0.6c-4.8,0-8.6-3.9-8.6-8.6
				c0,0,0,0,0,0C147.8,48.4,147.8,48.2,147.8,48.1 M163,41.6H89.3v38.8H163V41.6z M107.4,50.9h37.7c0.9,4.5,4.5,8.1,9,9v2.3
				c-4.5,0.9-8,4.4-9,8.9h-37.6c-0.8-4.7-4.4-8.4-9-9.4v-2C103,58.8,106.5,55.3,107.4,50.9L107.4,50.9z"/>
			<circle fill="#022544" cx="127.2" cy="61.6" r="8.6"/>
		</g>
		<g id="_Group_14">
			<path fill="#D3D800" d="M104.8,7.7h43c0,0.2,0,0.4,0,0.6c0,4.8,3.9,8.6,8.6,8.6l0,0h0.6v7.6h-0.6c-4.8,0-8.6,3.9-8.6,8.6
				c0,0,0,0,0,0c0,0.2,0,0.3,0,0.5h-42.9c0-0.3,0-0.6,0-1c0-4.7-3.8-8.6-8.6-8.6h-0.6v-7.2h0.5c4.8,0,8.6-3.9,8.6-8.6
				C104.8,8,104.8,7.8,104.8,7.7z M127.2,12.5c-4.8,0-8.6,3.9-8.6,8.6c0,4.8,3.9,8.6,8.6,8.6c4.8,0,8.6-3.9,8.6-8.6
				S132,12.5,127.2,12.5C127.2,12.5,127.2,12.5,127.2,12.5z"/>
			<path fill="#022544" d="M90.8,38.6v-36h70.8v36L90.8,38.6z M146.3,32.1c0.5-4.9,4.4-8.7,9.2-9.1v-4.8c-4.9-0.4-8.7-4.3-9.1-9.1
				h-40.2c-0.5,4.8-4.3,8.6-9.1,9.1v4.4c5,0.4,8.9,4.5,9.2,9.6H146.3z"/>
			<path fill="#FFFFFF" d="M160.1,4.1v33.1H92.2V4.1H160.1 M147.8,7.7h-43c0,0.2,0,0.3,0,0.5c0,4.8-3.9,8.6-8.6,8.6h-0.5V24h0.6
				c4.8,0,8.6,3.9,8.6,8.6c0,0.3,0,0.6,0,1h42.9c0-0.2,0-0.3,0-0.5c0-4.8,3.9-8.6,8.6-8.6l0,0h0.6v-7.7h-0.6c-4.8,0-8.6-3.9-8.6-8.6
				c0,0,0,0,0,0C147.8,8,147.8,7.8,147.8,7.7 M163,1.2H89.3V40H163V1.2z M107.4,10.5h37.7c0.9,4.5,4.5,8.1,9,9v2.3
				c-4.5,0.9-8,4.4-9,8.9h-37.6c-0.8-4.7-4.4-8.4-9-9.4v-2C103,18.4,106.5,15,107.4,10.5L107.4,10.5z"/>
			<circle fill="#022544" cx="127.2" cy="21.2" r="8.6"/>
		</g>
		<g id="_Group_15">
			<path fill="#D3D800" d="M180.3,249.5h43c0,0.2,0,0.4,0,0.6c0,4.8,3.9,8.6,8.6,8.6h0.6v7.6c-0.2,0-0.4,0-0.6,0
				c-4.8,0-8.6,3.9-8.6,8.6l0,0c0,0.2,0,0.3,0,0.5h-42.9c0-0.3,0-0.6,0-1c0-4.8-3.9-8.6-8.6-8.6c0,0,0,0,0,0h-0.6v-7.2h0.5
				c4.8,0,8.6-3.9,8.6-8.6c0,0,0,0,0,0C180.3,249.8,180.3,249.6,180.3,249.5z M202.8,254.3c-4.8,0-8.6,3.9-8.6,8.6
				c0,4.8,3.9,8.6,8.6,8.6c4.8,0,8.6-3.8,8.6-8.6C211.4,258.2,207.6,254.4,202.8,254.3C202.8,254.3,202.8,254.3,202.8,254.3
				L202.8,254.3z"/>
			<path fill="#022544" d="M166.3,280.4v-36h70.8v36H166.3z M221.8,273.9c0.5-4.9,4.4-8.7,9.2-9.1V260c-4.9-0.4-8.7-4.3-9.1-9.1
				h-40.2c-0.5,4.8-4.3,8.6-9.1,9.1v4.4c5,0.4,8.9,4.5,9.2,9.5L221.8,273.9z"/>
			<path fill="#FFFFFF" d="M235.7,245.9V279h-67.9v-33.1H235.7 M223.3,249.5h-43c0,0.2,0,0.3,0,0.5c0,4.8-3.9,8.6-8.6,8.6h-0.5v7.2
				h0.6c4.8,0,8.6,3.9,8.6,8.6l0,0c0,0.3,0,0.6,0,1h42.9c0-0.2,0-0.3,0-0.5c0-4.8,3.9-8.6,8.6-8.6c0,0,0,0,0,0c0.2,0,0.4,0,0.6,0
				v-7.6H232c-4.8,0-8.6-3.9-8.6-8.6c0,0,0,0,0,0C223.4,249.8,223.4,249.7,223.3,249.5 M238.6,243h-73.6v38.8h73.6V243z
				 M182.9,252.3h37.8c0.9,4.5,4.4,8.1,8.9,9v2.3c-4.5,0.9-8,4.4-9,8.9h-37.5c-0.8-4.7-4.4-8.4-9-9.4v-1.9
				C178.5,260.3,182,256.8,182.9,252.3L182.9,252.3z"/>
			<circle fill="#022544" cx="202.8" cy="263" r="8.6"/>
		</g>
		<g id="_Group_16">
			<path fill="#D3D800" d="M180.3,209.1h43c0,0.2,0,0.4,0,0.6c0,4.8,3.9,8.6,8.6,8.6c0,0,0,0,0,0h0.6v7.6c-0.2,0-0.4,0-0.6,0
				c-4.8,0-8.6,3.9-8.6,8.6c0,0,0,0,0,0c0,0.2,0,0.3,0,0.5h-42.9c0-0.3,0-0.6,0-1c0-4.8-3.9-8.6-8.6-8.6c0,0,0,0,0,0h-0.6v-7.2h0.5
				c4.8,0,8.6-3.9,8.6-8.6c0,0,0,0,0,0C180.3,209.4,180.3,209.2,180.3,209.1z M202.8,213.9c-4.8,0-8.6,3.9-8.6,8.6
				c0,4.8,3.9,8.6,8.6,8.6c4.8,0,8.6-3.9,8.6-8.6S207.5,213.9,202.8,213.9C202.8,213.9,202.8,213.9,202.8,213.9z"/>
			<path fill="#022544" d="M166.3,240v-36h70.8v36H166.3z M221.8,233.5c0.5-4.9,4.4-8.7,9.2-9.1v-4.8c-4.9-0.4-8.7-4.3-9.1-9.2
				h-40.2c-0.5,4.8-4.3,8.6-9.1,9.1v4.4c5,0.4,8.9,4.5,9.2,9.6L221.8,233.5z"/>
			<path fill="#FFFFFF" d="M235.7,205.5v33.1h-67.9v-33.1H235.7 M223.3,209.1h-43c0,0.2,0,0.3,0,0.5c0,4.8-3.9,8.6-8.6,8.6
				c0,0,0,0,0,0h-0.5v7.2h0.6c4.8,0,8.6,3.9,8.6,8.6c0,0,0,0,0,0c0,0.3,0,0.6,0,1h42.9c0-0.2,0-0.3,0-0.5c0-4.8,3.9-8.6,8.6-8.6
				c0,0,0,0,0,0c0.2,0,0.4,0,0.6,0v-7.6H232c-4.8,0-8.6-3.9-8.6-8.6c0,0,0,0,0,0C223.4,209.4,223.4,209.3,223.3,209.1 M238.6,202.6
				h-73.7v38.8h73.6L238.6,202.6L238.6,202.6z M183,211.9h37.8c0.9,4.5,4.4,8.1,8.9,9v2.3c-4.5,0.9-8,4.4-9,8.9h-37.6
				c-0.8-4.7-4.4-8.4-9-9.4v-1.9C178.5,219.9,182,216.4,183,211.9L183,211.9z"/>
			<circle fill="#022544" cx="202.8" cy="222.6" r="8.6"/>
		</g>
		<g id="_Group_17">
			<path fill="#D3D800" d="M180.3,168.7h43c0,0.2,0,0.4,0,0.6c0,4.8,3.9,8.6,8.6,8.6c0,0,0,0,0,0h0.6v7.6c-0.2,0-0.4,0-0.6,0
				c-4.8,0-8.6,3.9-8.6,8.6c0,0,0,0,0,0c0,0.2,0,0.3,0,0.5h-42.9c0-0.3,0-0.6,0-1c0-4.8-3.9-8.6-8.6-8.6c0,0,0,0,0,0h-0.6v-7.2h0.5
				c4.8,0,8.6-3.9,8.6-8.6c0,0,0,0,0,0C180.3,169,180.3,168.8,180.3,168.7z M202.8,173.5c-4.8,0-8.6,3.9-8.6,8.6
				c0,4.8,3.9,8.6,8.6,8.6c4.8,0,8.6-3.9,8.6-8.6C211.4,177.4,207.5,173.5,202.8,173.5C202.8,173.5,202.8,173.5,202.8,173.5
				L202.8,173.5z"/>
			<path fill="#022544" d="M166.3,199.6v-36h70.8v36H166.3z M221.8,193.1c0.5-4.9,4.4-8.7,9.2-9.1v-4.8c-4.9-0.4-8.7-4.3-9.1-9.2
				h-40.2c-0.5,4.8-4.3,8.6-9.1,9.1v4.4c5,0.4,8.9,4.5,9.2,9.6L221.8,193.1z"/>
			<path fill="#FFFFFF" d="M235.7,165.1v33.1h-67.9v-33.1H235.7 M223.3,168.7h-43c0,0.2,0,0.3,0,0.5c0,4.8-3.9,8.6-8.6,8.6
				c0,0,0,0,0,0h-0.5v7.2h0.6c4.8,0,8.6,3.9,8.6,8.6c0,0,0,0,0,0c0,0.3,0,0.6,0,1h42.9c0-0.2,0-0.3,0-0.5c0-4.8,3.9-8.6,8.6-8.6
				c0,0,0,0,0,0c0.2,0,0.4,0,0.6,0v-7.6H232c-4.8,0-8.6-3.9-8.6-8.6c0,0,0,0,0,0C223.4,169.1,223.4,168.9,223.3,168.7 M238.6,162.2
				h-73.7V201h73.6L238.6,162.2L238.6,162.2z M183,171.6h37.8c0.9,4.5,4.4,8,8.9,8.9v2.3c-4.5,0.9-8,4.4-9,8.9h-37.6
				c-0.8-4.7-4.4-8.4-9-9.4v-1.9C178.5,179.5,182,176,183,171.6L183,171.6z"/>
			<circle fill="#022544" cx="202.8" cy="182.2" r="8.6"/>
		</g>
		<g id="_Group_18">
			<path fill="#D3D800" d="M180.3,128.3h43c0,0.2,0,0.4,0,0.6c0,4.8,3.9,8.6,8.6,8.6c0,0,0,0,0,0h0.6v7.6c-0.2,0-0.4,0-0.6,0
				c-4.8,0-8.6,3.9-8.6,8.6c0,0,0,0,0,0c0,0.2,0,0.3,0,0.5h-42.9c0-0.3,0-0.6,0-1c0-4.8-3.9-8.6-8.6-8.6c0,0,0,0,0,0h-0.6v-7.2h0.5
				c4.8,0,8.6-3.9,8.6-8.6c0,0,0,0,0,0C180.3,128.6,180.3,128.4,180.3,128.3z M202.8,133.1c-4.8,0-8.6,3.9-8.6,8.6
				c0,4.8,3.9,8.6,8.6,8.6c4.8,0,8.6-3.9,8.6-8.6S207.5,133.1,202.8,133.1C202.8,133.1,202.8,133.1,202.8,133.1z"/>
			<path fill="#022544" d="M166.3,159.2v-35.9h70.8v35.9H166.3z M221.8,152.7c0.5-4.9,4.4-8.7,9.2-9.1v-4.8
				c-4.9-0.4-8.7-4.3-9.1-9.2h-40.2c-0.5,4.8-4.3,8.6-9.1,9.1v4.4c5,0.4,8.9,4.5,9.2,9.6H221.8z"/>
			<path fill="#FFFFFF" d="M235.7,124.7v33.1h-67.9v-33.1H235.7 M223.3,128.3h-43c0,0.2,0,0.3,0,0.5c0,4.8-3.9,8.6-8.6,8.6
				c0,0,0,0,0,0h-0.5v7.2h0.6c4.8,0,8.6,3.9,8.6,8.6c0,0,0,0,0,0c0,0.3,0,0.6,0,1h42.9c0-0.2,0-0.3,0-0.5c0-4.8,3.9-8.6,8.6-8.6
				c0,0,0,0,0,0c0.2,0,0.4,0,0.6,0v-7.6H232c-4.8,0-8.6-3.9-8.6-8.6c0,0,0,0,0,0C223.4,128.6,223.4,128.5,223.3,128.3 M238.6,121.8
				h-73.7v38.8h73.6L238.6,121.8L238.6,121.8z M183,131.1h37.8c0.9,4.5,4.4,8.1,8.9,9v2.3c-4.5,0.9-8,4.4-9,8.9h-37.6
				c-0.8-4.7-4.4-8.4-9-9.4v-2C178.5,139,182,135.6,183,131.1L183,131.1z"/>
			<circle fill="#022544" cx="202.8" cy="141.8" r="8.6"/>
		</g>
		<g id="_Group_19">
			<path fill="#D3D800" d="M180.3,87.9h43c0,0.2,0,0.4,0,0.6c0,4.8,3.9,8.6,8.6,8.6l0,0h0.6v7.6c-0.2,0-0.4,0-0.6,0
				c-4.8,0-8.6,3.9-8.6,8.6l0,0c0,0.2,0,0.3,0,0.5h-42.9c0-0.3,0-0.6,0-1c0-4.8-3.9-8.6-8.6-8.6c0,0,0,0,0,0h-0.6V97h0.5
				c4.8,0,8.6-3.9,8.6-8.6l0,0C180.3,88.2,180.3,88,180.3,87.9z M202.8,92.7c-4.8,0-8.6,3.9-8.6,8.6c0,4.8,3.9,8.6,8.6,8.6
				c4.8,0,8.6-3.9,8.6-8.6S207.5,92.7,202.8,92.7L202.8,92.7z"/>
			<path fill="#022544" d="M166.3,118.8V82.8h70.8v36L166.3,118.8z M221.8,112.3c0.5-4.9,4.4-8.7,9.2-9.1v-4.8
				c-4.9-0.4-8.7-4.3-9.1-9.2h-40.2c-0.5,4.8-4.3,8.6-9.1,9.1v4.4c5,0.4,8.9,4.5,9.2,9.6L221.8,112.3z"/>
			<path fill="#FFFFFF" d="M235.7,84.3v33.1h-67.9V84.3H235.7 M223.3,87.9h-43c0,0.2,0,0.3,0,0.5c0,4.8-3.8,8.6-8.6,8.7
				c0,0,0,0-0.1,0h-0.5v7.2h0.6c4.8,0,8.6,3.9,8.6,8.6c0,0,0,0,0,0c0,0.3,0,0.6,0,1h42.9c0-0.2,0-0.3,0-0.5c0-4.8,3.9-8.6,8.6-8.6
				l0,0c0.2,0,0.4,0,0.6,0V97H232c-4.8,0-8.6-3.9-8.6-8.6l0,0C223.4,88.2,223.4,88,223.3,87.9 M238.6,81.4h-73.7v38.8h73.6
				L238.6,81.4L238.6,81.4z M183,90.7h37.8c0.9,4.5,4.4,8.1,8.9,9v2.3c-4.5,0.9-8,4.4-9,8.9h-37.6c-0.8-4.7-4.4-8.4-9-9.4v-1.9
				C178.5,98.6,182,95.2,183,90.7L183,90.7z"/>
			<circle fill="#022544" cx="202.8" cy="101.4" r="8.6"/>
		</g>
		<g id="_Group_20">
			<path fill="#D3D800" d="M180.3,47.5h43c0,0.2,0,0.4,0,0.6c0,4.8,3.9,8.6,8.6,8.6l0,0h0.6v7.6c-0.2,0-0.4,0-0.6,0
				c-4.8,0-8.6,3.9-8.6,8.6l0,0c0,0.2,0,0.3,0,0.5h-42.9c0-0.3,0-0.6,0-0.9c0-4.8-3.9-8.6-8.6-8.6c0,0,0,0,0,0h-0.6v-7.3h0.5
				c4.8,0,8.6-3.9,8.6-8.6c0,0,0,0,0,0C180.3,47.8,180.3,47.6,180.3,47.5z M202.8,52.3c-4.8,0-8.6,3.9-8.6,8.6
				c0,4.8,3.9,8.6,8.6,8.6c4.8,0,8.6-3.8,8.6-8.6C211.4,56.2,207.6,52.4,202.8,52.3C202.8,52.3,202.8,52.3,202.8,52.3z"/>
			<path fill="#022544" d="M166.3,78.4V42.4h70.8v35.9H166.3z M221.8,71.9c0.5-4.9,4.4-8.7,9.2-9.1V58c-4.9-0.4-8.7-4.3-9.1-9.2
				h-40.2c-0.4,4.8-4.2,8.6-9.1,9.1v4.4c5,0.4,8.9,4.5,9.2,9.5L221.8,71.9z"/>
			<path fill="#FFFFFF" d="M235.7,43.9V77h-67.9V43.9H235.7 M223.3,47.5h-43c0,0.2,0,0.3,0,0.5c0,4.8-3.9,8.6-8.6,8.6l0,0h-0.5v7.2
				h0.6c4.8,0,8.6,3.9,8.6,8.6c0,0,0,0,0,0c0,0.3,0,0.6,0,0.9h42.9c0-0.2,0-0.3,0-0.5c0-4.8,3.9-8.6,8.6-8.6l0,0c0.2,0,0.4,0,0.6,0
				v-7.6H232c-4.8,0-8.7-3.8-8.7-8.5c0,0,0-0.1,0-0.1C223.3,47.8,223.3,47.6,223.3,47.5 M238.6,41h-73.6v38.8h73.6V41z M182.9,50.3
				h37.8c0.9,4.5,4.4,8.1,8.9,9v2.3c-4.5,0.9-8,4.4-9,8.9h-37.5c-0.8-4.7-4.4-8.4-9-9.4v-1.9C178.5,58.2,182,54.8,182.9,50.3
				L182.9,50.3z"/>
			<circle fill="#022544" cx="202.8" cy="61" r="8.6"/>
		</g>
		<g id="_Group_21">
			<path fill="#D3D800" d="M180.3,7.1h43c0,0.2,0,0.4,0,0.6c0,4.8,3.9,8.6,8.6,8.6l0,0h0.6v7.6c-0.2,0-0.4,0-0.6,0
				c-4.8,0-8.6,3.9-8.6,8.6c0,0,0,0,0,0c0,0.2,0,0.3,0,0.5h-42.9c0-0.3,0-0.6,0-1c0-4.8-3.9-8.6-8.6-8.6l0,0h-0.6v-7.2h0.5
				c4.8,0,8.6-3.9,8.6-8.6c0,0,0,0,0,0C180.3,7.4,180.3,7.2,180.3,7.1z M202.8,11.9c-4.8,0-8.6,3.9-8.6,8.6c0,4.8,3.9,8.6,8.6,8.6
				c4.8,0,8.6-3.9,8.6-8.6S207.5,11.9,202.8,11.9C202.8,11.9,202.8,11.9,202.8,11.9z"/>
			<path fill="#022544" d="M166.3,38V2h70.8v36H166.3z M221.8,31.5c0.5-4.9,4.4-8.7,9.2-9.1v-4.8c-4.9-0.4-8.7-4.3-9.1-9.2h-40.2
				c-0.5,4.8-4.3,8.6-9.1,9.1V22c5,0.4,8.9,4.5,9.2,9.5L221.8,31.5z"/>
			<path fill="#FFFFFF" d="M235.7,3.5v33.1h-67.9V3.5H235.7 M223.3,7.1h-43c0,0.2,0,0.3,0,0.5c0,4.8-3.9,8.6-8.6,8.6l0,0h-0.5v7.2
				h0.6c4.8,0,8.6,3.9,8.6,8.6c0,0.3,0,0.6,0,1h42.9c0-0.2,0-0.3,0-0.5c0-4.8,3.9-8.6,8.6-8.6c0,0,0,0,0,0c0.2,0,0.4,0,0.6,0v-7.7
				H232c-4.8,0-8.6-3.9-8.6-8.6c0,0,0,0,0,0C223.4,7.4,223.4,7.2,223.3,7.1 M238.6,0.6h-73.6v38.8h73.6V0.6z M182.9,9.9h37.8
				c0.9,4.5,4.4,8.1,8.9,9v2.3c-4.5,0.9-8,4.4-9,8.9h-37.5c-0.8-4.7-4.4-8.4-9-9.4v-1.9C178.5,17.8,182,14.4,182.9,9.9L182.9,9.9z"
				/>
			<circle fill="#022544" cx="202.8" cy="20.6" r="8.6"/>
		</g>
		<g id="_Group_22">
			<path fill="#D3D800" d="M255.9,248.9h43c0,0.2,0,0.4,0,0.6c0,4.8,3.9,8.6,8.6,8.6h0.6v7.6h-0.6c-4.8,0-8.6,3.9-8.6,8.6l0,0
				c0,0.2,0,0.3,0,0.5h-42.9c0-0.3,0.1-0.7,0.1-1c0-4.8-3.9-8.6-8.6-8.6c0,0,0,0,0,0h-0.6V258h0.5c4.8,0,8.6-3.9,8.6-8.6
				c0,0,0,0,0,0C255.9,249.2,255.9,249,255.9,248.9z M278.3,253.7c-4.8,0-8.6,3.9-8.6,8.6c0,4.8,3.9,8.6,8.6,8.6
				c4.8,0,8.6-3.9,8.6-8.6l0,0C287,257.6,283.1,253.7,278.3,253.7z"/>
			<path fill="#022544" d="M241.9,279.8v-35.9h70.8v35.9H241.9z M297.4,273.3c0.5-4.9,4.4-8.7,9.2-9.1v-4.8
				c-4.9-0.4-8.7-4.3-9.2-9.1h-40.2c-0.5,4.8-4.3,8.6-9.1,9.1v4.4c5,0.5,8.9,4.5,9.2,9.6L297.4,273.3z"/>
			<path fill="#FFFFFF" d="M311.2,245.3v33.1h-67.9v-33.1H311.2 M298.9,248.9h-43c0,0.2,0,0.3,0,0.5c0,4.8-3.9,8.6-8.6,8.6
				c0,0,0,0,0,0h-0.5v7.2h0.6c4.8,0,8.6,3.9,8.6,8.6l0,0c0,0.3,0,0.7-0.1,1h42.9c0-0.2,0-0.3,0-0.5c0-4.8,3.9-8.6,8.6-8.6l0,0h0.6
				V258h-0.6c-4.8,0-8.6-3.9-8.6-8.6c0,0,0,0,0,0C298.9,249.2,298.9,249,298.9,248.9 M314.1,242.3h-73.7v38.8h73.7L314.1,242.3
				L314.1,242.3z M258.5,251.7h37.8c0.9,4.5,4.4,8.1,9,9v2.3c-4.5,0.9-8,4.4-9,8.9h-37.5c-0.8-4.7-4.4-8.4-9-9.4v-2
				C254.1,259.6,257.6,256.2,258.5,251.7L258.5,251.7z"/>
			<circle fill="#022544" cx="278.3" cy="262.4" r="8.6"/>
		</g>
		<g id="_Group_23">
			<path fill="#D3D800" d="M255.9,208.5h43c0,0.2,0,0.4,0,0.6c0,4.8,3.9,8.6,8.6,8.6l0,0h0.6v7.6h-0.6c-4.8,0-8.6,3.9-8.6,8.6
				c0,0,0,0,0,0c0,0.2,0,0.3,0,0.5h-42.9c0-0.3,0.1-0.7,0.1-1c0-4.8-3.9-8.6-8.6-8.6c0,0,0,0,0,0h-0.6v-7.2h0.5
				c4.8,0,8.6-3.9,8.6-8.6c0,0,0,0,0,0C255.9,208.8,255.9,208.6,255.9,208.5z M278.3,213.3c-4.8,0-8.6,3.9-8.6,8.7
				c0,4.8,3.9,8.6,8.7,8.6c4.7,0,8.6-3.9,8.6-8.6C287,217.2,283.2,213.4,278.3,213.3C278.4,213.3,278.4,213.3,278.3,213.3z"/>
			<path fill="#022544" d="M241.9,239.4v-36h70.8v35.9L241.9,239.4z M297.4,232.9c0.5-4.9,4.4-8.7,9.2-9.1V219
				c-4.9-0.4-8.7-4.3-9.2-9.1h-40.2c-0.5,4.8-4.3,8.6-9.1,9.1v4.4c5,0.4,8.9,4.5,9.2,9.6L297.4,232.9z"/>
			<path fill="#FFFFFF" d="M311.2,204.9v33.1h-67.9v-33.1H311.2 M298.9,208.5h-43c0,0.2,0,0.3,0,0.5c0,4.8-3.9,8.6-8.6,8.6
				c0,0,0,0,0,0h-0.5v7.2h0.6c4.8,0,8.6,3.9,8.6,8.6c0,0,0,0,0,0c0,0.3,0,0.7-0.1,1h42.9c0-0.2,0-0.3,0-0.5c0-4.8,3.9-8.6,8.6-8.6
				l0,0h0.6v-7.6h-0.6c-4.8,0-8.6-3.9-8.6-8.6c0,0,0,0,0,0C298.9,208.9,298.9,208.7,298.9,208.5 M314.1,202h-73.6v38.8h73.7
				L314.1,202L314.1,202z M258.5,211.3h37.8c0.9,4.5,4.4,8.1,9,9v2.3c-4.5,0.9-8,4.4-9,8.9h-37.5c-0.8-4.7-4.4-8.4-9-9.4v-1.9
				C254.1,219.3,257.6,215.8,258.5,211.3L258.5,211.3z"/>
			<circle fill="#022544" cx="278.3" cy="222" r="8.6"/>
		</g>
		<g id="_Group_24">
			<path fill="#D3D800" d="M255.9,168.1h43c0,0.2,0,0.4,0,0.6c0,4.8,3.9,8.6,8.6,8.6l0,0h0.6v7.6h-0.6c-4.8,0-8.6,3.9-8.6,8.6
				c0,0,0,0,0,0c0,0.2,0,0.3,0,0.5h-42.9c0-0.3,0.1-0.7,0.1-1c0-4.8-3.9-8.6-8.6-8.6c0,0,0,0,0,0h-0.6v-7.2h0.5
				c4.8,0,8.6-3.9,8.6-8.6c0,0,0,0,0,0C255.9,168.4,255.9,168.2,255.9,168.1z M278.3,172.9c-4.8,0-8.6,3.9-8.6,8.6s3.9,8.6,8.6,8.6
				c4.8,0,8.6-3.9,8.6-8.6S283.1,172.9,278.3,172.9L278.3,172.9z"/>
			<path fill="#022544" d="M241.9,199v-36h70.8v36H241.9z M297.4,192.5c0.5-4.9,4.4-8.7,9.2-9.1v-4.8c-4.9-0.4-8.7-4.3-9.2-9.1
				h-40.2c-0.5,4.8-4.3,8.6-9.1,9.1v4.4c5,0.4,8.9,4.5,9.2,9.6L297.4,192.5z"/>
			<path fill="#FFFFFF" d="M311.2,164.5v33.1h-67.9v-33.1H311.2 M298.9,168.1h-43c0,0.2,0,0.3,0,0.5c0,4.8-3.9,8.6-8.6,8.6
				c0,0,0,0,0,0h-0.5v7.2h0.6c4.8,0,8.6,3.9,8.6,8.6c0,0,0,0,0,0c0,0.3,0,0.7-0.1,1h42.9c0-0.2,0-0.3,0-0.5c0-4.8,3.9-8.6,8.6-8.6
				l0,0h0.6v-7.6h-0.6c-4.8,0-8.6-3.9-8.6-8.6c0,0,0,0,0,0C298.9,168.5,298.9,168.3,298.9,168.1 M314.1,161.6h-73.7v38.8h73.7
				L314.1,161.6L314.1,161.6z M258.5,171h37.8c0.9,4.5,4.4,8.1,9,9v2.3c-4.5,0.9-8,4.4-9,8.9h-37.5c-0.8-4.7-4.4-8.4-9-9.4v-1.9
				C254.1,178.9,257.6,175.4,258.5,171L258.5,171z"/>
			<circle fill="#022544" cx="278.3" cy="181.6" r="8.6"/>
		</g>
		<g id="_Group_25">
			<path fill="#D3D800" d="M255.9,127.7h43c0,0.2,0,0.4,0,0.6c0,4.8,3.9,8.6,8.6,8.6l0,0h0.6v7.6c-0.2,0-0.4,0-0.6,0
				c-4.8,0-8.6,3.9-8.6,8.6c0,0,0,0,0,0c0,0.2,0,0.3,0,0.5h-42.9c0-0.3,0.1-0.7,0.1-1c0-4.8-3.9-8.6-8.6-8.6c0,0,0,0,0,0h-0.6v-7.2
				h0.5c4.8,0,8.6-3.9,8.6-8.6c0,0,0,0,0,0C255.9,128,255.9,127.8,255.9,127.7z M278.3,132.5c-4.8,0-8.6,3.9-8.6,8.6
				s3.9,8.6,8.6,8.6c4.8,0,8.6-3.9,8.6-8.6S283.1,132.5,278.3,132.5L278.3,132.5z"/>
			<path fill="#022544" d="M241.9,158.6v-36h70.8v36H241.9z M297.4,152.1c0.5-4.9,4.4-8.7,9.2-9.1v-4.8c-4.9-0.4-8.7-4.3-9.2-9.1
				h-40.2c-0.5,4.8-4.3,8.6-9.1,9.1v4.4c5,0.4,8.9,4.5,9.2,9.6L297.4,152.1z"/>
			<path fill="#FFFFFF" d="M311.2,124.1v33.1h-67.9v-33.1H311.2 M298.9,127.7h-43c0,0.2,0,0.3,0,0.5c0,4.8-3.9,8.6-8.6,8.6
				c0,0,0,0,0,0h-0.5v7.2h0.6c4.8,0,8.6,3.9,8.6,8.6c0,0,0,0,0,0c0,0.3,0,0.7-0.1,1h42.9c0-0.2,0-0.3,0-0.5c0-4.8,3.9-8.6,8.6-8.6
				l0,0c0.2,0,0.4,0,0.6,0v-7.6h-0.6c-4.8,0-8.6-3.9-8.6-8.6c0,0,0,0,0,0C298.9,128.1,298.9,127.9,298.9,127.7 M314.1,121.2h-73.7
				V160h73.7L314.1,121.2L314.1,121.2z M258.5,130.6h37.8c0.9,4.5,4.4,8.1,9,9v2.3c-4.5,0.9-8,4.4-9,8.9h-37.5
				c-0.8-4.7-4.4-8.4-9-9.4v-2C254.1,138.4,257.6,135,258.5,130.6L258.5,130.6z"/>
			<circle fill="#022544" cx="278.3" cy="141.2" r="8.6"/>
		</g>
		<g id="_Group_26">
			<path fill="#D3D800" d="M255.9,87.3h43c0,0.2,0,0.4,0,0.6c0,4.8,3.9,8.6,8.6,8.6l0,0h0.6v7.6c-0.2,0-0.4,0-0.6,0
				c-4.8,0-8.6,3.9-8.6,8.6l0,0c0,0.2,0,0.3,0,0.5h-42.9c0-0.3,0.1-0.7,0.1-1c0-4.8-3.9-8.6-8.6-8.6l0,0h-0.6v-7.2h0.5
				c4.8,0,8.6-3.9,8.6-8.6l0,0C255.9,87.6,255.9,87.4,255.9,87.3z M278.3,92.1c-4.8,0-8.6,3.9-8.6,8.6s3.9,8.6,8.6,8.6
				c4.8,0,8.6-3.9,8.6-8.6S283.1,92.1,278.3,92.1C278.3,92.1,278.3,92.1,278.3,92.1z"/>
			<path fill="#022544" d="M241.9,118.2V82.2h70.8v36L241.9,118.2z M297.4,111.7c0.5-4.9,4.4-8.7,9.2-9.1v-4.8
				c-4.9-0.4-8.7-4.3-9.2-9.2h-40.2c-0.5,4.8-4.3,8.6-9.1,9.1v4.4c5,0.4,8.9,4.5,9.2,9.6L297.4,111.7z"/>
			<path fill="#FFFFFF" d="M311.2,83.7v33.1h-67.9V83.7H311.2 M298.9,87.3h-43c0,0.2,0,0.3,0,0.5c0,4.8-3.9,8.6-8.6,8.6l0,0h-0.5
				v7.2h0.6c4.8,0,8.6,3.9,8.6,8.6l0,0c0,0.3,0,0.7-0.1,1h42.9c0-0.2,0-0.3,0-0.5c0-4.8,3.9-8.6,8.6-8.6l0,0c0.2,0,0.4,0,0.6,0v-7.7
				h-0.6c-4.8,0-8.6-3.9-8.6-8.6l0,0C298.9,87.6,298.9,87.4,298.9,87.3 M314.1,80.8h-73.7v38.8h73.7L314.1,80.8L314.1,80.8z
				 M258.5,90.1h37.8c0.9,4.5,4.4,8.1,9,9v2.3c-4.5,0.9-8,4.4-9,8.9h-37.5c-0.8-4.7-4.4-8.4-9-9.4v-2
				C254.1,98.1,257.6,94.6,258.5,90.1L258.5,90.1z"/>
			<circle fill="#022544" cx="278.3" cy="100.8" r="8.6"/>
		</g>
		<g id="_Group_27">
			<path fill="#D3D800" d="M255.9,46.9h43c0,0.2,0,0.4,0,0.6c0,4.8,3.9,8.6,8.6,8.6l0,0h0.6v7.6c-0.2,0-0.4,0-0.6,0
				c-4.8,0-8.6,3.9-8.6,8.6l0,0c0,0.2,0,0.3,0,0.5h-42.9c0-0.3,0.1-0.7,0.1-1c0-4.8-3.9-8.6-8.6-8.6l0,0h-0.6V56h0.5
				c4.8,0,8.6-3.9,8.6-8.6c0,0,0,0,0,0C255.9,47.2,255.9,47,255.9,46.9z M278.3,51.7c-4.8,0-8.6,3.9-8.6,8.7s3.9,8.6,8.7,8.6
				c4.7,0,8.6-3.9,8.6-8.6C287,55.6,283.1,51.7,278.3,51.7C278.4,51.7,278.3,51.7,278.3,51.7z"/>
			<path fill="#022544" d="M241.9,77.8V41.8h70.8v36L241.9,77.8z M297.4,71.3c0.5-4.9,4.4-8.7,9.2-9.1v-4.8
				c-4.9-0.4-8.7-4.3-9.2-9.1h-40.2c-0.5,4.8-4.3,8.6-9.1,9.1v4.4c5,0.4,8.9,4.5,9.2,9.5H297.4z"/>
			<path fill="#FFFFFF" d="M311.2,43.3v33.1h-67.9V43.3H311.2 M298.9,46.9h-43c0,0.2,0,0.3,0,0.5c0,4.8-3.8,8.6-8.6,8.7
				c0,0,0,0-0.1,0h-0.5v7.2h0.6c4.8,0,8.6,3.9,8.6,8.6l0,0c0,0.3,0,0.7-0.1,1h42.9c0-0.2,0-0.3,0-0.5c0-4.8,3.9-8.6,8.6-8.6l0,0
				c0.2,0,0.4,0,0.6,0V56h-0.6c-4.8,0-8.6-3.9-8.6-8.6c0,0,0,0,0,0C298.9,47.2,298.9,47,298.9,46.9 M314.1,40.3h-73.6v38.9h73.7
				L314.1,40.3L314.1,40.3z M258.5,49.7h37.8c0.9,4.5,4.4,8.1,9,9V61c-4.5,0.9-8,4.4-9,8.9h-37.5c-0.8-4.7-4.4-8.4-9-9.4v-2
				C254.1,57.6,257.6,54.1,258.5,49.7L258.5,49.7z"/>
			<circle fill="#022544" cx="278.3" cy="60.4" r="8.6"/>
		</g>
		<g id="_Group_28">
			<path fill="#D3D800" d="M255.9,6.5h43c0,0.2,0,0.4,0,0.6c0,4.8,3.9,8.6,8.6,8.6l0,0h0.6v7.6c-0.2,0-0.4,0-0.6,0
				c-4.8,0-8.6,3.9-8.6,8.6c0,0,0,0,0,0c0,0.2,0,0.3,0,0.5h-42.9c0-0.3,0.1-0.7,0.1-1c0-4.8-3.9-8.6-8.6-8.6l0,0h-0.6v-7.2h0.5
				c4.8,0,8.6-3.9,8.6-8.6c0,0,0,0,0,0C255.9,6.8,255.9,6.6,255.9,6.5z M278.3,11.3c-4.8,0-8.6,3.9-8.6,8.7c0,4.8,3.9,8.6,8.7,8.6
				c4.7,0,8.6-3.9,8.6-8.6C287,15.2,283.2,11.4,278.3,11.3C278.4,11.3,278.4,11.3,278.3,11.3z"/>
			<path fill="#022544" d="M241.9,37.4v-36h70.8v36L241.9,37.4z M297.4,30.9c0.5-4.9,4.4-8.7,9.2-9.1V17c-4.9-0.4-8.7-4.3-9.2-9.1
				h-40.2c-0.4,4.8-4.2,8.7-9.1,9.1v4.4c5,0.4,8.9,4.5,9.2,9.5L297.4,30.9z"/>
			<path fill="#FFFFFF" d="M311.2,2.9V36h-67.9V2.9H311.2 M298.9,6.5h-43c0,0.2,0,0.3,0,0.5c0,4.8-3.9,8.6-8.6,8.6l0,0h-0.5v7.2h0.6
				c4.8,0,8.6,3.9,8.6,8.6c0,0,0,0,0,0c0,0.3,0,0.7-0.1,1h42.9c0-0.2,0-0.3,0-0.5c0-4.8,3.9-8.6,8.6-8.6l0,0c0.2,0,0.4,0,0.6,0v-7.7
				h-0.6c-4.8,0-8.6-3.8-8.7-8.6c0,0,0,0,0,0C298.9,6.8,298.9,6.6,298.9,6.5 M314.1,0h-73.6v38.8h73.7L314.1,0L314.1,0z M258.5,9.3
				h37.8c0.9,4.5,4.4,8.1,9,9v2.3c-4.5,0.9-8,4.4-9,8.9h-37.5c-0.8-4.7-4.4-8.4-9-9.4v-2C254.1,17.2,257.6,13.8,258.5,9.3L258.5,9.3
				z"/>
			<circle fill="#022544" cx="278.3" cy="20" r="8.6"/>
		</g>
		<rect x="210.6" y="306" fill="#022544" width="97" height="122.5"/>
		<text transform="matrix(1 0 0 1 221.2 366.9)" fill="#FFFFFF" font-family="'Arial-BoldMT'" font-size="38.76px">10X</text>
		<text transform="matrix(1 0 0 1 221.2 385.64)" fill="#FFFFFF" font-family="'Arial-BoldMT'" font-size="15.61px">INCREASE</text>
	</g>
</g>
</svg>
