<?xml version="1.0" encoding="utf-8"?>
<!-- Generator: Adobe Illustrator 22.1.0, SVG Export Plug-In . SVG Version: 6.00 Build 0)  -->
<svg version="1.1" id="Layer_1" xmlns="http://www.w3.org/2000/svg" xmlns:xlink="http://www.w3.org/1999/xlink" x="0px" y="0px"
	 viewBox="0 0 822 323" enable-background="new 0 0 822 323" xml:space="preserve">
<title>Asset 19</title>
<g>
	<g id="Layer_2_1_">
		<g id="_1977">
			<g opacity="0.15">
				<rect x="9.4" y="34" fill="#5E6367" width="812.6" height="6"/>
				<rect x="8.1" y="73" fill="#5E6367" width="812.6" height="6"/>
				<rect x="6.7" y="112" fill="#5E6367" width="812.6" height="6"/>
				<rect x="5.4" y="151" fill="#5E6367" width="812.6" height="6"/>
				<rect x="4" y="190" fill="#5E6367" width="812.6" height="6"/>
				<rect x="2.7" y="229" fill="#5E6367" width="812.6" height="6"/>
				<rect x="1.4" y="268" fill="#5E6367" width="812.6" height="6"/>
				<rect y="307" fill="#5E6367" width="812.6" height="6"/>
			</g>
			<polyline fill="none" stroke="#D3D800" stroke-width="8.49" stroke-linecap="round" stroke-linejoin="round" points="210,60 
				286,60 301,110 331,80 394,220 415,189 447,244 517,200 608,283 			"/>
			<path fill="#FFFFFF" d="M9,24h199c5,0,9,4,9,9v199c0,5-4,9-9,9H9c-5,0-9-4-9-9V33C0,28,4,24,9,24z"/>
			<path fill="#D40E8C" d="M207,34v197H10V34H207 M208,24H9c-5,0-9,4-9,9v199c0,5,4,9,9,9h199c5,0,9-4,9-9V33C217,28,213,24,208,24z
				"/>
			<path fill="#E4E4E4" d="M11.4,34h194.3c0.7,0,1.4,0.6,1.4,1.3v95.3c0,0.7-0.6,1.4-1.4,1.4H11.4c-0.7,0-1.4-0.6-1.4-1.4V35.3
				C10,34.6,10.6,34,11.4,34z"/>
			<path fill="none" d="M91.7,132h-7.9c1.2,0.7,2.5,1.1,3.9,1.1C89.2,133.1,90.5,132.7,91.7,132z"/>
			<rect x="43.6" y="132" fill="#D40E8C" width="10.8" height="24.5"/>
			<path fill="#D40E8C" d="M87.8,133.1c-1.4,0-2.7-0.3-3.9-1.1H70.9c2.3,5.6,7.9,9.2,13.9,9.1c1.1,0,2.2-0.2,3.2-0.5l-0.1,0.2
				l-11.4,15.7h13.1l11-16.4c1.8-2.5,3.2-5.2,4.2-8.1H91.7C90.5,132.7,89.2,133.1,87.8,133.1z"/>
			<polygon fill="#D40E8C" points="115.8,156.5 128.4,156.5 140,132 128.3,132 			"/>
			<polygon fill="#D40E8C" points="157.5,156.5 170.1,156.5 181.6,132 170,132 			"/>
			<polygon fill="#AA0E7A" points="44.5,110.9 29.5,121.9 35.1,129.6 43.6,123 43.6,132 54.4,132 54.4,110.9 			"/>
			<path fill="#AA0E7A" d="M87.8,109.7c-9.9,0-18,6.2-18,16.6c0,2,0.4,3.9,1.1,5.8h12.9c-3.3-2.2-4.2-6.6-2.1-10s6.6-4.2,10-2.1
				c3.3,2.2,4.2,6.6,2.1,10c-0.5,0.8-1.2,1.5-2.1,2.1h13.1c0.6-1.9,0.9-4,0.9-6C105.8,116,97.8,109.7,87.8,109.7z"/>
			<polygon fill="#AA0E7A" points="145.9,110.9 112.7,110.9 112.7,120.2 134.3,120.2 128.3,132 140,132 145.9,119.5 			"/>
			<polygon fill="#AA0E7A" points="187.6,110.9 154.4,110.9 154.4,120.2 176,120.2 170,132 181.6,132 187.6,119.5 			"/>
			<path fill="#002F60" d="M55,0L55,0c5,0,9,4,9,9v39c0,5-4,9-9,9l0,0c-5,0-9-4-9-9V9C46,4,50,0,55,0z"/>
			<path fill="#002F60" d="M155,0L155,0c5,0,9,4,9,9v39c0,5-4,9-9,9l0,0c-5,0-9-4-9-9V9C146,4,150,0,155,0z"/>
			<path fill="#FFFFFF" d="M613,106h199c5,0,9,4,9,9v199c0,5-4,9-9,9H613c-5,0-9-4-9-9V115C604,110,608,106,613,106z"/>
			<path fill="#15BEF0" d="M811,116v197H614V116H811 M812,106H613c-5,0-9,4-9,9v199c0,5,4,9,9,9h199c5,0,9-4,9-9V115
				C821,110,817,106,812,106z"/>
			<path fill="#E4E4E4" d="M615.3,116h194.3c0.7,0,1.3,0.6,1.3,1.3v95.3c0,0.7-0.6,1.4-1.3,1.4H615.3c-0.7,0-1.3-0.6-1.3-1.4v-95.3
				C614,116.6,614.6,116,615.3,116z"/>
			<path fill="#002F60" d="M659,82L659,82c5,0,9,4,9,9v39c0,5-4,9-9,9l0,0c-5,0-9-4-9-9V91C650,86,654,82,659,82z"/>
			<path fill="#002F60" d="M759,82L759,82c5,0,9,4,9,9v39c0,5-4,9-9,9l0,0c-5,0-9-4-9-9V91C750,86,754,82,759,82z"/>
			<path fill="none" d="M691.9,230.5c5.7,0,6.7-9,6.7-14.9c0-0.5,0-1,0-1.6h-13.5c0,0.5,0,1.1,0,1.6
				C685,221.4,686.2,230.5,691.9,230.5z"/>
			<path fill="#15BEF0" d="M633.7,229.5v9h33v-9.4h-18.6l10.6-9.4c2-1.7,3.8-3.6,5.3-5.7h-13.2L633.7,229.5z"/>
			<path fill="#15BEF0" d="M698.6,215.6c0,5.9-1,14.9-6.7,14.9s-6.8-9-6.8-14.9c0-0.5,0-1,0-1.6h-11c0,0.5,0,1.1,0,1.6
				c0,13,5,24.2,17.9,24.2s17.8-11.2,17.8-24.2c0-0.5,0-1.1,0-1.6h-11.2C698.6,214.5,698.6,215.1,698.6,215.6z"/>
			<rect x="730.9" y="214" fill="#15BEF0" width="10.8" height="24.5"/>
			<polygon fill="#15BEF0" points="761.5,238.5 774.1,238.5 785.7,214 774,214 			"/>
			<path fill="#0093CD" d="M650.2,191.6c-8.9,0-16.4,5.5-17.4,14.7l10.4,1.4c0.5-4.1,2.8-6.9,6.5-6.9c2.9-0.2,5.5,2,5.7,4.9
				c0,0.2,0,0.4,0,0.6c0,2.8-1.5,4.9-3.7,7l-0.7,0.6H664c1.7-2.4,2.7-5.4,2.6-8.4C666.7,196.1,658.5,191.6,650.2,191.6z"/>
			<path fill="#0093CD" d="M691.9,191.6c-12.4,0-17.5,10.1-17.9,22.4h11.1c0.2-5.7,1.6-13.2,6.8-13.2s6.5,7.5,6.7,13.2h11.1
				C709.3,201.8,704.3,191.6,691.9,191.6z"/>
			<polygon fill="#0093CD" points="731.8,192.9 716.8,203.9 722.4,211.6 730.9,205 730.9,214 741.8,214 741.8,192.9 			"/>
			<polygon fill="#0093CD" points="791.5,192.9 758.4,192.9 758.4,202.2 780,202.2 774,214 785.7,214 791.5,201.5 			"/>
			<path fill="#073586" d="M590.9,5.4h-148c-5,0-9,4-9,9v101.1c0,5,4,9,9,9h45.6l13.5,23.4l14.9,25.8l14.9-25.8l13.5-23.4h45.6
				c5,0,9-4,9-9V14.4C599.9,9.4,595.9,5.4,590.9,5.4C590.9,5.4,590.9,5.4,590.9,5.4z"/>
			<polygon fill="#FFFFFF" points="497.5,65.4 497.5,51.8 480.7,51.8 480.7,65.5 469.9,65.6 479.7,76.4 489.4,87.2 498.9,76.3 
				508.4,65.4 			"/>
			<text transform="matrix(1 0 0 1 514.03 96.49)" fill="#FFFFFF" font-family="'Arial-BoldMT'" font-size="86.05px">$</text>
			<rect x="608" y="202" fill="#15BEF0" width="14" height="23"/>
			<rect x="804" y="202" fill="#15BEF0" width="14" height="23"/>
			<rect x="4" y="120" fill="#D40E8C" width="14" height="23"/>
			<rect x="200" y="120" fill="#D40E8C" width="14" height="23"/>
		</g>
	</g>
</g>
</svg>
