<?xml version="1.0" encoding="utf-8"?>
<!-- Generator: Adobe Illustrator 22.1.0, SVG Export Plug-In . SVG Version: 6.00 Build 0)  -->
<svg version="1.1" id="herosvg" xmlns="http://www.w3.org/2000/svg" xmlns:xlink="http://www.w3.org/1999/xlink" x="0px" y="0px"
	 viewBox="0 0 417.8 229" style="enable-background:new 0 0 417.8 229;" xml:space="preserve">
<style type="text/css">
	.st0{fill:#FAFAFA;}
	.st1{clip-path:url(#SVGID_2_);}
	.st2{fill:#FFE539;}
	.st3{fill:#002F60;}
</style>
<title>Hero SVG</title>
<g id="Layer_2_1_">
	<g id="header">
		<path class="st0" d="M152.5,129.6v-8c0-2.9,2.4-5.3,5.3-5.3h13.5c2.9,0,5.3,2.4,5.3,5.3v8"/>
		<path class="st0" d="M205.1,129.6v-8c0-2.9,2.4-5.3,5.3-5.3h13.5c2.9,0,5.3,2.4,5.3,5.3v8"/>
		<path class="st0" d="M232.8,136.8h-83.4c-5.7,0-10.4,4.7-10.4,10.4v52.2c0,5.7,4.7,10.4,10.4,10.4h83.3c5.8,0,10.5-4.6,10.5-10.4
			v-52.2C243.2,141.5,238.6,136.8,232.8,136.8z M178.2,174.1h-8.6v8.8H164v-8.8h-8.6v-5.5h8.6V160h5.5v8.6h8.6L178.2,174.1
			L178.2,174.1z M226.2,174h-23v-5.4h23V174z"/>
		<path class="st0" d="M276.5,210.8l-4.2-36c-2.6,0.5-5.2,0.7-7.9,0.7l4.3,36.2c0.3,2.2,2.2,3.7,4.4,3.5S276.8,213,276.5,210.8
			L276.5,210.8z"/>
		<path class="st0" d="M233.2,97.2l-26-24.6c-1.6-1.5-4.1-1.4-5.6,0.2s-1.4,4.1,0.2,5.6l26.2,24.7C229.5,101,231.3,99,233.2,97.2z"
			/>
		<path class="st0" d="M303,201.5l-16-32c-2.3,1.3-4.7,2.4-7.1,3.3L296,205c1.2,1.8,3.6,2.4,5.4,1.2
			C303,205.2,303.7,203.2,303,201.5L303,201.5z"/>
		<path class="st0" d="M223.5,60.5l15.9,31.8c2.2-1.5,4.5-2.7,6.9-3.8L230.5,57c-1-1.9-3.3-2.7-5.3-1.8
			C223.3,56.2,222.5,58.6,223.5,60.5L223.5,60.5z"/>
		<path class="st0" d="M293.5,165l25.8,24.4c1.6,1.5,4.1,1.4,5.6-0.2c1.3-1.4,1.4-3.5,0.3-5c-0.1-0.2-0.3-0.4-0.5-0.5l-25.6-24.2
			C297.4,161.4,295.5,163.3,293.5,165z"/>
		<path class="st0" d="M300.9,103c0.8,1.1,1.5,2.2,2.2,3.3l27.4-20.4c1.7-1.3,2.1-3.8,0.8-5.5c-1.3-1.7-3.8-2.1-5.5-0.8L298.4,100
			C299.2,100.9,300.1,102,300.9,103z"/>
		<path class="st0" d="M270.1,85.1c2.6,0.3,5.2,0.9,7.7,1.6l7.9-33.5c0.3-1.1,0-2.3-0.7-3.3c-0.5-0.7-1.3-1.3-2.3-1.5
			c-2.1-0.5-4.2,0.8-4.7,2.9L270.1,85.1z"/>
		<path class="st0" d="M250,51.2l4,34.8c2.6-0.6,5.2-1,7.8-1.1l-4-34.6c-0.3-2.2-2.2-3.7-4.4-3.5S249.7,49,250,51.2L250,51.2z"/>
		<path class="st0" d="M285.6,89.9c2.3,1.2,4.5,2.7,6.6,4.3L311,65.7c0.9-1.4,0.9-3.2-0.1-4.5c-0.3-0.4-0.6-0.7-1-0.9
			c-1.8-1.2-4.2-0.7-5.5,1.1L285.6,89.9z"/>
		<path class="st0" d="M303.7,152.8l32.1,13.9c2,0.9,4.3,0.1,5.3-1.9c0.9-2,0.1-4.3-1.9-5.3c-0.1,0-0.2-0.1-0.3-0.1L307,145.7
			C306.1,148.1,305,150.5,303.7,152.8z"/>
		<path class="st0" d="M309.2,137.7l34.5,2c2.2,0.2,4.1-1.4,4.3-3.5c0.2-2.2-1.4-4.1-3.5-4.3c-0.1,0-0.2,0-0.3,0l-34.3-2
			C309.8,132.4,309.6,135.1,309.2,137.7z"/>
		<path class="st0" d="M309,121.4l32.8-9.8c2.1-0.6,3.3-2.8,2.6-4.9s-2.8-3.3-4.9-2.6l0,0l-32.7,9.8
			C307.8,116.3,308.5,118.9,309,121.4z"/>
		<path class="st0" d="M264.3,94.2c-13.7,0-26.2,7.6-32.5,19.7c2.9,1.8,4.7,4.9,4.7,8.3v7.9c7.9,0.5,14.1,7,14.1,14.9v19.8
			c18.8,7.6,40.1-1.4,47.7-20.2s-1.4-40.1-20.2-47.7C273.7,95.1,269,94.2,264.3,94.2L264.3,94.2z"/>
		<path class="st0" d="M131,196.5v-52.2c0-8,5.7-14.8,13.5-16.3v-5.3c0-6.3,5.1-11.5,11.4-11.5l0,0h9c-0.4-0.6-0.8-1.1-1.3-1.6
			c-4.5-4.5-8.8-9-13.2-13.5c-4,3.1-7.3,5.6-10.5,8.3c-0.9,0.9-1.7,1.9-2.2,3.1c-2.7,5.6-8.6,8.5-14.3,6.9s-9.3-7.1-8.5-13
			c0.6-5.9,5.7-10.4,11.7-10.2c4.6-0.1,6.7-4,11-6.2c-3.4-2.4-6.1-4.8-9.2-6.4c-1.1-0.6-3.6,0-4.8,0.9
			c-11.3,9.3-22.5,18.7-33.6,28.2c-2.1,1.7-3.2,4.2-3.2,6.8c-0.3,28.8-0.7,57.6-0.9,86.5c0,2.6,0.7,5.1,1.9,7.4
			c1.5,2.8,4.3,3.8,7.5,3.8c11.9,0.1,23.8,0.4,35.7,0.5V196.5z"/>
		<path class="st0" d="M89.4,98.5c1.9,0.7,4.1-0.2,4.8-2.1v-0.1c2.7-5.7,5.1-11.6,8.1-17.1c4-7.1,9-13.5,16-17.8
			c8.2-4.9,17.4-2.9,22.9,4.6c5.1,7.3,3.8,17.3-2.9,23.1c-3.9,3.3-8.3,6.1-12.4,9.1c-0.7,0.5-1.8,0.9-2,1.6
			c-0.5,1.7-1.4,3.8-0.8,5.3c0.7,1.8,2.8,2.7,4.6,2c0.2-0.1,0.5-0.2,0.7-0.4c7-4.2,14.2-8.3,19.3-14.9c7.6-9.9,7.1-23.7-0.7-32.3
			c-9.3-10.2-21.9-12.4-33.3-5.4c-2.8,1.9-5.5,4-8,6.1C97.4,69.1,91,79.6,87.1,91.1C86.8,92,86.5,93,86.4,94
			C86.1,96.1,87.4,98,89.4,98.5z"/>
		<g>
			<g>
				<defs>
					<rect id="SVGID_1_" x="-173.3" width="759" height="259"/>
				</defs>
				<clipPath id="SVGID_2_">
					<use xlink:href="#SVGID_1_"  style="overflow:visible;"/>
				</clipPath>
				<g class="st1">
					<path class="st2" d="M189.7,109c-7.5,0-13.6-6-13.6-13.5c0-5.3,3.1-10.2,7.9-12.4v-41h-44.8c-6.1,0-11.1-5-11.1-11.1v-74.3
						c0-3.1,2.5-5.7,5.6-5.7s5.7,2.5,5.7,5.6l0,0v74.1h44.9c6.1,0,11.1,5,11.1,11.1V83c6.8,3.1,9.8,11.2,6.7,18
						C199.9,105.9,195.1,109,189.7,109z M189.7,93.2c-1.3,0-2.3,1-2.3,2.3s1,2.3,2.3,2.3s2.3-1,2.3-2.3l0,0
						C192,94.2,191,93.2,189.7,93.2z"/>
					<path class="st3" d="M133.7-47c2,0,3.6,1.6,3.6,3.6l0,0v74.2c0,1,0.8,1.8,1.8,1.8h45c5,0,9.1,4.1,9.1,9.1v42.6
						c6.1,2,9.4,8.6,7.3,14.6s-8.6,9.4-14.6,7.3s-9.4-8.6-7.3-14.6c1.2-3.5,3.9-6.2,7.3-7.3V41.9c0-1-0.8-1.8-1.8-1.8h-45
						c-5,0-9.1-4.1-9.1-9.1v-74.2C130.1-45.3,131.7-47,133.7-47L133.7-47 M189.7,99.7c2.4,0,4.3-1.9,4.3-4.3s-1.9-4.3-4.3-4.3
						s-4.3,1.9-4.3,4.3l0,0C185.4,97.8,187.4,99.7,189.7,99.7 M133.7-51c-4.2,0-7.6,3.4-7.6,7.7v74.2c0,7.3,5.9,13.1,13.1,13.1h42.9
						v37.8c-7.5,4.2-10.1,13.7-5.9,21.2s13.7,10.1,21.2,5.9s10.1-13.7,5.9-21.2c-1.4-2.5-3.4-4.5-5.9-5.9v-40
						c0-7.3-5.9-13.1-13.1-13.1h-42.8v-72.1C141.4-47.5,138-51,133.7-51L133.7-51z M189.7,95.7c-0.2,0-0.3-0.1-0.3-0.3
						s0.1-0.3,0.3-0.3l0,0c0.2,0,0.3,0.1,0.3,0.3S189.9,95.7,189.7,95.7z"/>
					<path class="st2" d="M86.5,220.6c-4.9,0-9.4-2.6-11.8-6.9l-23.6-0.1l-43.4-0.3c-3.2,0-5.7-2.6-5.7-5.8L2.7,98.1V-34.1
						c0-3.2,2.6-5.8,5.8-5.8s5.8,2.6,5.8,5.8V98.2l-0.7,103.7l37.7,0.3l22.6,0.1c2.7-7,10.5-10.5,17.5-7.9c7,2.7,10.5,10.5,7.9,17.5
						C97.2,217.1,92.1,220.6,86.5,220.6L86.5,220.6z M86.5,204.8c-1.3,0-2.3,1-2.3,2.3s1,2.3,2.3,2.3s2.3-1,2.3-2.3l0,0
						C88.8,205.8,87.8,204.8,86.5,204.8L86.5,204.8L86.5,204.8z"/>
					<path class="st3" d="M8.5-37.8c2.1,0,3.8,1.7,3.8,3.8V98.2l-0.7,105.7l39.7,0.3l24.1,0.1c1.5-6.2,7.8-10,14-8.4
						c6.2,1.5,10,7.8,8.4,14c-1.5,6.2-7.8,10-14,8.4c-3.5-0.9-6.3-3.3-7.8-6.5l-24.8-0.1l-43.5-0.3c-2.1,0-3.7-1.7-3.7-3.8l0,0
						L4.7,98.1V-34.1C4.7-36.1,6.4-37.8,8.5-37.8 M86.5,211.3c2.4,0,4.3-1.9,4.3-4.3s-1.9-4.3-4.3-4.3s-4.3,1.9-4.3,4.3l0,0
						C82.2,209.4,84.1,211.3,86.5,211.3 M8.5-41.8c-4.3,0-7.7,3.5-7.8,7.8V98.1L0,207.5c0,4.3,3.4,7.8,7.7,7.8l43.5,0.3l22.5,0.1
						c4.8,7.1,14.5,9,21.6,4.2s9-14.5,4.2-21.6s-14.5-9-21.6-4.2c-2.3,1.5-4.1,3.6-5.3,6.1l-21.3-0.1l-35.7-0.3l0.7-101.7V-34.1
						C16.2-38.3,12.8-41.8,8.5-41.8L8.5-41.8z M86.5,207.3c-0.2,0-0.3-0.1-0.3-0.3c0-0.1,0.1-0.3,0.3-0.3c0.2,0,0.3,0.1,0.3,0.3
						C86.7,207.2,86.6,207.3,86.5,207.3z"/>
					<path class="st2" d="M331.3,222.7c-7.5,0-13.6-6.1-13.6-13.6s6.1-13.6,13.6-13.6c5.7,0,10.7,3.5,12.7,8.8l22.6-0.1l37.7-0.3
						l-0.7-103.7V89.5l-38.4,0.3l-23.6,0.1c-3.7,6.5-12,8.8-18.5,5.1c-6.5-3.7-8.8-12-5.1-18.5c3.7-6.5,12-8.8,18.5-5.1
						c2.8,1.6,4.9,4,6,7l22.6-0.1l37.7-0.3L402-25.7V-158c0-3.2,2.6-5.8,5.8-5.8s5.8,2.6,5.8,5.8v122.1c1,1.1,1.5,2.4,1.5,3.9v132.3
						l0.8,109.4c0,3.2-2.5,5.8-5.7,5.8l-43.5,0.3l-23.6,0.1C340.6,220.1,336.1,222.7,331.3,222.7z M331.3,206.9
						c-1.3,0-2.3,1-2.3,2.3s1,2.3,2.3,2.3s2.3-1,2.3-2.3l0,0C333.5,207.9,332.5,206.9,331.3,206.9z M329.8,80.9
						c-1.3,0-2.3,1-2.3,2.3s1,2.3,2.3,2.3s2.3-1,2.3-2.3l0,0C332,81.9,331,80.9,329.8,80.9C329.7,80.9,329.7,80.9,329.8,80.9
						L329.8,80.9z"/>
					<path class="st3" d="M407.8-161.7c2.1,0,3.8,1.7,3.8,3.8v123c0.9,0.7,1.5,1.8,1.5,3v132.3l0.8,109.4c0,2.1-1.7,3.8-3.7,3.8
						l-43.5,0.3l-24.8,0.1c-2.6,5.9-9.4,8.5-15.3,5.9s-8.5-9.4-5.9-15.3c2.6-5.9,9.4-8.5,15.3-5.9c3.3,1.4,5.7,4.3,6.5,7.8l24.1-0.1
						l39.7-0.3l-0.7-105.7V87.5l-40.4,0.3l-24.8,0.1c-2.6,5.9-9.4,8.5-15.3,5.9s-8.5-9.4-5.9-15.3s9.4-8.5,15.3-5.9
						c3.3,1.4,5.7,4.3,6.5,7.8l24.1-0.1l39.7-0.3L404-25.7V-158C404-160,405.7-161.7,407.8-161.7 M329.7,87.4c2.4,0,4.3-1.9,4.3-4.3
						s-1.9-4.3-4.3-4.3s-4.3,1.9-4.3,4.3l0,0C325.4,85.5,327.4,87.4,329.7,87.4 M331.2,213.4c2.4,0,4.3-1.9,4.3-4.3
						s-1.9-4.3-4.3-4.3s-4.3,1.9-4.3,4.3l0,0C326.9,211.5,328.9,213.4,331.2,213.4 M407.8-165.7c-4.3,0-7.7,3.5-7.8,7.8v132.3
						L400.7,76L365,76.2l-21.3,0.1c-3.8-7.7-13.1-11-20.8-7.2c-7.7,3.8-11,13.1-7.2,20.8s13.1,11,20.8,7.2c2.5-1.2,4.6-3,6.1-5.3
						l22.5-0.1l36.4-0.3v8.8l0.7,101.7l-35.7,0.3l-21.3,0.1c-3.8-7.7-13.1-11-20.8-7.2c-7.7,3.8-11,13.1-7.2,20.8s13.1,11,20.8,7.2
						c2.5-1.2,4.6-3,6.1-5.3l22.5-0.1l43.5-0.3c4.3,0,7.7-3.5,7.7-7.8L417,100.3V-32c0-1.6-0.5-3.2-1.5-4.6V-158
						C415.5-162.2,412.1-165.7,407.8-165.7z M329.7,83.4c-0.2,0-0.3-0.1-0.3-0.3s0.1-0.3,0.3-0.3s0.3,0.1,0.3,0.3l0,0
						C330,83.3,329.9,83.4,329.7,83.4z M331.2,209.4c-0.2,0-0.3-0.1-0.3-0.3s0.1-0.3,0.3-0.3s0.3,0.1,0.3,0.3l0,0
						C331.5,209.3,331.4,209.4,331.2,209.4z"/>
				</g>
			</g>
		</g>
	</g>
</g>
</svg>
