<svg id="Layer_1" data-name="Layer 1" xmlns="http://www.w3.org/2000/svg" viewBox="0 0 102.7 102.7"><defs><style>.cls-1{fill:#d40e8c;}.cls-2{fill:#fff;}</style></defs><title>iconspanner</title><g id="Layer_2" data-name="Layer 2"><g id="_1954" data-name=" 1954"><circle class="cls-1" cx="51.35" cy="51.35" r="48.65"/><path class="cls-2" d="M51.35,5.41a46,46,0,1,1-45.94,46v0A45.94,45.94,0,0,1,51.35,5.41h0m0-5.41A51.35,51.35,0,1,0,102.7,51.35,51.35,51.35,0,0,0,51.35,0Z" transform="translate(0)"/><path class="cls-2" d="M62.52,34.19l1.91.52c.07,0,.14.07.24.11l-.25.28-3.85,3.84a2.12,2.12,0,0,0-.22,3,2.09,2.09,0,0,0,2.83.36,3.07,3.07,0,0,0,.47-.41L67.4,38.1a3.92,3.92,0,0,0,.25-.32,5.82,5.82,0,0,1,.66,2.92,6.29,6.29,0,0,1-5.16,6.06,5.64,5.64,0,0,1-3.1-.18.4.4,0,0,0-.49.12L46.92,59.33a.4.4,0,0,0-.12.49,6.37,6.37,0,0,1-4.11,8q-.34.11-.69.18a6.07,6.07,0,0,1-3.93-.52l.26-.28c1.28-1.28,2.57-2.56,3.84-3.84a2.12,2.12,0,0,0,.23-3h0A2.09,2.09,0,0,0,39.55,60a4.19,4.19,0,0,0-.45.39l-3.75,3.75a2.8,2.8,0,0,0-.25.35,5.63,5.63,0,0,1-.63-2A6.35,6.35,0,0,1,40,55.4h.1a6,6,0,0,1,2.68.28.34.34,0,0,0,.4-.1q6.34-6.36,12.71-12.7a.37.37,0,0,0,.09-.44,6.35,6.35,0,0,1,4.12-8,5.93,5.93,0,0,1,1.09-.25l.18-.06Z" transform="translate(0)"/><path class="cls-2" d="M68.36,65.28a3.87,3.87,0,0,1-.61,1.52,3.12,3.12,0,0,1-4.34.79,2.79,2.79,0,0,1-.49-.42c-3.47-3.42-6.9-6.88-10.35-10.33v-.07l4.56-4.53a1.49,1.49,0,0,0,.18.3q4.8,4.82,9.62,9.61a4.34,4.34,0,0,1,1.48,2.47Z" transform="translate(0)"/><path class="cls-2" d="M36.66,34.19l4.23,2.19a1.19,1.19,0,0,1,.52.52c.66,1.31,1.34,2.61,2,3.91a2.46,2.46,0,0,0,.41.55c1.65,1.66,3.31,3.33,5,5,.1.1.21.17.28.23l-2.26,2.26-.22-.2-5-5a1.92,1.92,0,0,0-.5-.36l-4-2.09a.64.64,0,0,1-.29-.25c-.78-1.48-1.55-3-2.39-4.6l2.25-2.09Z" transform="translate(0)"/><path class="cls-2" d="M85.36,55.94V46.39H79.59a28.42,28.42,0,0,0-4.91-11.8l4.1-4.1L72,23.74l-4.1,4.09a28.59,28.59,0,0,0-11.8-4.9V17.16H46.58v5.77a28.5,28.5,0,0,0-11.81,4.9l-4.09-4.09-6.75,6.75L28,34.59a28.33,28.33,0,0,0-4.9,11.8H17.34v9.55h5.78A28.46,28.46,0,0,0,28,67.75l-4.09,4.09,6.75,6.75,4.09-4.09a28.5,28.5,0,0,0,11.81,4.9v5.78h9.55V79.4a28.59,28.59,0,0,0,11.8-4.9L72,78.59l6.75-6.75-4.1-4.09a28.52,28.52,0,0,0,4.91-11.81Zm-34,21.48A26.26,26.26,0,1,1,77.61,51.15v0A26.29,26.29,0,0,1,51.35,77.42Z" transform="translate(0)"/></g></g></svg>