<?xml version="1.0" encoding="utf-8"?>
<!-- Generator: Adobe Illustrator 22.1.0, SVG Export Plug-In . SVG Version: 6.00 Build 0)  -->
<svg version="1.1" id="Layer_1" xmlns="http://www.w3.org/2000/svg" xmlns:xlink="http://www.w3.org/1999/xlink" x="0px" y="0px"
	 viewBox="0 0 773.6 649.7" enable-background="new 0 0 773.6 649.7" xml:space="preserve">
<title>Asset 18</title>
<g id="Layer_2_1_">
	<g id="vanguard">
		
			<circle fill="none" stroke="#FFFFFF" stroke-width="5" stroke-linecap="round" stroke-linejoin="round" stroke-dasharray="61.01,61.01,22.63,33.94,11.31,33.94" cx="386.3" cy="313.2" r="285"/>
		<ellipse fill="#FFFFFF" cx="152.3" cy="599.3" rx="17.5" ry="17.7"/>
		<circle fill="#E4E4E4" cx="160.3" cy="596.9" r="3.2"/>
		<circle fill="#E4E4E4" cx="147.7" cy="602.8" r="2"/>
		<circle fill="#E4E4E4" cx="148.5" cy="590.9" r="0.8"/>
		<path fill="#E4E4E4" d="M156.8,582.2c-1.4-0.4-2.9-0.6-4.4-0.6c-9.8,0.1-17.6,8.1-17.6,17.9c0.1,6.2,3.4,11.9,8.7,15.1
			c-3.2-8.3-2.9-14.7-0.9-19.5h0.1c1.6-0.1,2.8-1.4,2.8-3c0,0,0,0,0,0c0-0.5-0.1-1-0.4-1.4C148.2,586.9,152.2,584,156.8,582.2z"/>
		<path fill="#FFFFFF" d="M773.2,306.2l-3.9,2.8c-0.2,0.1-0.3,0.3-0.3,0.5l-1.7,4.5c-0.2,0.5-0.7,0.8-1.2,0.7
			c-0.2-0.1-0.4-0.2-0.6-0.4l-2.9-3.9c-0.1-0.2-0.3-0.3-0.5-0.4l-4.5-1.7c-0.5-0.2-0.8-0.7-0.7-1.2c0.1-0.2,0.2-0.4,0.4-0.6l3.9-2.9
			c0.2-0.1,0.3-0.3,0.4-0.5l1.7-4.5c0.2-0.5,0.8-0.8,1.4-0.6c0.2,0.1,0.3,0.2,0.5,0.4l2.9,3.9c0.1,0.2,0.3,0.3,0.5,0.4l4.5,1.7
			c0.5,0.2,0.8,0.8,0.6,1.4C773.5,305.9,773.3,306,773.2,306.2z"/>
		<path fill="#FFFFFF" d="M654.9,63.4l-4.5,1.6c-0.2,0.1-0.4,0.2-0.5,0.3l-2.9,3.8c-0.3,0.5-0.9,0.6-1.4,0.3
			c-0.2-0.1-0.4-0.3-0.4-0.6l-1.6-4.5c-0.1-0.2-0.2-0.4-0.3-0.5l-3.8-3c-0.5-0.3-0.6-0.9-0.3-1.4c0.1-0.2,0.3-0.4,0.6-0.4l4.5-1.6
			c0.2-0.1,0.3-0.2,0.5-0.3l2.9-3.8c0.3-0.5,0.9-0.6,1.4-0.3c0.2,0.1,0.4,0.3,0.4,0.6l1.7,4.6c0.1,0.2,0.2,0.4,0.3,0.5l3.8,2.9
			c0.5,0.3,0.6,0.9,0.3,1.4C655.3,63.2,655.1,63.4,654.9,63.4z"/>
		<path fill="#FFFFFF" d="M719.2,7.9l-3.8,3c-0.2,0.1-0.3,0.3-0.3,0.5l-1.6,4.6c-0.1,0.5-0.7,0.9-1.2,0.7c-0.2-0.1-0.4-0.2-0.6-0.4
			l-3-3.8c-0.1-0.2-0.3-0.3-0.5-0.3l-4.6-1.6c-0.5-0.1-0.9-0.7-0.7-1.2c0.1-0.2,0.2-0.4,0.4-0.6l3.8-3c0.2-0.1,0.3-0.3,0.3-0.5
			l1.6-4.6c0.1-0.5,0.7-0.9,1.2-0.7c0.2,0.1,0.5,0.2,0.6,0.4l3,3.8c0.1,0.2,0.3,0.3,0.5,0.3l4.6,1.6c0.5,0.1,0.9,0.7,0.7,1.2
			C719.5,7.6,719.4,7.8,719.2,7.9z"/>
		<path fill="#FFFFFF" d="M42.2,371.2l-3.9,2.8c-0.2,0.1-0.3,0.3-0.3,0.5l-1.7,4.5c-0.2,0.5-0.7,0.8-1.2,0.7
			c-0.2-0.1-0.4-0.2-0.6-0.4l-2.9-3.9c-0.1-0.2-0.3-0.3-0.5-0.4l-4.5-1.7c-0.5-0.2-0.8-0.7-0.7-1.2c0.1-0.2,0.2-0.4,0.4-0.6l3.9-2.9
			c0.2-0.1,0.3-0.3,0.4-0.5l1.7-4.5c0.2-0.5,0.8-0.8,1.4-0.6c0.2,0.1,0.3,0.2,0.5,0.4l2.9,3.9c0.1,0.2,0.3,0.3,0.5,0.4l4.5,1.7
			c0.5,0.2,0.8,0.8,0.6,1.4C42.5,370.9,42.3,371,42.2,371.2z"/>
		<path fill="#FFFFFF" d="M80.7,67.4L76.2,69c-0.2,0.1-0.3,0.2-0.5,0.3l-2.9,3.8c-0.3,0.5-0.9,0.6-1.4,0.3c-0.2-0.1-0.4-0.3-0.4-0.6
			l-1.6-4.6c-0.1-0.2-0.2-0.3-0.3-0.5L65.1,65c-0.5-0.3-0.6-0.9-0.3-1.4c0.1-0.2,0.3-0.4,0.6-0.4l4.5-1.6c0.2-0.1,0.4-0.2,0.5-0.3
			l2.9-3.8c0.3-0.5,0.9-0.6,1.4-0.3c0.2,0.1,0.4,0.3,0.4,0.6l1.6,4.5c0.1,0.2,0.2,0.3,0.3,0.5l3.9,2.9c0.5,0.3,0.6,0.9,0.3,1.4
			C81.2,67.2,80.9,67.3,80.7,67.4z"/>
		<path fill="#FFFFFF" d="M145,11.9l-3.8,3c-0.2,0.1-0.3,0.3-0.3,0.5l-1.6,4.6c-0.1,0.5-0.7,0.9-1.2,0.7c-0.2-0.1-0.5-0.2-0.6-0.4
			l-3-3.8c-0.1-0.2-0.3-0.3-0.5-0.3l-4.6-1.6c-0.5-0.1-0.9-0.7-0.7-1.2c0.1-0.2,0.2-0.5,0.4-0.6l3.8-3c0.2-0.1,0.3-0.3,0.3-0.5
			l1.6-4.6c0.1-0.5,0.7-0.9,1.2-0.7c0.2,0.1,0.5,0.2,0.6,0.4l3,3.8c0.1,0.2,0.3,0.3,0.5,0.3l4.6,1.6c0.5,0.1,0.9,0.7,0.7,1.2
			C145.4,11.5,145.2,11.7,145,11.9z"/>
		<path fill="#FFFFFF" d="M747.2,641.2l-3.9,2.8c-0.2,0.1-0.3,0.3-0.3,0.5l-1.7,4.5c-0.2,0.5-0.7,0.8-1.2,0.7
			c-0.2-0.1-0.4-0.2-0.6-0.4l-2.9-3.9c-0.1-0.2-0.3-0.3-0.5-0.3l-4.5-1.7c-0.5-0.2-0.8-0.7-0.7-1.2c0.1-0.2,0.2-0.4,0.4-0.6l3.9-2.9
			c0.2-0.1,0.3-0.3,0.4-0.5l1.7-4.5c0.2-0.5,0.8-0.8,1.4-0.6c0.2,0.1,0.3,0.2,0.5,0.4l2.9,3.9c0.1,0.2,0.3,0.3,0.5,0.4l4.5,1.7
			c0.5,0.2,0.8,0.8,0.6,1.4C747.5,640.9,747.3,641,747.2,641.2z"/>
		<path fill="#FFFFFF" d="M599.9,586.4l-4.5,1.6c-0.2,0.1-0.4,0.2-0.5,0.3l-2.9,3.8c-0.3,0.5-0.9,0.6-1.4,0.3
			c-0.2-0.1-0.4-0.3-0.4-0.6l-1.6-4.5c-0.1-0.2-0.2-0.4-0.3-0.5l-3.8-3c-0.5-0.3-0.6-0.9-0.3-1.4c0.1-0.2,0.3-0.4,0.6-0.4l4.5-1.6
			c0.2-0.1,0.3-0.2,0.5-0.3l2.9-3.8c0.3-0.5,0.9-0.6,1.4-0.3c0.2,0.1,0.4,0.3,0.4,0.6l1.6,4.5c0.1,0.2,0.2,0.4,0.3,0.5l3.8,2.9
			c0.5,0.3,0.6,0.9,0.3,1.4C600.4,586.2,600.1,586.4,599.9,586.4z"/>
		<path fill="#FFFFFF" d="M727.5,471.6l-4.7,0.9c-0.2,0-0.4,0.1-0.5,0.3l-3.5,3.3c-0.4,0.4-1,0.4-1.4,0.1c-0.2-0.2-0.3-0.4-0.3-0.6
			l-0.9-4.7c0-0.2-0.1-0.4-0.3-0.5l-3.3-3.5c-0.4-0.4-0.4-1-0.1-1.4c0.2-0.2,0.4-0.3,0.6-0.3l4.7-0.9c0.2,0,0.4-0.1,0.5-0.3l3.5-3.3
			c0.4-0.4,1-0.4,1.4-0.1c0.2,0.2,0.3,0.4,0.3,0.6l0.9,4.7c0,0.2,0.1,0.4,0.3,0.5l3.3,3.5c0.4,0.4,0.5,1,0.1,1.4
			C727.9,471.5,727.7,471.6,727.5,471.6z"/>
		<path fill="#FFFFFF" d="M64.9,631.2l-2.6,4c-0.1,0.2-0.2,0.4-0.2,0.6v4.8c0,0.6-0.4,1-0.9,1.1c-0.2,0-0.5-0.1-0.7-0.2l-4-2.6
			c-0.2-0.1-0.4-0.2-0.6-0.2H51c-0.6,0-1-0.4-1.1-0.9c0-0.2,0.1-0.5,0.2-0.7l2.6-4c0.1-0.2,0.2-0.4,0.2-0.6v-4.8
			c0-0.6,0.4-1,0.9-1.1c0.2,0,0.5,0.1,0.7,0.2l4,2.6c0.2,0.1,0.4,0.2,0.6,0.2H64c0.6,0,1,0.4,1.1,0.9C65.1,630.8,65,631,64.9,631.2z
			"/>
		<ellipse fill="#FFFFFF" cx="44.3" cy="133.9" rx="44.3" ry="44.8"/>
		<circle fill="#E4E4E4" cx="64.5" cy="127.6" r="8"/>
		<circle fill="#E4E4E4" cx="32.5" cy="142.6" r="5"/>
		<circle fill="#E4E4E4" cx="34.5" cy="112.6" r="2"/>
		<path fill="#E4E4E4" d="M55.5,90.6c-3.7-1-7.4-1.5-11.2-1.5c-24.4,0-44.3,20-44.3,44.8c0,15.8,8.3,30.5,21.9,38.6
			c-8.1-21-7.3-37.1-2.2-49.4H20c4-0.1,7.1-3.5,7-7.5c0-1.3-0.3-2.5-0.9-3.7C34.6,100.9,46.6,94.3,55.5,90.6z"/>
	</g>
</g>
</svg>
